<svg width="710" height="658" viewBox="0 0 710 658" fill="none" xmlns="http://www.w3.org/2000/svg">
<path opacity="0.05" d="M652.982 174.397C656.481 178.813 659.777 183.394 663.023 188C669.524 197.221 673.82 207.47 676.827 218.295C680.04 229.851 683.869 241.185 689.063 252.026C690.899 255.854 692.678 259.708 694.468 263.557C698.426 272.071 701.966 280.741 704.621 289.767C711.485 313.091 710.319 335.96 700.845 358.37C697.375 366.573 692.599 374.061 687.864 381.561C685.089 385.952 682.124 390.232 679.432 394.672C672.646 405.873 667.671 417.74 665.86 430.859C664.508 440.662 663.408 450.457 663.292 460.372C663.213 467.339 663.064 474.323 662.469 481.257C660.509 504.109 651.882 524.129 636.362 541.102C625.276 553.221 612.195 562.639 597.473 569.854C587.482 574.75 577.024 578.401 566.4 581.647C557.129 584.483 547.895 587.443 538.669 590.433C532.453 592.446 526.366 594.803 520.556 597.817C513.551 601.452 507.224 606.041 501.025 610.912C488.577 620.694 476.097 630.423 463.811 640.417C449.874 651.754 434.177 660.053 417.019 665.548C400.941 670.699 384.631 672.436 367.862 669.74C354.836 667.644 342.306 664.018 330.197 658.796C315.947 652.651 303.599 643.865 293.231 632.354C288.873 627.513 284.832 622.381 280.631 617.399C275.441 611.247 270.057 605.268 264.16 599.781C259.379 595.328 254.375 591.156 248.826 587.65C243.553 584.322 237.933 581.696 232.293 579.108C225.961 576.205 219.498 573.584 213.22 570.566C206 567.097 199.268 562.805 193.259 557.455C183.512 548.776 175.043 538.973 167.579 528.28C162.707 521.297 158.77 513.776 154.862 506.238C151.422 499.598 147.799 493.057 143.453 486.954C138.085 479.412 131.613 473.033 123.198 468.968C117.33 466.136 111.329 463.56 105.292 461.108C99.7215 458.847 94.0353 456.849 88.374 454.819C77.8206 451.036 67.1721 447.518 56.8626 443.085C50.8581 440.505 44.928 437.772 39.4983 434.109C31.2565 428.544 24.4042 421.552 18.9787 413.237C3.194 389.041 -2.04136 362.612 2.66054 334.202C5.27409 318.408 11.3944 304.09 21.4847 291.562C25.1031 287.071 28.7174 282.569 33.1133 278.789C42.0333 271.124 51.6314 264.413 62.0484 258.951C70.6913 254.424 79.483 250.19 88.188 245.778C101.541 239.01 112.574 229.508 121.341 217.394C126.696 209.993 131.502 202.244 135.666 194.099C139.595 186.417 142.977 178.507 146.079 170.465C148.891 163.184 152.183 156.13 156.471 149.572C161.822 141.386 168.497 134.402 175.824 127.989C183.562 121.221 191.965 115.333 200.281 109.317C213.117 100.031 225.813 90.5623 236.552 78.7743C240.96 73.9368 245.1 68.9048 248.483 63.2858C250.641 59.7052 252.688 56.0542 254.859 52.4819C260.392 43.3938 267.009 35.1452 274.697 27.8061C286.201 16.8244 299.943 9.59282 315.029 4.98266C332.439 -0.334543 350.018 -0.111266 367.597 4.36659C374.309 6.07422 380.711 8.67079 387.199 11.0276C399.328 15.4269 410.861 21.0914 422.093 27.3802C430.24 31.9408 437.824 37.3572 445.218 43.0424C450.247 46.9083 455.391 50.6089 460.895 53.776C470.58 59.3496 480.708 63.9929 491.075 68.1275C498.324 71.0177 505.392 74.2468 511.992 78.4807C521.143 84.352 529.393 91.3851 537.871 98.1329C544.909 103.74 551.96 109.33 559.126 114.771C566.181 120.129 574.225 123.809 582.086 127.77C588.479 130.991 594.951 134.055 601.278 137.404C607.324 140.6 613.262 144.011 619.184 147.439C623.898 150.168 628.518 153.058 631.516 154.873C640.452 161.36 647.321 167.252 652.982 174.401V174.397ZM251.485 62.9468C248.139 68.5782 244.219 73.7713 239.885 78.6792C228.426 91.6497 214.672 101.916 200.728 111.947C192.242 118.054 183.727 124.111 175.932 131.103C169.398 136.962 163.414 143.313 158.592 150.685C154.378 157.131 151.12 164.06 148.362 171.23C145.248 179.334 141.865 187.318 137.878 195.041C135.058 200.508 132.031 205.854 128.636 210.985C126.643 213.995 124.583 216.968 122.631 220.007C119.857 224.323 116.048 227.681 112.425 231.22C104.882 238.58 96.4959 244.703 86.8977 249.156C81.5548 251.637 76.2864 254.292 71.0676 257.016C65.6213 259.857 60.1585 262.693 54.9066 265.869C47.3679 270.429 40.0814 275.44 33.7005 281.543C17.5478 296.986 7.42033 315.646 4.4801 337.957C0.861661 365.419 6.48574 390.765 22.2249 413.683C27.9648 422.04 35.2265 428.87 43.9686 434.067C49.3735 437.28 55.0844 439.897 60.9401 442.138C69.339 445.351 77.8082 448.378 86.2485 451.483C93.5598 454.174 100.958 456.647 108.153 459.616C114.286 462.146 120.502 464.515 126.304 467.831C134.053 472.264 140.244 478.321 145.388 485.511C149.78 491.655 153.436 498.25 156.909 504.948C160.615 512.089 164.307 519.238 168.873 525.89C176.573 537.12 185.373 547.391 195.67 556.33C201.786 561.643 208.663 565.831 215.983 569.251C222.235 572.17 228.625 574.804 234.91 577.652C242.776 581.217 250.426 585.161 257.216 590.59C264.71 596.581 271.566 603.242 277.823 610.507C283.277 616.837 288.517 623.353 294.021 629.638C304.897 642.054 318.068 651.27 333.348 657.534C344.659 662.169 356.3 665.477 368.383 667.371C384.759 669.934 400.709 668.281 416.415 663.216C432.816 657.923 447.939 650.113 461.296 639.305C474.74 628.426 488.428 617.875 501.951 607.104C510.205 600.53 519.158 595.274 528.938 591.409C533.061 589.779 537.259 588.32 541.477 586.964C550.285 584.127 559.118 581.37 567.959 578.649C580.043 574.936 591.8 570.446 602.891 564.31C615.028 557.595 625.821 549.181 635.118 538.886C649.186 523.298 657.304 505.006 659.789 484.18C660.74 476.233 660.823 468.249 660.893 460.265C660.976 450.61 662.101 441.067 663.308 431.504C665.186 416.574 671.145 403.31 678.998 390.732C683.592 383.368 688.464 376.17 692.831 368.673C705.398 347.111 709.558 324.052 704.53 299.484C702.578 289.941 699.455 280.774 695.539 271.876C693.037 266.195 690.407 260.568 687.757 254.953C682.848 244.558 678.684 233.891 675.64 222.798C674.953 220.292 674.118 217.828 673.394 215.335C670.632 205.812 666.34 197.03 660.736 188.873C655.096 180.661 649.103 172.743 641.689 166.008C636.507 161.303 630.891 157.168 624.899 153.587C617.666 149.266 610.359 145.057 602.965 141.022C597.354 137.958 591.535 135.271 585.845 132.352C578.352 128.502 570.598 125.128 563.497 120.564C559.184 117.789 554.958 114.845 550.926 111.686C542.498 105.079 534.26 98.2321 525.874 91.5712C518.128 85.4146 510.226 79.4442 501.219 75.202C496.124 72.7997 490.876 70.72 485.682 68.5369C475.679 64.3402 465.841 59.792 456.66 53.9869C451.578 50.7743 446.74 47.1647 441.914 43.5717C435.707 38.9491 429.442 34.4175 422.73 30.5557C411.515 24.0973 399.961 18.3294 387.799 13.8474C382.274 11.8132 376.79 9.63003 371.162 7.92241C353.55 2.57627 335.734 1.68731 317.911 6.68614C301.291 11.3459 286.429 19.2928 274.176 31.6638C269.441 36.4435 265.214 41.6656 259.739 49.1411C257.849 52.2958 254.653 57.6172 251.481 62.9509L251.485 62.9468Z" fill="#BEAB9C" stroke="#475B5C" stroke-width="1.4"/>
<path opacity="0.2" d="M217.947 118.906C218.352 118.339 218.766 117.777 219.159 117.202C225.031 108.614 231.217 100.262 238.144 92.4933C243.454 86.5352 248.946 80.7384 254.404 74.9167C263.386 65.3325 273.038 56.4678 283.286 48.2563C293.004 40.4666 303.288 33.5617 314.632 28.3024C327.195 22.4766 340.316 18.8629 354.182 18.2633C367.337 17.6969 380.045 20.1115 392.43 24.4075C395.54 25.4866 398.666 26.541 401.677 27.8517C403.873 28.8068 405.916 30.1299 407.996 31.3413C419.475 38.0354 430.016 46.0402 440.326 54.3798C447.567 60.2387 454.829 66.0851 462.326 71.609C474.637 80.6846 487.502 88.9044 501.393 95.4165C510.796 99.8282 520.217 104.207 529.612 108.643C537.527 112.381 545.219 116.512 552.559 121.312C559.577 125.897 566.198 131 572.715 136.251C579.634 141.824 586.163 147.815 592.308 154.228C603.412 165.826 613.515 178.242 622.836 191.308C628.505 199.251 634.328 207.074 641.039 214.189C646.515 219.994 652.027 225.766 657.465 231.605C671.835 247.027 681.14 265.162 686.078 285.575C691.776 309.151 688.844 331.78 678.076 353.388C674.858 359.842 671.075 366.019 667.378 372.221C660.157 384.336 655.327 397.289 653.036 411.219C651.179 422.511 650.662 433.89 650.485 445.301C650.361 453.285 650.03 461.261 649.054 469.2C647.582 481.124 645.216 492.817 640.667 504.014C633.803 520.925 623.435 535.206 609.139 546.609C599.694 554.147 589.153 559.741 578.062 564.388C566.065 569.42 553.759 573.576 541.328 577.371C515.837 585.153 492.589 597.197 471.515 613.546C464.414 619.053 457 624.18 449.502 629.138C437.783 636.886 425.41 643.386 411.912 647.582C399.266 651.514 386.455 652.42 373.403 650.133C357.309 647.314 342.256 641.666 328.208 633.38C318.101 627.422 309.235 619.864 300.981 611.561C296.291 606.843 291.689 602.035 286.491 597.859C275.486 589.027 263.75 581.303 251.233 574.779C244.661 571.351 238.045 568.002 231.528 564.479C225.66 561.308 220.176 557.517 215.044 553.262C206.955 546.56 200.004 538.77 193.652 530.426C187.461 522.293 182.226 513.54 177.057 504.746C173.265 498.296 169.22 492.015 164.63 486.098C157.186 476.502 148.961 467.649 139.375 460.153C129.881 452.727 119.393 446.922 108.269 442.378C99.9489 438.98 91.4011 436.147 82.9278 433.125C75.3559 430.425 67.6683 428.076 60.3901 424.554C48.9972 419.038 39.8084 411.07 33.4441 400.176C22.0181 380.606 18.867 359.606 23.6681 337.473C26.3851 324.945 31.637 313.455 38.6671 302.779C42.5708 296.846 46.7476 291.107 51.6521 285.934C59.6499 277.5 68.8552 270.644 78.9206 264.864C87.9274 259.687 96.8391 254.345 105.8 249.094C112.003 245.46 117.665 241.119 123.041 236.359C128.408 231.605 133.048 226.308 136.361 219.92C139.045 214.748 141.679 209.55 144.346 204.369C149.255 194.839 155.437 186.218 162.79 178.424C168.67 172.189 175.035 166.488 181.668 161.079C191.592 152.984 200.43 143.879 207.815 133.394C211.211 128.577 214.647 123.789 218.063 118.988C218.022 118.959 217.984 118.93 217.943 118.901L217.947 118.906ZM203.291 143.242C197.299 150.573 190.418 157.027 183.098 163.027C176.432 168.489 170.014 174.232 164.121 180.537C157.24 187.897 151.426 196.001 146.774 204.94C143.556 211.121 140.393 217.327 137.113 223.472C134.582 228.214 131.038 232.183 127.143 235.851C120.803 241.821 113.993 247.159 106.446 251.542C97.9557 256.471 89.5609 261.569 81.0338 266.431C70.7905 272.277 61.3578 279.133 53.269 287.766C48.9227 292.405 45.1224 297.47 41.5825 302.734C34.4035 313.397 28.9945 324.871 26.1411 337.44C21.5426 357.704 24.0858 377.125 33.5806 395.578C38.3362 404.819 45.0769 412.398 53.8107 418.091C59.4596 421.771 65.5676 424.578 71.9195 426.815C80.1033 429.697 88.2996 432.546 96.5207 435.32C108.881 439.484 120.65 444.9 131.704 451.834C140.451 457.321 148.192 464.027 155.292 471.507C164.584 481.294 172.504 492.089 179.273 503.753C184.331 512.465 189.545 521.082 195.666 529.111C201.286 536.484 207.419 543.393 214.366 549.545C219.746 554.312 225.598 558.451 231.887 561.908C238.38 565.476 245.017 568.784 251.576 572.236C263.374 578.451 274.577 585.575 285.142 593.749C291.594 598.735 297.292 604.474 303.016 610.205C310.43 617.631 318.37 624.424 327.286 629.973C341.532 638.838 356.957 644.701 373.49 647.711C389.597 650.642 405.022 648.289 420.03 642.166C430.872 637.742 441.062 632.102 450.697 625.491C458.319 620.26 465.829 614.852 473.198 609.275C493.271 594.084 515.387 582.945 539.384 575.478C551.55 571.69 563.659 567.746 575.449 562.875C584.484 559.142 593.251 554.904 601.357 549.371C613.089 541.367 622.819 531.419 630.275 519.333C637.537 507.557 642.235 494.781 644.786 481.186C646.908 469.878 647.821 458.466 648.07 446.984C648.202 440.778 648.177 434.555 648.62 428.366C649.777 412.092 652.507 396.14 659.826 381.342C662.547 375.843 665.575 370.476 668.755 365.225C674.222 356.199 679.076 346.925 682.211 336.795C688.054 317.928 687.765 299.087 682.19 280.245C676.926 262.462 668.234 246.601 655.513 233.027C650.013 227.16 644.468 221.33 638.955 215.475C632.033 208.124 626.098 199.987 620.218 191.808C611.042 179.036 601.129 166.868 590.22 155.526C583.843 148.894 577.078 142.68 569.812 137.036C564.61 132.997 559.329 129.044 553.97 125.215C546.108 119.6 537.602 115.077 528.876 110.971C519.534 106.58 510.176 102.21 500.83 97.827C487.117 91.3976 474.43 83.2854 462.152 74.4785C453.7 68.417 445.627 61.8718 437.584 55.2853C427.076 46.6769 416.167 38.6184 404.278 32.007C398.84 28.9846 392.935 26.9834 386.988 25.1724C377.721 22.3484 368.267 20.6863 358.562 20.6119C345.436 20.5085 332.902 23.3325 320.798 28.2569C308.371 33.3136 297.168 40.4128 286.66 48.6781C275.639 57.3526 265.33 66.8045 255.732 77.0254C250.96 82.1028 246.146 87.1471 241.494 92.332C233.31 101.453 225.999 111.248 221.131 118.517C214.283 128.986 209.006 136.28 203.308 143.251L203.291 143.242Z" fill="#BEAB9C" stroke="#475B5C" stroke-width="1.4"/>
<path opacity="0.24" d="M232.802 126.935C234.894 123.686 236.978 120.427 239.079 117.182C245.41 107.387 251.932 97.7321 259.404 88.735C267.973 78.419 277.314 68.9093 287.657 60.367C298.831 51.1343 310.683 42.9641 323.672 36.4561C335.656 30.4526 348.306 27.67 361.684 27.9098C376.621 28.1785 390.607 31.8873 403.625 39.2264C407.826 41.5956 411.875 44.188 415.725 47.0988C423.967 53.3256 432.39 59.3251 440.446 65.7834C447.708 71.6051 454.564 77.9352 461.615 84.0174C468.992 90.3765 477.089 95.6854 485.65 100.304C494.024 104.819 502.7 108.689 511.417 112.476C518.459 115.536 525.345 118.889 531.792 123.086C543.838 130.925 553.846 140.906 562.232 152.504C567.683 160.046 572.815 167.819 578.162 175.435C587.694 189.022 599.066 200.839 612.353 210.82C617.315 214.549 622.137 218.469 626.951 222.393C638.48 231.795 647.247 243.38 653.876 256.644C660.947 270.797 665.074 285.682 665.223 301.588C665.293 309.167 663.991 316.448 661.15 323.482C658.412 330.258 654.972 336.667 651.374 343.005C648.434 348.186 645.394 353.317 643.339 358.936C641.598 363.695 640.535 368.632 639.311 373.544C635.759 387.78 634.175 402.181 634.183 416.834C634.187 428.048 633.931 439.265 633.505 450.47C633.154 459.657 632.033 468.799 629.895 477.755C624.515 500.264 613.089 518.87 594.058 532.465C583.463 540.031 571.731 545.22 559.251 548.673C552.295 550.595 545.244 552.253 538.152 553.568C526.598 555.71 515.854 559.783 505.822 565.861C499.309 569.805 492.977 574.027 487.233 579.021C479.016 586.17 470.816 593.352 462.86 600.782C451.376 611.507 438.473 620.165 424.632 627.438C411.875 634.141 398.344 638.317 383.841 639.243C370.575 640.09 358.686 636.435 347.744 629.158C342.384 625.594 337.864 621.05 333.125 616.763C325.045 609.453 317.001 602.097 308.847 594.874C299.757 586.819 289.778 579.96 279.374 573.737C269.42 567.787 259.284 562.143 249.384 556.107C241.035 551.017 233.38 544.947 226.222 538.27C218.588 531.15 212.046 523.104 206.025 514.611C199.355 505.209 192.813 495.716 185.969 486.442C171.776 467.215 153.866 452.413 132.238 442.196C124.621 438.599 116.867 435.296 109.25 431.694C103.299 428.883 97.3438 426.03 91.6164 422.797C87.4976 420.469 83.7633 417.459 79.8306 414.792C75.4554 411.823 71.5475 408.333 67.9456 404.472C55.4403 391.05 48.3564 375.144 46.6816 356.956C44.7256 335.749 51.3173 316.907 63.7896 300.021C70.8652 290.445 79.4502 282.234 88.9697 275.093C100.222 266.65 111.325 258.042 122.044 248.929C132.809 239.779 143.523 230.596 153.275 220.33C164.659 208.339 176.238 196.539 187.739 184.66C197.18 174.906 206.124 164.714 214.139 153.749C220.569 144.95 226.76 135.974 233.054 127.08C232.979 127.026 232.905 126.977 232.83 126.923L232.802 126.935ZM208.118 165.421C200.558 174.72 192.362 183.448 184.004 192.032C174.15 202.153 164.25 212.23 154.528 222.48C145.525 231.969 135.679 240.511 125.729 248.95C114.617 258.373 103.295 267.523 91.5295 276.135C82.6509 282.635 74.8103 290.301 67.7678 298.748C62.2057 305.417 57.9877 312.922 54.6587 320.918C48.6087 335.435 47.1406 350.415 50.4158 365.804C53.9102 382.252 62.0031 396.091 74.3347 407.478C75.1701 408.251 76.0302 409.012 76.9565 409.677C81.7949 413.146 86.5836 416.69 91.5295 419.997C96.6532 423.425 102.31 425.889 107.889 428.457C116.23 432.298 124.654 435.97 132.958 439.885C154.999 450.276 173.298 465.297 187.784 484.871C194.678 494.186 201.236 503.745 207.948 513.193C213.46 520.95 219.391 528.351 226.251 534.987C233.153 541.664 240.593 547.685 248.698 552.803C256.303 557.604 264.114 562.086 271.905 566.576C283.782 573.419 295.44 580.588 306.018 589.35C311.042 593.509 315.873 597.904 320.74 602.254C326.174 607.108 331.537 612.037 336.95 616.916C339.866 619.541 342.686 622.299 345.779 624.701C357.288 633.645 370.211 637.949 384.937 636.766C399.432 635.6 412.851 631.131 425.513 624.263C438.982 616.961 451.496 608.295 462.661 597.71C470.795 589.999 479.033 582.391 487.816 575.403C496.079 568.829 504.904 563.161 514.399 558.538C518.629 556.479 522.992 554.767 527.553 553.61C532.582 552.332 537.606 551.038 542.726 550.12C554.751 547.961 566.413 544.567 577.496 539.345C587.971 534.408 597.37 527.946 605.364 519.523C613.593 510.853 619.54 500.756 623.808 489.63C625.834 484.35 627.347 478.929 628.377 473.372C630.515 461.811 631.421 450.139 631.545 438.397C631.644 429.271 631.785 420.15 631.884 411.025C632.008 399.766 633.307 388.665 635.928 377.704C637.016 373.16 637.752 368.541 639.079 364.039C640.978 357.613 643.732 351.593 647.028 345.792C651.316 338.246 655.65 330.73 658.896 322.646C661.58 315.969 662.883 309.064 662.812 301.874C662.713 291.905 661.146 282.188 657.941 272.745C652.871 257.798 645.328 244.286 634.477 232.729C629.039 226.937 622.865 221.975 616.62 217.092C611.331 212.957 606.009 208.847 600.906 204.494C591.407 196.394 583.537 186.826 576.098 176.833C570.763 169.659 566.144 162.018 560.934 154.778C552.915 143.631 543.47 133.898 532.073 126.15C524.915 121.287 517.149 117.566 509.225 114.143C500.036 110.169 490.935 106.014 482.172 101.147C474 96.6075 466.354 91.3151 459.27 85.2164C451.777 78.7705 444.499 72.0598 436.77 65.9116C428.644 59.4449 420.1 53.4993 411.734 47.3303C408.157 44.6966 404.411 42.3439 400.478 40.2559C387.906 33.5867 374.504 30.3782 360.295 30.3203C347.901 30.2707 336.177 32.954 325.065 38.4697C312.051 44.9322 300.216 53.123 289.038 62.3558C278.448 71.1047 268.928 80.8791 260.248 91.5177C253.784 99.4397 248.024 107.85 242.458 116.408C239.625 120.766 236.813 125.137 232.934 131.132C225.982 141.919 217.439 153.96 208.113 165.425L208.118 165.421Z" fill="#BEAB9C" stroke="#475B5C" stroke-width="1.4"/>
<path opacity="0.3" d="M295.055 79.5223C305.501 70.7733 317.039 63.9097 329.949 59.4526C347.425 53.4242 365.199 52.9074 383.208 56.5997C392.145 58.4313 400.536 61.7556 408.74 65.6215C410.857 66.618 412.867 67.8418 414.898 69.0161C422.639 73.4981 430.132 78.3646 437.125 83.9588C445.541 90.6859 453.919 97.4586 462.334 104.182C469.844 110.181 478.148 114.659 487.403 117.371C493.966 119.294 500.557 121.163 507 123.441C518.298 127.439 527.913 133.906 535.108 143.676C538.47 148.237 540.989 153.281 543.648 158.255C545.674 162.051 547.651 165.892 549.909 169.551C555.537 178.672 562.931 186.35 570.432 193.908C576.545 200.069 582.888 205.998 588.889 212.262C599.256 223.083 607.787 235.218 614.234 248.792C622.286 265.744 626.016 283.494 624.606 302.291C624.068 309.456 622.823 316.485 621.314 323.489C619.486 331.969 617.613 340.441 615.847 348.934C614.714 354.388 613.837 359.895 612.679 365.34C609.694 379.373 608.519 393.539 609.598 407.849C610.099 414.481 610.789 421.105 611.526 427.716C612.406 435.655 613.391 443.577 613.651 451.569C613.924 459.987 612.923 468.269 610.926 476.431C608.296 487.181 602.564 496.203 595.087 504.183C584.621 515.355 572.231 523.533 557.567 528.172C548.403 531.071 539.045 532.936 529.497 533.949C523.575 534.577 517.649 535.222 511.76 536.119C502.48 537.533 493.689 540.535 485.298 544.752C476.44 549.205 468.074 554.44 460.192 560.443C450.52 567.811 440.897 575.246 431.298 582.709C417.999 593.05 403.186 600.273 386.872 604.408C359.203 611.42 330.747 602.051 312.738 579.943C310.228 576.862 308.069 573.493 305.815 570.21C296.304 556.342 284.539 544.802 270.408 535.66C267.162 533.56 264.023 531.298 260.856 529.082C254.442 524.604 248.615 519.448 243.115 513.899C236.585 507.309 230.841 500.069 225.486 492.519C217.215 480.855 208.266 469.815 197.167 460.661C191.101 455.658 185.084 450.593 178.331 446.525C173.447 443.585 168.488 440.769 163.522 437.97C157.224 434.418 150.756 431.222 144.015 428.584C135.091 425.095 126.395 421.175 118.36 415.858C106.14 407.77 96.7317 397.248 90.0655 384.203C85.3264 374.933 83.3621 365.014 83.8625 354.764C84.5738 340.243 87.9027 326.193 93.1877 312.636C97.8772 300.604 103.977 289.308 111.164 278.586C119.149 266.687 128.351 255.833 139.218 246.477C146.513 240.2 154.031 234.184 161.508 228.123C175.928 216.434 190.071 204.427 203.672 191.791C213.709 182.468 223.145 172.561 231.945 162.067C240.973 151.304 248.52 139.5 255.873 127.576C259.896 121.051 263.738 114.407 268.349 108.262C276.066 97.5785 284.944 87.9695 295.051 79.5058L295.055 79.5223ZM258.627 127.745C250.724 140.53 242.668 153.206 232.913 164.693C220.755 179.015 207.489 192.254 193.222 204.472C180.861 215.057 168.385 225.514 155.913 235.97C151.5 239.671 146.877 243.128 142.465 246.824C135.257 252.861 128.801 259.646 122.846 266.923C112.016 280.158 103.27 294.65 96.6821 310.423C91.149 323.667 87.7125 337.456 86.4802 351.77C85.1941 366.73 89.1847 380.209 97.7242 392.489C104.725 402.561 113.67 410.425 124.166 416.656C130.24 420.261 136.654 423.118 143.213 425.661C151.327 428.808 159.068 432.707 166.661 436.928C172.533 440.195 178.409 443.44 183.922 447.302C199.992 458.561 214.006 471.887 225.242 488.058C230.122 495.078 235.283 501.901 241.06 508.227C248.313 516.165 256.352 523.182 265.26 529.235C271.182 533.258 276.967 537.484 282.728 541.73C291.069 547.878 297.875 555.54 304.029 563.809C306.973 567.77 309.694 571.897 312.606 575.882C317.398 582.444 323.2 587.972 329.995 592.442C347.438 603.916 366.349 607.008 386.537 601.981C402.041 598.119 416.171 591.284 428.85 581.522C438.788 573.873 448.692 566.178 458.666 558.583C466.139 552.894 474.054 547.895 482.387 543.533C492.2 538.397 502.559 535.077 513.489 533.32C520.068 532.262 526.714 531.943 533.305 531.079C544.103 529.657 554.64 527.209 564.684 522.942C575.937 518.158 585.531 511.009 593.797 502.045C598.512 496.935 602.56 491.349 605.376 484.969C606.6 482.199 607.647 479.317 608.416 476.39C610.682 467.756 611.736 458.958 611.157 450.031C610.748 443.709 610.095 437.404 609.491 431.098C608.759 423.466 607.824 415.85 607.225 408.209C606.042 393.192 607.374 378.344 610.578 363.637C611.55 359.184 612.257 354.673 613.176 350.207C614.714 342.703 616.273 335.199 617.911 327.715C619.755 319.297 621.55 310.891 622.203 302.258C623.584 284.053 620.053 266.836 612.336 250.376C605.926 236.706 597.358 224.521 586.928 213.668C580.92 207.412 574.601 201.454 568.456 195.326C560.913 187.801 553.635 180.028 547.961 170.944C545.583 167.136 543.606 163.08 541.394 159.165C538.905 154.757 536.605 150.213 533.773 146.029C527.338 136.531 518.302 130.226 507.67 126.273C501.566 124.003 495.26 122.267 489.02 120.369C483.859 118.798 478.776 117.078 473.959 114.605C468.513 111.81 463.567 108.283 458.803 104.488C450.379 97.7728 442.03 90.963 433.581 84.2813C426.357 78.5631 418.586 73.6345 410.46 69.322C398.034 62.7272 384.892 58.4561 370.782 57.1247C348.811 55.0533 328.647 60.1472 309.971 71.6581C300.195 77.6865 291.635 85.1827 283.741 93.4603C278.398 99.0628 273.526 105.062 268.862 111.264C265.45 116.751 262.03 122.234 258.631 127.729L258.627 127.745Z" fill="#BEAB9C" stroke="#475B5C" stroke-width="1.4"/>
<path opacity="0.4" d="M126.531 392.985C119.782 385.753 113.997 377.872 110.122 368.714C104.891 356.356 102.691 343.654 105.503 330.286C106.871 323.766 108.401 317.312 110.68 311.044C113.881 302.253 118.169 294.013 123.103 286.078C130.1 274.82 138.279 264.487 148.126 255.626C155.888 248.643 164.018 242.052 172.177 235.532C184.794 225.452 197.655 215.681 210.003 205.258C218.724 197.898 226.925 189.976 235.125 182.062C241.878 175.546 248.416 168.815 254.198 161.418C259.387 154.778 264.317 147.935 269.387 141.203C274.531 134.369 279.618 127.489 284.894 120.757C289.079 115.415 293.711 110.454 298.843 105.992C311.543 94.9569 325.859 86.5759 341.363 80.1424C352.35 75.5818 363.768 72.8819 375.657 72.2203C385.11 71.6952 394.316 72.7578 403.356 75.8051C415.373 79.8529 425.914 86.3568 435.777 94.1424C443.944 100.588 451.528 107.692 459.295 114.597C467.28 121.696 476.055 127.48 486.241 130.974C492.229 133.029 498.241 135.039 504.159 137.292C515.924 141.774 525.742 148.902 533.198 159.152C537.333 164.837 540.298 171.134 542.75 177.675C545.322 184.531 548.689 190.96 552.539 197.17C556.281 203.215 560.532 208.867 564.974 214.412C586.837 241.697 598.433 272.632 597.784 307.818C597.478 324.494 595.935 341.061 593.35 357.555C591.7 368.086 591.237 378.732 591.692 389.4C592.019 397.028 593.677 404.467 595 411.955C596.369 419.691 597.978 427.402 598.954 435.191C600.778 449.775 597.705 463.398 590.021 475.972C586.358 481.963 581.891 487.293 576.904 492.184C570.077 498.882 562.352 504.208 553.051 506.903C548.978 508.082 544.863 509.165 540.728 510.108C530.22 512.506 519.811 515.189 509.63 518.828C497.232 523.26 485.769 529.338 475.112 537.016C470.795 540.126 466.469 543.227 462.21 546.41C449.32 556.044 435.57 564.194 420.819 570.664C402.921 578.512 384.321 581.853 364.802 579.86C355.352 578.896 346.366 576.42 338.046 571.834C329.507 567.129 322.232 560.787 316.203 553.191C310.145 545.563 304.55 537.562 298.731 529.743C294.951 524.666 291.246 519.522 287.305 514.573C279.804 505.15 271.785 496.182 263.196 487.731C255.376 480.04 247.213 472.722 238.649 465.875C233.107 461.443 227.508 457.064 221.698 453C210.197 444.953 197.779 438.437 185.253 432.177C171.962 425.537 159.138 418.14 145.355 408.721C139.458 404.946 132.589 399.476 126.539 392.993L126.531 392.985ZM252.68 474.62C268.291 488.359 282.219 503.649 294.778 520.184C301.709 529.309 308.379 538.637 315.091 547.928C320.611 555.569 327.34 561.973 335.106 567.224C343.943 573.195 353.872 576.258 364.442 577.396C383.08 579.397 400.941 576.482 418.156 569.168C433.461 562.664 447.633 554.258 460.961 544.343C469.24 538.182 477.511 531.988 486.46 526.787C491.29 523.98 496.294 521.553 501.459 519.415C514.038 514.205 527.086 510.583 540.368 507.714C544.268 506.87 548.126 505.82 551.964 504.729C561.161 502.107 568.753 496.831 575.49 490.212C579.749 486.023 583.55 481.446 586.841 476.451C595.522 463.274 598.656 448.836 596.299 433.29C594.893 424.02 593.21 414.783 591.353 405.591C588.946 393.671 588.748 381.68 589.649 369.628C590.005 364.894 590.39 360.139 591.179 355.458C592.631 346.829 593.574 338.146 594.281 329.439C595.149 318.763 595.703 308.071 595.228 297.345C594.417 279.149 589.546 262.027 581.896 245.583C576.892 234.829 570.482 224.997 563.042 215.797C560.611 212.795 557.944 209.942 555.839 206.726C550.322 198.303 544.772 189.885 541.204 180.363C539.959 177.043 538.569 173.772 537.072 170.56C530.39 156.229 519.58 146.177 504.994 140.244C499.486 138.003 493.825 136.122 488.172 134.261C478.545 131.094 469.77 126.385 461.958 119.959C457.802 116.54 453.832 112.893 449.825 109.296C442.6 102.821 435.264 96.4909 427.37 90.8305C418.371 84.3804 408.558 79.5925 397.889 76.6527C391.247 74.8211 384.432 74.2132 377.551 74.5192C365.922 75.036 354.687 77.3845 343.873 81.7301C327.931 88.1347 313.25 96.6397 300.27 107.948C294.807 112.707 289.923 118.049 285.531 123.792C278.373 133.157 271.293 142.584 264.383 152.131C255.058 165.019 244.289 176.567 232.905 187.636C215.925 204.141 197.494 218.89 178.789 233.341C168.811 241.048 159.002 248.974 149.681 257.454C140.455 265.847 132.631 275.481 125.968 286.049C121.089 293.785 116.776 301.803 113.509 310.361C109.638 320.5 107.301 330.973 106.656 341.802C106.437 345.481 106.991 349.136 107.703 352.754C110.411 366.543 116.78 378.443 126.068 388.908C132.854 396.557 140.641 402.991 149.251 408.44C156.851 413.249 164.452 418.078 172.235 422.585C178.095 425.975 184.26 428.841 190.261 431.991C203.453 438.909 216.591 445.921 230.696 456.448C236.813 461.203 244.881 467.744 252.688 474.616L252.68 474.62Z" fill="#BEAB9C" stroke="#475B5C" stroke-width="1.4"/>
<path opacity="0.5" d="M149.924 398.48C138.747 389.172 130.559 377.666 125.038 364.24C119.377 350.464 117.512 336.294 120.605 321.608C122.205 314.008 124.537 306.669 128.603 299.996C136.129 287.633 145.016 276.341 155.97 266.852C169.927 254.762 184.802 243.934 200.868 234.73C207.224 231.087 213.179 226.725 219.196 222.516C234.497 211.811 248.983 200.168 261.165 185.874C265.826 180.404 270.135 174.686 273.53 168.356C276.702 162.443 279.651 156.407 282.62 150.386C286.044 143.448 289.675 136.63 294.046 130.23C302.474 117.888 313.172 107.816 325.247 99.1288C332.715 93.7579 340.783 89.6149 349.654 87.0473C366.328 82.2221 382.852 82.6273 399.117 88.6846C409.745 92.6415 419.008 99.0379 427.704 106.166C433.928 111.268 440.049 116.486 446.4 121.431C454.969 128.109 464.24 133.459 474.508 137.073C479.884 138.966 485.26 140.868 490.558 142.965C502.439 147.674 513.344 154.004 522.743 162.77C532.941 172.28 540.542 183.46 544.987 196.744C548.209 206.358 550.247 216.211 550.959 226.299C551.74 237.359 552.117 248.445 552.807 259.513C553.27 266.91 553.808 274.307 554.619 281.671C555.876 293.091 559.3 303.969 563.423 314.645C567.5 325.197 570.473 336.046 572.64 347.152C575.634 362.52 577.264 377.976 576.313 393.646C575.601 405.368 573.927 416.958 571.412 428.427C569.816 435.729 568.22 443.031 565.619 450.068C561.86 460.248 556.529 469.464 548.734 477.088C538.553 487.04 526.846 494.694 513.468 499.684C505.333 502.719 497.145 505.609 489.024 508.677C482.436 511.166 476.109 514.18 470.187 518.063C460.854 524.178 451.131 529.632 441.19 534.705C427.436 541.726 413.227 547.585 398.406 551.947C384.664 555.99 370.711 556.582 356.609 554.494C343.782 552.596 332.021 547.998 321.657 540.113C316.447 536.148 311.865 531.497 307.51 526.622C300.406 518.675 294.133 510.075 287.934 501.429C280.66 491.283 273.162 481.335 264.891 471.961C258.395 464.597 251.361 457.945 243.053 452.64C236.209 448.269 229.199 444.197 221.983 440.492C211.277 434.993 200.496 429.639 189.773 424.173C179.885 419.128 170.25 413.646 161.069 407.357C157.347 404.405 153.568 401.523 149.916 398.484L149.924 398.48ZM190.517 421.824C201.12 427.249 211.789 432.541 222.384 437.982C229.377 441.571 236.176 445.499 242.871 449.63C252.527 455.588 260.549 463.291 267.964 471.804C276.053 481.091 283.348 490.956 290.535 500.921C296.204 508.781 301.928 516.603 308.321 523.905C312.837 529.061 317.621 533.957 323.059 538.149C330.743 544.074 339.369 548.159 348.769 550.442C366.158 554.667 383.419 554.192 400.556 548.817C416.216 543.905 431.22 537.475 445.615 529.64C452.455 525.915 459.311 522.16 465.804 517.881C474.939 511.857 484.777 507.491 495.024 503.873C501 501.764 506.946 499.573 512.876 497.336C525.998 492.387 537.469 484.841 547.415 475.004C554.751 467.748 559.746 458.982 563.315 449.357C566.011 442.084 567.624 434.526 569.258 426.972C571.714 415.618 573.319 404.148 573.96 392.546C574.791 377.513 573.24 362.677 570.32 347.946C568.187 337.175 565.441 326.586 561.479 316.324C557.546 306.136 554.209 295.778 552.609 284.917C551.389 276.627 550.773 268.295 550.376 259.931C549.846 248.854 549.35 237.773 548.585 226.713C547.932 217.265 546.067 208.016 543.197 198.965C538.817 185.143 531.03 173.586 520.374 163.853C511.408 155.662 501.07 149.729 489.855 145.28C483.677 142.828 477.374 140.691 471.146 138.359C463.752 135.588 456.768 131.995 450.42 127.29C444.461 122.878 438.605 118.33 432.77 113.753C430.483 111.959 428.436 109.858 426.183 108.014C418.855 102.007 411.014 96.7721 402.446 92.6787C396.627 89.9002 390.478 88.234 384.122 87.2003C371.331 85.1205 358.859 86.3361 346.635 90.5287C340.358 92.6828 334.506 95.6888 329.047 99.4265C317.63 107.245 307.407 116.358 299.033 127.443C293.971 134.141 289.79 141.373 286.06 148.877C282.818 155.398 279.659 161.968 276.251 168.401C272.443 175.6 267.588 182.091 262.27 188.256C249.876 202.616 235.138 214.251 219.721 225.113C212.058 230.512 204.321 235.759 196.112 240.349C186.866 245.517 178.491 252.033 170.047 258.409C162.86 263.834 155.912 269.548 149.747 276.139C142.977 283.378 136.7 291.044 131.683 299.599C119.699 320.045 118.343 341.343 127.263 363.285C132.738 376.756 141.046 388.176 152.339 397.363C156.169 400.481 160.151 403.412 164.063 406.431C172.512 412.215 181.428 417.173 190.517 421.82V421.824Z" fill="#BEAB9C" stroke="#475B5C" stroke-width="1.4"/>
<path opacity="0.35" d="M183.582 406.439C176.573 400.328 170.427 393.448 165.428 385.588C160.763 378.261 157.141 370.509 155.66 361.847C151.33 336.501 157.724 303.825 181.254 280.456C185.517 276.222 189.975 272.174 194.454 268.163C204.002 259.609 214.188 251.893 225.08 245.112C230.295 241.867 235.427 238.484 240.563 235.115C252.266 227.437 262.017 217.757 269.717 206.081C273.166 200.851 276.305 195.405 279.481 189.997C283.302 183.485 286.536 176.692 289.05 169.551C290.857 164.416 292.784 159.318 294.844 154.278C298.892 144.375 304.508 135.415 312.175 127.931C323.944 116.445 338.116 109.226 354.103 105.679C361.655 104.004 369.379 103.318 377.142 103.342C391.834 103.392 405.295 107.117 416.969 116.445C421.617 120.162 426.476 123.627 431.31 127.104C436.207 130.627 441.372 133.708 446.905 136.147C455.97 140.145 465.328 143.275 474.881 145.851C488.296 149.469 500.181 155.857 510.168 165.561C518.203 173.367 523.479 182.704 525.382 193.863C526.664 201.384 526.544 208.884 525.373 216.38C524.521 221.826 523.599 227.259 522.536 232.667C519.443 248.375 518.753 264.223 519.691 280.162C520.659 296.56 525.233 311.937 533.193 326.293C535.033 329.613 537.143 332.784 539.156 336.009C543.693 343.261 548.072 350.547 551.037 358.667C556.69 374.143 559.3 390.004 557.956 406.443C556.513 424.061 551.389 440.464 541.365 455.175C534.016 465.958 524.736 474.591 512.872 480.223C506.396 483.299 499.709 485.862 492.754 487.673C487.051 489.162 481.361 490.696 475.654 492.18C462.024 495.72 449.32 501.248 437.915 509.604C436.079 510.952 434.209 512.266 432.27 513.461C428.767 515.62 425.157 517.617 421.667 519.796C415.898 523.397 409.86 526.469 403.612 529.115C393.621 533.349 383.229 535.036 372.386 533.953C357.862 532.502 344.749 527.391 332.782 519.122C324.316 513.271 316.55 506.569 308.78 499.854C299.525 491.854 290.667 483.435 281.929 474.877C272.968 466.099 264.122 457.205 254.425 449.213C246.675 442.82 238.45 437.119 229.538 432.484C222.744 428.948 215.772 425.752 208.878 422.395C202.609 419.344 196.356 416.255 190.616 412.22C188.263 410.297 185.861 408.436 183.57 406.443L183.582 406.439ZM294.273 162.241C292.305 167.587 290.411 172.97 288.211 178.226C285.535 184.601 282.078 190.597 278.501 196.505C276.202 200.297 273.915 204.105 271.454 207.789C263.581 219.585 253.705 229.392 241.829 237.157C234.459 241.974 227.016 246.679 219.667 251.529C210.607 257.508 202.204 264.339 194.193 271.645C190.219 275.271 186.146 278.818 182.449 282.713C161.851 304.408 154.209 330.32 157.79 359.767C158.869 368.636 162.533 376.546 167.272 383.996C172.652 392.46 179.368 399.729 187.01 406.208C193.801 411.967 201.517 416.148 209.461 419.989C216.301 423.301 223.215 426.472 229.964 429.966C237.797 434.022 245.166 438.839 252.142 444.272C261.616 451.648 270.205 459.983 278.749 468.373C290.278 479.693 301.849 490.965 314.243 501.351C318.858 505.217 323.452 509.112 328.216 512.783C335.461 518.373 343.136 523.294 351.738 526.601C359.062 529.421 366.646 531.088 374.466 531.691C384.143 532.444 393.418 530.757 402.33 527.031C408.533 524.439 414.484 521.346 420.24 517.852C427.171 513.643 434.073 509.401 440.756 504.799C449.386 498.849 458.852 494.591 468.888 491.668C476.675 489.402 484.549 487.434 492.369 485.267C501.132 482.836 509.622 479.698 517.45 474.996C527.842 468.757 535.927 460.169 541.952 449.754C556.806 424.09 559.457 396.88 551.666 368.475C548.949 358.568 544.892 349.253 539.239 340.652C537.188 337.531 535.199 334.364 533.255 331.172C523.86 315.72 518.509 298.962 517.338 280.927C516.3 264.934 516.954 249.011 519.985 233.229C521.048 227.693 522.02 222.14 522.917 216.575C524.1 209.211 524.277 201.839 523.041 194.438C521.213 183.51 515.986 174.451 508.075 166.876C498.436 157.647 486.997 151.619 474.157 148.158C464.604 145.582 455.238 142.452 446.173 138.462C441.637 136.465 437.27 134.15 433.217 131.297C428.296 127.828 423.441 124.268 418.603 120.683C414.475 117.628 410.431 114.448 405.849 112.083C400.279 109.21 394.332 107.49 388.146 106.58C381.529 105.608 374.908 105.757 368.238 106.166C350.286 107.266 334.287 113.406 320.012 124.223C314.507 128.394 309.934 133.451 304.653 140.856C300.819 146.165 297.284 154.071 294.273 162.241Z" fill="#BEAB9C" stroke="#475B5C" stroke-width="1.4"/>
<path opacity="0.4" d="M232.09 424.856C224.365 419.105 216.674 413.304 208.903 407.61C201.604 402.264 195.017 396.219 189.355 389.132C180.704 378.295 175.101 366.206 174.377 352.239C173.596 337.222 178.149 323.594 186.27 311.132C190.658 304.396 196.299 298.686 202.646 293.791C211.02 287.332 219.457 280.94 228.149 274.924C241.792 265.481 253.594 254.243 263.093 240.644C268.208 233.321 273.315 225.978 278.133 218.457C281.954 212.487 285.569 206.355 288.848 200.07C293.711 190.755 298.272 181.274 302.825 171.801C306.928 163.267 311.563 155.068 317.287 147.51C320.851 142.805 324.581 138.228 329.325 134.643C339.051 127.291 350.142 123.541 362.209 122.656C365.989 122.379 369.814 122.565 373.606 122.731C389.87 123.434 404.828 128.309 418.495 137.107C422.916 139.952 427.229 142.97 431.58 145.926C440.351 151.884 449.482 157.202 459.15 161.584C464.869 164.177 470.502 166.955 475.65 170.577C486.414 178.152 493.796 188.303 498.155 200.665C501.236 209.406 502.666 218.457 502.944 227.702C503.142 234.351 503.291 241.003 503.514 247.656C504.192 267.742 508.452 287.117 515.511 305.868C520.064 317.962 524.977 329.92 529.77 341.923C534.558 353.922 538.189 366.222 539.761 379.085C540.323 383.687 540.604 388.297 540.302 392.932C539.384 406.928 535.1 419.841 527.896 431.835C522.719 440.456 516.615 448.362 509.659 455.622C498.626 467.142 486.154 476.804 472.296 484.685C462.355 490.341 451.859 494.807 441.198 498.879C436.472 500.686 431.667 502.365 426.774 503.651C419.587 505.54 412.532 507.732 405.622 510.473C400.676 512.437 395.652 514.211 390.607 515.902C377.266 520.38 363.946 519.95 350.642 515.608C342.901 513.082 335.983 509.034 329.316 504.486C321.865 499.404 314.971 493.62 308.276 487.6C297.863 478.239 287.649 468.655 277.149 459.397C269.879 452.988 262.435 446.762 254.764 440.845C247.445 435.197 239.732 430.058 232.194 424.691C232.152 424.744 232.111 424.798 232.069 424.856H232.09ZM259.024 441.076C266.074 446.555 272.877 452.364 279.56 458.293C289.985 467.543 300.175 477.056 310.542 486.376C318.23 493.289 326.298 499.731 335.003 505.354C343.877 511.081 353.483 514.736 363.954 516.191C372.87 517.432 381.55 516.352 390.019 513.557C395.49 511.751 400.895 509.72 406.275 507.645C411.722 505.54 417.238 503.696 422.883 502.191C440.988 497.358 458.162 490.196 474.302 480.724C488.379 472.463 500.872 462.155 511.69 449.896C520.13 440.336 527.346 429.938 532.123 418.046C537.399 404.919 539.273 391.357 537.122 377.237C535.261 364.994 531.734 353.276 527.152 341.823C523.385 332.413 519.712 322.965 515.995 313.53C515.718 312.823 515.453 312.108 515.159 311.405C514.022 308.655 512.682 305.976 511.76 303.156C505.636 284.397 501.393 265.274 501 245.44C500.876 239.168 500.71 232.895 500.495 226.627C500.218 218.602 498.903 210.742 496.451 203.088C493.089 192.599 487.37 183.602 479.103 176.304C474.612 172.339 469.484 169.296 464.133 166.625C457.558 163.346 450.912 160.203 444.445 156.726C440.098 154.39 435.967 151.645 431.824 148.953C427.465 146.121 423.226 143.111 418.905 140.221C405.382 131.174 390.545 125.985 374.255 125.187C370.083 124.984 365.861 124.711 361.721 125.104C349.348 126.27 337.926 130.103 328.489 138.546C325.814 140.94 323.428 143.702 321.166 146.501C313.743 155.676 308.106 165.93 303.21 176.626C297.987 188.038 292.359 199.243 286.069 210.109C279.808 220.93 272.761 231.237 265.549 241.429C259.458 250.038 252.593 257.989 244.724 265.051C239.381 269.843 233.488 273.907 227.715 278.137C219.849 283.905 211.984 289.673 204.23 295.589C198.507 299.956 193.578 305.178 189.31 310.954C184.98 316.809 181.97 323.37 179.761 330.3C172.988 351.556 177.603 370.539 191.307 387.665C196.394 394.02 202.154 399.663 208.792 404.464C217.108 410.48 225.221 416.773 233.426 422.946C233.533 422.797 233.645 422.652 233.753 422.503C242.193 428.677 250.77 434.668 259.024 441.081V441.076Z" fill="#BEAB9C" stroke="#475B5C" stroke-width="1.4"/>
<path opacity="0.45" d="M227.173 408.391C223.083 405.319 219.138 401.97 215.54 398.335C209.217 391.943 203.324 385.146 199.321 376.971C197.596 373.449 195.971 369.868 194.433 366.259C192.311 361.28 191.108 356.096 190.508 350.679C188.896 336.109 192.402 322.911 200.421 310.784C205.913 302.477 212.591 295.217 220.138 288.766C229.153 281.059 238.933 274.365 248.664 267.613C255.582 262.813 262.608 258.141 269.287 253.026C282.578 242.843 293.351 230.372 301.377 215.657C305.165 208.715 308.536 201.537 311.98 194.413C315.814 186.487 319.35 178.416 324.027 170.924C327.157 165.909 330.606 161.141 335.023 157.155C341.317 151.478 348.264 146.996 356.725 145.206C362.093 144.073 367.489 143.536 372.969 143.92C389.903 145.107 405.315 150.829 419.739 159.541C425.397 162.961 430.657 166.922 435.826 171.015C441.347 175.393 446.499 180.161 451.218 185.404C462.929 198.42 471.216 213.408 476.65 229.975C479.235 237.86 481.546 245.84 483.726 253.849C488.167 270.169 494.002 285.93 501.669 301.022C505.056 307.683 508.203 314.472 511.255 321.294C516.441 332.875 520.845 344.742 524.215 356.993C526.957 366.953 527.714 377.1 526.944 387.321C525.89 401.325 521.097 414.233 514.452 426.497C510.147 434.444 504.874 441.712 498.898 448.489C489.954 458.632 479.859 467.447 468.239 474.372C453.769 482.993 438.783 490.316 422.088 493.909C406.167 497.336 390.18 498.924 373.945 498.093C365.641 497.667 357.416 496.588 349.352 494.483C337.971 491.515 327.831 486.003 318.258 479.321C308.197 472.305 299.215 463.994 290.071 455.878C285.001 451.379 279.981 446.815 274.762 442.494C266.5 435.659 257.675 429.581 246.369 422.122C241.497 418.657 234.219 413.679 227.177 408.391H227.173ZM270.056 435.771C277.033 440.852 283.417 446.645 289.831 452.401C299.545 461.112 309.106 470.006 319.867 477.477C328.241 483.295 337.032 488.248 346.833 491.254C355.55 493.929 364.52 495.157 373.585 495.653C389.82 496.546 405.857 495.19 421.712 491.444C447.471 485.362 469.926 473.14 489.176 455.117C503.472 441.733 514.096 425.815 520.278 407.13C521.668 402.933 522.821 398.617 523.562 394.263C525.551 382.574 525.212 370.91 522.3 359.379C518.909 345.941 513.935 333.061 508.244 320.455C505.507 314.393 502.703 308.357 499.68 302.436C491.777 286.964 485.806 270.781 481.265 254.027C479.131 246.142 476.836 238.286 474.281 230.525C469.132 214.896 461.387 200.681 450.502 188.244C445.391 182.406 439.726 177.176 433.663 172.359C426.356 166.545 418.681 161.298 410.336 157.06C398.331 150.962 385.689 147.133 372.204 146.285C365.082 145.839 358.131 146.827 351.461 149.295C346.304 151.206 341.846 154.369 337.706 157.97C333.464 161.658 330.027 166.02 326.988 170.734C322.406 177.841 318.899 185.503 315.251 193.094C311.55 200.797 307.94 208.562 303.892 216.083C296.113 230.538 285.667 242.847 272.955 253.237C265.735 259.141 257.948 264.248 250.244 269.474C240.865 275.841 231.568 282.341 222.851 289.61C215.424 295.804 208.812 302.787 203.307 310.763C199.945 315.634 197.233 320.847 195.305 326.458C193.205 332.582 192.427 338.879 192.56 345.345C192.75 354.727 195.384 363.418 199.379 371.82C204.854 383.343 212.686 393.022 222.247 401.337C229.91 408.002 238.313 413.7 246.687 419.422C248.205 420.46 249.685 421.548 251.182 422.614C251.228 422.552 251.273 422.486 251.319 422.424C257.567 426.869 263.853 431.26 270.052 435.771H270.056Z" fill="#BEAB9C" stroke="#475B5C" stroke-width="1.4"/>
<path opacity="0.5" d="M321.997 219.147C324.532 215.352 327.046 211.544 329.602 207.765C333.158 202.509 336.955 197.44 341.338 192.838C348.575 185.235 357.205 179.893 367.333 177.056C369.401 176.477 371.534 175.915 373.66 175.808C381.157 175.427 388.597 175.936 395.925 177.763C406.292 180.347 416.064 184.251 424.682 190.684C430.645 195.137 435.922 200.33 440.74 205.999C447.89 214.417 453.534 223.795 458.154 233.772C461.904 241.876 465.32 250.133 468.786 258.369C473.289 269.074 478.326 279.493 484.628 289.28C486.514 292.207 488.255 295.23 489.996 298.244C496.414 309.345 502.158 320.765 506.248 332.959C511.851 349.687 514.655 366.751 512.451 384.419C512.153 386.804 511.851 389.198 511.409 391.559C507.98 409.851 500.541 426.406 489.888 441.618C483.168 451.215 475.257 459.538 465.643 466.285C457.244 472.181 448.415 477.296 438.709 480.583C429.818 483.593 420.629 485.632 411.259 486.566C382.431 489.452 355.32 483.432 329.544 470.635C322.439 467.108 315.67 462.994 309.008 458.707C301.37 453.786 294.133 448.32 287.719 441.879C282.852 436.987 278.208 431.877 273.555 426.779C268.469 421.205 263.32 415.706 257.514 410.864C252.841 406.969 248.123 403.124 243.524 399.151C240.175 396.256 236.805 393.379 233.881 390.009C231.453 387.21 229.551 384.076 227.69 380.925C216.264 361.579 215.057 341.472 224.117 321.009C231.036 305.38 241.874 292.774 255.947 283.024C263.13 278.046 270.47 273.291 277.612 268.251C290.44 259.2 301.705 248.487 310.956 235.773C314.868 230.398 318.441 224.775 322.167 219.263C322.113 219.226 322.055 219.189 322.001 219.151L321.997 219.147ZM318.713 228.806C309.653 243.071 298.347 255.28 285.06 265.691C277.021 271.993 268.498 277.595 259.95 283.152C249.107 290.198 240.2 299.162 232.988 309.846C227.723 317.64 223.861 326.058 221.946 335.315C218.828 350.366 221.309 364.523 228.687 377.923C232.487 384.828 237.346 390.84 243.417 395.884C248.925 400.457 254.388 405.084 259.859 409.707C265.533 414.503 270.561 419.944 275.569 425.418C280.395 430.698 285.213 436.003 290.308 441.018C296.143 446.766 302.631 451.744 309.537 456.176C316.207 460.456 322.944 464.623 330.028 468.183C354.972 480.715 381.261 486.789 409.249 484.342C419.517 483.444 429.537 481.199 439.259 477.747C449.821 474.001 459.212 468.175 468.099 461.448C474.517 456.594 480.001 450.847 484.856 444.454C494.975 431.137 502.497 416.525 506.955 400.383C508.915 393.279 509.961 386.035 510.503 378.672C511.917 359.404 507.348 341.298 500.148 323.697C495.554 312.467 489.706 301.857 483.218 291.632C476.055 280.349 470.237 268.424 465.242 256.066C461.251 246.192 457.136 236.381 452.041 227.007C446.74 217.262 440.343 208.348 432.419 200.55C416.304 184.689 396.839 177.536 374.367 178.226C371.237 178.321 368.234 179.19 365.29 180.195C355.452 183.564 347.301 189.382 340.573 197.267C335.416 203.312 331.016 209.894 326.649 216.505C325.533 218.196 324.309 219.813 323.134 221.463C323.209 221.517 323.283 221.566 323.358 221.62C321.811 224.018 320.252 226.404 318.722 228.81L318.713 228.806Z" fill="#BEAB9C" stroke="#475B5C" stroke-width="1.4"/>
<path opacity="0.55" d="M331.872 232.428C339.055 222.737 348.033 214.955 358.446 208.91C365 205.102 371.956 202.212 379.565 201.195C393.063 199.384 405.481 202.406 417.019 209.477C425.836 214.877 433.693 221.405 440.64 229.063C447.902 237.067 453.973 245.816 457.69 256.033C459.249 260.317 460.684 264.65 461.983 269.016C463.414 273.821 464.906 278.6 467.086 283.124C472.495 294.366 477.937 305.6 483.404 316.813C486.708 323.59 490.194 330.275 493.399 337.098C497.228 345.251 500.636 353.583 502.517 362.443C504.118 369.981 505.102 377.568 503.919 385.275C501.918 398.345 496.782 410.236 489.64 421.205C482.047 432.869 472.47 442.813 461.346 451.211C453.509 457.127 445.578 462.891 436.397 466.695C426.386 470.842 416.101 473.488 405.179 473.178C399.266 473.013 393.443 472.149 387.67 470.925C375.897 468.423 364.148 465.806 352.354 463.4C335.788 460.026 320.81 453.22 307.473 442.871C300.919 437.785 294.542 432.468 288.108 427.221C278.133 419.084 268.688 410.364 259.611 401.247C255.769 397.39 251.936 393.515 248.313 389.459C243.595 384.179 239.778 378.283 237.437 371.54C235.775 366.743 234.489 361.922 234.898 356.692C235.638 347.19 238.686 338.516 243.479 330.379C248.065 322.593 254.069 316.002 260.938 310.21C267.96 304.289 275.135 298.558 282.202 292.695C297.478 280.018 310.807 265.617 321.906 246.891C324.532 243.063 328.026 237.617 331.872 232.428ZM308.106 270.633C301.729 278.224 294.712 285.17 287.169 291.575C279.349 298.215 271.343 304.636 263.457 311.202C256.993 316.586 251.245 322.635 246.709 329.754C240.874 338.913 237.267 348.799 237.28 359.793C237.28 361.174 237.474 362.576 237.755 363.932C239.269 371.25 242.408 377.828 246.862 383.815C250.774 389.071 255.269 393.78 260.008 398.278C265.334 403.339 270.541 408.533 275.937 413.519C279.986 417.257 284.183 420.837 288.43 424.348C295.365 430.078 302.279 435.842 309.409 441.333C322.261 451.236 336.698 457.744 352.627 460.993C364.545 463.425 376.418 466.067 388.315 468.605C389.986 468.961 391.678 469.238 393.356 469.556C408.513 472.438 422.962 470.139 436.939 463.838C445.512 459.972 453.021 454.502 460.44 448.87C470.154 441.498 478.541 432.799 485.587 422.872C492.431 413.229 497.332 402.632 500.338 391.167C502.832 381.657 502.224 372.209 500.123 362.745C498.175 353.963 494.784 345.702 490.976 337.606C487.928 331.131 484.62 324.776 481.481 318.343C475.985 307.076 470.514 295.792 465.068 284.5C462.748 279.692 461.147 274.618 459.617 269.512C458.253 264.968 456.718 260.466 455.073 256.012C451.715 246.908 446.281 239.085 439.904 231.849C433.449 224.527 426.175 218.176 417.954 212.917C413.781 210.246 409.468 207.852 404.774 206.202C392.364 201.84 380.065 201.947 367.837 206.967C358.251 210.899 350.055 216.874 342.587 223.931C336.698 229.497 331.893 235.939 327.551 242.744C325.847 245.415 324.151 248.09 321.604 252.097C318.139 257.724 313.379 264.356 308.106 270.633Z" fill="#BEAB9C" stroke="#475B5C" stroke-width="1.4"/>
<path opacity="0.6" d="M274.155 407.419C268.038 402.139 262.65 396.193 258.184 389.437C253.805 382.81 250.806 375.537 248.826 367.916C246.435 358.725 247.308 349.529 250.248 340.566C253.664 330.138 259.97 321.575 267.906 314.149C273.708 308.72 280.267 304.28 286.887 299.93C300.034 291.297 311.282 280.617 320.95 268.233C326.409 261.242 331.851 254.237 337.558 247.448C343.075 240.882 349.426 235.143 356.444 230.186C365.228 223.984 374.888 220.122 385.727 219.667C392.662 219.378 399.518 220.147 406.275 221.739C410.758 222.793 414.926 224.641 418.814 227.073C428.461 233.109 436.393 240.953 442.712 250.388C448.849 259.551 453.344 269.532 456.83 279.976C459.601 288.274 462.363 296.577 466.225 304.441C468.177 308.414 470.555 312.177 472.532 316.138C476.316 323.733 480.054 331.353 483.619 339.052C487.084 346.536 489.983 354.243 491.989 362.264C494.16 370.939 494.524 379.671 492.758 388.453C491.683 393.812 489.921 398.955 487.742 403.967C485.438 409.259 482.949 414.452 479.872 419.344C473.71 429.147 465.886 437.491 457.099 444.945C450.317 450.697 442.786 455.018 434.102 457.453C422.142 460.81 410.158 461.402 397.988 459.107C391.425 457.87 385.123 455.77 378.878 453.463C365.687 448.584 352.416 443.978 338.786 440.43C327.604 437.52 316.803 433.505 306.468 428.303C298.653 424.371 290.969 420.208 283.753 415.201C280.552 412.612 277.281 410.107 274.163 407.415L274.155 407.419ZM335.044 436.821C351.486 441.369 367.651 446.678 383.634 452.603C390.366 455.096 397.293 456.874 404.451 457.655C414.736 458.776 424.756 457.697 434.693 454.724C443.167 452.189 450.35 447.674 456.888 441.944C463.724 435.957 469.976 429.424 475.228 421.977C479.264 416.255 482.539 410.111 485.194 403.652C486.662 400.084 488.085 396.479 489.189 392.791C492.361 382.185 492.104 371.543 489.144 360.912C487.101 353.565 484.322 346.499 481.22 339.548C477.143 330.407 472.83 321.385 467.764 312.727C463.236 304.991 459.985 296.655 457.061 288.2C454.684 281.315 452.517 274.353 449.448 267.721C445.871 259.993 441.881 252.522 436.418 245.931C431.584 240.097 426.174 234.879 419.885 230.608C414.414 226.891 408.479 224.294 401.908 223.285C399.592 222.93 397.268 222.632 394.94 222.359C380.76 220.693 368.102 224.538 356.709 232.948C349.952 237.939 343.827 243.624 338.447 250.057C333.977 255.399 329.618 260.845 325.429 266.414C314.545 280.877 301.771 293.294 286.495 303.089C279.82 307.368 273.373 311.978 267.757 317.614C258.482 326.917 251.981 337.7 250.352 351.01C249.525 357.774 250.075 364.356 252.221 370.889C254.859 378.919 258.457 386.398 263.721 393.022C269.908 400.816 277.132 407.518 285.328 413.183C300.658 423.664 317.125 431.867 335.04 436.821H335.044Z" fill="#BEAB9C" stroke="#475B5C" stroke-width="1.4"/>
<path opacity="0.65" d="M267.534 386.494C263.196 379.593 260.318 372.101 259.582 363.927C258.188 348.459 262.861 335.191 274.328 324.527C278.518 320.632 283.31 317.511 288.161 314.513C305.927 303.527 320.752 289.482 332.575 272.253C334.51 269.433 336.603 266.716 338.728 264.037C344.634 256.595 351.631 250.484 360.302 246.407C374.557 239.709 389.258 238.468 404.365 242.905C413.086 245.464 420.919 249.83 428.226 255.214C438.155 262.528 445.631 271.723 450.246 283.201C452.591 289.035 454.394 295.03 455.953 301.117C460.213 317.746 462.127 321.918 471.767 336.179C474.107 339.64 476.51 343.071 478.619 346.677C484.644 356.972 487.15 368.057 485.223 379.916C484.504 384.34 483.54 388.776 482.13 393.018C478.392 404.256 472.168 414.014 463.831 422.449C457.169 429.188 449.448 434.398 441.12 438.826C433.482 442.887 425.414 445.558 416.878 446.84C407.851 448.2 398.935 447.964 390.247 444.834C386.674 443.548 383.068 442.328 379.577 440.848C374.45 438.673 369.446 436.197 364.322 434.014C355.832 430.396 346.896 428.279 337.905 426.36C330.226 424.723 322.522 423.164 314.909 421.25C305.389 418.852 296.358 415.222 290.349 410.847C279.696 403.314 273.109 395.342 267.538 386.49L267.534 386.494ZM398.493 243.909C387.071 241.602 375.905 242.665 365.075 246.928C355.038 250.88 346.904 257.388 340.329 265.864C337.417 269.619 334.593 273.448 331.835 277.318C320.868 292.682 307.229 305.177 291.354 315.319C287.036 318.077 282.798 320.984 278.687 324.044C263.862 335.083 257.899 355.351 264.139 373.726C267.021 382.206 271.934 389.438 277.641 396.235C283.65 403.388 290.829 408.999 299.194 413.067C306.063 416.408 313.333 418.633 320.773 420.274C327.823 421.829 334.891 423.313 341.958 424.785C353.425 427.179 364.413 430.929 374.913 436.155C380.074 438.723 385.483 440.72 390.945 442.589C399.382 445.475 407.95 445.777 416.655 444.446C424.938 443.18 432.762 440.58 440.16 436.606C447.728 432.538 454.845 427.882 461.023 421.849C468.992 414.072 475.1 405.075 478.991 394.639C480.629 390.248 481.841 385.717 482.655 381.086C484.727 369.289 482.614 358.237 476.56 347.979C473.926 343.514 470.886 339.284 468.033 334.947C466.85 333.148 465.663 331.35 464.48 329.551C461.714 325.35 459.443 320.885 457.942 316.088C456.181 310.469 454.651 304.776 452.914 299.144C451.384 294.183 449.895 289.196 448.051 284.351C443.804 273.208 436.534 264.347 426.964 257.314C426.352 256.863 425.728 256.429 425.108 255.991C417.023 250.227 408.273 245.89 398.484 243.909H398.493Z" fill="#BEAB9C" stroke="#475B5C" stroke-width="1.4"/>
<path opacity="0.7" d="M334.366 289.056C335.896 286.649 337.397 284.226 338.964 281.845C343.224 275.378 348.608 270.077 355.547 266.571C358.582 265.037 361.841 263.925 365.046 262.747C378.064 257.946 391.281 257.624 404.675 261.006C420.575 265.021 432.022 274.365 438.697 289.37C440.156 292.657 441.198 296.142 442.249 299.595C444.345 306.5 447.418 312.95 451.268 319.011C454.663 324.353 458.315 329.53 461.888 334.76C465.208 339.623 468.81 344.307 471.862 349.331C478.379 360.065 480.294 371.596 476.973 383.847C475.385 389.706 472.884 395.151 469.617 400.249C466.871 404.537 463.542 408.345 460.023 412.013C448.626 423.887 434.743 430.664 418.363 432.12C407.954 433.046 397.761 431.694 387.799 428.514C380.078 426.046 372.365 423.557 364.401 421.932C355.311 420.079 346.102 419.277 336.868 418.711C331.293 418.372 325.76 417.714 320.339 416.342C309.186 413.522 298.942 408.99 290.485 400.895C283.972 394.659 279.605 387.262 277.699 378.464C275.855 369.975 276.099 361.462 277.91 352.998C279.097 347.445 281.718 342.575 285.325 338.188C288.356 334.504 291.676 331.105 295.361 328.103C301.349 323.229 307.457 318.495 313.507 313.69C320.355 308.249 326.302 301.981 330.962 294.546C332.108 292.723 333.249 290.896 334.395 289.072C334.386 289.068 334.378 289.064 334.374 289.06L334.366 289.056ZM330.392 299.57C325.872 306.177 320.082 311.552 313.85 316.489C308.143 321.013 302.379 325.466 296.751 330.08C292.727 333.379 289.104 337.096 285.978 341.289C283.05 345.217 280.991 349.525 280.073 354.33C278.58 362.119 278.336 369.942 279.998 377.74C281.838 386.374 286.156 393.576 292.615 399.596C299.943 406.423 308.673 410.553 318.163 413.282C324.031 414.969 330.044 415.792 336.131 416.255C342.76 416.763 349.398 417.289 355.998 418.074C366.295 419.302 376.224 422.163 386.033 425.426C393.472 427.898 401.052 429.535 408.897 429.879C426.812 430.664 442.485 425.186 455.635 412.939C462.979 406.096 469.067 398.306 472.797 388.834C478.164 375.193 477.064 362.148 469.323 349.728C466.846 345.759 464.009 342.013 461.362 338.147C457.322 332.246 453.174 326.412 449.308 320.396C445.288 314.145 442.137 307.451 439.941 300.306C438.754 296.44 437.501 292.549 435.806 288.886C431.939 280.526 426.075 273.815 418.136 269.027C412.867 265.852 407.115 263.937 401.135 262.651C389.122 260.067 377.328 260.783 365.774 265.021C361.911 266.439 357.983 267.688 354.451 269.9C349.944 272.724 345.99 276.16 342.909 280.501C340.42 284.011 338.112 287.654 335.722 291.239C335.776 291.276 335.83 291.313 335.888 291.35C334.056 294.087 332.253 296.845 330.392 299.562V299.57Z" fill="#BEAB9C" stroke="#475B5C" stroke-width="1.4"/>
<path opacity="0.8" d="M344.406 291.546C346.987 288.002 349.956 284.794 353.206 281.858C361.142 274.697 370.409 271.017 381.149 271.53C390.652 271.984 399.423 274.887 407.396 280.097C415.067 285.108 421.105 291.715 425.815 299.509C428.528 304.003 431.029 308.638 433.42 313.315C436.811 319.955 440.818 326.136 445.875 331.635C449.473 335.551 452.951 339.582 456.545 343.502C461.023 348.389 463.864 354.095 465.324 360.529C468.376 373.979 465.816 386.453 458.563 398.014C456.652 401.057 454.287 403.823 452.078 406.676C448.315 411.534 443.572 415.181 437.915 417.542C429.739 420.957 421.187 422.156 412.404 421.114C407.946 420.585 403.513 419.741 399.129 418.757C388.456 416.359 377.683 414.937 366.733 414.929C364.645 414.929 362.552 414.8 360.464 414.742C349.211 414.432 338.352 412.047 327.757 408.4C318.602 405.249 310.273 400.652 303.408 393.697C296.419 386.614 292.731 378.184 292.623 368.128C292.532 359.367 295.369 351.593 299.897 344.308C305.071 335.989 311.791 329.039 319.234 322.75C325.656 317.321 331.496 311.384 335.858 304.119C336.574 302.924 337.318 301.746 338.41 299.976C340.147 297.537 342.252 294.523 344.414 291.554L344.406 291.546ZM333.435 311.785C329.792 316.701 325.235 320.745 320.615 324.714C314.202 330.221 308.255 336.167 303.474 343.192C301.225 346.5 299.31 349.985 297.768 353.69C295.365 359.441 294.699 365.408 295.224 371.568C295.931 379.871 299.724 386.647 305.526 392.407C312.618 399.448 321.277 403.806 330.668 406.858C341.528 410.389 352.648 412.324 364.09 412.497C369.661 412.58 375.239 412.853 380.793 413.275C387.501 413.783 394.068 415.243 400.643 416.636C404.356 417.422 408.103 418.1 411.862 418.646C418.809 419.654 425.653 418.894 432.369 416.988C438.854 415.144 444.312 411.716 448.89 406.667C454.233 400.771 458.687 394.383 461.391 386.879C464.807 377.398 465.084 367.806 462.181 358.13C460.676 353.123 458.079 348.765 454.564 344.908C450.937 340.93 447.397 336.874 443.766 332.896C438.734 327.377 434.726 321.187 431.348 314.543C429.14 310.197 426.807 305.905 424.347 301.7C420.538 295.192 415.766 289.458 409.807 284.798C400.775 277.736 390.511 273.952 379.027 273.915C369.524 273.886 361.427 277.583 354.463 283.963C348.852 289.106 344.476 295.23 340.411 301.597C338.096 305 335.887 308.485 333.435 311.789V311.785Z" fill="#BEAB9C" stroke="#475B5C" stroke-width="1.4"/>
<path opacity="0.85" d="M311.667 374.827C308.801 367.145 308.9 359.446 311.787 351.78C313.681 346.748 316.352 342.134 319.921 338.14C324.222 333.323 328.75 328.709 333.191 324.024C336.553 320.477 339.729 316.801 342.198 312.538C344.386 308.759 346.561 304.939 349.133 301.424C356.279 291.666 365.877 285.795 377.911 283.988C386.905 282.636 395.321 284.087 403.091 288.913C409.365 292.807 414.315 297.992 417.768 304.509C420.286 309.263 422.668 314.101 424.893 318.996C428.474 326.881 433.337 333.811 439.528 339.872C448.936 349.085 452.136 360.364 450.28 373.223C449.585 378.032 447.98 382.551 445.772 386.876C442.241 393.801 436.927 398.655 429.5 401.14C423.458 403.162 417.329 403.468 411.122 402.157C408.149 401.529 405.196 400.797 402.248 400.049C392.984 397.684 383.605 397.208 374.135 398.316C370.046 398.796 365.968 399.4 361.887 399.954C357.487 400.553 353.074 401.008 348.624 400.805C340.064 400.417 332.215 397.878 325.144 393.02C318.523 388.525 314.4 382.183 311.658 374.84L311.667 374.827ZM345.192 312.199C341.971 318.108 337.529 323.024 332.889 327.82C328.754 332.095 324.627 336.399 320.802 340.948C316.894 345.595 314.127 350.937 312.754 356.924C311.712 361.456 311.675 365.987 312.866 370.473C315.335 379.772 320.227 387.401 328.622 392.433C334.936 396.216 341.826 398.325 349.195 398.353C353.359 398.37 357.536 397.907 361.692 397.51C364.781 397.216 367.846 396.691 370.918 396.249C382.352 394.616 393.654 395.132 404.832 398.163C407.64 398.924 410.489 399.565 413.355 400.078C418.702 401.029 423.958 400.512 429.086 398.721C435.492 396.489 440.185 392.317 443.345 386.326C446.537 380.277 448.44 373.876 448.411 367.042C448.369 356.961 444.929 348.237 437.51 341.192C431.236 335.233 426.472 328.196 422.871 320.328C420.629 315.437 418.256 310.599 415.766 305.832C412.59 299.758 408.016 294.924 402.235 291.224C396.173 287.346 389.569 285.535 382.377 285.96C368.532 286.775 357.78 293.068 349.199 305.381C348.265 306.96 346.644 309.536 345.192 312.203V312.199Z" fill="#BEAB9C" stroke="#475B5C" stroke-width="1.4"/>
<path opacity="0.9" d="M335.482 333.677C341.334 325.895 348.339 319.379 356.697 314.335C363.412 310.279 370.604 307.599 378.432 306.797C389.953 305.619 399.832 308.935 407.714 317.638C410.543 320.76 412.755 324.299 414.778 327.967C417.275 332.503 420.443 336.517 424.148 340.106C427.333 343.191 430.691 346.101 433.78 349.281C442.005 357.749 444.188 367.618 439.904 378.666C437.464 384.955 432.915 389.288 426.485 391.521C420.857 393.477 415.15 393.332 409.418 392.034C407.317 391.558 405.237 390.987 403.141 390.508C398.493 389.454 393.791 388.714 389.014 388.85C384.709 388.974 380.409 389.305 376.104 389.524C368.702 389.896 361.299 390.524 353.88 390.049C346.424 389.569 339.436 387.527 332.968 383.739C323.701 378.306 319.371 368.474 321.848 358.315C322.191 356.905 322.658 355.512 323.188 354.16C325.371 348.574 328.7 343.621 331.955 338.634C333.129 336.98 334.271 335.302 335.49 333.681L335.482 333.677ZM325.537 354.772C324.908 356.351 324.371 357.997 324.023 359.659C322.237 368.16 325.537 375.85 333.15 380.936C339.361 385.087 346.313 387.217 353.698 387.56C359.318 387.82 364.967 387.576 370.6 387.403C374.967 387.266 379.333 386.973 383.688 386.609C390.966 386.001 398.1 386.783 405.171 388.503C407.938 389.177 410.721 389.826 413.525 390.281C417.656 390.95 421.75 390.607 425.716 389.222C431.36 387.254 435.413 383.483 437.592 377.951C441.674 367.589 439.524 358.439 431.72 350.604C428.594 347.466 425.257 344.539 422.085 341.442C418.396 337.84 415.257 333.805 412.751 329.277C410.601 325.395 408.244 321.661 405.142 318.424C399.526 312.557 392.711 309.402 384.602 309.03C376.823 308.674 369.487 310.456 362.565 313.888C353.823 318.221 346.333 324.183 340.13 331.729C338.319 333.929 336.603 336.207 335.242 337.948C331.475 343.749 327.873 348.901 325.537 354.772Z" fill="#BEAB9C" stroke="#475B5C" stroke-width="1.4"/>
<path opacity="0.95" d="M344.874 341.285C352.206 332.643 361.279 326.681 372.175 323.502C379.081 321.484 386.062 320.628 393.204 322.071C397.393 322.919 401.102 324.672 404.27 327.599C406.619 329.77 408.546 332.263 410.274 334.921C412.181 337.853 414.319 340.594 416.903 342.963C419.844 345.659 422.854 348.285 425.757 351.018C432.2 357.075 434.164 364.513 432.266 373.035C431.654 375.785 430.509 378.332 428.449 380.349C424.785 383.938 420.344 385.761 415.245 385.683C412.921 385.646 410.589 385.216 408.289 384.794C406.048 384.385 403.832 383.822 401.636 383.215C392.571 380.701 383.469 381.052 374.313 382.665C371.075 383.235 367.788 383.682 364.504 383.818C355.613 384.182 347.599 381.887 340.945 375.636C334.631 369.698 332.844 361.946 336.305 353.982C337.434 351.386 338.964 348.959 339.874 347.264C341.942 344.783 343.389 343.021 344.866 341.285H344.874ZM338.667 354.586C335.334 362.078 337.037 369.053 343.22 374.453C349.406 379.861 356.684 381.838 364.69 381.387C368.346 381.18 371.973 380.49 375.612 380.027C377.75 379.754 379.884 379.485 382.026 379.237C387.551 378.596 393.03 378.877 398.46 380.06C401.677 380.763 404.861 381.602 408.083 382.276C410.183 382.714 412.317 383.086 414.451 383.264C417.974 383.562 421.217 382.541 424.211 380.705C427.366 378.77 429.19 375.88 429.963 372.336C431.675 364.509 429.682 357.799 423.706 352.366C421.365 350.236 419.004 348.124 416.635 346.027C413.244 343.025 410.382 339.585 407.942 335.777C406.296 333.206 404.39 330.861 402.058 328.864C399.341 326.536 396.223 325.102 392.741 324.424C387.567 323.419 382.419 323.601 377.27 324.692C364.732 327.359 354.356 333.582 346.168 343.451C345.523 344.233 344.824 344.969 344.2 345.767C343.575 346.565 343.017 347.412 342.43 348.235C342.339 348.181 342.244 348.123 342.153 348.07C340.982 350.236 339.663 352.337 338.667 354.578V354.586Z" fill="#BEAB9C" stroke="#475B5C" stroke-width="1.4"/>
<path d="M416.319 351.341C417.974 353.768 419.218 356.39 419.863 359.28C420.455 361.942 420.356 364.555 419.479 367.148C417.291 373.61 411.564 377.956 404.674 377.952C401.531 377.952 398.327 377.576 395.266 376.877C389.138 375.479 383.084 375.55 376.988 376.897C373.82 377.596 370.611 377.919 367.361 377.848C362.357 377.745 357.92 376.166 354.103 372.908C349.38 368.88 347.424 363.786 348.376 357.646C348.615 356.092 349.062 354.55 349.596 353.069C351.183 348.691 354.016 345.131 357.196 341.815C362.088 336.708 367.985 333.496 374.982 332.313C378.919 331.648 382.819 332.04 386.719 332.582C393.492 333.529 399.654 336.068 405.15 339.747C409.579 343.121 413.297 346.9 416.319 351.337V351.341ZM382.439 334.496C377.72 334.108 373.229 334.802 368.862 336.56C363.59 338.685 359.595 342.423 356.059 346.723C354.074 349.137 352.486 351.788 351.518 354.785C348.698 363.542 352.561 371.299 361.253 374.359C363.805 375.256 366.459 375.558 369.114 375.409C371.761 375.26 374.424 374.95 377.017 374.408C383.059 373.151 389.055 372.965 395.089 374.429C398.231 375.19 401.428 375.698 404.683 375.599C410.522 375.417 415.298 371.886 417.188 366.412C417.953 364.192 418.011 361.951 417.486 359.672C416.907 357.171 415.794 354.905 414.392 352.776C411.828 348.881 407.581 344.506 402.611 340.971C397.326 337.349 390.172 335.133 382.439 334.496Z" fill="#BEAB9C" stroke="#475B5C" stroke-width="1.4"/>
<path d="M401.392 347.69C403.985 350.344 406.061 353.358 407.14 356.956C407.967 359.709 407.785 362.347 406.011 364.729C403.898 367.565 401.107 369.368 397.558 369.57C395.565 369.686 393.502 369.488 391.55 369.054C389.404 368.578 387.328 367.731 385.26 366.953C380.438 365.142 375.612 365.155 370.749 366.738C370.087 366.953 369.417 367.16 368.735 367.288C362.036 368.537 356.499 362.616 358.211 356.034C358.794 353.788 359.861 351.779 361.387 350.047C366.01 344.791 371.799 341.455 378.619 339.97C385.285 338.519 391.455 339.652 397.037 343.749C398.497 345.056 400.031 346.288 401.4 347.686L401.392 347.69ZM378.978 342.368C372.246 343.944 366.448 347.144 362.342 352.883C361.515 354.041 360.89 355.434 360.531 356.815C359.327 361.466 363.21 365.651 367.995 364.965C368.677 364.865 369.36 364.671 370.013 364.439C375.376 362.533 380.699 362.748 386.008 364.675C387.973 365.386 389.92 366.18 391.939 366.672C393.576 367.073 395.313 367.234 397.004 367.214C399.225 367.185 401.173 366.254 402.819 364.729C405.043 362.666 405.738 360.222 404.742 357.319C403.65 354.136 401.76 351.461 399.419 349.1C398.22 347.888 396.876 346.821 395.602 345.689C390.557 341.98 384.975 340.963 378.978 342.364V342.368Z" fill="#BEAB9C" stroke="#475B5C" stroke-width="1.4"/>
</svg>
