<svg width="280" height="110" viewBox="0 0 280 110" fill="none" xmlns="http://www.w3.org/2000/svg">
<g clip-path="url(#clip0_301_5833)">
<path fill-rule="evenodd" clip-rule="evenodd" d="M58.125 44.4487H61.0842V36.3917H64.4503V44.4487H67.4621V25.6456H64.4503V33.7046H61.0842V25.6456H58.125V44.4487ZM91.3302 38.4827H88.4783L89.9032 28.973L91.3302 38.4827ZM92.2451 44.4487H95.2306L92.2188 25.6436H87.8852L84.8713 44.4487H87.5917L88.1018 41.0384H91.735L92.2451 44.4487ZM110.355 25.6436L114.095 38.216V44.4487H117.054V38.216L120.797 25.6436H117.969L115.71 34.2138L113.449 25.6436H110.355ZM142.378 38.4827H139.524L140.953 28.973L142.378 38.4827ZM143.293 44.4487H146.28L143.266 25.6436H138.933L135.919 44.4487H138.637L139.149 41.0384H142.783L143.293 44.4487ZM170.956 25.6436H161.805V28.3286H164.902V44.4467H167.859V28.3286H170.956V25.6436ZM144.433 95.1351C143.878 94.5024 143.048 94.1414 141.889 94.1414H138.587V109.286H140.163V103.316H141.644C142.873 103.316 143.783 102.995 144.393 102.359C145.002 101.726 145.294 100.791 145.294 99.5583V97.9823C145.294 96.8023 145.033 95.8183 144.433 95.1351ZM143.238 101.315C142.913 101.654 142.389 101.812 141.644 101.812H140.163V95.6436H141.889C142.584 95.6436 143.039 95.8532 143.313 96.222C143.602 96.6121 143.718 97.1982 143.718 97.9183V99.6184C143.718 100.416 143.565 100.973 143.238 101.315ZM120.589 107.325C120.243 106.889 120.101 106.229 120.101 105.466V94.1414H118.525V105.427C118.525 106.594 118.797 107.628 119.406 108.352C119.964 109.014 120.791 109.412 121.927 109.412C123.065 109.412 123.887 109.014 124.44 108.356C125.048 107.628 125.312 106.594 125.312 105.427V94.1414H123.8V105.466C123.8 106.229 123.655 106.889 123.312 107.325C123.026 107.688 122.585 107.908 121.95 107.908C121.316 107.908 120.874 107.688 120.589 107.325ZM99.2839 95.0808C98.6667 95.7989 98.3774 96.8236 98.3774 98.0037V105.425C98.3774 106.603 98.6667 107.628 99.2839 108.346C99.8587 109.016 100.703 109.41 101.843 109.41C103.001 109.41 103.855 109.016 104.436 108.35C105.062 107.632 105.352 106.605 105.352 105.425V98.0037C105.352 96.8217 105.062 95.795 104.436 95.075C103.855 94.4093 103.001 94.0172 101.843 94.0172C100.703 94.0172 99.8587 94.4112 99.2839 95.0808ZM100.449 107.325C100.104 106.896 99.9532 106.248 99.9532 105.485V97.9416C99.9532 97.1788 100.104 96.5306 100.449 96.1017C100.744 95.7368 101.197 95.5194 101.843 95.5194C102.501 95.5194 102.966 95.7387 103.269 96.1055C103.62 96.5345 103.776 97.1808 103.776 97.9416V105.485C103.776 106.246 103.62 106.893 103.267 107.323C102.966 107.69 102.501 107.908 101.843 107.908C101.197 107.908 100.744 107.692 100.449 107.325ZM84.1396 95.1157C83.5822 94.485 82.7297 94.1414 81.5319 94.1414H78.2088V109.286H79.7865V102.797H80.9746C81.7345 102.797 82.3439 102.914 82.749 103.238C83.1424 103.552 83.3623 104.092 83.3623 104.948V107.228C83.3623 107.634 83.3777 107.978 83.4279 108.282C83.4819 108.602 83.5725 108.876 83.7133 109.126L83.804 109.286H85.5475L85.2351 108.798C85.1078 108.602 85.0326 108.356 84.9921 108.094C84.9477 107.82 84.9381 107.518 84.9381 107.228V104.967C84.9381 104.119 84.7722 103.403 84.4 102.844C84.1666 102.495 83.8561 102.211 83.4607 102.002C83.8368 101.802 84.1415 101.534 84.3749 101.192C84.7548 100.641 84.9381 99.9134 84.9381 98.9974V97.7358C84.9381 96.6315 84.6912 95.7407 84.1396 95.1157ZM82.776 100.88C82.3825 101.192 81.775 101.295 80.9977 101.295H79.7865V95.6436H81.5127C82.1916 95.6436 82.6545 95.8377 82.938 96.1871C83.2331 96.5539 83.3623 97.1089 83.3623 97.8154V99.1837C83.3623 100.049 83.1559 100.579 82.776 100.88ZM64.9758 99.3991V98.0017C64.9758 96.8275 64.7 95.797 64.0886 95.075C63.5254 94.4131 62.6941 94.0192 61.5523 94.0192C60.4086 94.0192 59.5754 94.4131 59.0141 95.075C58.4008 95.797 58.125 96.8275 58.125 98.0017V105.425C58.125 106.6 58.4008 107.63 59.0122 108.352C59.5754 109.016 60.4067 109.41 61.5523 109.41C62.6941 109.41 63.5273 109.016 64.0886 108.352C64.7 107.63 64.9758 106.6 64.9758 105.425V101.169H61.5253V102.673H63.4405V105.485C63.4405 106.239 63.294 106.885 62.9507 107.314C62.6633 107.673 62.2158 107.886 61.5735 107.886C60.9294 107.886 60.4819 107.673 60.1926 107.314C59.8493 106.885 59.7027 106.239 59.7027 105.485V97.9396C59.7027 97.1846 59.8493 96.5325 60.1945 96.0997C60.4838 95.7368 60.9332 95.5194 61.5735 95.5194C62.212 95.5194 62.6594 95.7368 62.9487 96.0997C63.294 96.5325 63.4405 97.1846 63.4405 97.9396V99.3991H64.9758ZM273.31 80.2316H274.489H274.803V68.8293L278.78 80.2316H280.368V65.0894H278.871V75.824L275.083 65.0894H273.31V80.2316ZM254.031 66.0287C253.414 66.7468 253.123 67.7735 253.123 68.9516V76.3713C253.123 77.5494 253.414 78.5742 254.029 79.2923C254.604 79.9618 255.449 80.3558 256.588 80.3558C257.746 80.3558 258.6 79.9618 259.181 79.2962C259.806 78.578 260.097 77.5514 260.097 76.3713V68.9516C260.097 67.7696 259.806 66.743 259.181 66.0229C258.6 65.3572 257.746 64.9632 256.588 64.9632C255.449 64.9632 254.604 65.3592 254.031 66.0287ZM255.196 78.2733C254.849 77.8444 254.698 77.1962 254.698 76.4334V68.8876C254.698 68.1268 254.849 67.4785 255.194 67.0496C255.489 66.6847 255.942 66.4693 256.588 66.4693C257.246 66.4693 257.709 66.6867 258.014 67.0535C258.365 67.4843 258.521 68.1287 258.521 68.8876V76.4334C258.521 77.1942 258.365 77.8405 258.014 78.2675C257.709 78.6363 257.246 78.8536 256.588 78.8536C255.942 78.8536 255.489 78.6382 255.196 78.2733ZM238.31 80.2316H239.573H239.888V65.0894H238.31V80.2316ZM220.967 66.5896V79.9153V80.2316H222.543V66.5896H225.488V65.0894H218.041V66.5896H220.967ZM205.342 70.4674V68.9516C205.342 67.7774 205.067 66.7449 204.455 66.0229C203.892 65.3611 203.061 64.9652 201.919 64.9652C200.775 64.9652 199.942 65.3592 199.381 66.0229C198.769 66.743 198.493 67.7755 198.493 68.9516V76.3713C198.493 77.5455 198.769 78.5761 199.381 79.2981C199.942 79.9599 200.775 80.3539 201.919 80.3539C203.061 80.3539 203.892 79.9599 204.455 79.2981C205.067 78.5742 205.342 77.5436 205.342 76.3713V74.3995H203.807V76.4334C203.807 77.1884 203.66 77.8328 203.317 78.2598C203.028 78.6207 202.58 78.8342 201.938 78.8342C201.296 78.8342 200.846 78.6207 200.557 78.2598C200.216 77.8328 200.069 77.1884 200.069 76.4334V68.8876C200.069 68.1326 200.216 67.4805 200.559 67.0477C200.85 66.6847 201.298 66.4693 201.938 66.4693C202.577 66.4693 203.026 66.6847 203.315 67.0496C203.66 67.4805 203.807 68.1326 203.807 68.8876V70.4674H205.342ZM180.552 78.2714C180.211 77.8347 180.066 77.1729 180.066 76.4121V65.0894H178.491V76.3713C178.491 77.5378 178.763 78.5742 179.372 79.2981C179.929 79.9599 180.757 80.3578 181.895 80.3578C183.033 80.3578 183.854 79.9618 184.406 79.3C185.014 78.5742 185.28 77.5378 185.28 76.3713V65.0894H183.766V76.4121C183.766 77.1729 183.621 77.8347 183.278 78.2714C182.994 78.6363 182.553 78.8536 181.916 78.8536C181.28 78.8536 180.838 78.6363 180.552 78.2714ZM164.23 66.0637C163.672 65.4329 162.824 65.0894 161.624 65.0894H158.303V80.2316H159.879V73.7415H161.067C161.825 73.7415 162.436 73.8599 162.841 74.186C163.233 74.5004 163.454 75.0399 163.454 75.8958V78.1744C163.454 78.5819 163.472 78.9254 163.52 79.2282C163.572 79.5504 163.663 79.824 163.803 80.0725L163.896 80.2316H165.642L165.325 79.7445C165.2 79.5485 165.125 79.3039 165.084 79.0419C165.038 78.7682 165.03 78.4655 165.03 78.1744V75.9152C165.03 75.0652 164.862 74.3509 164.492 73.792C164.259 73.4407 163.948 73.1574 163.551 72.9497C163.929 72.7498 164.232 72.48 164.467 72.1404C164.847 71.5872 165.03 70.8575 165.03 69.9434V68.6799C165.03 67.5775 164.783 66.6867 164.23 66.0637ZM162.868 71.826C162.475 72.1384 161.867 72.2413 161.09 72.2413H159.879V66.5896H161.605C162.286 66.5896 162.747 66.7818 163.028 67.1331C163.325 67.4999 163.454 68.0569 163.454 68.7633V70.1297C163.454 70.9972 163.248 71.5271 162.868 71.826ZM140.956 66.5896V79.9153V80.2316H142.534V66.5896H145.479V65.0894H138.032V66.5896H140.956ZM125.333 69.5338V68.9089C125.333 67.7367 125.063 66.7197 124.461 66.0054C123.908 65.3514 123.084 64.9652 121.946 64.9652C120.822 64.9768 119.991 65.3533 119.429 66.0113C118.845 66.7003 118.567 67.6901 118.567 68.8876C118.567 71.1412 120.035 72.2164 121.446 73.2502L121.449 73.2524L121.453 73.2557C122.638 74.124 123.779 74.9603 123.779 76.4742C123.779 77.2253 123.634 77.858 123.295 78.2714C123.005 78.6266 122.556 78.8342 121.908 78.8342C121.262 78.8342 120.81 78.6266 120.521 78.2714C120.184 77.858 120.037 77.2253 120.037 76.4742V75.3485H118.504V76.414C118.504 77.5863 118.779 78.6033 119.389 79.3156C119.95 79.9715 120.783 80.3578 121.929 80.3578C123.075 80.3578 123.908 79.9715 124.469 79.3136C125.081 78.6033 125.354 77.5844 125.354 76.414C125.354 74.1899 123.902 73.1244 122.494 72.0957C121.298 71.2204 120.141 70.3723 120.141 68.8255C120.141 68.0821 120.284 67.4475 120.617 67.0283C120.899 66.677 121.339 66.4674 121.97 66.4674C122.6 66.4674 123.038 66.6789 123.318 67.0321C123.655 67.4572 123.798 68.0996 123.798 68.8468V69.5338H125.333ZM98.2964 80.2316H99.4748H99.7892V68.8293L103.764 80.2316H105.352V65.0894H103.859V75.824L100.067 65.0894H98.2964V80.2316ZM79.015 66.0268C78.3997 66.7449 78.1085 67.7716 78.1085 68.9516V76.3713C78.1085 77.5494 78.3997 78.5742 79.015 79.2923C79.5897 79.9618 80.4326 80.3558 81.5725 80.3558C82.7297 80.3558 83.586 79.9618 84.1666 79.2962C84.7915 78.5761 85.0827 77.5514 85.0827 76.3713V68.9516C85.0827 67.7696 84.7915 66.743 84.1666 66.0229C83.586 65.3572 82.7297 64.9632 81.5725 64.9632C80.4326 64.9632 79.5897 65.3592 79.015 66.0268ZM80.178 78.2714C79.8327 77.8444 79.6823 77.1962 79.6823 76.4334V68.8876C79.6823 68.1268 79.8327 67.4785 80.178 67.0496C80.4712 66.6847 80.9263 66.4693 81.5725 66.4693C82.2301 66.4693 82.695 66.6867 82.9978 67.0535C83.3488 67.4824 83.505 68.1287 83.505 68.8876V76.4334C83.505 77.1923 83.3488 77.8405 82.9958 78.2695C82.6969 78.6363 82.2301 78.8536 81.5725 78.8536C80.9263 78.8536 80.4731 78.6382 80.178 78.2714ZM64.9758 70.4674V68.9516C64.9758 67.7755 64.7 66.7449 64.0886 66.0229C63.5254 65.3611 62.6941 64.9652 61.5523 64.9652C60.4067 64.9652 59.5754 65.3592 59.0141 66.0229C58.4008 66.7449 58.125 67.7774 58.125 68.9516V76.3713C58.125 77.5455 58.4008 78.5761 59.0122 79.2981C59.5754 79.9599 60.4067 80.3539 61.5523 80.3539C62.6941 80.3539 63.5273 79.9599 64.0886 79.2981C64.7 78.5761 64.9758 77.5436 64.9758 76.3713V74.3995H63.4405V76.4334C63.4405 77.1884 63.294 77.8347 62.9507 78.2598C62.6633 78.6207 62.2139 78.8342 61.5735 78.8342C60.9294 78.8342 60.4819 78.6207 60.1907 78.2598C59.8473 77.8347 59.7027 77.1884 59.7027 76.4334V68.8876C59.7027 68.1326 59.8493 67.4805 60.1945 67.0477C60.4838 66.6847 60.9313 66.4693 61.5735 66.4693C62.212 66.4693 62.6594 66.6847 62.9487 67.0496C63.294 67.4805 63.4405 68.1326 63.4405 68.8876V70.4674H64.9758Z" fill="#CFBEAE"/>
<path fill-rule="evenodd" clip-rule="evenodd" d="M10.2574 68.3823H0V0H10.2574V68.3823ZM10.2574 94.0257H0V73.511H10.2574V94.0257ZM30.7721 68.3823H20.5147V25.6434H30.7721V68.3823ZM30.7721 109.412H20.5147V73.511H30.7721V109.412Z" fill="#BA9875"/>
</g>
<defs>
<clipPath id="clip0_301_5833">
<rect width="280" height="110" fill="white"/>
</clipPath>
</defs>
</svg>
