<svg width="484" height="649" viewBox="0 0 484 649" fill="none" xmlns="http://www.w3.org/2000/svg">
<path opacity="0.05" d="M-157.912 374.683L-157.937 374.534C-160.053 362.065 -160.642 350.782 -161.23 339.518L-161.23 339.518L-160.834 339.525L-161.23 339.518C-161.88 327.006 -162.074 314.521 -161.652 302.071C-161.024 283.522 -159.251 265.195 -154.82 247.426C-152.918 239.78 -150.457 232.355 -147.372 225.232M-157.912 374.683L-147.006 225.413M-157.912 374.683C-156.952 384.037 -153.909 394.147 -150.22 404.1L-149.85 403.985L-150.22 404.1C-144.12 420.545 -136.61 436.293 -126.422 450.573C-110.894 472.331 -91.8269 489.729 -69.3671 502.838C-59.2604 508.735 -48.8002 513.703 -38.2324 518.355C-20.6355 526.102 -3.93124 535.737 11.9814 547.157C25.6292 556.951 38.6007 567.703 51.2048 579.001C55.2529 582.631 59.2857 586.285 63.3194 589.94C71.5511 597.398 79.7867 604.861 88.1649 612.129C114.552 635.018 143.089 654.203 173.292 670.374C196.469 682.783 220.679 691.524 245.695 697.224C253.4 698.979 261.158 700.353 268.965 700.838C286.541 701.933 303.957 701.435 321.085 698.081C329.405 696.449 337.678 694.67 345.811 692.283C372.09 684.573 393.759 669.66 411.054 647.924C423.637 632.111 432.272 613.857 438.058 593.908C444.859 570.462 445.991 546.078 443.809 521.242C442.933 511.263 441.77 501.294 440.607 491.331C440.304 488.737 440.002 486.144 439.704 483.552C437.602 465.22 436.05 446.889 435.551 428.538C434.993 407.997 437.143 388.003 442.432 368.648C447.812 348.964 454.377 329.772 461.162 310.669C461.65 309.294 462.142 307.919 462.633 306.544C466.143 296.723 469.661 286.879 472.2 276.623C478.59 250.807 480.876 224.528 476.11 197.194C473.577 182.663 469.528 168.604 464.534 154.763C460.563 143.769 455.414 133.294 449.439 123.233C437.442 103.038 422.666 85.6998 403.917 72.1681C385.378 58.791 365.565 49.0969 343.985 44.2324C331.887 41.5061 319.687 40.4151 307.527 39.3277C306.915 39.273 306.304 39.2183 305.693 39.1634C300.07 38.659 294.447 38.173 288.826 37.687C278.335 36.7801 267.846 35.8734 257.358 34.8475L257.348 35.2449L257.358 34.8475C248.518 33.9841 239.695 32.726 230.98 30.4664C214.542 26.2035 199.784 17.6773 185.687 7.46275C181.986 4.77946 178.343 2.01405 174.694 -0.75583C172.679 -2.28505 170.663 -3.81564 168.634 -5.33453C157.218 -13.8818 145.382 -21.6168 132.638 -27.6219C114.446 -36.1985 95.7848 -41.5452 76.1749 -41.2658C58.6162 -41.019 41.9349 -37.6858 26.1637 -30.2422C11.1783 -23.1712 0.147867 -11.8767 -7.68864 3.14575L-7.33444 3.35056L-7.68868 3.14581C-11.5817 10.6119 -14.4446 18.5819 -16.7706 26.7977M-157.912 374.683L-85.4951 169.416L-85.7087 169.065C-70.682 160.505 -57.3158 149.883 -47.9774 134.402L-47.6342 134.627L-47.9774 134.402C-41.9151 124.355 -37.0486 113.694 -33.5405 102.249C-29.4672 88.9636 -26.6852 75.2547 -24.1747 61.4433C-24.0976 61.0192 -24.0206 60.595 -23.9436 60.1708C-21.9072 48.9545 -19.8668 37.7164 -16.7706 26.7977M-147.372 225.232L-147.006 225.413M-147.372 225.232C-147.372 225.233 -147.372 225.233 -147.372 225.233L-147.006 225.413M-147.372 225.232C-146.188 222.487 -144.617 219.934 -143.036 217.473L-142.698 217.706C-144.278 220.166 -145.836 222.698 -147.006 225.413M-16.7706 26.7977C-16.7706 26.7976 -16.7706 26.7976 -16.7706 26.7975L-16.3884 26.9319L-16.7706 26.7977ZM478.491 200.324L478.513 200.27C483.041 228.186 480.257 255.137 472.952 281.368C470.553 289.986 467.597 298.395 464.64 306.811C464.098 308.353 463.556 309.894 463.018 311.438C456.331 330.589 449.678 349.766 444.295 369.48C439.009 388.846 436.929 408.859 437.537 429.394C438.103 448.55 439.819 467.673 442.042 486.792C442.235 488.457 442.43 490.121 442.625 491.785C443.844 502.216 445.063 512.643 445.933 523.075C448.959 559.27 444.107 593.425 428.278 624.672C416.242 648.433 399.315 667.184 377.439 680.774C366.596 687.508 354.764 692.116 342.453 695.495C331.473 698.509 320.375 701.095 308.986 702.218C293.993 703.697 278.923 704.242 263.723 702.487C251.311 701.055 239.105 698.052 226.948 694.493C199.862 686.56 174.317 674.326 149.686 659.298C120.195 641.299 92.852 620.046 67.1144 596.238C54.2826 584.363 41.4136 572.494 27.7703 561.655C11.0475 548.376 -6.28759 536.136 -25.2015 526.855L-25.3544 527.212L-25.2016 526.855C-30.5631 524.225 -35.9853 521.734 -41.4022 519.245C-44.5789 517.785 -47.7538 516.326 -50.9136 514.841L-51.06 515.2L-50.9137 514.841C-66.1084 507.699 -80.6042 499.186 -93.8889 488.317C-120.186 466.8 -139.126 439.639 -151.14 407.191C-151.554 406.074 -151.975 404.961 -152.397 403.85C-153.833 400.06 -155.263 396.287 -156.324 392.422C-157.8 387.041 -158.78 381.518 -159.74 376.005C-161.641 365.057 -162.435 354.045 -163.016 343.004C-163.616 331.592 -163.974 320.2 -163.783 308.831C-163.445 288.972 -161.9 269.36 -157.56 250.283L-157.948 250.168L-157.56 250.283C-157.17 248.563 -156.704 246.864 -156.23 245.159L-156.135 244.814C-155.693 243.225 -155.25 241.629 -154.864 240.014L-154.864 240.014C-150.877 223.252 -141.783 210.101 -130.407 198.488C-120.651 188.53 -109.42 180.668 -97.6777 173.493C-94.4843 171.544 -91.2296 169.698 -87.9686 167.849C-87.0593 167.334 -86.1495 166.818 -85.2404 166.3C-77.473 161.878 -70.3359 156.528 -63.6702 150.524C-56.6424 144.198 -51.3755 136.303 -46.6367 128.006L-46.6366 128.006C-39.6866 115.83 -35.2639 102.443 -31.8613 88.5943C-29.3019 78.1933 -27.3487 67.6143 -25.3975 57.0463C-24.9112 54.4128 -24.4251 51.78 -23.9298 49.1507C-21.5984 36.7756 -18.798 24.5838 -14.3327 13.0039L-14.7041 12.8369L-14.3327 13.0038C-11.6222 5.96896 -8.17445 -0.581962 -4.17427 -6.83537L-4.17421 -6.83548C2.75946 -17.6836 12.1245 -25.3776 23.1854 -31.1079C38.3008 -38.9339 54.5623 -42.4399 71.6789 -43.2911C95.0604 -44.4469 117.148 -37.9169 138.637 -26.9352L138.796 -27.2887L138.637 -26.9352C149.455 -21.4088 159.56 -14.5567 169.441 -7.22766C171.83 -5.4542 174.205 -3.64371 176.583 -1.83123C181.145 1.64577 185.716 5.13005 190.415 8.37461C203.54 17.4391 217.295 25.0909 232.547 28.706C241.619 30.8583 250.774 32.1657 259.931 33.0357C269.743 33.9638 279.56 34.8023 289.375 35.6406C294.95 36.1168 300.525 36.5929 306.097 37.0853L307.034 37.1684C319.502 38.2717 331.944 39.3729 344.278 42.1572L344.338 41.7679L344.278 42.1573C366.175 47.0954 386.275 56.9426 405.105 70.5498L405.321 70.2312L405.106 70.5499C424.443 84.5184 439.56 102.521 451.835 123.453C458.012 133.984 463.248 144.971 467.267 156.454L467.64 156.346L467.267 156.454C471.419 168.311 475.313 180.266 477.299 192.649C477.52 194.027 477.732 195.407 477.944 196.788C478.05 197.479 478.157 198.17 478.264 198.861L478.491 200.324Z" fill="#B49C88" stroke="#304040" stroke-width="0.8"/>
<g opacity="0.1">
<mask id="path-2-inside-1_256_34109" fill="white">
<path d="M465.392 207.079C466.68 219.779 466.893 233.394 465.941 246.946C464.813 262.971 460.967 278.12 455.52 292.76C452.046 302.084 447.885 311.024 443.625 319.915C436.831 334.1 430.744 348.661 425.614 363.698C417.025 388.86 412.513 415.099 412.683 442.458C412.742 451.53 413.407 460.652 414.134 469.748C415.552 487.487 417.297 505.218 418.728 522.953C419.837 536.678 420.529 550.408 419.988 564.085C419.305 581.352 416.631 598.096 411.677 614.284C406.354 631.681 397.264 646.272 384.693 658.378C368.956 673.534 350.62 683.848 329.624 689.213C320.874 691.446 312.039 693.341 302.854 693.498C289.93 693.716 277.05 692.696 264.181 689.919C251 687.076 237.938 683.745 225.26 678.418C196.501 666.333 169.247 650.994 143.712 631.89C134.59 625.066 125.56 618.119 116.989 610.492C104.733 599.584 94.1372 587.062 84.5446 573.543C81.1619 568.78 77.7361 564.054 74.272 559.36C66.1907 548.403 56.9711 538.648 46.6947 530.01C38.6493 523.24 29.9234 517.861 20.5676 513.604C4.34245 506.222 -12.3167 500.633 -29.2331 495.951C-41.4358 492.572 -53.4636 488.453 -64.9283 482.428C-80.4329 474.278 -94.9357 464.443 -107.624 451.615C-117.393 441.744 -125.405 430.522 -131.559 417.883C-132.157 416.663 -132.244 415.199 -132.703 413.895C-136.173 404.092 -137.036 394.024 -137.438 383.879C-137.814 374.4 -138.153 364.908 -138.966 355.433C-139.466 349.594 -140.616 343.742 -141.819 337.956C-146.792 314.054 -145.172 290.943 -139.16 268.284C-134.985 252.554 -128.751 237.996 -119.789 224.961C-112.279 214.04 -103.241 204.668 -93.1269 196.511C-86.0823 190.831 -78.6783 185.637 -71.4795 180.155C-66.4538 176.33 -61.3907 172.549 -56.5564 168.472C-45.829 159.412 -37.6112 147.982 -30.2147 135.801C-19.4415 118.05 -11.9316 98.671 -7.08994 77.9036C-4.12209 65.1821 -1.05019 52.4844 2.35225 39.9148C5.55129 28.1017 10.0052 16.8655 16.2687 6.63925C23.5236 -5.19697 32.334 -15.3965 43.8476 -22.7534C56.1834 -30.6395 69.7175 -34.357 84.5568 -33.7362C87.6764 -33.6064 90.8184 -33.7661 93.9101 -33.282C111.167 -30.5608 127.675 -24.9537 143.032 -15.1832C152.528 -9.14165 161.506 -2.24924 170.465 4.67671C185.793 16.5293 202.011 26.5174 219.645 33.5495C234.564 39.4962 249.84 43.2877 265.384 45.67C275.891 47.2803 286.418 47.953 296.936 48.9164C311.525 50.2546 326.125 51.4983 340.613 54.5911C357.159 58.1219 373.007 64.0708 387.624 73.8599C399.159 81.5835 409.214 91.2531 418.442 101.893C433.328 119.063 444.682 138.48 453.497 159.614C458.576 171.787 461.753 184.313 463.868 197.152C464.36 200.137 464.799 203.132 465.411 207.091L465.392 207.079ZM461.386 198.929C459.318 185.606 457.959 179.852 453.213 166.833C443.619 140.516 429.457 117.143 410.303 97.045C398.838 85.0176 386.247 74.7747 371.496 67.9228C360.9 63 350 59.3528 338.78 57.1405C323.911 54.2067 308.952 52.8527 294.002 51.5898C282.606 50.6235 271.219 49.6329 259.853 47.6947C240.127 44.3305 221.03 38.3565 202.742 28.909C189.702 22.1748 177.606 13.7062 165.803 4.66929C158.643 -0.815565 151.427 -6.26502 143.938 -11.1796C125.6 -23.2131 105.954 -30.127 84.8745 -30.917C70.4895 -31.4546 57.3371 -27.9162 45.3929 -20.2536C32.4832 -11.9684 23.033 -0.209978 15.6366 13.5683C10.4422 23.2409 6.75653 33.6923 3.92032 44.506C1.14868 55.0739 -1.50026 65.6873 -3.87972 76.3834C-9.19427 100.241 -18.0721 122.178 -30.7888 142.233C-40.7117 157.88 -53.0824 170.726 -67.7921 181.206C-76.082 187.11 -84.3259 193.122 -92.2193 199.586C-106.315 211.132 -118.048 224.96 -126.407 241.918C-133.415 256.136 -137.731 271.422 -140.311 287.411C-142.604 301.635 -142.803 316.024 -140.266 330.586C-139.387 335.642 -138.46 340.693 -137.623 345.755C-137.017 349.432 -136.259 353.122 -136.022 356.809C-135.422 366.216 -135.078 375.623 -134.634 385.028C-134.281 392.516 -133.99 400.019 -131.791 407.351C-130.563 411.451 -129.48 415.686 -127.613 419.498C-122.63 429.684 -116.001 438.711 -108.328 446.895C-94.64 461.494 -78.6359 472.328 -61.3639 481.038C-50.4999 486.516 -39.1314 490.242 -27.6472 493.406C-10.792 498.048 5.7712 503.73 21.916 511.09C31.2669 515.356 39.9829 520.77 48.0381 527.515C58.5686 536.33 68.0182 546.286 76.2862 557.499C80.4412 563.135 84.5484 568.812 88.622 574.511C99.9329 590.338 113.06 604.222 127.978 616.216C140.533 626.305 153.427 635.825 166.824 644.533C187.154 657.752 208.471 668.608 230.58 677.425C245.201 683.252 260.311 686.637 275.534 688.963C287.953 690.858 300.366 691.312 312.628 689.648C317.251 689.019 321.807 687.963 326.345 686.91C349.133 681.629 368.736 670.462 385.247 653.632C395.748 642.931 403.477 630.245 408.305 615.444C413.995 597.982 416.8 579.797 417.316 561.024C417.68 547.874 416.939 534.683 415.862 521.498C414.407 503.686 412.663 485.875 411.242 468.06C410.544 459.277 409.965 450.464 409.908 441.699C409.737 416.787 413.602 392.753 420.716 369.568C426.207 351.663 433.462 334.613 441.381 317.915C443.731 312.957 446.076 307.994 448.284 302.96C454.275 289.3 459.171 275.158 461.541 260.041C464.701 239.906 464.567 219.502 461.381 198.924L461.386 198.929Z"/>
</mask>
<path d="M465.392 207.079C466.68 219.779 466.893 233.394 465.941 246.946C464.813 262.971 460.967 278.12 455.52 292.76C452.046 302.084 447.885 311.024 443.625 319.915C436.831 334.1 430.744 348.661 425.614 363.698C417.025 388.86 412.513 415.099 412.683 442.458C412.742 451.53 413.407 460.652 414.134 469.748C415.552 487.487 417.297 505.218 418.728 522.953C419.837 536.678 420.529 550.408 419.988 564.085C419.305 581.352 416.631 598.096 411.677 614.284C406.354 631.681 397.264 646.272 384.693 658.378C368.956 673.534 350.62 683.848 329.624 689.213C320.874 691.446 312.039 693.341 302.854 693.498C289.93 693.716 277.05 692.696 264.181 689.919C251 687.076 237.938 683.745 225.26 678.418C196.501 666.333 169.247 650.994 143.712 631.89C134.59 625.066 125.56 618.119 116.989 610.492C104.733 599.584 94.1372 587.062 84.5446 573.543C81.1619 568.78 77.7361 564.054 74.272 559.36C66.1907 548.403 56.9711 538.648 46.6947 530.01C38.6493 523.24 29.9234 517.861 20.5676 513.604C4.34245 506.222 -12.3167 500.633 -29.2331 495.951C-41.4358 492.572 -53.4636 488.453 -64.9283 482.428C-80.4329 474.278 -94.9357 464.443 -107.624 451.615C-117.393 441.744 -125.405 430.522 -131.559 417.883C-132.157 416.663 -132.244 415.199 -132.703 413.895C-136.173 404.092 -137.036 394.024 -137.438 383.879C-137.814 374.4 -138.153 364.908 -138.966 355.433C-139.466 349.594 -140.616 343.742 -141.819 337.956C-146.792 314.054 -145.172 290.943 -139.16 268.284C-134.985 252.554 -128.751 237.996 -119.789 224.961C-112.279 214.04 -103.241 204.668 -93.1269 196.511C-86.0823 190.831 -78.6783 185.637 -71.4795 180.155C-66.4538 176.33 -61.3907 172.549 -56.5564 168.472C-45.829 159.412 -37.6112 147.982 -30.2147 135.801C-19.4415 118.05 -11.9316 98.671 -7.08994 77.9036C-4.12209 65.1821 -1.05019 52.4844 2.35225 39.9148C5.55129 28.1017 10.0052 16.8655 16.2687 6.63925C23.5236 -5.19697 32.334 -15.3965 43.8476 -22.7534C56.1834 -30.6395 69.7175 -34.357 84.5568 -33.7362C87.6764 -33.6064 90.8184 -33.7661 93.9101 -33.282C111.167 -30.5608 127.675 -24.9537 143.032 -15.1832C152.528 -9.14165 161.506 -2.24924 170.465 4.67671C185.793 16.5293 202.011 26.5174 219.645 33.5495C234.564 39.4962 249.84 43.2877 265.384 45.67C275.891 47.2803 286.418 47.953 296.936 48.9164C311.525 50.2546 326.125 51.4983 340.613 54.5911C357.159 58.1219 373.007 64.0708 387.624 73.8599C399.159 81.5835 409.214 91.2531 418.442 101.893C433.328 119.063 444.682 138.48 453.497 159.614C458.576 171.787 461.753 184.313 463.868 197.152C464.36 200.137 464.799 203.132 465.411 207.091L465.392 207.079ZM461.386 198.929C459.318 185.606 457.959 179.852 453.213 166.833C443.619 140.516 429.457 117.143 410.303 97.045C398.838 85.0176 386.247 74.7747 371.496 67.9228C360.9 63 350 59.3528 338.78 57.1405C323.911 54.2067 308.952 52.8527 294.002 51.5898C282.606 50.6235 271.219 49.6329 259.853 47.6947C240.127 44.3305 221.03 38.3565 202.742 28.909C189.702 22.1748 177.606 13.7062 165.803 4.66929C158.643 -0.815565 151.427 -6.26502 143.938 -11.1796C125.6 -23.2131 105.954 -30.127 84.8745 -30.917C70.4895 -31.4546 57.3371 -27.9162 45.3929 -20.2536C32.4832 -11.9684 23.033 -0.209978 15.6366 13.5683C10.4422 23.2409 6.75653 33.6923 3.92032 44.506C1.14868 55.0739 -1.50026 65.6873 -3.87972 76.3834C-9.19427 100.241 -18.0721 122.178 -30.7888 142.233C-40.7117 157.88 -53.0824 170.726 -67.7921 181.206C-76.082 187.11 -84.3259 193.122 -92.2193 199.586C-106.315 211.132 -118.048 224.96 -126.407 241.918C-133.415 256.136 -137.731 271.422 -140.311 287.411C-142.604 301.635 -142.803 316.024 -140.266 330.586C-139.387 335.642 -138.46 340.693 -137.623 345.755C-137.017 349.432 -136.259 353.122 -136.022 356.809C-135.422 366.216 -135.078 375.623 -134.634 385.028C-134.281 392.516 -133.99 400.019 -131.791 407.351C-130.563 411.451 -129.48 415.686 -127.613 419.498C-122.63 429.684 -116.001 438.711 -108.328 446.895C-94.64 461.494 -78.6359 472.328 -61.3639 481.038C-50.4999 486.516 -39.1314 490.242 -27.6472 493.406C-10.792 498.048 5.7712 503.73 21.916 511.09C31.2669 515.356 39.9829 520.77 48.0381 527.515C58.5686 536.33 68.0182 546.286 76.2862 557.499C80.4412 563.135 84.5484 568.812 88.622 574.511C99.9329 590.338 113.06 604.222 127.978 616.216C140.533 626.305 153.427 635.825 166.824 644.533C187.154 657.752 208.471 668.608 230.58 677.425C245.201 683.252 260.311 686.637 275.534 688.963C287.953 690.858 300.366 691.312 312.628 689.648C317.251 689.019 321.807 687.963 326.345 686.91C349.133 681.629 368.736 670.462 385.247 653.632C395.748 642.931 403.477 630.245 408.305 615.444C413.995 597.982 416.8 579.797 417.316 561.024C417.68 547.874 416.939 534.683 415.862 521.498C414.407 503.686 412.663 485.875 411.242 468.06C410.544 459.277 409.965 450.464 409.908 441.699C409.737 416.787 413.602 392.753 420.716 369.568C426.207 351.663 433.462 334.613 441.381 317.915C443.731 312.957 446.076 307.994 448.284 302.96C454.275 289.3 459.171 275.158 461.541 260.041C464.701 239.906 464.567 219.502 461.381 198.924L461.386 198.929Z" fill="#B49C88" stroke="#304040" stroke-width="1.6" mask="url(#path-2-inside-1_256_34109)"/>
</g>
<path opacity="0.12" d="M202.216 653.454L202.035 653.795L202.216 653.454C191.195 646.992 180.318 640.215 169.502 633.337C155.973 624.728 143.3 614.714 131.312 603.756C125.177 598.148 119.237 592.3 113.291 586.446C110.493 583.691 107.694 580.935 104.872 578.202L104.608 578.48L104.872 578.202C89.7998 563.608 75.056 548.676 60.8278 533.136C32.7499 502.468 -0.224616 480.289 -37.6419 466.038C-40.106 465.099 -42.5712 464.168 -45.0356 463.237C-51.4969 460.796 -57.9535 458.357 -64.3755 455.797L-64.4984 456.167L-64.3756 455.797C-69.0012 453.954 -73.5559 451.821 -78.0588 449.589C-85.0248 446.13 -91.2101 441.385 -96.6264 435.473C-97.8806 434.103 -99.1296 432.729 -100.369 431.347C-106.866 424.088 -111.579 415.654 -115.205 406.579L-115.572 406.705L-115.205 406.579C-118.32 398.791 -119.579 390.586 -120.263 382.327C-121.048 372.781 -122.635 363.36 -124.982 354.012C-132.905 322.443 -130.226 292.685 -116.811 264.804C-112.178 255.179 -106.933 245.989 -100.214 237.94C-93.2297 229.574 -86.1569 221.287 -78.9349 213.159L-79.2389 212.882L-78.9348 213.159C-74.0356 207.644 -68.4011 202.951 -62.4101 198.763L-62.4099 198.762C-53.3099 192.391 -44.149 186.105 -34.9868 179.827C-24.9178 172.936 -15.7098 164.976 -7.7981 155.423L-8.11023 155.155L-7.79807 155.423C4.60707 140.44 12.3423 122.773 16.2953 102.984C18.4579 92.1697 19.4247 81.1036 20.3519 70.058L20.3519 70.0578C20.3764 69.7653 20.4008 69.4727 20.4252 69.1802C21.2841 58.8793 22.1408 48.606 24.2417 38.5913L23.8532 38.4826L24.2418 38.5913C27.2305 24.3393 32.0452 11.0595 40.0421 -0.620969C46.9978 -10.7831 55.7512 -18.426 67.109 -22.5782C76.567 -26.032 86.4503 -26.5328 96.6161 -25.2594C112.295 -23.2963 126.571 -16.7843 139.85 -7.21649L140.065 -7.53551L139.85 -7.21637C145.161 -3.39357 150.362 0.65962 155.332 4.97293C170.278 17.9483 186.352 28.902 203.213 38.611L203.391 38.2679L203.213 38.6111C220.625 48.6359 238.842 55.7974 257.771 60.6979C268.337 63.4334 279.017 64.8475 289.69 65.9695C294.259 66.4483 298.822 66.8644 303.382 67.2802C310.357 67.9163 317.326 68.5517 324.297 69.4099C343.843 71.8131 362.786 77.2977 380.803 86.8249L380.967 86.4742L380.803 86.8249C390.678 92.0442 399.846 98.5325 408.429 106.037C421.593 117.551 431.597 131.576 438.848 147.767C446.671 165.235 451.524 183.458 453.402 202.306C455.233 220.675 453.891 238.627 449.985 256.266L450.373 256.379L449.985 256.266C447.154 269.065 442.192 280.757 436.314 292.033C429.788 304.546 422.412 316.481 415.03 328.424C414.686 328.982 414.341 329.539 413.996 330.097L414.337 330.325L413.996 330.097C407.426 340.734 401.129 351.549 395.772 363.021C384.943 386.202 378.862 411.006 377.215 437.35C376.179 453.931 376.547 470.575 378.335 487.276C378.906 492.595 379.531 497.911 380.158 503.224L380.219 503.747C380.825 508.887 381.432 514.024 381.99 519.165C383.624 534.191 384.99 549.205 384.614 564.193C383.915 592.064 376.955 617.616 363.22 640.497C353.896 656.028 341.274 667.751 325.178 675.119C316.876 678.92 309.152 680.964 299.166 681.947L299.166 681.948C284.953 683.476 269.512 681.175 254.161 676.596C236.069 671.197 218.825 663.196 202.216 653.454ZM126.001 -13.4884C111.486 -21.195 96.4285 -24.8107 79.107 -23.3229L79.0766 -23.3255L79.0199 -23.3129C78.5157 -23.2015 77.8882 -23.0802 77.1745 -22.9422C75.2523 -22.5705 72.7046 -22.0779 70.2552 -21.3325L70.3943 -20.9496L70.2551 -21.3325C58.928 -17.884 50.0095 -10.8746 42.9794 -1.154C35.5645 9.09857 30.6769 20.7215 27.5073 33.322C24.7668 44.2258 23.5224 55.4592 22.6058 66.7596L23.0013 66.8201L22.6058 66.7597L22.6051 66.7686C21.644 78.6581 20.6839 90.5333 18.4928 102.147C14.738 122.028 7.24372 139.872 -4.8535 155.126C-12.8407 165.194 -22.2386 173.626 -32.667 180.803C-34.1791 181.843 -35.6916 182.883 -37.2042 183.923C-45.0229 189.299 -52.8424 194.676 -60.6259 200.108L-60.3845 200.442L-60.626 200.109C-68.0234 205.275 -74.7954 211.261 -80.7469 218.204L-80.4387 218.477L-80.7469 218.204C-87.5542 226.147 -94.2726 234.173 -100.883 242.303C-106.913 249.717 -111.445 258.252 -115.569 266.987C-127.938 293.154 -130.687 321.158 -123.748 350.749C-121.109 362.006 -118.904 373.231 -118.079 384.665C-117.681 390.184 -116.529 395.638 -115.037 401.012L-114.655 400.93L-115.036 401.012C-112.195 411.237 -106.76 420.056 -100.415 428.208C-92.9458 437.805 -83.8348 445.231 -72.9464 449.847C-65.9904 452.793 -59.0223 455.738 -51.9883 458.432C-49.4147 459.417 -46.8369 460.38 -44.2609 461.342C-35.8055 464.499 -27.3698 467.649 -19.1721 471.577C11.5746 486.309 39.1063 506.233 62.8148 532.284L63.0986 532.026L62.815 532.284C63.969 533.551 65.1187 534.826 66.2694 536.101C70.1015 540.349 73.9435 544.608 77.9857 548.638C93.8371 564.443 109.808 580.113 125.778 595.781L125.793 595.795C134.966 604.798 144.756 612.974 154.898 620.649C173.635 634.828 193.764 646.303 213.945 657.58L214.118 657.234L213.945 657.58C222.87 662.566 232.183 666.615 241.626 670.169C257.096 675.994 272.817 679.939 289.029 680.203C300.824 680.395 312.114 678.472 322.819 673.817C339.311 666.651 352.007 654.784 361.639 639.193C368.344 628.333 373.088 616.404 376.719 603.907C382.371 584.453 383.573 564.249 382.206 543.609C381.34 530.553 379.947 517.524 378.297 504.514C376.649 491.508 375.306 478.502 374.878 465.475C374.375 450.277 374.88 435.204 376.908 420.326C380.417 394.559 388.407 370.686 400.701 348.78C405.467 340.289 410.475 331.97 415.486 323.647C418.512 318.621 421.539 313.592 424.515 308.523C428.537 301.671 432.546 294.785 436.211 287.687C441.525 277.387 445.678 266.526 448.242 254.855L447.855 254.743L448.242 254.855C452.337 236.209 453.37 217.224 450.937 197.822C449.042 182.688 445.079 167.988 439.3 153.742C432.348 136.604 422.54 121.536 408.968 109.201C401.682 102.578 393.871 96.7971 385.556 91.8511L385.373 92.1911L385.556 91.851C366.789 80.6965 346.745 74.6037 326.018 71.7715C319.212 70.8422 312.375 70.2437 305.548 69.6461C301.549 69.2961 297.554 68.9464 293.571 68.5307C282.83 67.4082 272.115 66.2076 261.5 63.7387C239.922 58.7192 219.284 50.6051 199.692 38.9599L199.509 39.3L199.692 38.9599C188.359 32.2248 177.188 25.2357 166.772 16.9151C163.19 14.0517 159.665 11.1125 156.137 8.16979C154.188 6.54407 152.237 4.91727 150.275 3.30158C142.612 -3.00612 134.678 -8.88029 126.001 -13.4884L125.836 -13.1381L126.001 -13.4884Z" fill="#B49C88" stroke="#304040" stroke-width="0.8"/>
<path opacity="0.13" d="M282.845 645.015C268.417 646.126 253.751 645.017 239.19 641.019C212.466 633.682 187.245 622.043 163.752 605.753L163.961 605.429L163.752 605.753C149.928 596.165 137.602 584.647 126.181 571.969L126.467 571.713L126.181 571.969C114.468 558.963 102.714 545.995 90.8056 533.195C72.1402 513.135 51.0007 496.622 28.1005 482.682C11.9101 472.827 -4.87898 464.38 -21.8259 456.288C-32.4782 451.199 -43.0553 445.897 -53.0267 439.177L-52.8225 438.85L-53.0268 439.176C-62.5638 432.747 -71.4649 425.453 -79.1852 416.563C-88.5711 405.755 -95.6778 393.581 -99.4838 379.592L-99.4839 379.592C-100.464 375.976 -101.064 372.203 -101.331 368.501L-100.935 368.501L-101.331 368.501C-103.643 336.307 -100.195 305.316 -89.0787 276.041C-86.8854 270.265 -84.2984 264.68 -81.7208 259.116C-81.461 258.555 -81.2013 257.994 -80.9421 257.434C-73.7983 241.987 -63.3294 229.636 -50.1162 219.908L-49.8674 220.236L-50.1161 219.908C-44.7804 215.982 -39.169 212.496 -33.3013 209.46C-30.921 208.228 -28.5375 207.005 -26.1547 205.782C-19.8897 202.568 -13.6296 199.355 -7.44563 195.991L-7.23819 196.345L-7.44557 195.991C-2.69368 193.407 1.93515 190.526 6.39705 187.44C21.713 176.844 32.6383 162.437 38.4136 143.701C38.4136 143.701 38.4136 143.701 38.4136 143.701L38.7934 143.843C40.1598 139.402 41.3895 134.889 42.4253 130.324L282.845 645.015ZM282.845 645.015L282.845 645.039L283.321 644.982C296.336 643.448 308.403 639.826 319.393 633.235C333.141 624.993 342.689 613.061 346.805 596.373C348.978 587.57 350.968 578.718 352.382 569.689C353.999 559.378 355.202 548.975 354.99 538.35C354.792 528.526 353.649 518.724 352.431 508.944C352.105 506.323 351.767 503.705 351.428 501.088C349.957 489.701 348.488 478.337 348.004 466.92C347.492 454.885 347.549 442.922 348.848 431.083C351.378 408.061 358.15 386.818 369.175 367.368C378.949 350.124 389.598 333.528 400.575 317.165C405.715 309.504 410.731 301.707 415.338 293.648C428.671 270.333 436.082 244.885 434.431 216.371C434.108 210.82 433.774 205.198 432.367 199.692C430.571 192.67 428.702 185.651 426.591 178.696C422.996 166.854 418.518 155.327 412.93 144.249C403.085 124.726 388.924 109.883 370.149 100.151C360.373 95.0844 350.103 92.1964 339.603 90.4438L339.566 90.8376L339.603 90.4438C327.686 88.4569 315.733 87.435 303.801 86.4149C301.944 86.2561 300.087 86.0974 298.232 85.9351C279.488 84.3006 260.856 81.5763 242.395 76.796L242.364 76.7879C233.72 74.5507 225.099 72.3191 216.789 68.7778C209.076 65.4899 201.518 61.8602 194.795 56.5016C185.995 49.4828 177.396 42.2089 169.565 33.9664C167.865 32.1773 166.129 30.4235 164.396 28.6728C163.737 28.007 163.078 27.3416 162.422 26.675C154.611 18.7376 146.637 10.9797 137.895 4.16132L137.666 4.47034L137.895 4.16126C127.38 -4.03652 115.997 -10.0498 103.346 -12.5965L103.346 -12.5966C86.8305 -15.9154 73.1926 -11.2197 62.8444 2.04085C57.324 9.11299 53.8828 17.3486 51.8511 26.3527C49.9594 34.7247 48.7789 43.2721 48.3291 51.9512L282.845 645.015ZM-103.421 367.16L-103.817 367.155L-103.421 367.16C-104.449 349.555 -104.143 332.097 -101.379 314.931C-98.1855 295.099 -92.2692 276.421 -83.9429 258.658C-76.2245 242.192 -65.5514 228.634 -51.4167 218.209C-44.9527 213.446 -38.0737 209.391 -30.9259 205.797C-29.6511 205.156 -28.3745 204.518 -27.0975 203.879C-18.7229 199.692 -10.3325 195.497 -2.31297 190.578C3.38318 187.089 8.86868 183.298 13.9046 178.79C26.1524 167.828 33.8204 153.718 38.255 137.291C41.7757 124.248 43.5643 110.807 44.2486 97.1264C44.6115 89.8913 44.9081 82.6404 45.2048 75.3919C45.4508 69.378 45.6969 63.3658 45.9805 57.3653C46.4797 46.7983 47.5646 36.35 49.8278 26.1608L49.4402 26.0477L49.8278 26.1608C51.589 18.2248 54.352 10.8073 58.7108 4.24368C64.2787 -4.13913 70.9208 -9.88353 78.6178 -12.9914C86.3137 -16.0987 95.0933 -16.5821 104.96 -14.3939L105.019 -14.7835L104.96 -14.3939C117.633 -11.5839 129.037 -5.38415 139.606 2.95492C148.08 9.64856 155.868 17.1951 163.508 24.9614L163.78 24.6908L163.508 24.9614C163.941 25.4014 164.374 25.8405 164.807 26.2795C166.218 27.7097 167.627 29.1379 169.02 30.5859C175.787 37.6446 183.053 44.0527 190.378 50.4L190.624 50.1054L190.378 50.4C200.182 58.8952 211.12 64.7865 222.84 68.8498C238.776 74.3807 255.026 78.2217 271.438 80.5622C281.186 81.9528 290.964 82.9269 300.73 83.8998C303.3 84.1557 305.868 84.4116 308.435 84.675C310.737 84.912 313.038 85.1356 315.338 85.3592C325.156 86.3135 334.949 87.2655 344.693 89.2401C358.509 92.0398 371.536 97.2141 383.393 105.91L383.611 105.593L383.393 105.91C397.53 116.275 408.239 129.734 415.93 145.92C421.704 158.072 426.385 170.626 430.083 183.531L430.463 183.446L430.083 183.531C431.696 189.158 433.309 194.784 434.538 200.466C435.399 204.451 435.752 208.548 436.098 212.634C438.584 241.943 431.607 268.286 418.289 292.63C412.767 302.724 406.445 312.218 400.057 321.696C388.797 338.399 377.845 355.359 368.303 373.34C356.792 395.032 350.888 418.755 349.836 444.204C349.11 461.784 350.518 479.36 352.778 496.949C354.189 507.947 355.453 518.957 356.508 529.974C357.618 541.555 356.756 552.975 355.14 564.291C354.753 566.995 354.291 569.683 353.827 572.377L353.827 572.38C353.363 575.072 352.899 577.77 352.511 580.486C351.917 584.644 350.848 588.622 349.772 592.628C349.308 594.355 348.842 596.087 348.413 597.841C344.476 613.946 335.203 625.601 322.188 634.014C313.189 639.83 303.254 643.487 292.727 645.612C290.605 646.041 288.47 646.382 286.678 646.668C285.983 646.779 285.339 646.882 284.768 646.978L284.768 646.987C268.423 648.353 253.066 647.112 237.839 642.831C210.733 635.214 185.154 623.327 161.414 606.575C148.111 597.188 136.182 586.014 125.098 573.734C113.478 560.856 101.837 547.989 90.0462 535.275C71.1873 514.935 49.8129 498.222 26.6318 484.177C10.7098 474.532 -5.77518 466.249 -22.3856 458.302C-31.6064 453.891 -40.7629 449.403 -49.4914 443.896C-59.6579 437.484 -69.2062 430.188 -77.615 421.255C-87.805 410.424 -95.549 398.036 -100.357 383.733C-102.18 378.304 -103.095 372.755 -103.421 367.16Z" fill="#B49C88" stroke="#304040" stroke-width="0.8"/>
<path opacity="0.15" d="M400.245 173.908C403.926 182.74 406.576 191.784 407.804 199.738L407.778 199.729L407.878 200.349C410.563 217.143 409.57 232.077 406.905 246.857C404.46 260.41 400.182 273.226 395.027 285.699C388.485 301.528 380.99 316.814 373.289 331.981C363.926 350.418 355.459 369.336 349.072 389.363C345.194 401.525 341.658 413.83 340.002 426.783C338.583 437.869 338.185 449.077 338.384 460.349C338.496 466.581 338.629 472.812 338.762 479.043C338.995 489.991 339.228 500.936 339.35 511.881C339.511 526.666 339.015 541.366 336.582 555.771C334.497 568.118 330.964 579.825 324.788 590.313C316.092 605.078 303.489 614.084 287.21 617.672C272.817 620.847 258.241 620.222 243.533 616.917C242.654 616.72 241.776 616.527 240.898 616.335C237.169 615.517 233.458 614.704 229.822 613.559L229.729 613.939L229.822 613.558C224.897 612.01 219.997 610.199 215.25 608.047C200.499 601.356 186.917 592.499 174.708 581.119C165.138 572.201 156.269 562.534 147.38 552.845C146.687 552.089 145.994 551.334 145.301 550.579C141.127 546.033 136.96 541.48 132.793 536.927C122.69 525.888 112.585 514.848 102.387 503.904L102.107 504.165L102.387 503.904C95.0507 496.033 87.4556 488.402 79.1802 481.593C72.0819 475.749 64.5255 470.764 56.4979 466.606C43.0603 459.647 29.1685 454.152 15.095 449.258L14.9897 449.634L15.0949 449.258C13.8771 448.834 12.6591 448.413 11.4414 447.991C5.14046 445.808 -1.15541 443.627 -7.40319 441.285C-20.5595 436.352 -33.1151 430.01 -44.659 421.319C-62.6122 407.795 -75.7051 390.389 -83.4206 368.678C-88.39 354.701 -90.8471 340.462 -89.8909 325.893L-90.2868 325.838L-89.8909 325.893C-89.425 318.774 -87.7469 312.013 -85.4517 305.436C-80.0935 290.088 -71.8562 276.819 -61.422 265.03C-48.9145 250.897 -34.3217 239.767 -17.9171 231.037C-12.6882 228.256 -7.62473 225.15 -2.57371 222.052C-1.21786 221.221 0.137084 220.39 1.4941 219.565L1.49426 219.565C13.0817 212.52 22.0378 202.632 29.4486 190.985L29.11 190.753L29.4486 190.985C40.6361 173.398 47.8561 153.969 51.0184 132.616C53.7955 113.884 57.0546 95.2826 60.9702 76.8581C61.247 75.5569 61.5205 74.2553 61.7938 72.9543C62.7168 68.5605 63.6385 64.1729 64.6842 59.8241L64.2981 59.7045L64.6842 59.824C66.1633 53.6658 68.3842 47.8435 71.277 42.3459L70.9234 42.14L71.277 42.3459C75.6713 33.9938 81.9662 28.0311 90.6732 25.1191C94.3122 23.9023 98.184 23.9336 102.094 24.3099L102.094 24.31C110.63 25.127 118.592 28.2846 125.875 33.4039C130.737 36.8223 135.359 40.68 139.982 44.5394C140.19 44.7134 140.398 44.8873 140.607 45.0613C143.845 47.7656 147.057 50.5378 150.271 53.3128C154.453 56.9223 158.64 60.5366 162.899 64.0125C180.095 78.0546 199.277 85.7998 220.326 87.481C228.78 88.1564 237.191 88.1738 245.595 88.0663L245.562 87.6671L245.595 88.0663C261.307 87.8604 276.997 87.6562 292.748 89.5924C312.486 92.0164 331.265 98.0465 348.558 109.687C372.062 125.512 389.071 147.082 400.245 173.908ZM221.98 89.7609L221.981 90.1593L221.98 89.7609C199.968 88.2489 179.876 80.4241 161.835 65.7542C158.486 63.0293 155.213 60.2126 151.934 57.3904C149.859 55.6048 147.782 53.817 145.681 52.0489L145.439 52.3476L145.681 52.0488C144.201 50.8043 142.726 49.5508 141.249 48.2966C136.814 44.5289 132.37 40.7539 127.79 37.1902C121.073 31.9626 113.62 28.4936 105.537 26.9124C99.2978 25.6887 93.7057 26.1166 88.7608 28.1344C83.8174 30.1515 79.5451 33.7474 75.9253 38.8211L76.2532 39.0688L75.9252 38.8212C73.9268 41.6238 72.3596 44.8159 70.8806 47.9572C67.938 54.2019 66.1578 60.9642 64.7796 67.8137C64.4528 69.4355 64.1253 71.0573 63.7977 72.6793C59.9441 91.762 56.0866 110.863 53.3986 130.281L53.7916 130.363L53.3986 130.281C50.2625 152.963 42.9668 173.683 31.0558 192.313C23.5035 204.121 14.4507 214.162 2.73757 221.295C1.46023 222.073 0.185598 222.855 -1.08869 223.637C-6.34202 226.861 -11.5895 230.081 -16.9972 232.983L-16.7916 233.338L-16.9973 232.983C-32.3321 241.215 -46.1803 251.448 -58.1145 264.512C-68.4658 275.842 -76.9339 288.512 -82.5453 303.366C-85.3388 310.753 -87.4527 318.388 -87.9645 326.554L-87.5685 326.608L-87.9645 326.555C-88.7702 339.499 -86.7853 352.208 -82.7306 364.723C-75.73 386.331 -63.4029 403.964 -45.9654 417.779C-34.3393 426.992 -21.5841 433.674 -8.16527 438.771C-1.26924 441.392 5.68824 443.805 12.6387 446.217C13.8388 446.633 15.0386 447.049 16.2379 447.466C30.1478 452.311 43.8472 457.778 57.109 464.621C65.4212 468.914 73.2363 474.082 80.5733 480.147C88.7914 486.94 96.3518 494.543 103.686 502.398C112.061 511.369 120.35 520.423 128.641 529.479C133.524 534.812 138.407 540.146 143.309 545.464C144.952 547.246 146.591 549.033 148.231 550.82C156.011 559.296 163.8 567.783 171.994 575.85L172.261 575.574L171.994 575.85C183.595 587.266 196.512 596.398 210.589 603.612C223.154 610.052 236.376 613.617 249.817 616.007C261.965 618.165 273.982 618.246 285.837 615.78L285.73 615.388L285.837 615.78C301.77 612.46 314.232 603.895 322.834 589.547C329.039 579.197 332.546 567.617 334.62 555.439C337.098 540.894 337.557 526.058 337.387 511.176C337.268 500.652 337.041 490.119 336.815 479.588C336.67 472.859 336.526 466.131 336.409 459.407C336.21 447.778 336.693 436.236 338.261 424.839C340.042 411.913 343.646 399.608 347.583 387.404C353.947 367.674 362.331 349.01 371.592 330.797C378.703 316.816 385.59 302.695 391.786 288.167C397.499 274.776 402.317 260.999 404.977 246.31C407.573 231.972 408.524 217.451 405.9 200.027L405.902 200.027L405.834 199.56C404.836 192.717 402.108 183.601 398.453 174.707C389.654 153.285 376.722 135.078 359.393 120.337C340.601 104.351 319.326 95.4947 296.181 92.1775C280.369 89.9114 264.623 90.007 248.916 90.1523C248.251 90.1585 247.586 90.1651 246.921 90.1716C238.605 90.2539 230.315 90.3359 221.98 89.7609Z" fill="#B49C88" stroke="#304040" stroke-width="0.8"/>
<path opacity="0.2" d="M387.225 204.164L387.206 204.172L387.253 204.462C390.736 226.048 388.034 246.529 381.19 266.276C378.032 275.398 373.819 283.94 369.479 292.443L369.835 292.645L369.479 292.443C368.198 294.953 366.916 297.463 365.634 299.972C359.079 312.807 352.523 325.642 346.089 338.551C340.275 350.217 334.805 362.088 330.532 374.619C325.074 390.625 322.495 407.319 322.404 424.663C322.302 443.308 323.178 461.962 324.813 480.648C325.781 491.739 326.541 502.846 326.988 513.936C327.468 525.74 326.423 537.344 323.755 548.633C322.279 554.879 320.118 560.809 317.312 566.435C311.785 577.512 303.829 586.053 293.472 592.013C278.092 600.862 261.279 604.526 243.35 603.434C231.128 602.689 219.464 598.7 208.36 592.446C195.777 585.36 184.58 576.155 174.482 565.422C163.725 553.989 153.121 542.393 142.608 530.709C127.885 514.342 112.835 498.331 96.9705 483.2C92.9517 479.366 88.8663 475.612 84.7531 471.902C75.875 463.894 65.9608 457.887 55.2634 453.425C45.1357 449.199 34.7687 445.951 24.422 442.71L24.2673 442.661L24.1744 443.042L24.2673 442.661C16.8451 440.337 9.51635 437.694 2.2523 434.745C-20.1641 425.644 -36.1029 409.167 -46.5872 386.347L-46.9453 386.492L-46.5872 386.347C-51.2922 376.109 -54.952 365.543 -57.4906 354.586C-60.2378 342.721 -60.1394 331.084 -57.8437 319.501C-54.366 301.965 -46.9174 286.749 -36.4329 273.215C-25.4305 259.013 -12.2035 247.481 2.21595 237.359L1.97376 237.026L2.216 237.359C5.55423 235.015 8.9358 232.742 12.3203 230.467C13.573 229.625 14.8261 228.783 16.0775 227.937L16.0777 227.937C23.1045 223.18 29.8145 217.984 35.9518 211.997C43.3988 204.733 49.294 196.173 54.0966 186.72C56.1731 182.633 57.3674 178.143 58.3196 173.597C60.2708 164.284 61.1198 154.749 61.7547 145.194C62.4752 134.339 63.7949 123.64 66.3821 113.238C68.3363 105.396 71.2017 98.0197 74.914 91.023L74.9141 91.0229C81.8452 77.9483 92.3618 69.4687 105.579 64.3874L105.415 64.0131L105.579 64.3874C113.67 61.2747 122.069 60.0973 130.871 61.7522C136.136 62.7443 141.202 64.6218 146.076 67.1104L146.235 66.7569L146.076 67.1105C151.29 69.771 156.407 72.695 161.52 75.6236C164.251 77.1889 166.969 78.8052 169.692 80.4234C173.875 82.9107 178.067 85.4025 182.321 87.7203C196.244 95.3075 210.901 99.376 226.156 99.8926C231.6 100.078 237.039 100.041 242.469 100.005C244.137 99.9937 245.805 99.9826 247.471 99.9779C265.543 99.9253 283.546 101.054 301.401 105.885C311.025 108.492 320.465 111.855 329.586 116.282C346.949 124.708 360.403 137.939 370.184 155.328C378.769 170.595 384.41 186.94 387.225 204.164ZM15.8405 227.601C22.8549 222.852 29.5472 217.669 35.6654 211.701C43.0791 204.469 48.9524 195.943 53.7406 186.519C55.7947 182.476 56.981 178.024 57.9311 173.488C59.8765 164.203 60.7241 154.69 61.3588 145.14C62.0802 134.27 63.4023 123.547 65.9968 113.115C67.9587 105.243 70.8352 97.8381 74.561 90.8159L15.8405 227.601ZM206.66 589.091C222.857 598.739 239.872 603.23 257.668 600.991L257.672 600.991L257.703 600.989C266.446 600.339 277.404 597.219 284.36 594.244C299.71 587.679 311.2 576.777 317.744 560.478C319.328 556.536 320.681 552.434 321.726 548.258C324.855 535.734 325.592 522.772 324.92 509.659C324.395 499.397 323.606 489.13 322.702 478.876C321.093 460.602 320.323 442.358 320.444 424.123C320.556 407.023 323.074 390.554 328.357 374.733C332.538 362.208 337.931 350.336 343.738 338.683L343.381 338.484L343.738 338.683C349.411 327.294 355.184 315.969 360.959 304.643C363.917 298.84 366.875 293.037 369.821 287.224C374.752 277.497 379.103 267.463 382.07 256.708C386.09 242.147 387.786 227.181 386.208 211.654C384.303 192.883 378.546 175.154 369.646 158.441L369.299 158.609L369.646 158.441C360.248 140.796 347.02 127.241 329.652 118.648C319.625 113.685 309.219 109.976 298.566 107.32C281.143 102.975 263.637 102.014 246.129 102.121L246.16 102.52L246.129 102.121C245.363 102.126 244.597 102.131 243.831 102.137C237.717 102.18 231.609 102.223 225.497 101.985L225.509 102.384L225.496 101.985C210.223 101.396 195.555 97.256 181.613 89.674C174.486 85.7969 167.5 81.5731 160.515 77.3499L160.272 77.203L160.086 77.5414L160.272 77.2029C154.158 73.508 147.935 70.1022 141.448 67.2525L141.311 67.6167L141.448 67.2525C131.17 62.7381 120.875 61.8927 110.629 64.9858C96.4483 69.2614 84.9303 77.3504 77.3387 90.9128C73.8854 97.0779 71.1219 103.586 69.1722 110.531C66.6541 119.5 65.1473 128.731 64.2853 138.13L64.2853 138.13C64.0117 141.13 63.7561 144.131 63.5005 147.13C63.0424 152.506 62.5848 157.877 62.0253 163.235C60.6288 176.621 56.8473 188.878 49.1432 199.381L49.1431 199.382C44.9912 205.047 40.6924 210.492 35.6378 215.223C30.0615 220.442 24.0595 225.087 17.7834 229.36C16.0989 230.507 14.4053 231.644 12.7108 232.781C9.70427 234.8 6.69462 236.82 3.72641 238.899C-10.6272 248.952 -23.8449 260.386 -34.8261 274.537C-45.1108 287.788 -52.4423 302.69 -55.9067 319.889C-58.1331 330.95 -58.3289 342.112 -55.7538 353.475L-55.3672 353.413L-55.7537 353.475C-55.0809 356.439 -54.3502 359.407 -53.4993 362.336C-50.2655 373.495 -46.0119 384.258 -40.2586 394.41C-30.7576 411.179 -17.7446 423.677 -0.702467 431.085C5.40765 433.743 11.6069 436.197 17.8581 438.374C22.7075 440.064 27.5837 441.639 32.4553 443.212L32.6939 443.289C37.4873 444.836 42.2759 446.381 47.0385 448.032L47.1434 447.656L47.0386 448.032C57.3058 451.59 67.1967 456.169 76.3221 462.63C83.6634 467.83 90.2802 474.034 96.8571 480.314L97.1193 480.034L96.8572 480.314C113.642 496.337 129.608 513.257 145.169 530.628C155.092 541.71 165.182 552.63 175.328 563.483C184.702 573.511 195.085 582.198 206.66 589.091Z" fill="#B49C88" stroke="#304040" stroke-width="0.8"/>
<path opacity="0.25" d="M-25.6415 364.363L-25.654 364.313C-28.4803 346.236 -26.7386 331.41 -21.9752 317.094L-22.3524 316.944L-21.9752 317.094C-15.9811 299.066 -6.04484 284.211 8.43262 273.123C15.1442 267.985 22.1042 263.182 29.0722 258.389L28.8328 258.055L29.0722 258.389C39.6506 251.11 50.1321 243.642 59.537 234.701C64.4557 230.027 69.2169 225.132 73.7064 219.992L73.4003 219.717L73.7064 219.992C82.1348 210.339 86.5857 198.519 87.9826 185.191L87.5879 185.122L87.9826 185.191C88.894 176.49 89.0167 167.723 88.4224 158.883L88.3817 158.277C87.7571 148.989 87.1349 139.736 87.9372 130.558C88.6023 122.986 90.4174 115.856 93.6014 109.186L93.6014 109.186C97.5735 100.862 103.765 95.2752 111.995 92.0694C118.781 89.4281 125.862 88.531 133.256 89.4218L133.275 89.0254L133.256 89.4218C140.836 90.3328 147.805 93.186 154.111 98.0886C155.749 99.3621 157.322 100.706 158.904 102.058C159.885 102.896 160.869 103.736 161.874 104.565C162.614 105.177 163.354 105.794 164.095 106.412C166.359 108.303 168.633 110.2 170.978 111.979L170.978 111.979C180.459 119.161 190.902 122.907 202.182 123.524C214.162 124.181 225.982 123.406 237.726 121.886C240.133 121.575 242.538 121.257 244.944 120.938C252.312 119.963 259.675 118.989 267.07 118.225C280.379 116.852 293.713 117.561 307.006 121.26L307.086 120.876L307.006 121.26C315.637 123.662 323.514 127.805 330.602 133.828C342.792 144.194 352.731 156.494 359.731 171.257L360.087 171.107L359.731 171.257C363.831 179.896 366.232 189.046 367.844 198.415C370.182 212.014 369.567 225.393 367.686 238.713C364.876 258.552 359.134 277.09 349.526 293.994C341.117 308.786 332.75 323.619 324.514 338.533L324.864 338.745L324.514 338.533C320.734 345.382 317.186 352.39 313.776 359.467C307.8 371.862 303.541 384.99 302.111 399.193C300.841 411.792 300.709 424.505 302.055 437.284C302.816 444.517 303.784 451.739 304.751 458.955C305.145 461.891 305.538 464.826 305.917 467.76L306.311 467.736L305.917 467.76C306.411 471.573 306.927 475.382 307.442 479.189C308.55 487.378 309.657 495.561 310.551 503.757C311.734 514.615 312.09 525.474 310.402 536.093C307.458 554.59 299.254 569.644 285.469 580.833C276.327 588.253 265.606 591.236 253.784 590.874C246.08 590.635 238.488 589.183 231.044 586.588L231.044 586.588C228.278 585.627 225.58 584.297 222.903 582.929L222.903 582.929C205.607 574.11 189.901 562.781 176.328 548.053C166.208 537.067 156.015 526.146 145.809 515.249C133.097 501.678 119.737 488.869 106.259 476.192L106 476.475L106.259 476.192C93.9344 464.605 80.5142 454.792 66.5234 445.847C58.0863 440.453 49.2714 436.03 40.0798 432.528C34.7893 430.51 29.5119 428.44 24.2899 426.223C15.4561 422.469 7.14826 417.616 -0.378348 411.246C-10.9665 402.286 -18.0874 390.839 -22.318 377.468C-23.4914 373.754 -24.3523 369.963 -24.999 367.116C-25.2416 366.048 -25.454 365.112 -25.6415 364.363ZM-24.3285 361.405L-24.1658 361.405L-24.3209 361.433C-23.949 362.966 -23.5994 364.512 -23.2489 366.061C-22.4808 369.457 -21.7089 372.87 -20.6899 376.203L-20.6898 376.204C-16.6321 389.451 -9.65625 400.813 0.855999 409.686C8.35258 416.011 16.6309 420.788 25.3997 424.474C29.8277 426.336 34.2972 428.076 38.7589 429.813C39.6487 430.159 40.5382 430.505 41.427 430.852L41.5471 430.481L41.4271 430.852C48.5191 433.62 55.4577 436.762 62.0497 440.767L62.2366 440.429L62.0498 440.767C76.8314 449.743 91.0594 459.604 104.027 471.51C118.718 484.996 133.092 498.835 146.805 513.439L147.085 513.176L146.806 513.439C157.184 524.489 167.515 535.586 177.792 546.738C190.963 561.026 206.22 571.972 222.905 580.688L223.068 580.336L222.906 580.688C231.215 585.025 239.884 587.48 248.869 588.437C266.355 590.296 280.91 584.814 292.268 571.394L291.959 571.123L292.268 571.394C303.292 558.362 308.967 542.809 309.4 524.771C309.665 513.646 308.755 502.529 307.258 491.432C306.134 483.118 304.931 474.807 303.728 466.5C303.162 462.588 302.595 458.678 302.038 454.767L301.645 454.796L302.038 454.767C300.104 441.24 299.104 427.722 299.203 414.161C299.35 394.566 303.383 376.257 311.593 359.308C315.592 351.049 319.774 342.891 324.177 334.888L323.826 334.676L324.177 334.888C331.849 320.931 339.699 307.089 347.575 293.267C356.914 276.883 362.636 258.963 365.516 239.766C367.971 223.403 368.402 206.963 364.198 190.295C362.241 182.534 359.716 174.98 355.863 167.862L355.518 168.034L355.863 167.862C349.041 155.262 340.139 144.56 329.435 135.476C322.914 129.94 315.698 126.008 307.775 123.672C296.091 120.225 284.321 119.209 272.543 119.985L272.597 120.384L272.543 119.985C266.677 120.373 260.845 121.059 255.028 121.743C254.272 121.832 253.516 121.921 252.76 122.009C249.316 122.411 245.885 122.855 242.456 123.299C236.968 124.01 231.487 124.72 225.97 125.251C217.884 126.03 209.727 126.185 201.523 125.621L201.524 126.019L201.523 125.621C190.422 124.859 180.109 121.246 170.724 114.286C168.141 112.37 165.658 110.31 163.162 108.24C162.352 107.569 161.541 106.896 160.724 106.226L160.724 106.226C159.692 105.383 158.666 104.509 157.637 103.633C155.97 102.214 154.293 100.787 152.568 99.4658L152.568 99.4657C146.667 94.9471 140.136 92.3662 133.083 91.5443L133.083 91.5443C127.156 90.8572 121.397 91.355 115.798 93.0361C106.273 95.894 99.1285 101.736 94.8638 111.29L95.2277 111.474L94.8638 111.29C91.8028 118.149 90.2094 125.44 89.7276 133.118C89.2266 141.069 89.7406 149.06 90.2527 157.024C90.3157 158.004 90.3787 158.983 90.4398 159.961L90.8358 159.965L90.4398 159.962C91.0086 169.062 90.8024 178.081 89.7554 187.019C87.9774 202.158 81.8269 214.713 71.9891 225.287L72.2876 225.57L71.989 225.287C60.3132 237.842 47.222 248.509 33.2605 258.109L32.4683 258.654C24.8808 263.868 17.2766 269.094 9.92455 274.675C-5.56491 286.429 -15.7114 302.47 -21.3622 321.929C-25.0542 334.645 -26.3159 347.746 -24.3285 361.405Z" fill="#B49C88" stroke="#304040" stroke-width="0.8"/>
<path opacity="0.3" d="M349.258 201.798L349.272 201.77L349.453 203.069C351.944 220.988 350.302 238.232 345.081 254.874C341.162 267.359 335.577 278.902 329.277 290.032C327.816 292.615 326.351 295.195 324.886 297.775C320.678 305.187 316.47 312.599 312.347 320.066L311.997 319.853L312.347 320.066C310.039 324.244 307.819 328.456 305.597 332.672C303.694 336.281 301.791 339.892 299.829 343.489C292.507 356.912 288.571 371.708 286.346 387.234C284.495 400.13 284.051 413.216 284.629 426.397C285.058 436.139 285.684 445.887 286.31 455.637C286.491 458.455 286.672 461.274 286.848 464.093C287.577 475.827 288.077 487.574 286.597 499.168C285.082 511.035 281.959 522.277 275.893 532.237C271.777 538.996 266.593 544.675 260.276 549.178L260.031 548.847L260.276 549.178C249.543 556.826 237.637 558.532 224.522 555.484L224.584 555.095L224.521 555.484C215.804 553.457 208.595 548.762 202.136 542.369C195.995 536.296 190.541 529.569 185.886 522.197L186.216 522L185.886 522.197C176.69 507.621 167.604 492.97 158.543 478.306L158.875 478.113L158.543 478.306C151.856 467.481 144.791 456.952 136.921 447.046C120.476 426.352 100.24 411.303 77.3175 400.26C67.4679 395.511 57.2385 392.454 46.7833 390.445C44.6172 390.028 42.4251 389.81 40.2131 389.626C39.7333 389.586 39.2523 389.548 38.7704 389.51C37.0365 389.373 35.2913 389.234 33.5559 389.016C29.4233 388.501 25.2769 387.923 21.1636 387.081L21.1631 387.081C18.6271 386.558 16.1148 385.641 13.6995 384.648C13.6994 384.648 13.6993 384.648 13.6992 384.648L13.8263 384.28C7.77048 381.796 3.38404 377.317 0.674258 371.033L0.311944 371.17C-4.61184 359.747 -5.73113 348.077 -2.91812 336.463C3.70003 309.115 17.9518 288.193 42.1353 275.953C46.6162 273.684 51.156 271.528 55.6912 269.375C57.8053 268.371 59.9183 267.367 62.0239 266.353L62.2155 266.716L62.024 266.353C68.6503 263.162 75.0199 259.56 80.8716 255.024C89.0212 248.705 94.9053 240.53 98.7961 230.562M349.258 201.798L81.1274 255.346C89.3322 248.985 95.2539 240.755 99.1669 230.73M349.258 201.798C347.595 191.186 343.71 181.321 338.246 172.082C330.694 159.318 320.278 150.2 307.027 144.952C297.873 141.326 288.505 140.031 279.058 140.429L279.102 140.828L279.058 140.429C263.897 141.068 249.514 144.601 236.045 151.284C231.119 153.727 226.086 155.755 220.745 157.142L220.745 157.142C211.812 159.467 202.748 160.293 193.414 159.235C184.574 158.233 176.353 155.369 169.201 149.142C165.901 146.264 162.866 143.119 160.406 139.453C158.886 137.188 157.467 134.874 156.043 132.551C155.067 130.961 154.089 129.366 153.074 127.779C152.736 127.249 152.398 126.716 152.059 126.181C150.523 123.751 148.968 121.293 147.196 119.025C143.889 114.787 139.544 112.573 134.504 112.281L134.503 112.281C131.381 112.103 128.486 112.909 125.779 114.195C117.852 117.956 112.463 124.371 108.943 132.622C106.246 138.941 104.784 145.695 104.143 152.694C103.547 159.215 103.831 165.795 104.133 172.346L104.133 172.346C104.576 181.827 104.885 191.287 104.551 200.714L104.551 200.714C104.187 211.121 102.485 221.105 98.7961 230.562M349.258 201.798L104.948 200.757C104.582 211.198 102.875 221.226 99.1669 230.73M98.7961 230.562C98.7961 230.562 98.7961 230.562 98.7961 230.562L99.1669 230.73M98.7961 230.562L99.1669 230.73M-5.83473 357.881C-6.68158 350.879 -6.66589 344.021 -5.15556 337.386L-5.15553 337.386C0.102882 314.243 10.7789 295.041 29.0896 281.44L28.8397 281.112L29.0897 281.44C35.4274 276.731 42.4576 273.29 49.5361 269.851L49.5362 269.851C50.9272 269.174 52.3198 268.5 53.7129 267.825C58.8141 265.355 63.9206 262.882 68.9692 260.299C71.3644 259.074 73.6182 257.559 75.8423 256.065C76.0546 255.922 76.2667 255.779 76.4786 255.637L76.2427 255.3L76.4786 255.637C87.6965 248.112 94.9735 237.336 99.0094 223.849C101.55 215.371 102.653 206.585 102.631 197.595C102.607 187.591 102.313 177.562 101.952 167.546C101.579 157.089 102.123 146.873 105.143 137.1L105.143 137.1C107.663 128.939 111.679 121.935 117.971 116.654C121.965 113.303 126.392 110.913 131.608 110.307L131.535 109.911L131.608 110.307C137.96 109.569 143.47 111.805 147.985 116.929C149.892 119.093 151.499 121.58 153.11 124.072C153.236 124.267 153.362 124.462 153.488 124.657C154.327 125.953 155.106 127.293 155.885 128.648C155.965 128.787 156.045 128.926 156.124 129.065C156.823 130.28 157.525 131.503 158.269 132.699L158.269 132.699C159.631 134.886 161.045 137.064 162.588 139.13C170.212 149.345 179.909 155.398 191.904 156.921C201.427 158.13 210.676 157.503 219.766 155.132C225.228 153.709 230.393 151.652 235.438 149.186C249.497 142.321 264.471 138.685 280.301 138.235L280.262 137.836L280.301 138.235C288.499 137.999 296.604 139.121 304.575 141.857C322.322 147.952 335.063 160.257 343.622 177.93C349.697 190.473 352.296 203.587 352.546 217.241C352.874 235.462 348.996 252.427 342.233 268.576C337.602 279.636 331.84 289.981 325.803 300.175C320.737 308.728 315.896 317.429 311.524 326.449C309.561 330.496 307.376 334.432 305.054 338.253L305.397 338.478L305.054 338.253C295.143 354.575 289.878 372.82 287.693 392.378C286.396 403.954 286.082 415.641 286.623 427.388C287.027 436.195 287.595 445.006 288.163 453.812C288.41 457.653 288.658 461.493 288.892 465.331C289.654 477.836 290.044 490.273 288.151 502.491C286.416 513.683 283.253 524.235 277.502 533.593L277.844 533.82L277.502 533.593C272.581 541.61 266.309 548.167 258.452 552.938C249.388 558.443 239.513 560.29 228.812 558.421C226.66 558.047 224.513 557.563 222.361 557.067C214.35 555.219 207.697 550.488 201.591 544.604C194.921 538.174 189.086 530.943 184.095 523.026L183.764 523.222L184.095 523.026C179.042 515.013 174.057 506.972 169.07 498.929C164.608 491.732 160.145 484.533 155.632 477.353C147.445 464.325 138.856 451.564 128.49 440.219L128.207 440.478L128.49 440.219C111.568 421.703 91.622 408.351 69.3776 399.084C59.0612 394.788 48.393 392.457 37.5305 391.56C32.9065 391.174 28.273 390.527 23.6546 389.761C20.9535 389.312 18.2492 388.534 15.5897 387.647L15.5893 387.647C6.65524 384.675 0.580896 378.402 -2.63877 369.062C-3.50063 366.559 -4.18212 364.004 -4.8684 361.432C-5.18352 360.251 -5.49966 359.066 -5.83473 357.881Z" fill="#B49C88" stroke="#304040" stroke-width="0.8"/>
<path opacity="0.35" d="M335.788 211.748C333.724 199.966 329.462 188.989 323.161 178.778C318.041 170.482 311.404 163.991 303.128 159.39C297.622 156.331 291.838 155.234 285.891 155.35C278.946 155.487 272.396 157.396 265.856 159.561L265.708 159.181L265.856 159.561C262.161 160.784 258.485 162.087 254.805 163.392C247.298 166.055 239.772 168.724 232.023 170.72L231.899 170.333L232.023 170.72C223.532 172.906 214.967 174.798 205.972 174.634L205.95 174.235L205.971 174.634C200.873 174.54 195.743 174.247 190.685 172.681C176.184 168.197 163.308 160.663 153.221 147.954C151.411 145.674 149.361 143.569 147.253 141.561L147.252 141.56C143.7 138.164 139.507 136.325 134.881 135.701L134.881 135.701C130.853 135.156 127.411 136.286 124.479 139.033L124.479 139.033C122.171 141.193 120.456 143.844 119.048 146.783L119.048 146.783C116.244 152.63 114.961 159.008 114.348 165.652C114.348 165.652 114.348 165.652 114.348 165.652L113.953 165.587L335.788 211.748ZM335.788 211.748L335.784 211.756L335.805 211.883C337.069 219.675 336.707 227.341 335.638 234.969L336.031 235.053L335.638 234.97C334.042 246.379 330.991 257.26 326.793 267.733L327.162 267.904L326.793 267.733C321.439 281.098 314.951 293.786 308.015 306.203L308.365 306.417L308.015 306.203C304.405 312.674 300.695 319.076 296.983 325.481C295.601 327.867 294.218 330.253 292.84 332.643C280.743 353.612 274.098 376.723 272.556 401.835C271.891 412.647 272.02 423.516 272.332 434.385C272.884 453.444 272.111 472.326 269.357 490.945C268.345 497.791 266.773 504.446 264.126 510.68M335.788 211.748L54.8827 292.623C54.8828 292.623 54.8829 292.623 54.883 292.623C53.472 293.322 52.0559 294.001 50.6421 294.679C47.6111 296.132 44.5912 297.58 41.6574 299.205C32.244 304.42 23.6249 310.733 16.6881 319.281L16.3737 319.015M264.126 510.68C264.126 510.68 264.126 510.68 264.126 510.68L264.492 510.859L264.126 510.68ZM264.126 510.68C260.349 519.556 254.547 526.219 245.864 529.791L246.036 530.163M246.036 530.163L245.864 529.791C236.437 533.674 226.916 532.698 217.356 528.35C209.677 524.858 202.912 519.673 196.708 513.641L196.708 513.641C193.354 510.384 190.167 506.885 187.199 503.234L187.199 503.234C179.507 493.782 172.781 483.585 166.363 473.141C157.198 458.226 147.376 443.779 136.913 429.821C123.139 411.437 105.851 398.416 85.2718 390.553C72.8478 385.806 60.1975 382.537 47.2105 381.474C45.0085 381.293 42.7877 381.218 40.5779 381.143C39.0764 381.092 37.5799 381.042 36.0978 380.958C21.5329 380.138 8.50423 366.392 7.32962 350.763C6.41049 338.53 9.4818 328.156 16.688 319.281L16.3737 319.015M246.036 530.163C236.493 534.093 226.857 533.098 217.214 528.711C209.477 525.193 202.67 519.974 196.443 513.919M246.036 530.163L196.443 513.919M16.3737 319.015C9.10555 327.967 6.00773 338.437 6.93398 350.765C8.12259 366.58 21.3053 380.524 36.1038 381.357C37.6069 381.442 39.1096 381.492 40.6121 381.543C42.8103 381.617 45.0081 381.691 47.2064 381.872C60.1476 382.932 72.7595 386.189 85.1545 390.925C105.657 398.759 122.878 411.729 136.602 430.047M16.3737 319.015C23.3482 310.421 32.0083 304.081 41.4475 298.852L136.602 430.047M136.602 430.047C147.057 443.994 156.871 458.43 166.03 473.333C172.452 483.784 179.19 494 186.899 503.473C189.878 507.137 193.076 510.649 196.443 513.919M136.602 430.047L196.443 513.919M304.031 162.35C300.554 160.309 297.017 158.711 293.142 158.065C285.521 156.79 278.23 157.817 271.193 160.171L271.341 160.55L271.193 160.171C267.145 161.524 263.109 162.945 259.077 164.364C255.754 165.533 252.433 166.702 249.111 167.831L249.261 168.211L249.111 167.831C240.382 170.8 231.517 173.359 222.464 175.195C213.216 177.067 203.786 177.792 194.345 175.654C178.717 172.116 164.871 164.562 153.72 151.576L153.72 151.576C151.55 149.05 149.357 146.513 147.057 144.103L147.057 144.102C143.908 140.807 140.13 138.841 135.883 137.99L135.883 137.99C131.816 137.179 128.324 138.145 125.437 141.054L125.437 141.054C123.388 143.124 121.868 145.579 120.629 148.244C118.03 153.824 116.866 159.873 116.298 166.103C115.555 174.233 115.547 182.44 115.54 190.622C115.538 192.129 115.537 193.636 115.531 195.14C115.493 205.154 114.874 215.044 112.616 224.618L113.003 224.736L112.616 224.618C107.105 248.005 95.9304 267.264 77.8072 281.399C70.6141 287.011 62.596 291.208 54.4574 295.254L54.4573 295.254C54.1531 295.405 53.8488 295.557 53.5445 295.708C48.2229 298.356 42.8756 301.016 37.7522 304.061L37.9715 304.408L37.7521 304.061C30.431 308.414 23.8501 313.83 18.334 320.581C10.9194 329.656 7.96875 340.28 9.56238 352.763L9.95588 352.74L9.56239 352.763C11.2392 365.88 22.8418 377.69 34.9411 378.675C36.6583 378.815 38.3736 378.853 40.0752 378.891L40.1014 378.891C41.7982 378.929 43.4814 378.965 45.1628 379.101C58.0415 380.131 70.6643 383.037 83.1072 387.507C105.66 395.616 124.472 409.57 139.341 429.751C149.031 442.904 158.314 456.361 166.906 470.311L167.239 470.119L166.906 470.311C173.588 481.157 180.569 491.786 188.469 501.75C193.938 508.654 200.152 514.667 207.115 519.8C211.767 523.23 216.662 526.183 222.046 528.044C235.761 532.786 249.257 529.004 257.545 518.108C259.703 515.272 261.382 512.126 262.726 508.762L262.726 508.762C264.707 503.794 266.065 498.592 266.962 493.239L266.57 493.146L266.962 493.239C269.416 478.572 270.471 463.666 270.511 448.628C270.527 443.047 270.44 437.46 270.349 431.876L270.339 431.28C270.252 425.894 270.165 420.512 270.166 415.137C270.169 403.673 270.948 392.32 272.995 381.199L272.605 381.1L272.995 381.199C276.863 360.163 284.801 341.156 295.587 323.53C299.847 316.571 303.88 309.438 307.837 302.272L307.487 302.06L307.837 302.272C314.326 290.505 320.387 278.463 325.382 265.785L325.012 265.615L325.382 265.785C328.956 256.707 331.636 247.301 333.25 237.487C334.617 229.18 335.212 220.767 334.288 214.655L334.204 214.101L334.19 214.107C332.719 205.066 330.529 197.953 327.228 190.638C321.987 179.021 315.108 168.85 304.031 162.35Z" fill="#B49C88" stroke="#304040" stroke-width="0.8"/>
<path opacity="0.4" d="M148.87 416.343L149.197 416.142C153.423 422.643 157.541 429.222 161.657 435.798C163.501 438.745 165.346 441.691 167.199 444.63C175.45 457.712 184.447 470.171 194.831 481.483C198.754 485.754 202.959 489.671 207.488 493.184C211.047 495.945 214.767 498.355 218.819 500.085C218.819 500.085 218.819 500.085 218.819 500.085L218.687 500.451C223.378 502.45 228.153 503.431 233.071 502.767L148.87 416.343ZM148.87 416.343L149.197 416.142C144.783 409.353 139.58 403.242 133.698 397.787C122.319 387.22 109.211 380.783 94.8562 377.627C85.6472 375.6 76.3765 374.136 67.0381 373.407C62.2827 373.035 57.5297 372.137 52.7606 371.236C51.6822 371.032 50.6029 370.829 49.5226 370.631C47.5677 370.271 45.615 369.523 43.6986 368.712L148.87 416.343ZM123.615 233.109L123.615 233.109C124.144 230.079 124.656 227.04 125.168 224C126.233 217.678 127.298 211.349 128.529 205.074C129.478 200.237 130.905 195.516 132.398 190.885C133.252 188.235 134.573 185.759 135.887 183.378C135.887 183.378 135.887 183.378 135.887 183.378L136.237 183.591L123.615 233.109ZM123.615 233.109C120.204 252.659 111.52 269.1 99.0262 283.12C90.7088 292.451 80.2313 298.679 68.9439 303.555L69.1218 303.923L68.9438 303.555C67.4333 304.208 65.9167 304.851 64.3988 305.496C60.2596 307.253 56.112 309.013 52.0595 310.969L52.0594 310.969M123.615 233.109L52.0594 310.969M52.0594 310.969C46.0946 313.849 40.9372 317.952 36.7517 323.285L36.7516 323.286M52.0594 310.969L36.7516 323.286M36.7516 323.286C32.0625 329.266 29.4484 336.185 29.549 344.343C29.6661 354.015 34.9543 362.508 43.5723 366.394C45.6385 367.325 47.8028 368.028 49.9512 368.587C56.5793 370.312 63.2883 371.042 69.9732 371.616L69.9741 371.616L36.7516 323.286ZM224.231 499.286L224.17 499.675C219.205 498.541 214.745 495.997 210.55 492.949C204.18 488.321 198.548 482.805 193.301 476.821C182.291 464.273 172.99 450.423 164.22 436.165C159.52 428.525 154.766 420.916 149.755 413.508C143.304 403.978 135.583 395.745 126.345 389.228C115.367 381.481 103.398 376.926 90.7238 374.577C89.1209 374.281 87.5346 373.95 85.9539 373.62C83.5194 373.112 81.0982 372.607 78.65 372.239C78.6498 372.239 78.6497 372.239 78.6496 372.238L78.6807 371.844L224.231 499.286ZM224.231 499.286L224.17 499.675C228.403 500.641 232.362 500.69 235.951 499.603C239.543 498.515 242.739 496.296 245.461 492.771L245.461 492.77M224.231 499.286L245.461 492.77M245.461 492.77C246.266 491.724 247.036 490.638 247.744 489.51L247.744 489.509M245.461 492.77L247.744 489.509M247.744 489.509C249.682 486.411 251.184 483.034 252.123 479.41L252.123 479.41M247.744 489.509L252.123 479.41M252.123 479.41C253.386 474.527 254.628 469.605 255.53 464.595C258.418 448.554 259.475 432.183 260.205 415.775L259.808 415.729M252.123 479.41L259.808 415.729M259.808 415.729L260.205 415.775C260.741 403.675 261.859 391.678 263.341 379.729C265.677 360.939 271.743 343.678 279.551 327.133C285.433 314.669 291.853 302.529 298.561 290.571L298.212 290.357L298.561 290.571C304.913 279.239 310.852 267.639 315.476 255.259L315.103 255.096L315.476 255.259C317.681 249.353 319.458 243.289 320.576 236.955C323.264 221.712 317.265 203.568 302.431 193.172C297.335 189.601 291.864 187.096 286.163 185.251C275.691 181.856 265.169 180.838 254.715 183.22L254.829 183.61L254.715 183.22C250.982 184.072 247.289 185.097 243.607 186.12C242.049 186.553 240.493 186.985 238.936 187.403L239.064 187.789L238.936 187.403C230.775 189.597 222.527 191.384 215.743 192.239L215.717 192.243M259.808 415.729L215.717 192.243M215.717 192.243L215.701 192.247C198.53 194.594 183.5 190.734 171.229 183.672C170.541 183.276 169.854 182.876 169.166 182.475C166.976 181.199 164.776 179.918 162.533 178.745L162.371 179.096M215.717 192.243L162.371 179.096M162.371 179.096L162.533 178.745C159.861 177.347 157.131 176.039 154.348 174.917M162.371 179.096L154.348 174.917M154.348 174.917C149.689 173.039 145.467 173.861 141.72 176.791L154.348 174.917ZM232.988 502.371C232.986 502.371 232.984 502.372 232.982 502.372L126.678 202.122C127.675 196.826 129.229 191.716 131.298 186.83L131.665 187.008C131.665 187.008 131.665 187.008 131.665 187.008C133.41 182.89 135.769 179.281 138.95 176.325L138.95 176.324C141.463 173.986 144.141 172.529 146.995 172.011C149.846 171.493 152.903 171.905 156.191 173.355L156.191 173.355C158.643 174.435 161.067 175.627 163.448 176.907C165.474 177.999 167.47 179.147 169.473 180.299C170.617 180.956 171.762 181.615 172.917 182.265L172.917 182.266C181.808 187.259 191.189 190.044 200.954 190.788L200.954 190.788C208.169 191.335 215.201 190.272 222.143 189.038C230.847 187.493 239.328 185.139 247.788 182.791C248.779 182.516 249.77 182.241 250.761 181.967C265.561 177.884 280.166 179.897 294.718 186.361C299.253 188.377 303.39 191.086 307.165 194.449C319.212 205.18 324.155 218.697 322.857 234.537L323.253 234.598L322.857 234.537C322.329 241.003 320.514 247.108 318.416 253.123C313.875 266.146 307.635 278.195 301.209 290.176C300.228 292.005 299.245 293.832 298.262 295.659C293.123 305.209 287.98 314.767 283.179 324.53L283.538 324.727L283.179 324.53C276.671 337.772 270.916 351.456 267.738 366.351L268.126 366.461C265.626 378.187 264.313 390.164 263.449 402.233L263.054 402.176C263.054 402.176 263.054 402.177 263.054 402.177C262.63 408.062 262.295 413.963 261.961 419.859L261.929 420.413C261.584 426.495 261.236 432.572 260.788 438.632C259.936 450.148 258.528 461.558 255.992 472.684C255.09 476.637 253.938 480.534 252.57 484.303L252.944 484.463L252.57 484.303C250.142 491.006 246.161 496.431 240.429 500.214C239.487 500.835 238.337 501.2 237.176 501.524L237.176 501.525C236.229 501.791 235.263 501.962 234.277 502.136C233.852 502.211 233.423 502.286 232.99 502.371C232.989 502.371 232.988 502.371 232.988 502.371Z" fill="#B49C88" stroke="#304040" stroke-width="0.8"/>
<path opacity="0.45" d="M180.267 429.946L180.628 429.807C183.452 436.239 186.727 442.437 190.492 448.354C194.584 454.785 199.664 460.157 205.814 464.351C213.063 469.294 220.804 471.289 230.09 470.159L230.869 470.064L230.834 470.134C235.899 469.755 239.918 466.114 243.05 460.921C243.916 459.484 244.725 457.99 245.272 456.416L245.272 456.415C245.461 455.872 245.653 455.33 245.845 454.789C246.854 451.938 247.857 449.103 248.421 446.153C248.421 446.153 248.421 446.153 248.421 446.153L248.81 446.255C249.973 440.158 250.981 433.987 251.538 427.759L180.267 429.946ZM180.267 429.946L180.628 429.807C174.642 416.179 167.319 403.356 158.446 391.506C155.137 387.085 151.587 382.778 147.714 378.895L147.444 379.168M180.267 429.946L147.444 379.168M147.444 379.168L147.714 378.895C136.134 367.291 122.491 361.058 107.048 360.436C102.278 360.245 97.5083 360.358 92.756 360.471C90.9232 360.515 89.093 360.558 87.2663 360.584L87.2662 360.584C86.206 360.6 85.1491 360.625 84.0943 360.65C79.3622 360.763 74.675 360.875 69.9463 360.097L69.946 360.097C65.2298 359.325 60.7483 357.827 56.6602 354.98L56.4505 355.303M147.444 379.168L87.3001 360.984C86.2482 360.999 85.1968 361.024 84.1455 361.049C79.4114 361.163 74.6791 361.276 69.9097 360.491C65.1512 359.712 60.6053 358.197 56.4505 355.303M56.4505 355.303L56.6602 354.98C53.5972 352.847 51.0821 350.148 49.1033 346.857C47.7624 344.627 47.1968 342.322 47.4603 339.778L47.4603 339.778C47.7969 336.498 48.8597 333.573 50.5251 330.894M56.4505 355.303L50.5251 330.894M50.5251 330.894C52.8641 327.135 56.0036 324.308 59.6791 322.054L59.6794 322.053C64.2601 319.238 69.2957 317.491 74.3751 315.73C74.7721 315.592 75.1692 315.454 75.5665 315.316L75.5666 315.316C88.0862 310.951 98.8479 303.841 107.45 293.388C111.152 288.892 114.069 283.839 116.449 278.406C120.56 269.028 123.561 259.17 126.402 249.252L126.402 249.252C126.636 248.433 126.87 247.614 127.104 246.795C128.812 240.816 130.519 234.837 132.369 228.921C134.572 221.895 137.687 215.392 141.978 209.637C145.35 205.121 149.265 201.289 154.082 198.561L154.082 198.561C159.803 195.319 165.907 194.512 172.401 196.628L172.401 196.628C175.265 197.56 178.075 198.777 180.878 200.021L180.878 200.021C183.678 201.262 186.451 202.6 189.166 204.053L50.5251 330.894ZM294.991 227.81C298.402 232.738 300.325 237.525 301.251 243.248L301.253 243.248C302.047 248.166 301.493 252.907 300.558 257.549C300.558 257.549 300.558 257.549 300.558 257.549L300.168 257.444C298.934 263.58 296.666 269.258 293.921 274.686C291.386 279.699 288.803 284.703 286.004 289.544L294.991 227.81ZM294.991 227.81C288.649 218.639 280.149 213.003 270.119 210.149C259.853 207.223 249.593 207.051 239.468 208.921C230.418 210.594 221.339 211.788 212.039 211.562C204.153 211.368 196.48 210.135 189.161 206.308C186.085 204.697 182.963 203.166 179.799 201.783M294.991 227.81L133.042 234.883L132.664 234.737C134.204 229.877 135.954 225.067 137.978 220.434L137.979 220.434C140.49 214.694 144.025 209.692 148.434 205.464L148.434 205.464C150.97 203.036 153.769 200.975 156.966 199.515L156.966 199.515C161.409 197.487 166.105 196.94 170.991 198.416M179.799 201.783C179.799 201.783 179.799 201.783 179.799 201.783L179.663 202.147L179.799 201.783ZM179.799 201.783C176.92 200.521 173.984 199.32 170.991 198.416M170.991 198.416L170.903 198.798M170.991 198.416C170.991 198.416 170.991 198.416 170.991 198.416L170.903 198.798M170.903 198.798C166.123 197.354 161.525 197.885 157.151 199.881M170.903 198.798L157.151 199.881M157.151 199.881C153.998 201.32 151.232 203.355 148.718 205.763C144.342 209.959 140.835 214.921 138.344 220.616L157.151 199.881Z" fill="#B49C88" stroke="#304040" stroke-width="0.8"/>
<path opacity="0.5" d="M174.973 216.557L174.98 216.636C167.927 217.357 162.857 219.287 157.691 223.042C148.829 229.49 142.331 238.056 138.183 248.658C136.772 252.269 135.501 255.947 134.227 259.634C133.984 260.335 133.742 261.036 133.499 261.738C129.984 271.874 126.016 281.781 120.797 291.019L120.449 290.804L120.797 291.02C114.647 301.903 106.613 310.776 96.0827 317.002L96.0826 317.002C93.1266 318.749 90.1918 320.523 87.3659 322.455L87.3658 322.455C85.4279 323.779 83.5417 325.215 81.9386 326.906L81.9385 326.906C80.6558 328.258 79.5892 329.964 78.8084 331.74C77.7095 334.244 77.2533 337.027 78.2292 339.721L78.2293 339.721C79.655 343.669 82.1679 346.476 86.1928 347.268C86.2812 347.286 86.3695 347.303 86.4575 347.321C87.529 347.533 88.5671 347.739 89.5766 347.726C92.532 347.682 95.4899 347.573 98.4234 347.343L98.4238 347.343C104.795 346.847 111.198 346.842 117.638 348.338C138.37 353.16 155.408 364.791 168.919 382.559L168.919 382.559C172.052 386.682 174.778 391.159 177.483 395.6C178.069 396.562 178.654 397.522 179.241 398.476L179.241 398.476C179.88 399.515 180.515 400.555 181.149 401.595C184.867 407.686 188.566 413.748 192.989 419.297C195.946 423.003 199.049 426.519 202.69 429.413C208.35 433.907 214.438 436.917 221.383 437.132L221.399 437.531L221.383 437.132C225.906 437.272 229.87 436.192 233.024 432.821C235.143 430.552 237.114 428.268 238.662 425.489C238.662 425.489 238.662 425.489 238.662 425.489L239.011 425.703C242.278 419.836 244.619 413.601 245.743 406.782L174.973 216.557ZM174.973 216.557L174.989 216.634C179.767 215.961 185.296 216.859 190.724 219.088M174.973 216.557L190.724 219.088M190.724 219.088C193.069 220.053 195.381 221.103 197.702 222.157C198.725 222.622 199.75 223.087 200.78 223.547C207.964 226.753 215.306 229.155 223.035 229.699L223.035 229.699C228.688 230.095 234.099 229.349 239.346 227.553L239.195 227.174L239.346 227.553C244.015 225.953 248.791 224.865 253.779 224.839C264.358 224.793 273.633 228.641 281.37 236.999C286.756 242.818 289.26 249.621 288.932 257.541C288.655 264.248 287.229 270.574 284.949 276.661L190.724 219.088ZM159.343 224.494L159.343 224.494C164.034 221.169 168.676 219.454 174.921 218.778L174.922 218.777L175.235 218.735C180.29 218.063 185.794 219.186 191.155 221.463C193.036 222.26 194.902 223.117 196.762 223.972C197.768 224.434 198.772 224.895 199.776 225.346C204.764 227.581 209.812 229.495 215.05 230.651L215.05 230.651C223.717 232.567 232.132 232.376 240.309 229.524C245.424 227.738 250.735 226.609 256.348 227.032L256.348 227.032C265.539 227.729 273.655 231.304 280.298 238.737L280.012 238.992L280.298 238.737C284.956 243.95 287.267 249.965 286.967 256.944C286.75 262.057 286.076 267.071 284.429 271.814L159.343 224.494ZM159.343 224.494C150.906 230.481 144.56 238.424 140.522 248.383C138.933 252.3 137.533 256.321 136.139 260.329C135.737 261.482 135.336 262.635 134.931 263.783L134.931 263.783M159.343 224.494L134.931 263.783M222.286 434.992C224.768 434.943 227.395 434.744 229.448 433.002C231.248 431.476 233.106 429.85 234.528 427.887C238.221 422.791 241.055 417.101 242.439 410.664L242.439 410.663C243.279 406.74 243.978 402.757 244.44 398.731C244.871 394.976 245.226 391.209 245.578 387.445L245.63 386.884C245.964 383.306 246.298 379.732 246.693 376.168C247.679 367.292 249.2 358.588 252.313 350.397C252.811 349.086 253.304 347.774 253.796 346.463C254.827 343.72 255.856 340.981 256.928 338.262L256.928 338.262C257.298 337.321 257.668 336.38 258.038 335.44C264.957 317.849 271.87 300.273 279.966 283.318C281.714 279.658 283.064 275.76 284.398 271.907L284.429 271.815L222.25 434.592M222.286 434.992L222.25 434.592M222.286 434.992C222.286 434.992 222.286 434.992 222.286 434.992L222.25 434.592M222.286 434.992C216.37 435.112 211.045 432.856 206.063 429.433L206.062 429.433C202.865 427.233 200.07 424.521 197.486 421.588C193.563 417.136 190.066 412.339 186.94 407.256C183.667 401.938 180.407 396.609 177.237 391.226M222.25 434.592C216.447 434.711 211.207 432.5 206.27 429.108C203.112 426.935 200.345 424.252 197.774 421.335C193.87 416.904 190.387 412.127 187.273 407.064C184 401.746 180.742 396.42 177.575 391.041M177.237 391.226C177.237 391.226 177.237 391.226 177.237 391.226L177.575 391.041M177.237 391.226L177.575 391.041M177.237 391.226C168.538 376.465 157.029 364.742 142.863 356.238C129.415 348.166 115.174 343.772 100.051 345.094M177.575 391.041C168.84 376.219 157.279 364.442 143.048 355.899C129.542 347.792 115.214 343.365 99.9886 344.696M99.9886 344.696L100.051 345.094C100.051 345.094 100.051 345.094 100.051 345.094M99.9886 344.696L100.051 345.094M99.9886 344.696L87.0014 344.913L86.9848 345.31C86.9849 345.31 86.985 345.31 86.9852 345.31C87.2725 345.342 87.5675 345.382 87.8674 345.423C88.7329 345.54 89.6387 345.663 90.517 345.632C93.699 345.521 96.8825 345.374 100.051 345.094M134.931 263.783C131.371 273.881 127.374 283.716 122.12 292.855L122.467 293.073M134.931 263.783L122.467 293.073M122.467 293.073L122.12 292.855C115.912 303.653 107.86 312.44 97.4468 318.684L122.467 293.073ZM83.2844 328.5C81.5092 330.174 80.4888 332.381 79.9506 334.886L97.4467 318.684C97.2385 318.808 97.0302 318.933 96.8218 319.058C94.0862 320.696 91.3328 322.345 88.6797 324.138L88.6795 324.138C86.7725 325.429 84.966 326.91 83.2844 328.5ZM242.051 410.553C242.889 406.639 243.586 402.668 244.046 398.657C244.498 394.722 244.866 390.771 245.235 386.82C245.569 383.242 245.903 379.664 246.299 376.096C247.286 367.206 248.812 358.466 251.941 350.232C252.438 348.924 252.93 347.613 253.423 346.302C254.454 343.559 255.485 340.814 256.557 338.092L242.051 410.553Z" fill="#B49C88" stroke="#304040" stroke-width="0.8"/>
<path opacity="0.6" d="M271.188 264.375C269.669 255.267 265.422 248.33 257.727 243.933C251.337 240.282 244.633 238.583 237.604 239.232L237.54 238.834L237.604 239.232C232.517 239.7 227.647 241.046 222.737 242.403L222.331 242.515C222.331 242.516 222.331 242.516 222.331 242.516C216.732 244.065 211.006 244.78 205.056 244.151C199.583 243.572 194.339 241.841 189.137 240.01M271.188 264.375L189.244 239.634M271.188 264.375L271.186 264.376C272.154 271.604 271.43 278.643 268.495 285.216C265.975 290.851 262.472 295.733 258.792 300.558C258.792 300.558 258.792 300.558 258.792 300.558L258.525 300.908C254.591 306.061 250.648 311.227 246.969 316.608L246.969 316.608C239.14 328.07 235.611 341.265 235.24 355.764C235.007 364.728 234.451 373.677 233.707 382.583C233.365 386.64 232.481 390.632 231.599 394.618C231.534 394.914 231.468 395.21 231.403 395.507L231.791 395.619L231.403 395.507C228.77 407.452 215.333 409.875 207.14 403.225L206.904 403.529L207.14 403.225C203.606 400.359 200.507 397.091 198.197 393.144L197.858 393.328L198.196 393.144C195.922 389.26 193.869 385.222 191.957 381.137L191.6 381.285L191.957 381.136C189.302 375.466 186.597 369.822 182.955 364.646L182.637 364.861L182.955 364.646C172.946 350.423 159.859 342.151 143.706 339.714L143.705 339.714C136.899 338.691 130.146 338.739 123.409 339.021M271.188 264.375L154.322 244.089M189.137 240.01L189.244 239.634M189.137 240.01C189.137 240.01 189.137 240.01 189.138 240.01L189.244 239.634M189.137 240.01C188.762 239.878 188.387 239.746 188.012 239.613C185.015 238.555 182.032 237.502 179.009 236.873M189.244 239.634C188.869 239.502 188.494 239.37 188.119 239.237C185.126 238.18 182.115 237.117 179.062 236.482M179.009 236.873C179.009 236.873 179.009 236.873 179.009 236.873L179.062 236.482M179.009 236.873C169.45 234.891 161.208 237.395 154.322 244.089M179.009 236.873L179.062 236.482M179.062 236.482L154.322 244.089M154.322 244.089L154.036 243.793L154.322 244.089C154.322 244.089 154.322 244.089 154.322 244.089ZM154.322 244.089C150.441 247.862 147.944 252.581 146.621 258.077M123.409 339.021C123.409 339.021 123.409 339.021 123.409 339.021L123.453 339.42L123.409 339.021ZM123.409 339.021C120.391 339.145 117.351 339.151 114.317 339.038M114.317 339.038C111.244 338.921 108.639 337.396 106.358 335.006M114.317 339.038C114.317 339.038 114.316 339.038 114.316 339.038L114.33 339.437M114.317 339.038L114.33 339.437M106.358 335.006C105.539 334.145 105.032 333.244 104.801 332.297C104.57 331.348 104.609 330.325 104.923 329.213M106.358 335.006C106.358 335.006 106.358 335.006 106.358 335.006L106.081 335.271L106.358 335.006C106.358 335.006 106.358 335.006 106.358 335.006ZM104.923 329.213C105.539 327.042 106.546 325.122 108.031 323.624M104.923 329.213L104.541 329.079M104.923 329.213C104.923 329.213 104.923 329.213 104.923 329.213L104.541 329.079M108.031 323.624C109.743 321.9 111.575 320.283 113.515 318.862L113.515 318.862C115.22 317.611 117.091 316.558 118.994 315.613M108.031 323.624C108.031 323.624 108.03 323.624 108.03 323.624L107.74 323.332M108.031 323.624L107.74 323.332M118.994 315.613C124.975 312.651 129.369 307.98 132.538 301.951C137.332 292.834 140.592 282.997 143.177 272.872L143.177 272.872C143.905 270.021 144.555 267.13 145.203 264.245C145.667 262.18 146.131 260.119 146.621 258.077M118.994 315.613C118.994 315.613 118.994 315.613 118.994 315.613L118.799 315.252M118.994 315.613L118.799 315.252M146.621 258.077L146.235 257.957L146.621 258.077C146.621 258.077 146.621 258.077 146.621 258.077ZM118.799 315.252C116.885 316.203 114.994 317.266 113.266 318.533M118.799 315.252C124.702 312.329 129.045 307.718 132.185 301.745C136.96 292.663 140.211 282.856 142.793 272.747L113.266 318.533M113.266 318.533C111.309 319.967 109.464 321.597 107.74 323.332M113.266 318.533L114.33 339.437M107.74 323.332C106.204 324.882 105.17 326.86 104.541 329.079M104.541 329.079C103.883 331.405 104.352 333.454 106.081 335.271C108.415 337.717 111.12 339.314 114.33 339.437M269.168 264.581L269.244 264.574C268.091 257.396 265.027 251.195 258.815 247.063L258.815 247.063C251.417 242.147 243.486 240.177 235.161 241.697C233.35 242.026 231.565 242.463 229.792 242.907C229.578 242.961 229.363 243.015 229.149 243.069C227.59 243.462 226.04 243.852 224.476 244.178L224.476 244.178C223.872 244.305 223.269 244.433 222.667 244.562C219.342 245.271 216.031 245.977 212.669 246.339L212.669 246.339C205.612 247.1 198.637 245.552 191.725 243.119C190.789 242.789 189.853 242.454 188.915 242.117C186.769 241.348 184.615 240.576 182.45 239.87C179.094 238.775 175.631 238.031 172.135 238.355C166.293 238.893 161.388 240.735 157.488 243.925C153.588 247.115 150.713 251.636 148.9 257.496L148.9 257.496C148.04 260.283 147.422 263.173 146.809 266.037C146.694 266.575 146.579 267.113 146.463 267.649C143.95 279.198 140.43 290.3 135.468 300.772L135.468 300.772C131.803 308.514 126.57 314.498 119.029 318.038C117.33 318.834 115.699 319.833 114.197 320.958L114.197 320.958C112.536 322.205 110.867 323.56 109.493 325.182L109.492 325.183C108.46 326.406 107.744 327.952 107.07 329.407C107.002 329.553 106.935 329.698 106.868 329.841L106.868 329.842C106.549 330.528 106.505 331.213 106.693 331.874C106.879 332.526 107.281 333.123 107.804 333.658C107.804 333.658 107.804 333.658 107.804 333.658L108.077 333.388M269.168 264.581L114.845 336.958M269.168 264.581L269.246 264.582C270.145 271.602 269.422 278.173 266.652 284.317L266.652 284.317C263.948 290.3 260.203 295.459 256.191 300.388L255.876 300.122L256.191 300.388C251.741 305.854 247.594 311.553 243.85 317.62C237.323 328.208 233.965 339.965 233.44 352.913C233.092 361.496 232.701 370.079 232.126 378.637L269.168 264.581ZM108.077 333.388C110.004 335.358 112.224 336.548 114.819 336.559M108.077 333.388C107.097 332.387 106.665 331.245 107.229 330.032L108.077 333.388ZM114.819 336.559L114.845 336.958M114.819 336.559L114.846 336.958C114.846 336.958 114.845 336.958 114.845 336.958M114.819 336.559C118.297 336.578 121.774 336.537 125.239 336.409C131.533 336.171 137.838 336.215 144.154 337.265M114.845 336.958C118.327 336.977 121.811 336.936 125.282 336.808L125.282 336.808C131.566 336.57 137.84 336.616 144.117 337.659M144.154 337.265L144.117 337.659M144.154 337.265L144.117 337.659C144.117 337.659 144.117 337.659 144.117 337.659M144.154 337.265C155.224 339.109 165.509 343.209 174.309 351.324C181.006 357.5 186.539 364.665 190.654 372.971M144.117 337.659L190.301 373.128M190.654 372.971L190.301 373.128M190.654 372.971L190.302 373.129C190.301 373.129 190.301 373.128 190.301 373.128M190.654 372.971C191.855 375.401 192.975 377.871 194.096 380.341C194.493 381.216 194.89 382.091 195.29 382.965M190.301 373.128C191.499 375.551 192.615 378.011 193.734 380.479C194.132 381.356 194.53 382.233 194.932 383.11M195.29 382.965L194.932 383.11M195.29 382.965L194.932 383.11C194.932 383.11 194.932 383.11 194.932 383.11M195.29 382.965C197.349 387.457 199.703 391.764 202.803 395.605M194.932 383.11L202.503 395.843M202.803 395.605L202.503 395.843C202.503 395.843 202.503 395.843 202.503 395.843M202.803 395.605L202.503 395.843M202.803 395.605C205.067 398.412 207.614 400.835 210.663 402.642L210.48 402.982C207.375 401.142 204.789 398.679 202.503 395.843" fill="#B49C88" stroke="#304040" stroke-width="0.8"/>
<path opacity="0.7" d="M200.875 253.704C205.514 255.947 210.306 256.819 215.197 256.582C223.419 256.189 230.556 259.345 236.998 265.137L237.251 264.848L236.998 265.137C238.929 266.872 240.5 268.922 241.851 271.178C244.175 275.067 244.424 279.214 243.579 283.44C242.779 287.447 241.182 291.07 238.878 294.264C237.875 295.655 236.814 296.982 235.747 298.318C235.183 299.025 234.616 299.734 234.056 300.455C233.592 301.05 233.119 301.643 232.645 302.238C231.484 303.693 230.313 305.161 229.245 306.706C224.173 314.033 221.983 322.434 222.859 331.835L222.859 331.835C223.297 336.535 223.828 341.234 224.358 345.928C224.541 347.548 224.724 349.168 224.903 350.787C225.515 356.337 226.024 361.864 225.681 367.343C225.536 369.668 225.226 372.048 224.452 374.114C223.345 377.063 221.393 378.882 219.096 379.531C216.801 380.18 214.102 379.677 211.458 377.863C208.891 376.099 206.75 373.805 205.185 371.074C203.186 367.576 201.414 363.935 199.649 360.281C198.982 358.899 198.372 357.488 197.759 356.068C197.612 355.729 197.465 355.39 197.317 355.05C196.552 353.292 195.761 351.533 194.839 349.841C190.419 341.73 184.061 336.099 175.325 334.282L175.325 334.282C172.289 333.651 169.153 333.62 166.131 333.618L166.13 333.618C165.288 333.619 164.447 333.624 163.607 333.629C159.015 333.656 154.461 333.684 149.886 332.986C147.815 332.669 145.752 332.163 143.679 331.648C141.938 331.215 140.597 330.37 139.569 329.205C138.535 328.035 137.799 326.522 137.303 324.731L137.303 324.731C137.137 324.132 137.018 323.535 136.895 322.919C136.837 322.623 136.777 322.323 136.711 322.017L136.71 322.017C136.047 317.967 136.534 314.126 138.304 310.723L138.304 310.723C139.83 307.788 141.434 304.825 143.565 302.505C150.649 294.789 154.403 285.348 156.036 274.675L156.036 274.674C156.435 272.058 156.962 269.471 157.565 266.907L157.565 266.906C158.525 262.787 160.374 259.159 162.875 255.93C168.369 248.846 175.713 246.499 184.416 247.992C187.597 248.539 190.755 249.615 193.911 250.691L194.133 250.766L194.133 250.766C196.336 251.515 198.486 252.552 200.645 253.593C200.722 253.63 200.799 253.667 200.875 253.704ZM200.875 253.704C200.875 253.704 200.875 253.704 200.875 253.704L201.026 253.346M200.875 253.704C200.876 253.704 200.876 253.704 200.876 253.704L201.026 253.346M201.026 253.346C200.946 253.308 200.867 253.27 200.787 253.231C198.634 252.193 196.463 251.146 194.236 250.389L215.151 256.183C210.319 256.417 205.596 255.556 201.026 253.346ZM220.441 330.622C220.852 336.011 221.466 341.394 222.08 346.771C222.116 347.089 222.152 347.407 222.188 347.724C222.906 354.042 223.58 360.357 223.363 366.672C223.359 366.797 223.355 366.922 223.351 367.047C223.308 368.303 223.265 369.591 222.94 370.755M220.441 330.622L139.791 324.856C140.528 327.112 141.904 328.674 144.132 329.196C144.416 329.263 144.701 329.331 144.986 329.399C146.779 329.826 148.575 330.253 150.377 330.521M220.441 330.622C219.862 323.045 221.288 315.992 224.656 309.527L220.441 330.622ZM222.94 370.755C222.529 372.248 221.966 373.778 221.107 374.997M222.94 370.755L223.323 370.887C223.323 370.887 223.323 370.888 223.323 370.888M222.94 370.755L223.323 370.888M221.107 374.997C219.37 377.469 216.669 378.052 213.975 376.491M221.107 374.997L221.436 375.243C222.33 373.973 222.907 372.396 223.323 370.888M221.107 374.997L144.068 329.584C141.66 329.02 140.186 327.318 139.415 324.956L139.415 324.956C138.217 321.287 137.962 317.571 139.234 314.053C140.073 311.73 141.187 309.489 142.476 307.436C143.807 305.305 145.415 303.366 147.028 301.5C151.584 296.22 154.631 290.006 156.295 282.973C157.076 279.663 157.709 276.307 158.344 272.94C158.552 271.837 158.76 270.734 158.973 269.631C159.847 265.112 161.552 261.038 164.284 257.54C167.628 253.258 171.808 250.344 177.115 249.915L177.313 249.896C182.692 249.362 187.698 250.342 192.588 252.323L192.588 252.323C195.289 253.419 197.982 254.576 200.634 255.846C205.279 258.069 210.064 258.867 214.994 258.707L214.995 258.707C218.742 258.589 222.449 258.997 226.139 260.492C230.78 262.372 234.556 265.515 237.984 269.199L237.984 269.2C241.632 273.121 242.675 277.703 241.685 282.688L241.685 282.689C240.939 286.424 239.493 289.831 237.335 292.807M213.975 376.491C212.368 375.564 210.865 374.283 209.544 372.912C206.995 370.263 205.226 367.022 203.701 363.665M213.975 376.491L213.796 376.834C213.796 376.834 213.796 376.834 213.795 376.834M213.975 376.491L213.795 376.834M203.701 363.665C202.93 361.971 202.197 360.262 201.463 358.553C200.871 357.176 200.28 355.798 199.669 354.428M203.701 363.665L203.342 363.809C203.342 363.809 203.342 363.809 203.342 363.809M203.701 363.665L203.342 363.809M199.669 354.428L199.638 354.359C198.854 352.603 198.063 350.833 197.137 349.149C190.461 336.96 180.701 330.816 167.764 331.023M199.669 354.428L199.309 354.57M199.669 354.428L199.309 354.57L199.282 354.508C198.495 352.747 197.71 350.991 196.793 349.323L196.793 349.323C193.483 343.28 189.423 338.759 184.608 335.773C179.795 332.788 174.201 331.32 167.799 331.422M167.764 331.023C166.988 331.035 166.213 331.051 165.438 331.067C160.425 331.169 155.412 331.272 150.377 330.521M167.764 331.023L167.799 331.422M167.764 331.023L167.798 331.422C167.798 331.422 167.798 331.422 167.799 331.422M150.377 330.521L150.347 330.916M150.377 330.521L150.346 330.916C150.346 330.916 150.346 330.916 150.347 330.916M237.335 292.807L237.008 292.557L237.335 292.807C237.335 292.807 237.335 292.807 237.335 292.807ZM237.335 292.807C235.659 295.124 233.862 297.332 232.063 299.523L232.063 299.523C229.43 302.722 226.949 306.006 225.01 309.732L225.01 309.732C221.674 316.134 220.263 323.116 220.837 330.62L220.837 330.62C221.247 336 221.86 341.376 222.474 346.756C222.51 347.073 222.546 347.39 222.582 347.707L222.583 347.707C223.3 354.023 223.978 360.365 223.76 366.714L223.76 366.715C223.755 366.84 223.751 366.966 223.747 367.094C223.705 368.341 223.66 369.676 223.323 370.888M213.795 376.834C212.143 375.88 210.609 374.57 209.269 373.179L209.269 373.179C206.668 370.476 204.874 367.181 203.342 363.809M213.795 376.834L199.309 354.57M203.342 363.809C202.573 362.119 201.833 360.396 201.096 358.679C200.504 357.299 199.913 355.923 199.309 354.57M199.309 354.57L150.347 330.916M167.799 331.422C167.026 331.434 166.252 331.45 165.477 331.466C160.468 331.569 155.418 331.672 150.347 330.916" fill="#B49C88" stroke="#304040" stroke-width="0.8"/>
<path opacity="0.75" d="M179.985 260.009L179.985 260.01C175.966 260.467 172.822 262.003 170.792 265.236C169.499 267.3 168.448 269.598 167.597 271.949L179.985 260.009ZM179.985 260.009C182.403 259.819 185.063 260.24 187.721 261.158L187.721 261.158C191.153 262.338 194.285 264.195 197.464 266.081C198.383 266.625 199.306 267.172 200.24 267.706L179.985 260.009ZM210.759 272.308L210.759 272.308C210.241 272.106 209.718 271.922 209.188 271.735C209.051 271.687 208.913 271.638 208.774 271.589C208.106 271.352 207.43 271.104 206.765 270.809C206.45 270.67 206.134 270.531 205.816 270.392C203.946 269.572 202.046 268.739 200.24 267.706C200.24 267.706 200.241 267.706 200.241 267.706L210.759 272.308ZM210.759 272.308C214.02 273.584 216.343 276.006 218.051 279.247C218.941 280.936 219.337 282.548 219.262 284.081C219.187 285.614 218.64 287.096 217.599 288.519L217.599 288.519M210.759 272.308L217.599 288.519M217.599 288.519C217.005 289.33 216.356 290.097 215.694 290.869C215.615 290.96 215.536 291.052 215.457 291.144C214.874 291.822 214.284 292.508 213.727 293.224M217.599 288.519L209.832 298.537M213.457 330.465C214.103 326.737 213.949 322.941 213.044 319.214C212.053 315.138 210.82 311.097 209.497 307.104C208.484 304.061 208.536 301.282 210.169 298.772C211.362 296.932 212.701 295.201 214.045 293.484C214.597 292.776 215.181 292.097 215.765 291.418L213.457 330.465ZM213.457 330.465C212.983 333.203 212.048 335.697 210.363 337.787L213.457 330.465ZM213.727 293.224C212.384 294.94 211.035 296.682 209.832 298.537M213.727 293.224L214.045 293.484L213.726 293.225C213.726 293.224 213.727 293.224 213.727 293.224ZM209.832 298.537C208.122 301.167 208.08 304.076 209.121 307.206C210.443 311.193 211.672 315.222 212.659 319.282C213.551 322.956 213.703 326.696 213.066 330.37L213.066 330.37C212.6 333.063 211.684 335.493 210.048 337.522C208.811 339.054 207.458 339.973 206.014 340.268C204.577 340.562 202.996 340.249 201.268 339.21C198.805 337.728 196.501 335.794 194.334 333.768L194.334 333.767C193.111 332.627 191.958 331.396 190.809 330.139C190.572 329.881 190.336 329.621 190.099 329.361C189.188 328.36 188.271 327.353 187.325 326.384C183.368 322.326 178.693 320.351 173.36 320.59L173.36 320.59C172.669 320.622 171.993 320.674 171.324 320.726C169.983 320.831 168.673 320.933 167.339 320.858L167.339 320.858C164.607 320.705 161.865 320.416 159.168 319.872L159.168 319.872C156.784 319.394 154.658 318.032 152.859 316.11C151.497 314.653 150.79 313.299 150.67 311.977C150.551 310.658 151.01 309.293 152.141 307.811L209.832 298.537ZM209.978 316.119C209.349 313.934 208.649 311.762 207.95 309.598C207.569 308.417 207.189 307.239 206.821 306.061C206.07 303.646 206.217 301.307 207.256 299.198L207.256 299.198C208.155 297.37 209.223 295.619 210.399 293.985C211.178 292.905 212.043 291.921 212.922 290.922C213.428 290.346 213.939 289.765 214.44 289.158L214.441 289.158C215.135 288.315 215.831 287.443 216.429 286.497L216.43 286.495C217.308 285.088 217.473 283.534 216.901 281.792C215.836 278.532 213.888 276.08 210.881 274.66L210.881 274.66C209.813 274.157 208.692 273.753 207.595 273.357C207.075 273.17 206.561 272.984 206.06 272.791L206.059 272.791C203.347 271.752 200.729 270.665 198.275 269.005L198.274 269.005C194.603 266.525 190.762 264.303 186.551 262.974L186.551 262.974C184.439 262.309 182.319 261.998 179.93 262.246L179.652 262.267C176.6 262.503 173.917 264.019 172.154 266.9L172.153 266.9C171.127 268.579 170.087 270.42 169.589 272.408L169.589 272.409C168.824 275.474 168.23 278.676 168.072 281.897L168.072 281.897C167.83 286.949 166.493 291.473 164.222 295.733L164.222 295.733C162.314 299.317 159.944 302.475 157.172 305.319L157.172 305.319C156.057 306.463 154.98 307.65 153.933 308.863C153.172 309.739 152.628 310.618 152.66 311.642C152.691 312.673 153.298 313.729 154.521 314.956C156.594 317.037 159.136 318.08 161.793 318.358L161.793 318.358C163.904 318.578 166.026 318.587 168.122 318.597C168.703 318.599 169.281 318.602 169.857 318.609L169.857 318.609C170.683 318.618 171.51 318.589 172.326 318.561C172.559 318.553 172.791 318.545 173.021 318.538C174.067 318.505 175.096 318.492 176.12 318.575L176.12 318.575C180.857 318.955 184.964 321.178 188.495 324.757C189.503 325.779 190.474 326.842 191.452 327.912C191.624 328.101 191.797 328.289 191.97 328.478C193.121 329.735 194.289 330.991 195.528 332.169L209.598 316.204M209.978 316.119L209.598 316.204M209.978 316.119C209.978 316.118 209.978 316.118 209.978 316.118L209.598 316.204M209.978 316.119C211.193 320.316 211.779 324.589 211.275 328.898M209.598 316.204C210.801 320.363 211.377 324.58 210.881 328.824M211.275 328.898L210.881 328.824M211.275 328.898C211.275 328.898 211.275 328.898 211.275 328.898L210.881 328.824M211.275 328.898C210.975 331.48 210.223 333.902 208.638 335.923C207.692 337.128 206.712 337.924 205.579 338.166C204.431 338.412 203.213 338.074 201.85 337.21L201.85 337.21C199.597 335.779 197.479 334.027 195.528 332.169L210.881 328.824M156.089 303.399C156.168 303.318 156.246 303.237 156.325 303.156L152.141 307.811C153.335 306.248 154.709 304.827 156.089 303.399ZM163.32 292.974C164.97 289.62 165.923 286.049 166.05 282.163C166.168 278.627 166.441 275.141 167.597 271.949L163.32 292.974Z" fill="#B49C88" stroke="#304040" stroke-width="0.8"/>
<path opacity="0.8" d="M168.781 305.347L168.782 305.352C169.335 306.828 170.134 308.689 171.726 310.067L168.781 305.347ZM168.781 305.347C168.537 303.961 168.602 302.86 168.881 301.931C169.161 301.002 169.664 300.22 170.33 299.484L170.331 299.484M168.781 305.347L170.331 299.484M170.331 299.484C170.663 299.116 171.001 298.748 171.34 298.379C171.981 297.68 172.627 296.976 173.252 296.257C175.487 293.687 176.56 290.556 176.852 287.033L176.852 287.033M170.331 299.484L176.852 287.033M176.852 287.033C177.08 284.293 177.315 281.56 177.803 278.911L177.803 278.911M176.852 287.033L177.803 278.911M177.803 278.911C178.326 276.057 179.811 273.902 182.315 272.645M177.803 278.911L182.315 272.645M193.011 275.461L193.011 275.461C192.852 275.355 192.693 275.248 192.535 275.142C191.114 274.188 189.716 273.248 188.244 272.495L193.011 275.461ZM193.011 275.461C193.212 275.596 193.413 275.73 193.614 275.864C195.937 277.417 198.254 278.965 200.489 280.637C201.661 281.516 202.782 282.577 203.657 283.756C204.492 284.885 204.864 285.946 204.833 286.941C204.803 287.938 204.368 288.927 203.48 289.898L203.48 289.898M193.011 275.461L203.48 289.898M203.48 289.898C202.91 290.522 202.283 291.094 201.635 291.662C201.474 291.804 201.31 291.946 201.145 292.089C200.657 292.514 200.162 292.944 199.687 293.392L203.48 289.898ZM200.145 311.09L200.145 311.09C199.245 308.53 198.233 305.996 197.048 303.565C196.315 302.063 196.007 300.639 196.127 299.279C196.247 297.92 196.792 296.656 197.714 295.466C197.714 295.466 197.714 295.466 197.714 295.466L198.034 295.725L200.145 311.09ZM200.145 311.09C200.989 313.486 201.114 315.967 200.622 318.413L200.622 318.414M200.145 311.09L200.622 318.414M200.622 318.414C200.223 320.411 199.322 322.061 197.803 323.237C197.086 323.791 196.415 324.049 195.761 324.051C195.11 324.052 194.421 323.8 193.658 323.227C192.085 322.043 190.55 320.778 189.083 319.444C186.131 316.748 182.829 314.89 179.105 313.909L179.104 313.909M200.622 318.414L179.104 313.909M179.104 313.909C176.414 313.203 173.928 311.97 171.726 310.067L179.104 313.909ZM170.512 304.39L170.57 304.334C170.465 302.76 171.131 301.737 171.938 300.85C172.08 300.694 172.222 300.538 172.364 300.382C173.34 299.31 174.31 298.244 175.223 297.127L175.224 297.127C177.455 294.408 178.5 291.106 178.797 287.411C178.802 287.343 178.807 287.275 178.813 287.207C179.002 284.843 179.193 282.453 179.565 280.109L179.565 280.108C179.92 277.884 180.88 275.938 182.887 274.774C184.417 273.884 186.089 273.605 187.83 274.537C189.173 275.252 190.456 276.113 191.705 276.982C193.481 278.218 195.244 279.477 197.004 280.733C197.846 281.334 198.687 281.935 199.528 282.532L199.535 282.537L199.535 282.537C199.608 282.591 199.685 282.639 199.781 282.699L199.791 282.705C199.886 282.764 199.999 282.835 200.11 282.92C200.11 282.92 200.11 282.92 200.111 282.921L199.884 283.232L170.512 304.39ZM170.512 304.39L170.607 304.636M170.512 304.39L170.607 304.636M170.607 304.636C170.62 304.669 170.636 304.717 170.656 304.777M170.607 304.636L170.656 304.777M179.656 311.855L179.655 311.855C177.918 311.341 176.237 310.485 174.629 309.666C174.577 309.64 174.526 309.614 174.475 309.588C174.475 309.588 174.474 309.588 174.474 309.587L174.633 309.234L179.656 311.855ZM179.656 311.855C183.513 312.989 186.983 314.844 190.064 317.643L190.064 317.643M179.656 311.855L190.064 317.643M190.064 317.643C191.383 318.841 192.753 319.971 194.139 321.064C194.735 321.534 195.264 321.875 195.816 321.825C196.096 321.8 196.338 321.679 196.563 321.508C196.785 321.339 197.011 321.106 197.257 320.826L197.257 320.826M190.064 317.643L197.257 320.826M197.257 320.826C198.381 319.547 198.824 317.959 198.889 316.248L198.889 316.248M197.257 320.826L198.889 316.248M198.889 316.248C198.975 313.911 198.459 311.651 197.59 309.495L197.59 309.494M198.889 316.248L197.59 309.494M197.59 309.494C197.09 308.262 196.535 307.035 195.984 305.817C195.631 305.036 195.279 304.258 194.945 303.485L194.945 303.485M197.59 309.494L194.945 303.485M194.945 303.485C193.753 300.734 193.668 298.074 195.169 295.726L194.945 303.485ZM182.315 272.645C184.271 271.663 186.249 271.477 188.244 272.495L182.315 272.645ZM170.656 304.777C170.726 304.982 170.842 305.322 171 305.608L170.656 304.777Z" fill="#B49C88" stroke="#304040" stroke-width="0.8"/>
</svg>
