<svg width="594" height="588" viewBox="0 0 594 588" fill="none" xmlns="http://www.w3.org/2000/svg">
<path opacity="0.01" d="M289.784 317.704L288.475 317.382C286.382 316.866 284.288 316.285 282.391 315.189C281.018 314.415 280.233 313.318 279.513 312.286C279.055 311.641 278.663 310.996 278.074 310.48C277.485 309.9 276.765 309.384 275.98 308.803C274.607 307.771 273.102 306.739 272.317 305.32C271.467 303.836 272.186 302.353 272.84 301.192C273.298 300.289 273.691 299.515 273.494 298.805C273.298 298.031 272.579 296.999 271.99 296.032C271.009 294.548 269.962 293 269.962 291.388C269.962 290.614 269.831 289.84 269.7 289.13C269.504 287.84 269.308 286.55 269.7 285.002C270.158 283.196 270.943 281.97 271.794 280.68C272.055 280.293 272.317 279.842 272.579 279.39C272.906 278.874 273.233 278.229 273.56 277.584C274.476 275.907 275.457 273.972 276.7 272.747C278.008 271.456 279.513 270.682 280.952 269.908C281.476 269.65 282.064 269.392 282.588 269.07C284.616 267.909 286.644 267.393 288.868 266.812H289.195C289.849 266.554 290.503 266.361 291.157 266.103C292.727 265.587 294.297 265.071 296.064 265.071C297.83 265.071 299.4 265.587 300.905 266.103C301.559 266.296 302.213 266.554 302.867 266.683C303.521 266.877 304.241 267.006 304.895 267.135C306.531 267.457 308.166 267.78 309.671 268.618C311.045 269.392 311.764 271.134 312.418 272.876C312.876 274.037 313.334 275.198 313.923 275.778C314.446 276.294 315.231 276.488 316.147 276.617C317.325 276.81 318.764 277.068 319.614 278.487C320.661 280.293 321.25 282.293 321.708 284.228L322.166 285.84C322.689 287.775 323.278 289.84 323.278 291.904C323.278 293.968 322.754 295.774 322.231 297.58L321.642 299.837C321.184 301.708 320.661 303.578 319.68 305.32C318.633 307.126 317.128 308.545 315.755 309.9L314.446 311.19C313.007 312.609 311.568 314.092 309.736 315.124C308.101 316.027 306.269 316.479 304.568 316.93C304.045 317.059 303.521 317.188 302.998 317.317C302.475 317.446 302.017 317.575 301.493 317.769C299.793 318.285 298.026 318.801 296.129 318.801C293.905 318.801 292.008 318.285 289.914 317.704H289.784ZM291.681 267.78C291.027 268.038 290.307 268.231 289.587 268.425H289.26C287.167 269.07 285.27 269.586 283.438 270.553C282.849 270.876 282.326 271.134 281.737 271.457C280.298 272.166 278.99 272.876 277.943 273.908C276.896 274.94 275.98 276.746 275.13 278.294C274.803 278.939 274.476 279.584 274.083 280.164C273.822 280.68 273.495 281.132 273.233 281.519C272.448 282.809 271.794 283.776 271.401 285.324C271.074 286.485 271.27 287.517 271.401 288.679C271.532 289.453 271.663 290.291 271.663 291.259C271.663 292.291 272.513 293.581 273.429 294.871C274.149 295.967 274.934 297.064 275.195 298.16C275.588 299.515 274.934 300.805 274.41 301.901C273.822 302.998 273.56 303.707 273.887 304.288C274.476 305.32 275.784 306.288 277.027 307.191C277.812 307.771 278.663 308.416 279.317 309.061C280.036 309.771 280.494 310.48 281.018 311.19C281.672 312.157 282.261 312.996 283.242 313.576C284.943 314.544 286.905 315.06 288.868 315.576L290.176 315.963C292.139 316.479 293.97 316.995 295.868 316.995C297.503 316.995 299.073 316.543 300.708 316.027C301.232 315.898 301.755 315.705 302.279 315.576C302.802 315.447 303.325 315.318 303.849 315.189C305.549 314.802 307.119 314.415 308.493 313.641C310.129 312.738 311.437 311.383 312.811 310.029L314.119 308.739C315.493 307.384 316.801 306.094 317.717 304.546C318.633 303.062 319.026 301.321 319.483 299.515L320.138 297.193C320.661 295.451 321.119 293.774 321.119 292.033C321.119 290.162 320.596 288.356 320.072 286.421L319.614 284.808C319.091 282.938 318.633 281.132 317.717 279.519C317.325 278.874 316.671 278.745 315.558 278.487C314.512 278.294 313.334 278.1 312.353 277.133C311.502 276.294 310.979 274.94 310.39 273.65C309.802 272.231 309.213 270.811 308.428 270.36C307.185 269.65 305.746 269.392 304.241 269.07C303.521 268.941 302.802 268.812 302.082 268.618C301.363 268.425 300.708 268.167 299.989 267.973C298.55 267.457 297.176 267.006 295.737 267.006C294.297 267.006 292.924 267.457 291.419 267.973L291.681 267.78Z" fill="#B49C88" stroke="#304040" stroke-width="0.6"/>
<path opacity="0.02" d="M292.531 332.475C291.157 331.701 289.849 330.862 288.409 330.604C287.166 330.346 285.4 330.475 283.634 330.669C282.587 330.798 281.41 330.927 280.363 330.927C278.858 330.927 277.681 330.669 276.634 330.153C274.148 328.927 272.251 327.121 270.419 325.38C269.7 324.67 268.98 323.961 268.13 323.251C267.345 322.542 266.494 321.897 265.709 321.252C263.55 319.51 261.261 317.704 259.691 315.382C258.317 313.318 257.859 311.06 257.467 308.932C257.205 307.706 257.009 306.416 256.551 305.126C255.308 301.385 254.981 296.289 254.719 292.871C254.654 291.452 254.261 290.226 253.868 289.065C253.28 287.259 252.691 285.388 253.214 283.002C253.672 280.68 255.635 278.487 257.532 276.423C258.84 275.004 260.083 273.649 260.737 272.359C261.392 271.069 261.457 269.779 261.522 268.489C261.588 266.683 261.653 264.812 263.289 263.071C265.971 260.039 268.718 257.653 271.728 255.653C273.886 254.234 276.896 253.589 279.774 252.944C281.279 252.621 282.718 252.299 283.895 251.912C287.428 250.751 289.391 250.106 293.25 249.848C296.129 249.654 298.68 250.235 301.428 250.88C302.343 251.073 303.259 251.331 304.175 251.46C305.549 251.718 306.923 251.718 308.427 251.718C310.782 251.718 313.203 251.718 315.362 252.815C317.586 253.912 319.025 255.782 320.399 257.588C321.315 258.749 322.165 259.846 323.212 260.749C324.258 261.652 325.501 262.361 326.81 263.135C328.838 264.296 330.931 265.522 332.305 267.521C333.744 269.65 334.267 272.166 334.791 274.617C335.052 275.971 335.38 277.261 335.772 278.487C336.165 279.712 336.753 280.873 337.342 282.034C338.323 284.034 339.37 286.162 339.566 288.614C339.763 291.323 339.043 293.903 338.389 296.354C338.127 297.386 337.865 298.418 337.604 299.45C337.408 300.482 337.211 301.578 337.08 302.675C336.688 305.32 336.295 308.029 335.052 310.48C333.875 312.866 331.978 314.608 330.212 316.349C329.361 317.123 328.511 317.962 327.726 318.865C326.941 319.768 326.221 320.736 325.501 321.639C323.931 323.638 322.361 325.767 320.137 327.25C317.847 328.734 315.296 329.443 312.876 330.088C311.829 330.346 310.717 330.669 309.67 330.991C308.624 331.314 307.577 331.765 306.53 332.152C304.044 333.12 301.493 334.152 298.745 334.345C298.615 334.345 298.484 334.345 298.287 334.345C296.063 334.345 294.232 333.249 292.465 332.217L292.531 332.475ZM293.381 251.847C289.783 252.041 288.017 252.621 284.484 253.847C283.176 254.299 281.737 254.621 280.167 254.944C277.419 255.524 274.606 256.169 272.774 257.395C269.896 259.265 267.279 261.587 264.663 264.49C263.485 265.78 263.485 267.199 263.354 268.811C263.354 270.23 263.223 271.779 262.373 273.456C261.588 274.939 260.279 276.423 258.906 277.906C257.205 279.777 255.373 281.776 254.981 283.582C254.588 285.453 255.046 287.001 255.635 288.678C256.027 289.968 256.485 291.323 256.551 292.935C256.747 296.225 257.074 301.191 258.252 304.675C258.709 306.029 258.971 307.384 259.233 308.738C259.625 310.802 259.952 312.737 261.195 314.479C262.569 316.543 264.728 318.284 266.821 319.897C267.672 320.606 268.522 321.252 269.307 321.961C270.158 322.671 270.877 323.38 271.662 324.154C273.429 325.896 275.129 327.508 277.419 328.605C278.858 329.314 281.017 329.185 283.372 328.927C285.204 328.734 287.166 328.54 288.671 328.863C290.437 329.185 291.942 330.088 293.381 330.927C295.017 331.894 296.587 332.797 298.287 332.797C298.287 332.797 298.484 332.797 298.615 332.797C301.035 332.668 303.39 331.701 305.811 330.733C306.923 330.282 307.969 329.895 309.081 329.508C310.194 329.121 311.306 328.863 312.418 328.54C314.838 327.895 317.128 327.315 319.156 325.96C321.118 324.67 322.558 322.8 324.062 320.8C324.782 319.832 325.567 318.865 326.352 317.897C327.202 316.994 328.053 316.091 328.969 315.317C330.735 313.64 332.436 312.028 333.482 309.964C334.595 307.771 334.922 305.32 335.314 302.739C335.445 301.643 335.641 300.546 335.838 299.45C336.034 298.353 336.361 297.257 336.623 296.225C337.277 293.774 337.865 291.516 337.735 289.065C337.604 286.936 336.688 285.066 335.707 283.131C335.118 281.97 334.529 280.744 334.071 279.39C333.613 278.1 333.286 276.681 333.025 275.326C332.501 272.94 332.043 270.682 330.8 268.876C329.688 267.199 327.856 266.167 325.894 265.07C324.586 264.296 323.212 263.522 322.034 262.49C320.857 261.458 319.875 260.233 318.96 259.007C317.651 257.266 316.408 255.653 314.577 254.815C312.745 253.911 310.651 253.911 308.427 253.911C306.923 253.911 305.353 253.911 303.783 253.589C302.801 253.395 301.885 253.202 300.97 252.944C298.68 252.428 296.587 251.912 294.297 251.912C293.97 251.912 293.708 251.912 293.381 251.912V251.847Z" fill="#B49C88" stroke="#304040" stroke-width="0.6"/>
<path opacity="0.03" d="M286.054 348.923C284.55 348.407 283.045 347.891 281.41 347.44C279.839 347.053 278.204 346.73 276.503 346.408C272.84 345.698 269.111 344.989 265.905 343.183C263.027 341.57 261.326 339.055 259.691 336.668C258.644 335.12 257.597 333.572 256.158 332.153C254.784 330.798 253.083 329.573 251.186 328.283C248.177 326.219 245.102 324.026 243.467 321.188C241.112 317.188 239.476 313.06 237.906 307.255C237.056 304.223 238.43 300.289 239.738 296.548C240.719 293.774 241.635 291.194 241.635 289.13C241.635 287.066 240.654 285.518 239.673 283.841C238.43 281.777 237.121 279.648 237.906 276.617C238.757 273.456 240.131 272.037 241.635 270.489C242.617 269.457 243.663 268.36 244.644 266.683C245.626 265.071 246.542 262.62 247.457 260.104C249.093 255.847 250.728 251.396 253.149 249.074C255.504 246.752 258.448 245.785 261.326 244.882C263.158 244.301 265.12 243.656 266.821 242.689C270.092 240.818 273.363 240.173 276.896 239.464C278.335 239.206 279.839 238.883 281.279 238.496C283.241 237.98 285.138 236.948 286.97 235.916C289.718 234.368 292.531 232.82 295.802 232.82C299.072 232.82 301.82 234.368 304.568 235.916C306.399 236.948 308.296 237.98 310.259 238.56C312.221 239.077 314.446 239.077 316.539 239.141C319.745 239.141 323.015 239.141 325.828 240.818C328.772 242.495 330.866 245.333 332.828 248.042C334.071 249.719 335.249 251.332 336.622 252.686C337.996 254.041 339.566 255.137 341.136 256.17C343.622 257.847 346.174 259.588 347.809 262.426C349.575 265.522 350.229 268.876 350.818 272.166C351.08 273.779 351.407 275.456 351.865 277.004C352.323 278.616 352.912 280.229 353.435 281.777C354.612 285.066 355.855 288.421 355.855 291.968C355.855 295.516 354.612 298.547 353.37 301.579C352.715 303.191 352.061 304.868 351.603 306.61C351.145 308.287 350.884 310.093 350.622 311.899C350.099 315.189 349.575 318.607 347.809 321.639C346.043 324.735 343.361 326.864 340.809 328.992C339.501 330.024 338.193 331.121 337.015 332.346C335.837 333.507 334.66 334.862 333.548 336.152C331.258 338.797 328.969 341.57 325.828 343.312C322.885 344.989 319.548 345.311 316.343 345.698C314.446 345.892 312.483 346.085 310.586 346.601C308.754 347.117 306.923 347.891 305.156 348.665C302.212 349.955 299.138 351.31 295.736 351.31C292.073 351.31 289.063 350.213 285.793 349.117L286.054 348.923ZM288.082 237.335C286.12 238.431 284.157 239.528 281.933 240.109C280.428 240.496 278.858 240.818 277.419 241.141C274.083 241.85 270.877 242.495 267.933 244.172C266.036 245.269 264.008 245.914 262.046 246.494C259.233 247.397 256.616 248.236 254.588 250.235C252.495 252.299 250.794 256.75 249.355 260.62C248.373 263.265 247.392 265.716 246.411 267.522C245.299 269.392 244.121 270.618 243.14 271.714C241.701 273.198 240.589 274.424 239.869 277.068C239.28 279.39 240.261 281.003 241.439 282.873C242.486 284.55 243.663 286.485 243.663 289.13C243.663 291.452 242.682 294.226 241.701 297.128C240.458 300.611 239.215 304.223 239.934 306.739C241.439 312.415 243.074 316.414 245.299 320.22C246.803 322.736 249.682 324.8 252.495 326.799C254.326 328.089 256.224 329.379 257.663 330.863C259.167 332.346 260.279 334.023 261.392 335.636C262.962 337.958 264.466 340.151 266.952 341.57C269.83 343.247 273.494 343.892 276.961 344.537C278.662 344.86 280.363 345.182 281.998 345.634C283.634 346.085 285.269 346.601 286.774 347.182C289.848 348.278 292.792 349.246 296.063 349.246C299.072 349.246 301.82 348.02 304.698 346.795C306.53 346.021 308.427 345.182 310.39 344.666C312.352 344.15 314.446 343.957 316.408 343.699C319.548 343.376 322.558 343.054 325.109 341.57C327.922 339.958 330.081 337.442 332.305 334.797C333.417 333.443 334.595 332.088 335.837 330.863C337.08 329.637 338.454 328.476 339.763 327.38C342.314 325.316 344.734 323.316 346.304 320.543C347.874 317.833 348.332 314.737 348.856 311.448C349.117 309.642 349.444 307.771 349.902 305.965C350.426 304.159 351.08 302.417 351.734 300.74C352.912 297.773 354.089 294.871 354.089 291.775C354.089 288.679 352.977 285.453 351.799 282.164C351.211 280.551 350.622 278.939 350.164 277.262C349.706 275.585 349.379 273.908 349.117 272.231C348.529 268.941 348.005 265.909 346.37 263.071C344.931 260.556 342.641 259.008 340.22 257.395C338.585 256.299 336.95 255.138 335.445 253.718C334.006 252.299 332.697 250.558 331.454 248.881C329.557 246.301 327.595 243.592 324.978 242.173C322.558 240.818 319.679 240.754 316.604 240.754C314.38 240.754 312.025 240.754 309.801 240.109C307.577 239.528 305.614 238.431 303.652 237.335C301.035 235.851 298.615 234.497 295.867 234.497C293.119 234.497 290.568 235.916 287.951 237.335H288.082Z" fill="#B49C88" stroke="#304040" stroke-width="0.6"/>
<path opacity="0.04" d="M301.036 365.565C298.942 365.307 296.784 365.049 294.559 364.984C292.401 364.92 290.045 364.984 287.821 365.178C285.924 365.307 283.962 365.371 282.064 365.371C278.859 365.371 276.308 365.049 274.018 364.404C270.028 363.243 267.345 360.598 264.794 358.082C263.028 356.405 261.261 354.599 259.037 353.245C256.878 351.955 254.196 350.923 251.383 349.891C247 348.278 242.552 346.601 239.673 343.569C234.702 338.345 231.431 332.991 228.683 327.96C226.59 324.154 225.936 318.607 225.347 313.254C225.02 310.351 224.693 307.577 224.169 305.384C223.581 302.933 222.73 301.127 221.945 299.386C220.702 296.677 219.525 294.161 219.655 290.033C219.786 286.034 221.095 283.97 222.468 281.841C223.45 280.293 224.496 278.745 225.281 276.229C226.001 273.843 226.394 270.424 226.786 266.748C227.44 260.878 228.094 254.815 230.319 251.267C232.477 247.784 235.879 245.914 239.216 244.043C241.44 242.817 243.795 241.527 245.692 239.721C249.094 236.561 252.888 234.884 256.944 233.142C258.776 232.368 260.607 231.53 262.439 230.562C264.794 229.337 266.822 227.337 268.785 225.402C271.598 222.628 274.541 219.79 278.532 218.887C279.448 218.694 280.364 218.565 281.345 218.565C284.289 218.565 287.233 219.532 290.045 220.435C292.662 221.274 295.344 222.177 298.027 222.241H298.419C300.97 222.241 303.652 221.532 306.204 220.887C308.886 220.177 311.633 219.468 314.381 219.468C315.689 219.468 316.932 219.661 318.11 219.984C322.166 221.145 325.437 224.176 328.708 227.014C330.801 228.885 332.764 230.627 334.922 231.917C337.081 233.271 339.502 234.11 341.791 234.884C345.324 236.109 348.922 237.399 351.8 240.431C354.875 243.656 356.51 247.591 358.08 251.396C358.931 253.396 359.781 255.46 360.828 257.459C361.875 259.394 363.183 261.329 364.491 263.136C366.977 266.748 369.463 270.424 370.51 274.746C371.491 278.939 370.837 283.067 370.183 287.066C369.79 289.323 369.398 291.71 369.332 294.032C369.332 296.354 369.529 298.805 369.725 301.127C370.117 305.255 370.575 309.577 369.332 313.705C368.089 317.898 365.407 321.187 362.856 324.412C361.482 326.154 360.043 327.96 358.865 329.831C357.688 331.701 356.641 333.83 355.66 335.894C353.763 339.828 351.8 343.827 348.529 346.859C345.455 349.697 341.464 350.987 337.605 352.213C335.184 352.987 332.698 353.761 330.474 354.986C328.25 356.147 326.222 357.76 324.194 359.308C320.988 361.824 317.717 364.404 313.596 365.371C311.895 365.758 310.129 365.952 308.166 365.952C305.746 365.952 303.391 365.629 301.036 365.371V365.565ZM306.596 222.628C303.914 223.338 301.101 224.047 298.288 224.047H297.83C294.886 223.983 292.073 223.015 289.326 222.112C286.513 221.209 283.896 220.306 281.279 220.306C280.429 220.306 279.644 220.371 278.859 220.564C275.392 221.338 272.775 223.918 270.028 226.627C267.934 228.627 265.775 230.691 263.224 232.11C261.327 233.142 259.43 233.981 257.598 234.755C253.738 236.496 250.075 238.109 246.869 241.011C244.776 242.946 242.421 244.301 240.066 245.591C236.795 247.397 233.786 249.139 231.823 252.17C229.861 255.331 229.141 261.458 228.552 266.877C228.16 270.618 227.767 274.165 226.982 276.681C226.132 279.455 225.02 281.196 223.973 282.744C222.599 284.873 221.553 286.485 221.422 289.968C221.291 293.645 222.338 295.903 223.581 298.547C224.366 300.289 225.347 302.288 225.936 304.933C226.524 307.255 226.851 310.093 227.179 313.06C227.767 318.22 228.422 323.574 230.319 327.121C233.001 332.024 236.206 337.313 241.047 342.408C243.599 345.118 247.916 346.73 252.038 348.278C254.785 349.31 257.729 350.407 260.019 351.826C262.374 353.309 264.271 355.115 266.102 356.921C268.654 359.437 271.074 361.759 274.541 362.791C276.635 363.436 278.99 363.694 281.999 363.694C283.896 363.694 285.793 363.565 287.69 363.501C289.98 363.372 292.335 363.243 294.559 363.307C296.849 363.372 299.073 363.63 301.232 363.888C303.587 364.21 305.811 364.468 308.101 364.468C309.933 364.468 311.568 364.275 313.138 363.952C316.802 363.114 319.811 360.727 322.951 358.276C324.979 356.663 327.138 354.986 329.493 353.761C331.848 352.535 334.399 351.697 336.95 350.858C340.745 349.633 344.408 348.472 347.156 345.892C350.165 343.118 352.062 339.248 353.894 335.442C354.94 333.314 355.987 331.185 357.23 329.186C358.473 327.186 359.912 325.315 361.351 323.574C363.903 320.349 366.323 317.317 367.501 313.447C368.678 309.706 368.22 305.771 367.828 301.579C367.566 299.192 367.304 296.677 367.37 294.225C367.435 291.774 367.828 289.323 368.22 287.001C368.874 283.002 369.529 279.197 368.613 275.391C367.631 271.392 365.342 267.973 362.856 264.361C361.548 262.491 360.239 260.491 359.127 258.491C358.015 256.427 357.099 254.299 356.249 252.235C354.613 248.429 353.109 244.752 350.296 241.785C347.744 239.141 344.473 237.98 341.006 236.69C338.586 235.851 336.1 234.948 333.81 233.529C331.521 232.11 329.362 230.24 327.334 228.369C324.259 225.66 321.119 222.822 317.456 221.725C316.474 221.403 315.428 221.274 314.316 221.274C311.83 221.274 309.344 221.919 306.662 222.628H306.596Z" fill="#B49C88" stroke="#304040" stroke-width="0.6"/>
<path opacity="0.05" d="M278.859 381.691C273.561 380.723 269.505 378.208 265.187 375.628C262.963 374.273 260.608 372.854 258.122 371.693C255.701 370.532 253.019 369.564 250.272 368.597C245.038 366.726 239.609 364.727 235.487 361.244C231.693 358.083 230.123 353.89 228.618 349.827C227.572 346.989 226.459 344.086 224.693 341.506C222.927 338.99 220.376 336.539 217.628 333.959C213.572 330.089 209.385 326.09 207.684 321.446C205.853 316.286 205.853 310.868 205.918 305.643C205.918 303.127 205.918 300.483 205.722 297.903C205.133 290.421 207.161 278.359 208.993 268.683C209.974 263.459 211.152 261.524 212.853 258.815C213.703 257.395 214.684 255.783 215.927 253.396C218.936 247.269 219.787 246.237 223.189 242.431C223.843 241.722 224.497 240.948 225.347 239.98C227.375 237.658 229.534 233.852 231.824 229.853C235.487 223.532 239.216 217.017 243.403 214.179C247.459 211.47 252.169 211.083 256.748 210.696C259.954 210.438 263.225 210.18 266.234 209.148C272.906 206.826 280.887 204.375 289.457 203.73C292.205 203.536 294.952 203.02 297.569 202.569C301.036 201.924 304.634 201.279 308.167 201.279C309.868 201.279 311.438 201.408 313.008 201.73C318.372 202.698 322.428 205.149 326.746 207.729C328.904 209.019 331.129 210.309 333.549 211.47C339.11 214.115 343.166 217.727 347.352 221.532C348.726 222.758 350.1 223.984 351.605 225.274C358.081 230.756 364.296 237.529 368.744 243.915C370.51 246.495 372.865 248.623 375.09 250.623C378.361 253.654 381.762 256.75 383.463 261.395C385.229 266.361 385.033 271.457 384.837 276.424C384.706 279.133 384.641 281.971 384.837 284.744C385.033 287.518 385.622 290.356 386.145 293.065C387.127 298.161 388.108 303.45 387.127 308.675C386.145 313.706 383.332 317.898 380.519 321.962C378.884 324.349 377.183 326.8 375.875 329.444C374.632 332.089 373.65 334.927 372.8 337.765C371.295 342.538 369.66 347.505 366.258 351.439C362.791 355.438 358.277 357.761 353.894 359.954C351.408 361.244 348.857 362.534 346.502 364.082C344.147 365.63 341.923 367.565 339.698 369.435C335.708 372.854 331.587 376.402 326.549 378.143C324.456 378.853 322.166 379.24 319.484 379.24C316.998 379.24 314.447 378.917 311.961 378.659C308.821 378.272 305.616 377.885 302.475 378.143C299.401 378.401 296.195 379.24 293.186 380.078C289.588 381.046 285.794 382.078 282.065 382.078C280.887 382.078 279.71 382.013 278.598 381.755L278.859 381.691ZM312.419 376.724C314.839 376.982 317.325 377.305 319.746 377.305C322.232 377.305 324.325 376.982 326.222 376.337C330.932 374.725 334.923 371.306 338.783 368.016C341.007 366.146 343.296 364.146 345.717 362.534C348.137 360.857 350.754 359.567 353.305 358.277C357.754 356.019 361.941 353.89 365.146 350.214C368.286 346.602 369.725 342.022 371.295 337.249C372.211 334.411 373.193 331.444 374.501 328.67C375.875 325.897 377.576 323.381 379.276 320.93C382.024 316.866 384.706 312.996 385.557 308.352C386.472 303.514 385.557 298.612 384.575 293.452C384.052 290.679 383.463 287.776 383.267 284.938C383.071 282.035 383.136 279.197 383.267 276.424C383.463 271.457 383.659 266.684 381.959 262.04C380.454 257.847 377.379 255.009 374.108 252.042C371.819 249.913 369.398 247.785 367.501 245.011C363.184 238.754 357.034 232.111 350.689 226.693C349.184 225.403 347.81 224.177 346.436 222.951C342.315 219.21 338.39 215.727 333.091 213.212C330.605 212.051 328.316 210.696 326.091 209.342C321.905 206.89 317.98 204.504 312.942 203.601C311.503 203.343 310.064 203.214 308.494 203.214C305.092 203.214 301.756 203.794 298.223 204.439C295.541 204.955 292.728 205.407 289.915 205.665C281.542 206.31 273.691 208.697 267.15 210.954C263.879 212.115 260.477 212.373 257.141 212.631C252.627 212.954 248.375 213.341 244.711 215.792C240.917 218.372 237.123 225.016 233.721 230.821C231.366 234.884 229.142 238.819 226.983 241.27C226.132 242.238 225.413 243.012 224.824 243.721C221.488 247.462 220.703 248.365 217.824 254.235C216.581 256.75 215.6 258.428 214.684 259.847C213.049 262.427 212.002 264.168 211.086 269.07C209.909 275.198 207.161 289.582 207.815 297.774C208.012 300.418 208.012 303.127 208.012 305.643C208.012 310.932 208.012 315.963 209.712 320.801C211.217 325.058 215.273 328.928 219.198 332.605C221.88 335.12 224.628 337.765 226.459 340.474C228.422 343.248 229.534 346.279 230.646 349.182C232.151 353.181 233.59 356.986 236.992 359.825C240.852 363.114 246.085 364.985 251.188 366.855C253.87 367.823 256.683 368.855 259.169 370.016C261.785 371.241 264.14 372.66 266.365 374.08C270.551 376.595 274.476 378.982 279.383 379.949C280.364 380.143 281.411 380.207 282.457 380.207C285.99 380.207 289.392 379.24 293.055 378.272C296.195 377.434 299.401 376.531 302.737 376.273C303.457 376.273 304.176 376.208 304.896 376.208C307.447 376.208 310.064 376.531 312.55 376.789L312.419 376.724Z" fill="#B49C88" stroke="#304040" stroke-width="0.6"/>
<path opacity="0.06" d="M273.691 401.428C272.121 400.977 270.289 400.461 267.934 399.816C265.841 399.235 263.682 398.719 261.523 398.203C253.477 396.268 245.168 394.204 238.103 390.205C231.561 386.464 227.048 381.626 222.272 376.53C220.506 374.66 218.74 372.725 216.777 370.854C215.207 369.306 213.441 367.629 211.478 365.759C204.151 358.857 195.124 350.278 191.068 343.312C185.9 334.475 185.115 331.573 182.432 321.897C180.666 315.447 181.713 306.03 182.629 297.645C183.152 293.065 183.61 288.679 183.61 285.196C183.61 283.648 183.61 282.293 183.61 281.068C183.61 274.101 183.545 270.618 185.769 262.297C187.47 255.976 189.105 253.912 191.329 251.074C192.638 249.397 194.077 247.527 195.974 244.366C197.609 241.657 199.441 237.851 201.404 233.788C205.787 224.822 210.824 214.695 215.861 209.728C222.795 202.891 228.945 197.602 238.103 192.377C244.253 188.894 251.252 187.54 257.99 186.25C261.131 185.669 264.336 185.024 267.476 184.25C277.485 181.606 285.924 179.606 296.26 179.606C306.596 179.606 314.315 181.154 324.324 183.799C327.661 184.637 331.193 185.282 334.661 185.863C341.529 187.024 348.66 188.249 354.613 191.603C360.043 194.699 363.772 200.376 367.37 205.858C369.725 209.47 372.145 213.147 375.024 215.985C376.921 217.92 378.883 219.597 380.715 221.274C385.687 225.789 390.397 230.111 394.191 236.561C399.359 245.462 402.041 253.138 404.658 262.749C405.312 265.265 406.163 267.78 406.882 270.231C409.106 277.391 411.265 284.164 411.265 291.646C411.265 298.741 409.106 304.998 406.882 311.577C405.901 314.351 404.92 317.253 404.135 320.22C403.35 322.994 402.761 325.832 402.172 328.541C400.668 335.378 399.294 341.893 395.63 348.15C390.724 356.535 385.163 363.63 377.64 371.048C371.164 377.433 363.51 384.658 354.221 389.947C348.333 393.301 341.66 394.333 335.184 395.365C331.717 395.881 328.119 396.462 324.717 397.365C316.867 399.429 300.512 403.75 289.653 403.75C281.737 403.75 279.055 402.976 273.691 401.428ZM267.999 185.992C264.794 186.83 261.523 187.475 258.383 188.056C251.449 189.346 244.972 190.636 239.085 193.925C230.122 199.021 224.104 204.246 217.235 210.954C212.459 215.663 207.488 225.725 203.17 234.497C201.142 238.561 199.31 242.366 197.675 245.204C195.778 248.494 194.273 250.429 192.899 252.106C190.741 254.88 189.301 256.75 187.666 262.684C185.442 270.747 185.507 273.972 185.572 281.003C185.572 282.229 185.572 283.648 185.572 285.196C185.572 288.808 185.115 293.194 184.591 297.838C183.675 306.03 182.694 315.318 184.33 321.381C187.012 331.121 187.731 333.766 192.768 342.344C196.694 349.053 205.656 357.567 212.852 364.34C214.814 366.21 216.646 367.952 218.216 369.435C220.179 371.37 222.01 373.305 223.777 375.176C228.421 380.207 232.87 384.916 239.15 388.463C245.953 392.333 254.131 394.333 262.046 396.268C264.205 396.784 266.364 397.3 268.457 397.881C270.747 398.461 272.644 399.042 274.214 399.493C279.382 400.977 281.933 401.751 289.653 401.751C300.251 401.751 316.474 397.494 324.259 395.429C327.792 394.526 331.39 393.946 334.922 393.365C341.529 392.333 347.744 391.366 353.37 388.205C362.463 383.045 370.052 375.885 376.463 369.564C383.855 362.275 389.35 355.309 394.191 347.053C397.724 340.99 399.097 334.669 400.537 327.96C401.125 325.251 401.714 322.413 402.499 319.511C403.284 316.479 404.331 313.577 405.247 310.738C407.471 304.288 409.499 298.225 409.499 291.388C409.499 284.164 407.406 277.52 405.247 270.489C404.462 268.038 403.677 265.523 402.957 262.942C400.406 253.525 397.789 245.914 392.687 237.206C389.023 231.014 384.444 226.821 379.537 222.371C377.706 220.694 375.743 218.952 373.781 217.017C370.771 214.05 368.286 210.244 365.865 206.568C362.398 201.279 358.8 195.796 353.763 192.893C348.071 189.668 341.137 188.507 334.464 187.346C330.932 186.766 327.334 186.121 323.932 185.218C313.988 182.573 306.334 181.089 296.325 181.089C286.317 181.089 277.878 183.089 268.065 185.669L267.999 185.992Z" fill="#B49C88" stroke="#304040" stroke-width="0.6"/>
<path opacity="0.1" d="M267.737 428.776C252.626 425.745 234.047 416.973 228.748 414.328C221.617 410.845 217.234 405.814 212.59 400.46C209.908 397.429 207.16 394.268 203.758 391.301C194.011 382.851 188.123 375.24 181.712 365.694C179.357 362.21 176.479 358.727 173.731 355.373C168.367 348.988 162.872 342.344 160.255 334.668C157.638 326.928 157.835 319.51 158.096 311.641C158.227 307.706 158.358 303.643 158.096 299.579C157.442 288.872 160.517 274.294 163.003 262.619C163.33 260.942 163.722 259.394 163.984 257.911C164.9 253.331 165.031 249.719 165.096 246.236C165.227 240.882 165.358 235.851 168.825 229.014C172.03 222.628 175.694 220.758 179.554 218.823C182.563 217.275 185.637 215.727 189.17 211.856C192.245 208.373 195.516 203.213 198.983 197.795C204.609 188.894 210.496 179.67 216.973 175.413C223.58 171.091 231.561 169.608 239.215 168.189C243.663 167.35 248.308 166.512 252.626 165.093C265.578 160.835 282.718 158.513 293.381 157.868C300.97 157.417 305.941 159.481 311.24 161.674C314.773 163.093 318.371 164.641 323.081 165.544C327.66 166.447 332.174 166.641 336.557 166.77C343.819 167.028 350.622 167.286 357.622 170.704C369.332 176.445 384.705 189.216 392.817 196.311C402.041 204.374 407.405 212.308 414.143 222.37L414.339 222.693C415.19 223.983 415.975 225.144 416.695 226.24C421.928 233.981 424.806 238.173 428.274 248.429C431.152 256.879 431.283 264.748 431.414 273.069C431.414 276.229 431.544 279.519 431.741 282.873C431.872 285.324 432.068 287.711 432.264 290.162C433.049 299.902 433.834 309.899 431.872 319.575C429.582 330.605 425.657 338.345 420.685 348.085L419.311 350.729C415.124 358.985 408.256 366.145 401.648 373.111C399.424 375.498 397.265 377.691 395.237 379.949C392.228 383.303 389.481 387.431 386.602 391.817C381.892 398.977 376.986 406.33 370.444 410.651C363.51 415.167 354.874 417.231 346.566 419.166C342.445 420.133 338.193 421.165 334.268 422.391C322.623 426.261 313.007 427.422 300.185 428.26C296.652 428.454 293.512 428.841 290.503 429.163C286.381 429.615 282.522 430.002 278.466 430.002C274.802 430.002 271.27 429.679 267.606 428.905L267.737 428.776ZM293.577 159.674C282.98 160.319 266.036 162.577 253.28 166.77C248.897 168.253 244.187 169.092 239.607 169.93C231.757 171.414 224.365 172.768 218.019 176.896C211.87 180.895 206.113 189.99 200.618 198.698C197.086 204.245 193.815 209.47 190.609 213.017C186.88 217.146 183.479 218.887 180.469 220.435C176.741 222.37 173.47 223.983 170.526 229.852C167.255 236.303 167.124 240.947 166.993 246.3C166.928 249.719 166.797 253.589 165.816 258.298C165.489 259.781 165.161 261.394 164.834 263.071C162.349 274.681 159.339 289.065 159.993 299.515C160.255 303.707 160.124 307.835 159.993 311.77C159.732 319.446 159.536 326.734 162.021 334.152C164.507 341.505 169.937 348.02 175.105 354.277C177.918 357.631 180.862 361.178 183.217 364.726C189.562 374.143 195.385 381.626 204.936 390.011C208.403 393.042 211.216 396.268 213.898 399.364C218.412 404.524 222.664 409.426 229.468 412.78C234.766 415.36 253.149 424.068 267.999 427.035C271.531 427.744 274.933 428.067 278.466 428.067C282.456 428.067 286.251 427.68 290.307 427.228C293.381 426.906 296.521 426.583 300.054 426.325C312.68 425.551 322.165 424.39 333.613 420.585C337.604 419.295 341.922 418.263 346.108 417.295C354.286 415.36 362.724 413.425 369.397 409.039C375.612 404.975 380.453 397.751 385.032 390.785C387.976 386.399 390.723 382.206 393.864 378.723C395.957 376.401 398.181 374.079 400.34 371.821C406.882 364.984 413.62 357.953 417.676 349.891L419.05 347.181C423.956 337.506 427.816 329.895 430.04 319.123C432.002 309.706 431.152 299.837 430.432 290.226C430.236 287.775 430.04 285.324 429.909 282.873C429.713 279.454 429.647 276.165 429.582 273.004C429.451 264.813 429.32 257.137 426.573 248.945C423.171 238.947 420.358 234.819 415.19 227.208C414.47 226.111 413.685 224.95 412.835 223.66L412.639 223.338C405.966 213.404 400.667 205.535 391.639 197.666C383.593 190.635 368.35 177.993 356.837 172.317C350.23 169.092 343.557 168.834 336.557 168.576C332.109 168.382 327.53 168.253 322.754 167.286C317.848 166.318 314.119 164.77 310.586 163.286C305.745 161.287 301.624 159.61 295.54 159.61C294.886 159.61 294.232 159.61 293.512 159.61L293.577 159.674Z" fill="#B49C88" stroke="#304040" stroke-width="0.6"/>
<path opacity="0.2" d="M278.149 464.862C268.401 463.895 260.747 459.831 252.636 455.51C248.056 453.059 243.346 450.543 238.113 448.608C233.664 446.931 228.823 445.834 224.179 444.802C213.777 442.48 203.964 440.352 197.553 431.902C187.479 418.744 176.816 409.068 164.386 397.909L160.396 394.297C149.013 383.977 141.098 376.237 134.883 362.562C128.668 348.952 125.724 336.052 123.238 320.83C121.341 309.155 124.285 285.805 126.444 268.712C127.033 263.874 127.621 259.682 127.948 256.392C128.995 246.459 129.584 245.233 131.481 241.492C132.397 239.622 133.705 237.042 135.537 232.268C140.967 218.271 145.873 211.563 154.77 199.372L154.966 199.114C158.564 194.212 160.985 188.472 163.274 182.924C166.611 174.862 170.078 166.541 177.208 160.8C184.47 154.931 196.18 152.221 207.497 149.512C214.889 147.771 221.824 146.158 227.253 143.772C236.412 139.708 245.44 139.192 255.056 138.612C260.028 138.354 265.13 138.031 270.298 137.193C276.906 136.16 280.765 133.193 284.56 130.291C288.746 127.13 292.671 124.099 299.671 124.099C300.522 124.099 301.372 124.099 302.288 124.228C312.951 125.324 321.783 129.259 331.137 133.387C335.128 135.193 339.249 136.999 343.567 138.612C348.539 140.482 354.884 142.095 361.557 143.836C373.594 146.932 387.201 150.415 395.313 156.221C403.359 161.961 409.181 170.863 414.807 179.441C417.816 184.085 420.957 188.923 424.358 192.987C428.283 197.76 433.321 201.307 438.162 204.726C444.9 209.499 451.834 214.401 455.563 222.529C459.553 231.236 459.75 240.654 459.946 249.748C460.077 255.167 460.207 260.714 461.058 266.132C461.974 271.55 463.609 277.033 465.245 282.386C468.058 291.546 471.001 301.092 469.955 310.638C468.974 319.927 464.198 327.925 459.488 335.665C456.544 340.567 453.469 345.663 451.376 351.016C449.283 356.37 448.105 362.304 446.993 367.981C445.161 377.075 443.33 386.493 437.769 394.104C432.143 401.844 424.097 406.553 416.246 411.132C411.536 413.906 406.63 416.744 402.247 420.292C398.191 423.517 394.462 427.58 390.864 431.515C384.061 438.933 376.996 446.608 367.248 449.446C361.033 451.188 352.66 451.446 343.829 451.64C336.502 451.833 328.979 452.027 322.241 453.123C316.222 454.091 310.269 456.477 304.512 458.799C297.054 461.831 289.27 464.927 281.289 464.927C280.307 464.927 279.261 464.927 278.279 464.798L278.149 464.862ZM285.606 131.839C281.812 134.741 277.56 137.967 270.495 139.063C265.196 139.902 260.028 140.224 254.991 140.482C245.57 140.998 236.739 141.514 227.842 145.449C222.282 147.9 215.216 149.577 207.759 151.318C196.638 153.899 185.189 156.608 178.255 162.219C171.517 167.637 168.246 175.378 164.844 183.569C162.489 189.246 160.069 195.115 156.34 200.146L156.144 200.469C147.312 212.531 142.471 219.11 137.107 232.913C135.21 237.751 133.901 240.396 132.986 242.266C131.219 245.814 130.631 246.91 129.649 256.521C129.322 259.811 128.799 264.068 128.145 268.906C125.986 285.87 123.042 309.09 124.939 320.443C127.425 335.536 130.304 348.307 136.453 361.659C142.537 375.011 150.321 382.687 161.508 392.814L165.498 396.426C177.993 407.649 188.722 417.389 198.927 430.676C204.946 438.546 214.431 440.674 224.506 442.867C229.216 443.899 234.122 444.996 238.701 446.737C244 448.737 248.776 451.253 253.421 453.704C261.402 457.961 268.859 461.895 278.214 462.863C279.13 462.927 280.111 462.992 281.027 462.992C288.681 462.992 295.942 460.089 303.531 456.993C309.419 454.607 315.437 452.156 321.717 451.188C328.586 450.091 336.24 449.898 343.567 449.704C352.267 449.511 360.51 449.253 366.529 447.576C375.753 444.931 382.36 437.772 389.294 430.225C392.958 426.29 396.686 422.162 400.873 418.808C405.387 415.196 410.293 412.293 415.069 409.52C423.05 404.811 430.573 400.425 436.003 393.007C441.302 385.719 443.068 376.946 444.965 367.593C446.143 361.788 447.32 355.854 449.413 350.307C451.572 344.76 454.647 339.6 457.656 334.698C462.432 326.828 466.946 319.346 467.861 310.445C468.777 301.221 465.964 291.933 463.217 282.902C461.581 277.549 459.88 272.002 458.965 266.454C458.049 260.843 457.918 255.231 457.787 249.813C457.591 240.525 457.395 231.752 453.535 223.303C450.002 215.562 443.591 211.047 436.788 206.21C431.881 202.726 426.779 199.114 422.657 194.148C419.19 189.955 416.05 185.117 412.976 180.409C407.48 171.959 401.789 163.251 394.004 157.704C386.154 152.157 372.743 148.674 360.903 145.642C354.165 143.901 347.819 142.288 342.716 140.353C338.333 138.741 334.212 136.87 330.156 135.064C320.932 130.936 312.232 127.066 301.895 126.034C301.045 125.969 300.26 125.905 299.475 125.905C293.195 125.905 289.662 128.614 285.541 131.71L285.606 131.839Z" fill="#B49C88" stroke="#304040" stroke-width="0.6"/>
<path opacity="0.35" d="M293.707 511.403C281.016 511.339 272.053 507.275 262.633 503.018C256.745 500.374 250.661 497.6 243.269 495.6C235.615 493.472 226.26 492.762 216.382 491.988C201.402 490.827 185.897 489.602 175.234 483.345C163.459 476.508 156.59 468.316 149.263 459.673C145.534 455.287 141.74 450.707 137.03 445.998C122.442 431.421 103.405 406.652 93.6578 389.624C89.929 383.174 86.5926 378.852 83.6488 375.111C78.5462 368.596 74.4903 363.436 71.2848 351.181C68.4064 340.151 71.0231 334.346 73.8361 328.282C76.1257 323.316 78.4808 318.156 78.5462 309.448C78.6116 301.385 76.0603 289.71 73.3127 277.326C69.2568 258.878 65.0046 239.786 68.2755 228.175C71.4156 216.952 80.1162 209.341 88.5552 202.052C94.8353 196.569 101.377 190.893 105.76 183.605L107.657 180.379C117.012 164.641 125.059 151.096 138.731 137.873L141.74 134.97C155.216 121.812 167.973 109.427 184.524 100.204C195.187 94.2694 207.093 93.8824 218.672 93.5599C226.653 93.3018 234.83 93.1083 242.746 91.0443C250.465 89.1092 257.661 85.6906 264.596 82.4655C275.062 77.5634 285.922 72.5322 298.221 72.5322H298.613C312.678 72.6612 326.35 77.3699 339.565 81.9495C345.583 84.0136 351.798 86.2066 357.882 87.8192C364.097 89.4962 369.853 90.6573 375.479 91.7538C387.32 94.1404 398.572 96.3334 410.544 103.3C428.73 113.878 441.225 125.746 454.505 139.098C470.532 155.159 480.737 168.124 489.765 183.863C500.166 201.923 505.531 220.693 510.175 238.367C512.138 245.849 515.605 253.267 518.941 260.362C524.175 271.521 529.539 283.067 529.408 295.386C529.278 307.964 524.437 318.543 519.203 329.766C516.129 336.41 512.988 343.311 510.895 350.6C509.063 357.115 507.886 363.629 506.708 370.015C504.419 382.658 502.26 394.526 495.391 406.007C488.849 416.908 478.055 424.777 467.588 432.324C461.374 436.839 454.963 441.483 449.598 446.708C443.711 452.384 439.131 459.673 434.748 466.704C428.403 476.83 421.861 487.28 411.263 493.149C405.506 496.374 399.161 497.794 390.656 497.794C386.731 497.794 382.61 497.471 378.685 497.213C374.694 496.891 370.573 496.633 366.452 496.633C361.414 496.633 357.228 497.084 353.368 498.116C347.938 499.471 342.443 501.148 337.144 502.76C323.276 506.953 308.949 511.274 294.361 511.274H293.707V511.403ZM378.881 495.536C382.806 495.794 386.862 496.117 390.722 496.117C398.899 496.117 404.983 494.762 410.413 491.73C420.553 486.054 426.702 476.25 433.178 465.93C437.627 458.77 442.271 451.417 448.355 445.547C453.85 440.258 460.327 435.549 466.607 430.97C476.943 423.487 487.541 415.747 493.886 405.169C500.559 393.945 502.718 382.206 505.007 369.757C506.185 363.371 507.362 356.792 509.194 350.213C511.288 342.795 514.493 335.829 517.568 329.121C522.67 318.091 527.446 307.642 527.577 295.451C527.642 283.518 522.409 272.166 517.241 261.2C513.904 253.976 510.372 246.558 508.409 238.883C503.83 221.338 498.466 202.697 488.195 184.83C479.233 169.221 469.093 156.385 453.196 140.453C439.982 127.23 427.618 115.362 409.628 104.912C397.852 98.075 386.797 95.8819 375.087 93.5599C369.461 92.4633 363.639 91.3023 357.359 89.5607C351.209 87.8837 344.929 85.6906 338.911 83.6266C325.827 79.1114 312.285 74.4028 298.548 74.2738H298.155C286.314 74.2738 276.109 79.0469 265.381 84.0781C258.315 87.3677 251.054 90.7863 243.204 92.7858C235.092 94.8499 226.784 95.1079 218.672 95.3014C206.831 95.6239 195.645 96.0109 185.374 101.687C169.085 110.782 156.394 123.102 142.983 136.131L139.974 139.034C126.498 152.063 118.517 165.544 109.227 181.154L107.33 184.379C102.816 191.925 96.2091 197.666 89.7327 203.278C81.1629 210.76 73.0511 217.791 70.0418 228.498C66.9017 239.657 71.0885 258.556 75.079 276.745C77.8266 289.194 80.4433 300.998 80.3779 309.254C80.3125 318.349 77.7612 323.896 75.4715 328.798C72.6585 334.862 70.3035 340.086 72.9856 350.471C76.1257 362.404 80.0508 367.371 85.0226 373.756C88.0318 377.562 91.4336 381.948 95.1624 388.527C104.844 405.427 123.75 430.002 138.273 444.515C143.049 449.288 146.908 453.868 150.637 458.318C158.095 467.22 164.571 474.895 176.085 481.604C186.421 487.602 201.663 488.828 216.448 489.989C226.391 490.763 235.812 491.537 243.662 493.665C251.25 495.729 257.4 498.503 263.287 501.212C272.577 505.405 281.277 509.339 293.576 509.468H294.23C308.491 509.468 322.752 505.211 336.49 501.019C341.854 499.406 347.35 497.729 352.845 496.374C356.901 495.342 361.218 494.826 366.452 494.826C370.573 494.826 374.76 495.149 378.816 495.407L378.881 495.536Z" fill="#B49C88" stroke="#304040" stroke-width="0.6"/>
<path opacity="0.4" d="M258.448 533.85C251.317 530.883 243.99 527.787 236.009 525.658C228.225 523.594 219.589 522.433 211.216 521.272C196.366 519.273 181.058 517.144 168.629 510.113C156.657 503.276 149.984 494.052 142.854 484.313C138.471 478.249 133.957 471.993 127.939 466.058C122.182 460.382 114.855 454.835 107.07 448.901C93.6594 438.71 79.7907 428.196 72.6602 416.005C61.7353 397.428 55.5206 379.045 49.5675 357.179C45.8387 343.44 48.3246 322.477 50.4834 304.03C51.7263 293.516 52.9039 283.647 52.9039 275.842C52.9039 266.876 51.3338 260.555 49.96 255.008C47.9321 246.687 46.1658 239.528 49.5675 226.885C53.2309 213.34 60.2961 204.31 67.7538 194.763C72.1368 189.216 76.5852 183.475 80.7066 176.445C84.2392 170.446 87.3138 164.125 90.3885 157.997C96.9303 144.774 103.668 131.035 114.528 120.328C125.453 109.556 140.63 102.203 155.283 95.1078C162.021 91.8182 168.367 88.7866 174.385 85.368C186.946 78.2083 199.833 76.2732 213.44 74.2736C220.767 73.1771 228.355 72.0806 235.944 70.0165C244.252 67.8234 251.906 64.2758 259.298 60.8572C271.204 55.3746 282.456 50.1499 296.194 50.1499C309.932 50.1499 320.857 55.3746 332.436 60.8572C339.763 64.3403 347.351 67.9524 355.725 70.1455C359.519 71.113 363.771 71.6291 368.743 71.6291C374.303 71.6291 380.191 71.0485 385.817 70.468C391.508 69.8875 397.331 69.2425 402.957 69.2425C411.657 69.2425 418.33 70.726 423.956 73.9511C437.04 81.3689 447.703 93.7532 458.039 105.751C463.207 111.749 468.113 117.425 473.216 122.457C478.58 127.746 484.075 132.261 489.505 136.647C500.037 145.29 510.046 153.418 517.439 166.06C528.56 185.023 533.401 202.955 539.027 223.789L539.288 224.692C545.11 245.978 551.652 270.102 551.652 291.968C551.652 305.642 545.765 318.414 540.139 330.798C536.606 338.474 532.943 346.407 530.784 354.535C528.56 362.662 527.775 371.176 526.99 379.432C525.747 392.526 524.438 406.072 517.504 417.876C509.785 431.098 497.224 441.935 485.056 452.449C479.431 457.286 474.197 461.866 469.291 466.639C454.441 481.216 444.17 487.086 427.096 496.761L423.563 498.761C402.826 510.629 376.201 518.95 357.622 523.917C349.379 526.11 341.594 529.593 334.137 532.947C321.838 538.494 310.128 543.783 296.325 543.783C282.522 543.783 270.681 538.946 258.448 533.786V533.85ZM386.079 72.3386C380.387 72.9191 374.434 73.5641 368.808 73.5641C363.64 73.5641 359.257 73.0481 355.332 72.0161C346.762 69.7585 339.108 66.1464 331.651 62.5988C320.268 57.1806 309.474 52.085 296.194 52.085C282.914 52.085 271.859 57.1806 260.149 62.5988C252.691 66.0819 244.972 69.6295 236.467 71.8871C228.748 73.9511 221.159 75.0477 213.767 76.1442C200.291 78.1437 187.6 80.0788 175.367 87.045C169.348 90.4636 162.937 93.5597 156.199 96.8493C141.676 103.88 126.63 111.169 115.967 121.747C105.369 132.261 98.6312 145.806 92.1548 158.9C89.0801 165.092 85.9401 171.414 82.4075 177.477C78.2861 184.572 73.7068 190.377 69.3238 195.989C61.997 205.406 54.9972 214.243 51.4647 227.466C48.1283 239.657 49.8946 246.623 51.8572 254.686C53.2309 260.362 54.8664 266.812 54.8664 275.971C54.8664 283.905 53.6889 293.838 52.4459 304.417C50.2871 322.735 47.8667 343.505 51.4647 356.857C57.3523 378.529 63.5016 396.783 74.361 415.231C81.2954 427.099 95.0332 437.484 108.313 447.546C116.163 453.481 123.556 459.092 129.378 464.833C135.527 470.896 140.106 477.217 144.489 483.345C151.424 492.956 157.965 502.051 169.61 508.63C181.647 515.531 196.824 517.596 211.478 519.595C219.917 520.756 228.617 521.917 236.533 524.046C244.645 526.174 252.037 529.335 259.233 532.302C271.27 537.398 282.653 542.171 296.39 542.171C310.128 542.171 321.249 537.011 333.417 531.528C341.006 528.109 348.79 524.562 357.229 522.369C375.743 517.467 402.172 509.146 422.778 497.406L426.311 495.407C443.254 485.796 453.46 479.991 468.113 465.607C473.02 460.769 478.58 455.932 483.944 451.288C495.981 440.903 508.411 430.195 515.999 417.231C522.672 405.749 523.915 393.042 525.223 379.561C526.008 371.241 526.859 362.662 529.083 354.341C531.307 346.085 535.036 338.087 538.569 330.346C544.129 318.156 549.951 305.513 549.951 292.29C549.951 270.682 543.41 246.687 537.653 225.466L537.391 224.563C531.765 203.923 526.924 186.056 515.999 167.285C508.738 154.901 498.925 146.903 488.458 138.324C483.029 133.938 477.468 129.358 472.104 124.005C466.87 118.909 461.768 112.91 456.796 107.17C446.591 95.3013 435.993 83.0459 423.236 75.7572C417.937 72.7256 411.526 71.3065 403.153 71.3065C397.658 71.3065 391.836 71.8871 386.21 72.4676L386.079 72.3386Z" fill="#B49C88" stroke="#304040" stroke-width="0.6"/>
<path opacity="0.45" d="M250.336 586.161C234.178 583.71 221.814 575.906 208.73 567.649C200.88 562.683 192.768 557.587 183.741 553.653C174.909 549.847 164.769 546.944 154.041 543.977C136.116 538.946 117.603 533.786 104.65 523.53C91.8934 513.468 83.1928 496.826 74.7538 480.701C69.455 470.574 64.4178 460.963 58.5301 453.03C43.811 433.292 27.1948 402.912 17.1858 377.498C14.6345 371.048 12.6065 366.468 10.7748 362.34C5.93389 351.439 3.51342 345.956 1.42003 327.122C-0.215423 312.157 3.18632 305.32 7.11142 297.386C9.9244 291.646 13.1299 285.195 14.8308 274.424C16.1391 265.974 16.9241 254.493 17.7092 242.302C19.3446 217.533 21.2418 189.41 28.3069 173.543C35.2412 157.933 45.3156 147.871 55.9134 137.228C61.5394 131.616 67.3616 125.747 72.9875 118.845C83.6507 105.751 96.9306 98.2044 110.996 90.2062C118.519 85.949 126.303 81.4984 133.761 76.1447C139.91 71.6941 145.863 66.8565 152.209 61.7608C167.19 49.6345 182.694 37.1211 200.03 30.4774C211.282 26.1558 220.309 25.5752 226.851 25.5752C230.842 25.5752 234.767 25.8332 238.823 26.0267C243.14 26.2848 247.589 26.5428 252.43 26.5428C256.747 26.5428 260.869 26.3493 264.925 25.8977C276.111 24.6722 287.298 19.0605 298.026 13.5779C310.194 7.38569 322.82 1 335.642 1C337.539 1 339.436 1.129 341.268 1.38701C356.641 3.70908 370.444 14.1584 383.789 24.2207C393.013 31.1869 402.564 38.4111 412.312 42.6682C420.227 46.0868 428.078 48.7314 435.666 51.3115C451.301 56.6007 466.02 61.6318 479.823 72.5326C497.159 86.2716 507.43 100.268 519.271 116.458C521.429 119.426 523.654 122.457 526.009 125.618C531.765 133.358 538.896 140.518 545.765 147.484C557.344 159.159 569.315 171.221 575.334 186.443C581.156 201.149 579.979 216.952 578.801 232.175C578.016 242.108 577.297 252.364 578.409 262.362C579.521 272.36 582.53 282.422 585.474 292.097C590.053 307.255 594.763 322.929 592.343 338.603C589.857 354.535 581.614 367.113 572.914 380.529C567.745 388.463 562.381 396.719 558.391 405.685C554.4 414.586 551.718 424.455 549.036 434.001C544.653 449.869 540.139 466.252 529.868 478.895C520.121 490.892 505.402 496.826 491.141 502.631C481.132 506.695 470.796 510.888 462.16 517.144C453.525 523.401 446.329 531.851 439.395 540.107C429.451 551.846 419.181 563.973 404.658 569.52C392.621 574.164 380.976 574.745 371.229 574.745C367.108 574.745 362.921 574.616 358.865 574.487C354.744 574.358 350.426 574.229 346.109 574.229C340.286 574.229 335.445 574.487 330.735 575.003C321.315 576.035 311.371 578.357 301.69 580.614C288.213 583.775 274.345 587 260.999 587C257.271 587 253.673 586.742 250.271 586.226L250.336 586.161ZM358.931 572.616C362.986 572.745 367.173 572.874 371.229 572.874C380.846 572.874 392.228 572.294 404.004 567.778C418.069 562.36 427.751 551.008 437.956 538.882C445.021 530.561 452.282 521.982 461.048 515.661C469.88 509.275 480.281 505.018 490.421 500.954C505.075 495.02 518.943 489.409 528.364 477.798C538.373 465.478 542.887 449.288 547.204 433.614C549.886 424.004 552.634 414.07 556.624 405.04C560.68 395.945 566.11 387.689 571.343 379.626C579.913 366.468 588.091 354.019 590.446 338.474C592.801 323.187 588.156 307.771 583.642 292.807C580.698 283.002 577.624 272.876 576.512 262.749C575.399 252.558 576.184 242.237 576.904 232.239C578.082 216.501 579.259 201.666 573.568 187.282C567.745 172.446 555.839 160.513 544.391 148.967C537.457 142.001 530.261 134.713 524.439 126.908C522.084 123.747 519.859 120.651 517.701 117.684C505.467 100.913 495.785 87.6906 478.646 74.1452C465.17 63.4379 450.516 58.5357 435.077 53.2466C427.423 50.6665 419.573 47.9574 411.592 44.5388C401.583 40.2172 391.967 32.9285 382.677 25.8977C369.528 15.9644 355.921 5.64414 341.006 3.38657C339.24 3.12856 337.473 2.99956 335.707 2.99956C323.343 2.99956 310.979 9.25625 298.942 15.3194C288.017 20.8666 276.7 26.5428 265.186 27.8328C261.065 28.2843 256.878 28.4778 252.495 28.4778C247.654 28.4778 243.14 28.2198 238.823 27.9618C234.767 27.7038 230.907 27.5103 226.917 27.5103C220.506 27.5103 211.74 28.0263 200.749 32.2834C183.675 38.8626 168.302 51.247 153.387 63.2444C147.303 68.1465 141.022 73.2422 134.873 77.6928C127.35 83.111 119.5 87.5616 111.911 91.8832C98.0427 99.7524 84.8937 107.235 74.4268 120.071C68.7354 127.037 62.9131 132.971 57.2218 138.583C46.6894 149.161 36.8113 159.094 30.0078 174.381C23.0735 189.926 21.1763 217.855 19.5409 242.495C18.6904 254.686 17.9054 266.232 16.5971 274.811C14.8962 285.841 11.6253 292.42 8.74687 298.289C4.95262 305.965 1.68171 312.609 3.25174 326.993C5.34513 345.569 7.70018 350.987 12.4757 361.695C14.1766 365.629 16.3354 370.467 18.8867 376.917C28.8957 402.202 45.3811 432.389 59.9693 452.062C65.9224 460.06 70.9596 469.736 76.3239 479.927C84.632 495.859 93.2672 512.371 105.697 522.176C118.322 532.173 136.705 537.334 154.433 542.3C165.227 545.332 175.432 548.17 184.395 552.04C193.619 556.039 201.731 561.199 209.646 566.166C222.534 574.293 234.767 582.033 250.533 584.42C253.803 584.936 257.336 585.194 260.999 585.194C274.083 585.194 287.886 581.969 301.232 578.808C310.914 576.551 320.923 574.164 330.474 573.132C335.249 572.616 340.155 572.358 346.043 572.358C350.361 572.358 354.678 572.487 358.865 572.616H358.931Z" fill="#B49C88" stroke="#304040" stroke-width="0.6"/>
</svg>
