<svg width="722" height="682" viewBox="0 0 722 682" fill="none" xmlns="http://www.w3.org/2000/svg">
<path opacity="0.1" d="M664.033 176.985C667.591 181.467 670.942 186.116 674.244 190.791C680.855 200.149 685.224 210.552 688.281 221.538C691.549 233.267 695.443 244.769 700.725 255.772C702.593 259.658 704.401 263.569 706.222 267.476C710.247 276.117 713.846 284.916 716.546 294.077C723.527 317.749 722.341 340.959 712.707 363.704C709.178 372.029 704.321 379.629 699.506 387.241C696.684 391.698 693.669 396.041 690.931 400.548C684.03 411.916 678.971 423.96 677.129 437.275C675.753 447.224 674.635 457.166 674.517 467.229C674.437 474.3 674.286 481.387 673.68 488.425C671.687 511.618 662.914 531.937 647.131 549.163C635.856 561.463 622.555 571.022 607.583 578.345C597.423 583.313 586.787 587.019 575.983 590.313C566.555 593.192 557.164 596.196 547.782 599.23C541.461 601.274 535.271 603.666 529.362 606.725C522.238 610.414 515.804 615.072 509.5 620.015C496.841 629.944 484.149 639.818 471.655 649.961C457.482 661.467 441.519 669.889 424.07 675.466C407.719 680.695 391.133 682.457 374.08 679.721C360.833 677.594 348.09 673.913 335.777 668.613C321.285 662.378 308.727 653.46 298.184 641.778C293.752 636.864 289.643 631.656 285.37 626.599C280.093 620.355 274.617 614.287 268.62 608.718C263.759 604.199 258.67 599.965 253.026 596.406C247.664 593.028 241.949 590.363 236.213 587.736C229.774 584.791 223.201 582.13 216.817 579.067C209.475 575.546 202.628 571.19 196.518 565.76C186.605 556.952 177.993 547.002 170.402 536.15C165.448 529.062 161.444 521.429 157.47 513.779C153.971 507.04 150.287 500.401 145.867 494.207C140.409 486.553 133.827 480.078 125.269 475.953C119.301 473.078 113.199 470.464 107.059 467.975C101.395 465.68 95.6122 463.653 89.855 461.593C79.1227 457.753 68.2936 454.182 57.8095 449.683C51.7032 447.065 45.6726 444.291 40.1508 440.573C31.7693 434.925 24.8009 427.829 19.2834 419.39C3.23119 394.832 -2.09291 368.009 2.68869 339.176C5.34653 323.145 11.5706 308.613 21.8319 295.898C25.5116 291.341 29.1872 286.771 33.6576 282.936C42.7287 275.155 52.4896 268.345 63.0831 262.801C71.8725 258.206 80.8133 253.909 89.6657 249.432C103.245 242.562 114.465 232.919 123.381 220.623C128.827 213.112 133.714 205.248 137.948 196.981C141.944 189.184 145.384 181.156 148.538 172.994C151.397 165.604 154.745 158.445 159.106 151.79C164.548 143.481 171.335 136.393 178.788 129.885C186.656 123.015 195.201 117.04 203.659 110.934C216.712 101.509 229.623 91.8991 240.544 79.9352C245.028 75.0254 249.237 69.9183 252.677 64.2154C254.872 60.5814 256.954 56.8759 259.162 53.2503C264.789 44.0266 271.518 35.6548 279.336 28.2062C291.035 17.0606 305.01 9.72108 320.351 5.0421C338.056 -0.354461 355.934 -0.127852 373.811 4.41684C380.636 6.14995 387.146 8.78528 393.745 11.1772C406.079 15.6422 417.808 21.3913 429.23 27.774C437.515 32.4026 445.228 37.8999 452.747 43.6699C457.861 47.5935 463.092 51.3493 468.69 54.5637C478.539 60.2205 488.838 64.9331 499.381 69.1294C506.753 72.0627 513.941 75.3401 520.652 79.6372C529.959 85.5961 538.349 92.7341 546.97 99.5826C554.128 105.273 561.298 110.946 568.586 116.469C575.761 121.907 583.94 125.642 591.935 129.662C598.436 132.931 605.018 136.041 611.452 139.44C617.601 142.684 623.64 146.146 629.662 149.625C634.456 152.394 639.154 155.327 642.202 157.17C651.29 163.754 658.276 169.734 664.033 176.989V176.985ZM255.73 63.8714C252.328 69.5868 248.341 74.8575 243.934 79.8386C232.281 93.0027 218.294 103.422 204.113 113.603C195.483 119.801 186.824 125.949 178.897 133.045C172.252 138.991 166.167 145.437 161.263 152.919C156.978 159.461 153.664 166.494 150.859 173.771C147.692 181.996 144.252 190.099 140.198 197.938C137.33 203.485 134.252 208.911 130.799 214.119C128.772 217.174 126.678 220.191 124.693 223.275C121.871 227.657 117.998 231.064 114.314 234.656C106.643 242.126 98.1145 248.341 88.3536 252.86C82.9202 255.378 77.5624 258.072 72.2552 260.837C66.7166 263.72 61.1612 266.599 55.8203 269.822C48.1538 274.45 40.7438 279.537 34.2548 285.73C17.8283 301.404 7.52915 320.342 4.53908 342.986C0.859316 370.858 6.57872 396.582 22.5847 419.843C28.4218 428.324 35.8066 435.256 44.6969 440.531C50.1934 443.792 56.0011 446.448 61.956 448.722C70.4973 451.983 79.11 455.055 87.6934 458.206C95.1286 460.938 102.652 463.448 109.97 466.461C116.206 469.029 122.527 471.433 128.427 474.799C136.308 479.297 142.604 485.445 147.835 492.743C152.302 498.978 156.019 505.672 159.552 512.47C163.32 519.717 167.075 526.973 171.718 533.725C179.549 545.122 188.498 555.546 198.969 564.618C205.189 570.011 212.183 574.262 219.627 577.732C225.985 580.695 232.483 583.368 238.875 586.259C246.874 589.877 254.654 593.88 261.559 599.39C269.179 605.47 276.152 612.231 282.515 619.604C288.062 626.028 293.39 632.642 298.988 639.02C310.048 651.622 323.442 660.976 338.981 667.333C350.483 672.038 362.322 675.395 374.61 677.317C391.263 679.919 407.484 678.24 423.456 673.099C440.135 667.728 455.514 659.801 469.098 648.832C482.77 637.791 496.69 627.082 510.442 616.15C518.836 609.478 527.94 604.144 537.886 600.221C542.079 598.567 546.348 597.086 550.637 595.71C559.595 592.831 568.578 590.032 577.569 587.271C589.857 583.502 601.813 578.945 613.092 572.717C625.435 565.903 636.412 557.363 645.865 546.914C660.172 531.093 668.428 512.529 670.955 491.391C671.922 483.326 672.006 475.223 672.078 467.12C672.162 457.321 673.306 447.636 674.534 437.929C676.443 422.776 682.503 409.314 690.489 396.549C695.162 389.075 700.116 381.769 704.557 374.161C717.337 352.277 721.568 328.874 716.454 303.939C714.469 294.253 711.294 284.95 707.311 275.919C704.767 270.153 702.092 264.442 699.396 258.743C694.405 248.194 690.17 237.367 687.075 226.108C686.376 223.565 685.527 221.064 684.791 218.534C681.982 208.869 677.617 199.956 671.918 191.677C666.182 183.343 660.088 175.307 652.548 168.471C647.278 163.695 641.567 159.499 635.474 155.865C628.118 151.479 620.687 147.207 613.168 143.112C607.461 140.002 601.544 137.275 595.758 134.312C588.137 130.405 580.252 126.981 573.031 122.348C568.645 119.532 564.347 116.544 560.247 113.338C551.676 106.633 543.299 99.6834 534.77 92.923C526.893 86.6745 518.857 80.615 509.697 76.3095C504.516 73.8714 499.179 71.7606 493.897 69.5449C483.724 65.2855 473.72 60.6695 464.384 54.7778C459.215 51.5172 454.295 47.8537 449.387 44.2071C443.075 39.5155 436.703 34.9163 429.878 30.9968C418.473 24.4421 406.723 18.5881 394.354 14.0392C388.736 11.9746 383.16 9.75884 377.436 8.02573C359.525 2.59979 341.408 1.69757 323.282 6.77101C306.381 11.5003 291.266 19.5658 278.806 32.1214C273.99 36.9725 269.692 42.2725 264.124 49.8596C262.203 53.0614 258.952 58.4622 255.726 63.8756L255.73 63.8714Z" fill="#B39E8C" stroke="#475B5C" stroke-width="1.4"/>
<path opacity="0.15" d="M221.624 120.665C222.036 120.09 222.457 119.52 222.856 118.936C228.828 110.22 235.119 101.744 242.163 93.8586C247.563 87.8116 253.148 81.9282 258.699 76.0197C267.833 66.2925 277.649 57.2954 288.07 48.9614C297.953 41.0554 308.412 34.0474 319.947 28.7096C332.723 22.7969 346.067 19.1292 360.168 18.5207C373.546 17.9458 386.469 20.3965 399.064 24.7566C402.227 25.8518 405.406 26.9219 408.468 28.2522C410.701 29.2215 412.778 30.5644 414.894 31.7939C426.568 38.5879 437.288 46.7121 447.772 55.1762C455.135 61.1225 462.52 67.0562 470.145 72.6626C482.664 81.8737 495.747 90.2161 509.874 96.8254C519.437 101.303 529.017 105.747 538.572 110.25C546.621 114.043 554.443 118.235 561.908 123.107C569.044 127.761 575.777 132.94 582.405 138.269C589.441 143.926 596.081 150.006 602.33 156.515C613.622 168.286 623.896 180.888 633.375 194.148C639.141 202.209 645.062 210.149 651.887 217.371C657.455 223.263 663.061 229.121 668.591 235.046C683.205 250.699 692.668 269.104 697.689 289.822C703.484 313.75 700.502 336.716 689.551 358.647C686.279 365.197 682.431 371.467 678.672 377.761C671.329 390.057 666.417 403.204 664.087 417.342C662.199 428.802 661.673 440.35 661.492 451.932C661.366 460.036 661.03 468.131 660.037 476.188C658.54 488.29 656.135 500.157 651.509 511.521C644.528 528.684 633.985 543.179 619.446 554.753C609.841 562.403 599.122 568.08 587.843 572.797C575.643 577.904 563.127 582.121 550.486 585.974C524.563 593.871 500.92 606.095 479.489 622.688C472.268 628.278 464.728 633.481 457.104 638.513C445.185 646.377 432.603 652.973 418.876 657.233C406.016 661.223 392.987 662.142 379.715 659.822C363.347 656.96 348.04 651.228 333.754 642.818C323.476 636.771 314.459 629.1 306.065 620.674C301.296 615.886 296.615 611.005 291.329 606.767C280.138 597.803 268.203 589.964 255.473 583.343C248.791 579.864 242.062 576.465 235.435 572.889C229.467 569.671 223.891 565.823 218.672 561.505C210.446 554.702 203.376 546.796 196.917 538.328C190.621 530.074 185.297 521.19 180.04 512.264C176.184 505.718 172.071 499.343 167.403 493.338C159.833 483.599 151.469 474.614 141.72 467.006C132.065 459.469 121.4 453.578 110.087 448.966C101.626 445.516 92.933 442.642 84.316 439.574C76.6159 436.834 68.7979 434.45 61.3964 430.875C49.8104 425.277 40.4659 417.191 33.9937 406.133C22.374 386.272 19.1695 364.958 24.052 342.495C26.815 329.78 32.1559 318.118 39.3052 307.283C43.2751 301.261 47.5226 295.436 52.5103 290.187C60.6436 281.626 70.0049 274.668 80.241 268.802C89.4004 263.548 98.4632 258.126 107.576 252.797C113.885 249.108 119.642 244.702 125.109 239.872C130.568 235.046 135.286 229.671 138.655 223.187C141.384 217.938 144.063 212.663 146.775 207.405C151.767 197.732 158.054 188.982 165.532 181.072C171.512 174.744 177.984 168.957 184.729 163.468C194.823 155.252 203.81 146.011 211.321 135.369C214.773 130.48 218.268 125.621 221.742 120.749C221.7 120.72 221.662 120.69 221.62 120.661L221.624 120.665ZM206.72 145.365C200.626 152.805 193.628 159.356 186.185 165.445C179.405 170.988 172.879 176.817 166.886 183.217C159.888 190.686 153.975 198.911 149.244 207.984C145.972 214.257 142.755 220.556 139.42 226.792C136.846 231.605 133.242 235.634 129.281 239.356C122.834 245.415 115.907 250.833 108.232 255.281C99.5986 260.283 91.0616 265.457 82.39 270.392C71.9731 276.326 62.3804 283.284 54.1546 292.046C49.7347 296.754 45.8699 301.895 42.27 307.237C34.9693 318.059 29.4686 329.704 26.5669 342.461C21.8904 363.028 24.4768 382.738 34.1325 401.467C38.9687 410.846 45.8236 418.538 54.7055 424.316C60.4501 428.051 66.6616 430.9 73.1211 433.17C81.4437 436.095 89.7789 438.987 98.1394 441.802C110.709 446.028 122.678 451.525 133.919 458.563C142.814 464.131 150.686 470.938 157.907 478.529C167.357 488.462 175.41 499.419 182.295 511.257C187.438 520.099 192.741 528.844 198.965 536.993C204.68 544.476 210.917 551.488 217.982 557.732C223.453 562.57 229.404 566.771 235.8 570.279C242.403 573.901 249.153 577.258 255.823 580.762C267.821 587.069 279.213 594.299 289.958 602.596C296.519 607.656 302.314 613.481 308.134 619.297C315.674 626.834 323.749 633.729 332.816 639.36C347.304 648.357 362.99 654.308 379.803 657.363C396.184 660.338 411.87 657.95 427.131 651.735C438.158 647.245 448.52 641.521 458.319 634.811C466.07 629.503 473.707 624.014 481.201 618.353C501.614 602.935 524.105 591.63 548.509 584.052C560.881 580.208 573.195 576.204 585.185 571.261C594.374 567.472 603.289 563.171 611.532 557.556C623.463 549.432 633.358 539.335 640.94 527.069C648.325 515.118 653.103 502.151 655.697 488.353C657.855 476.876 658.784 465.294 659.037 453.64C659.171 447.342 659.146 441.026 659.596 434.744C660.773 418.227 663.549 402.037 670.993 387.018C673.76 381.437 676.838 375.99 680.072 370.661C685.632 361.5 690.569 352.088 693.757 341.807C699.699 322.658 699.405 303.535 693.736 284.413C688.382 266.364 679.542 250.266 666.606 236.49C661.013 230.535 655.374 224.618 649.768 218.676C642.728 211.215 636.693 202.956 630.713 194.656C621.381 181.693 611.301 169.343 600.207 157.833C593.722 151.102 586.842 144.794 579.453 139.066C574.162 134.966 568.792 130.955 563.342 127.069C555.347 121.37 546.696 116.779 537.823 112.612C528.323 108.156 518.806 103.72 509.302 99.2719C495.356 92.7465 482.454 84.5132 469.968 75.5749C461.372 69.423 453.163 62.7801 444.984 56.0952C434.297 47.3583 423.204 39.1796 411.113 32.4695C405.583 29.402 399.577 27.3709 393.53 25.5329C384.105 22.6668 374.492 20.9798 364.622 20.9043C351.274 20.7994 338.527 23.6655 326.218 28.6634C313.58 33.7956 302.188 41.0008 291.502 49.3894C280.294 58.1934 269.81 67.7864 260.049 78.1598C255.196 83.313 250.301 88.4326 245.57 93.6949C237.247 102.952 229.812 112.893 224.862 120.271C217.898 130.896 212.532 138.298 206.737 145.373L206.72 145.365Z" fill="#B39E8C" stroke="#475B5C" stroke-width="1.4"/>
<path opacity="0.2" d="M236.73 128.815C238.858 125.516 240.977 122.209 243.114 118.915C249.552 108.974 256.184 99.1755 263.784 90.0442C272.497 79.5742 281.997 69.9225 292.515 61.2527C303.878 51.8822 315.931 43.5901 329.14 36.985C341.328 30.8918 354.192 28.0677 367.797 28.311C382.987 28.5838 397.21 32.348 410.448 39.7966C414.721 42.2011 418.838 44.8322 422.754 47.7865C431.135 54.1062 439.702 60.1952 447.894 66.75C455.279 72.6585 462.251 79.0832 469.421 85.2561C476.924 91.7101 485.158 97.0983 493.863 101.786C502.379 106.368 511.203 110.296 520.068 114.14C527.229 117.245 534.232 120.648 540.788 124.908C553.038 132.864 563.216 142.994 571.744 154.765C577.287 162.419 582.506 170.309 587.944 178.038C597.637 191.828 609.202 203.821 622.714 213.951C627.761 217.736 632.664 221.714 637.559 225.697C649.284 235.239 658.2 246.998 664.941 260.46C672.132 274.824 676.329 289.931 676.481 306.074C676.552 313.766 675.228 321.156 672.338 328.294C669.554 335.172 666.055 341.677 662.397 348.11C659.407 353.368 656.316 358.575 654.226 364.278C652.455 369.108 651.374 374.119 650.129 379.104C646.517 393.552 644.906 408.168 644.915 423.04C644.919 434.421 644.658 445.806 644.225 457.178C643.867 466.502 642.728 475.781 640.554 484.87C635.082 507.715 623.463 526.599 604.109 540.397C593.335 548.076 581.404 553.343 568.712 556.847C561.638 558.798 554.468 560.481 547.256 561.815C535.506 563.989 524.58 568.122 514.378 574.291C507.754 578.294 501.316 582.579 495.474 587.648C487.118 594.904 478.779 602.193 470.687 609.734C459.009 620.619 445.888 629.406 431.812 636.788C418.838 643.59 405.078 647.829 390.33 648.768C376.839 649.629 364.748 645.919 353.62 638.534C348.17 634.916 343.573 630.304 338.754 625.953C330.537 618.534 322.357 611.068 314.064 603.737C304.82 595.562 294.673 588.601 284.092 582.285C273.969 576.247 263.662 570.518 253.594 564.392C245.103 559.226 237.319 553.066 230.039 546.288C222.276 539.062 215.623 530.896 209.5 522.277C202.716 512.734 196.063 503.099 189.103 493.687C174.67 474.173 156.456 459.15 134.462 448.781C126.715 445.13 118.83 441.777 111.084 438.122C105.032 435.269 98.9763 432.373 93.1518 429.092C88.9632 426.729 85.1657 423.674 81.1663 420.967C76.7169 417.954 72.7428 414.413 69.0798 410.493C56.3626 396.872 49.1586 380.728 47.4554 362.268C45.4663 340.745 52.1697 321.622 64.8534 304.484C72.0489 294.765 80.7794 286.431 90.4603 279.184C101.903 270.615 113.195 261.878 124.095 252.629C135.042 243.343 145.939 234.022 155.855 223.603C167.433 211.433 179.208 199.457 190.903 187.4C200.504 177.501 209.601 167.157 217.751 156.028C224.29 147.098 230.586 137.988 236.986 128.961C236.911 128.907 236.835 128.857 236.759 128.802L236.73 128.815ZM211.628 167.875C203.94 177.312 195.605 186.171 187.106 194.883C177.084 205.155 167.016 215.382 157.129 225.785C147.974 235.416 137.961 244.085 127.843 252.65C116.542 262.214 105.028 271.5 93.0635 280.241C84.0344 286.838 76.0609 294.618 68.899 303.191C63.2427 309.96 58.9531 317.577 55.5677 325.693C49.4152 340.426 47.9222 355.63 51.2529 371.249C54.8066 387.942 63.0366 401.987 75.5772 413.544C76.4267 414.329 77.3015 415.101 78.2435 415.776C83.1639 419.297 88.0338 422.894 93.0635 426.251C98.274 429.729 104.027 432.23 109.7 434.836C118.183 438.735 126.749 442.461 135.194 446.435C157.609 456.981 176.218 472.226 190.949 492.092C197.96 501.547 204.63 511.249 211.455 520.837C217.061 528.71 223.092 536.221 230.068 542.957C237.087 549.734 244.653 555.844 252.896 561.039C260.629 565.911 268.574 570.46 276.497 575.017C288.575 581.962 300.43 589.239 311.187 598.131C316.297 602.352 321.209 606.813 326.159 611.228C331.685 616.154 337.139 621.156 342.644 626.108C345.609 628.773 348.477 631.572 351.623 634.01C363.326 643.087 376.468 647.455 391.444 646.255C406.184 645.072 419.831 640.535 432.708 633.565C446.405 626.154 459.131 617.359 470.485 606.616C478.758 598.789 487.135 591.068 496.067 583.976C504.47 577.304 513.444 571.551 523.1 566.859C527.402 564.769 531.839 563.032 536.477 561.857C541.591 560.56 546.701 559.247 551.907 558.315C564.136 556.125 575.996 552.68 587.266 547.38C597.919 542.369 607.478 535.81 615.607 527.262C623.976 518.462 630.023 508.215 634.363 496.922C636.424 491.563 637.963 486.062 639.01 480.422C641.184 468.689 642.105 456.842 642.232 444.925C642.333 435.663 642.476 426.406 642.576 417.145C642.703 405.718 644.023 394.45 646.689 383.326C647.795 378.714 648.544 374.027 649.894 369.457C651.824 362.936 654.625 356.826 657.977 350.938C662.338 343.28 666.745 335.651 670.046 327.447C672.776 320.669 674.1 313.661 674.029 306.364C673.928 296.246 672.334 286.385 669.075 276.8C663.919 261.63 656.248 247.917 645.213 236.188C639.683 230.309 633.404 225.273 627.054 220.317C621.675 216.121 616.263 211.949 611.073 207.531C601.414 199.31 593.411 189.599 585.845 179.457C580.42 172.176 575.722 164.421 570.424 157.073C562.269 145.76 552.664 135.881 541.074 128.017C533.794 123.082 525.896 119.306 517.839 115.831C508.494 111.798 499.238 107.581 490.327 102.642C482.017 98.0341 474.241 92.6627 467.037 86.473C459.417 79.9308 452.015 73.1201 444.155 66.88C435.891 60.3169 427.203 54.2825 418.695 48.0215C415.058 45.3484 411.248 42.9606 407.248 40.8415C394.464 34.0727 380.834 30.8163 366.384 30.7575C353.78 30.7072 341.858 33.4306 330.558 39.0286C317.323 45.5876 305.287 53.9006 293.92 63.2712C283.15 72.1507 273.469 82.071 264.641 92.8683C258.068 100.909 252.21 109.444 246.55 118.131C243.669 122.554 240.809 126.989 236.864 133.074C229.795 144.022 221.107 156.242 211.623 167.879L211.628 167.875Z" fill="#B39E8C" stroke="#475B5C" stroke-width="1.4"/>
<path opacity="0.25" d="M300.04 80.6948C310.663 71.8152 322.396 64.8492 335.525 60.3255C353.298 54.2072 371.373 53.6827 389.687 57.43C398.775 59.289 407.308 62.6629 415.652 66.5865C417.805 67.5979 419.849 68.84 421.914 70.0318C429.786 74.5806 437.406 79.5198 444.518 85.1975C453.076 92.0251 461.596 98.8988 470.154 105.722C477.791 111.811 486.236 116.356 495.648 119.109C502.322 121.06 509.025 122.957 515.577 125.269C527.067 129.327 536.844 135.89 544.162 145.806C547.581 150.435 550.142 155.554 552.846 160.603C554.907 164.455 556.917 168.353 559.213 172.067C564.937 181.324 572.456 189.117 580.085 196.788C586.3 203.041 592.751 209.058 598.854 215.416C609.397 226.398 618.072 238.714 624.629 252.491C632.817 269.696 636.61 287.711 635.176 306.788C634.629 314.06 633.363 321.194 631.828 328.303C629.97 336.91 628.065 345.508 626.269 354.128C625.117 359.663 624.225 365.252 623.047 370.779C620.011 385.021 618.817 399.398 619.914 413.922C620.423 420.653 621.126 427.376 621.874 434.086C622.77 442.143 623.771 450.183 624.036 458.295C624.313 466.838 623.296 475.244 621.264 483.527C618.59 494.438 612.761 503.595 605.157 511.694C594.514 523.032 581.914 531.333 567.001 536.041C557.682 538.983 548.165 540.875 538.455 541.904C532.433 542.541 526.406 543.196 520.418 544.107C510.981 545.542 502.04 548.588 493.507 552.869C484.499 557.388 475.991 562.701 467.976 568.794C458.139 576.272 448.353 583.817 438.592 591.392C425.068 601.887 410.004 609.218 393.413 613.414C365.275 620.531 336.337 611.022 318.022 588.584C315.47 585.458 313.274 582.038 310.982 578.706C301.31 564.631 289.345 552.919 274.975 543.641C271.674 541.509 268.482 539.214 265.261 536.964C258.738 532.42 252.813 527.187 247.219 521.555C240.579 514.866 234.738 507.518 229.292 499.856C220.881 488.018 211.78 476.813 200.493 467.522C194.323 462.445 188.204 457.304 181.337 453.175C176.37 450.191 171.328 447.334 166.277 444.493C159.872 440.888 153.295 437.644 146.44 434.967C137.365 431.425 128.521 427.447 120.349 422.05C107.922 413.842 98.3549 403.162 91.5758 389.923C86.7563 380.514 84.7587 370.447 85.2676 360.044C85.9909 345.307 89.3763 331.047 94.7509 317.287C99.5198 305.076 105.723 293.611 113.032 282.73C121.153 270.653 130.51 259.637 141.562 250.141C148.98 243.771 156.626 237.665 164.229 231.513C178.893 219.65 193.276 207.464 207.108 194.639C217.314 185.177 226.911 175.122 235.86 164.472C245.041 153.548 252.716 141.568 260.193 129.465C264.285 122.843 268.192 116.1 272.881 109.864C280.728 99.0205 289.757 89.268 300.036 80.678L300.04 80.6948ZM262.994 129.637C254.957 142.613 246.765 155.479 236.844 167.136C224.48 181.673 210.989 195.109 196.481 207.51C183.911 218.253 171.223 228.865 158.539 239.478C154.052 243.234 149.35 246.742 144.863 250.493C137.533 256.62 130.968 263.506 124.912 270.892C113.898 284.325 105.004 299.033 98.3045 315.042C92.6776 328.483 89.1829 342.478 87.9296 357.006C86.6217 372.189 90.68 385.869 99.3642 398.332C106.484 408.555 115.58 416.536 126.254 422.86C132.432 426.52 138.954 429.419 145.624 432C153.875 435.193 161.748 439.151 169.469 443.435C175.441 446.75 181.417 450.044 187.023 453.964C203.365 465.391 217.617 478.916 229.043 495.328C234.006 502.453 239.254 509.377 245.129 515.798C252.506 523.855 260.681 530.976 269.74 537.12C275.762 541.203 281.645 545.491 287.503 549.801C295.986 556.041 302.908 563.817 309.166 572.21C312.16 576.23 314.927 580.418 317.888 584.463C322.762 591.123 328.662 596.734 335.572 601.27C353.31 612.915 372.542 616.054 393.073 610.951C408.839 607.032 423.209 600.095 436.103 590.187C446.208 582.424 456.28 574.614 466.424 566.906C474.023 561.131 482.072 556.058 490.546 551.631C500.526 546.419 511.061 543.049 522.176 541.266C528.867 540.191 535.625 539.868 542.328 538.991C553.309 537.548 564.024 535.063 574.239 530.733C585.682 525.877 595.439 518.622 603.845 509.524C608.64 504.337 612.757 498.668 615.621 492.193C616.865 489.382 617.929 486.457 618.712 483.486C621.016 474.723 622.089 465.794 621.5 456.734C621.083 450.317 620.419 443.918 619.805 437.518C619.061 429.772 618.11 422.042 617.5 414.287C616.298 399.046 617.652 383.976 620.911 369.05C621.899 364.53 622.619 359.952 623.552 355.42C625.117 347.804 626.702 340.187 628.367 332.592C630.243 324.048 632.068 315.517 632.733 306.754C634.137 288.278 630.546 270.804 622.698 254.098C616.18 240.225 607.466 227.858 596.86 216.843C590.75 210.493 584.324 204.446 578.074 198.227C570.404 190.59 563.002 182.701 557.232 173.481C554.814 169.616 552.804 165.5 550.554 161.526C548.022 157.052 545.684 152.441 542.803 148.194C536.26 138.555 527.071 132.155 516.259 128.143C510.051 125.84 503.638 124.077 497.292 122.151C492.044 120.556 486.875 118.811 481.976 116.301C476.437 113.464 471.408 109.885 466.563 106.033C457.996 99.2177 449.506 92.3062 440.914 85.5249C433.567 79.7212 425.665 74.7191 417.401 70.3423C404.764 63.649 391.399 59.3142 377.05 57.9629C354.706 55.8605 334.201 61.0305 315.209 72.7133C305.267 78.8316 296.562 86.4397 288.534 94.8408C283.1 100.527 278.146 106.616 273.402 112.911C269.933 118.479 266.455 124.044 262.998 129.621L262.994 129.637Z" fill="#B39E8C" stroke="#475B5C" stroke-width="1.4"/>
<path opacity="0.35" d="M130.637 398.682C123.773 391.343 117.89 383.345 113.949 374.049C108.63 361.506 106.392 348.615 109.252 335.048C110.644 328.431 112.2 321.88 114.517 315.518C117.772 306.597 122.133 298.233 127.15 290.18C134.266 278.754 142.584 268.267 152.598 259.274C160.491 252.186 168.759 245.497 177.056 238.88C189.887 228.649 202.966 218.733 215.524 208.154C224.393 200.684 232.732 192.644 241.072 184.612C247.939 177.998 254.588 171.167 260.467 163.659C265.745 156.92 270.758 149.975 275.914 143.143C281.145 136.206 286.318 129.224 291.684 122.392C295.94 116.97 300.65 111.934 305.869 107.407C318.784 96.2064 333.343 87.7003 349.11 81.1707C360.283 76.5421 371.895 73.8018 383.985 73.1304C393.599 72.5975 402.96 73.676 412.153 76.7687C424.374 80.877 435.094 87.4779 445.124 95.3797C453.43 101.922 461.143 109.131 469.04 116.139C477.161 123.344 486.085 129.215 496.443 132.761C502.533 134.847 508.647 136.886 514.665 139.173C526.63 143.722 536.614 150.957 544.196 161.36C548.401 167.13 551.417 173.521 553.911 180.159C556.526 187.117 559.95 193.642 563.865 199.945C567.671 206.081 571.994 211.817 576.511 217.444C598.745 245.136 610.537 276.534 609.877 312.245C609.565 329.169 607.997 345.984 605.368 362.723C603.69 373.412 603.219 384.217 603.682 395.044C604.014 402.786 605.701 410.336 607.046 417.935C608.438 425.787 610.074 433.613 611.067 441.519C612.921 456.32 609.797 470.147 601.983 482.908C598.257 488.989 593.715 494.398 588.643 499.362C581.7 506.16 573.844 511.565 564.386 514.301C560.244 515.497 556.06 516.597 551.854 517.554C541.168 519.987 530.583 522.711 520.229 526.404C507.621 530.902 495.964 537.071 485.126 544.864C480.736 548.019 476.337 551.167 472.005 554.398C458.897 564.175 444.914 572.447 429.913 579.014C411.712 586.979 392.796 590.369 372.946 588.347C363.337 587.369 354.198 584.855 345.737 580.201C337.053 575.426 329.655 568.989 323.524 561.28C317.363 553.538 311.673 545.418 305.756 537.482C301.912 532.329 298.144 527.109 294.136 522.086C286.507 512.522 278.353 503.42 269.618 494.843C261.666 487.037 253.364 479.61 244.655 472.661C239.019 468.162 233.325 463.718 227.417 459.593C215.721 451.427 203.092 444.813 190.354 438.46C176.838 431.721 163.797 424.213 149.78 414.654C143.783 410.822 136.798 405.271 130.645 398.691L130.637 398.682ZM258.924 481.536C274.799 495.481 288.963 510.999 301.735 527.78C308.784 537.042 315.567 546.509 322.392 555.938C328.007 563.693 334.849 570.193 342.747 575.523C351.734 581.582 361.831 584.692 372.58 585.846C391.534 587.877 409.697 584.918 427.205 577.495C442.769 570.894 457.181 562.363 470.735 552.3C479.155 546.047 487.565 539.761 496.666 534.482C501.578 531.632 506.667 529.169 511.919 527C524.712 521.712 537.98 518.036 551.488 515.124C555.454 514.268 559.378 513.202 563.28 512.094C572.633 509.434 580.354 504.079 587.205 497.361C591.537 493.11 595.402 488.464 598.749 483.395C607.576 470.021 610.764 455.367 608.367 439.589C606.937 430.181 605.225 420.806 603.337 411.477C600.89 399.379 600.688 387.209 601.605 374.977C601.966 370.172 602.357 365.346 603.161 360.596C604.637 351.838 605.596 343.026 606.315 334.188C607.198 323.353 607.761 312.501 607.278 301.616C606.453 283.147 601.499 265.77 593.719 249.081C588.631 238.166 582.112 228.187 574.547 218.85C572.074 215.804 569.361 212.908 567.221 209.643C561.611 201.095 555.967 192.551 552.338 182.887C551.072 179.517 549.659 176.198 548.137 172.937C541.341 158.393 530.347 148.191 515.515 142.169C509.913 139.895 504.156 137.986 498.407 136.097C488.617 132.883 479.693 128.103 471.749 121.582C467.522 118.112 463.485 114.41 459.41 110.759C452.063 104.188 444.603 97.7633 436.574 92.0184C427.423 85.472 417.444 80.6126 406.594 77.629C399.84 75.77 392.909 75.1531 385.911 75.4636C374.086 75.9882 362.66 78.3717 351.662 82.7821C335.45 89.2823 320.521 97.9143 307.32 109.391C301.765 114.222 296.798 119.643 292.332 125.472C285.052 134.977 277.852 144.545 270.825 154.234C261.342 167.314 250.391 179.035 238.813 190.269C221.546 207.021 202.802 221.989 183.781 236.655C173.633 244.478 163.658 252.522 154.179 261.129C144.796 269.648 136.84 279.425 130.065 290.151C125.102 298.003 120.716 306.139 117.394 314.826C113.457 325.115 111.081 335.745 110.425 346.735C110.202 350.47 110.766 354.18 111.489 357.852C114.244 371.846 120.72 383.924 130.166 394.545C137.067 402.308 144.986 408.838 153.741 414.368C161.471 419.249 169.201 424.15 177.115 428.724C183.074 432.165 189.345 435.073 195.447 438.271C208.862 445.292 222.223 452.409 236.568 463.093C242.788 467.919 250.992 474.557 258.932 481.532L258.924 481.536Z" fill="#B39E8C" stroke="#475B5C" stroke-width="1.4"/>
<path opacity="0.4" d="M152.449 404.413C141.082 394.967 132.755 383.288 127.141 369.663C121.384 355.68 119.487 341.299 122.633 326.393C124.26 318.681 126.632 311.232 130.766 304.459C138.42 291.912 147.458 280.451 158.598 270.821C172.791 258.55 187.918 247.56 204.256 238.219C210.72 234.522 216.776 230.095 222.895 225.823C238.455 214.958 253.187 203.141 265.576 188.634C270.316 183.082 274.698 177.279 278.15 170.854C281.376 164.853 284.374 158.727 287.394 152.617C290.876 145.575 294.568 138.655 299.013 132.159C307.584 119.633 318.464 109.411 330.744 100.594C338.339 95.1429 346.543 90.9381 355.564 88.3321C372.52 83.435 389.325 83.8462 405.865 89.9939C416.673 94.0099 426.094 100.502 434.938 107.736C441.267 112.915 447.491 118.21 453.951 123.229C462.664 130.007 472.093 135.437 482.535 139.104C488.002 141.026 493.469 142.957 498.856 145.084C510.939 149.864 522.028 156.289 531.587 165.185C541.958 174.837 549.688 186.184 554.208 199.667C557.484 209.423 559.558 219.423 560.281 229.662C561.076 240.888 561.459 252.138 562.161 263.372C562.632 270.879 563.179 278.387 564.003 285.86C565.281 297.451 568.763 308.492 572.956 319.327C577.103 330.036 580.126 341.047 582.33 352.319C585.375 367.917 587.032 383.603 586.065 399.507C585.341 411.404 583.638 423.167 581.081 434.807C579.458 442.218 577.835 449.629 575.189 456.771C571.367 467.103 565.946 476.456 558.018 484.195C547.665 494.295 535.759 502.063 522.154 507.128C513.882 510.208 505.556 513.141 497.296 516.255C490.597 518.781 484.162 521.84 478.14 525.781C468.649 531.987 458.762 537.522 448.652 542.671C434.664 549.797 420.214 555.743 405.142 560.17C391.167 564.274 376.978 564.874 362.638 562.755C349.592 560.829 337.632 556.163 327.093 548.16C321.794 544.136 317.135 539.415 312.706 534.467C305.481 526.402 299.102 517.673 292.798 508.899C285.4 498.601 277.776 488.504 269.365 478.991C262.758 471.517 255.605 464.765 247.156 459.381C240.196 454.946 233.068 450.812 225.729 447.052C214.841 441.471 203.878 436.037 192.973 430.489C182.918 425.37 173.119 419.805 163.783 413.422C159.998 410.426 156.154 407.501 152.441 404.417L152.449 404.413ZM193.73 428.106C204.513 433.611 215.363 438.983 226.137 444.505C233.249 448.148 240.162 452.134 246.971 456.326C256.791 462.373 264.949 470.191 272.49 478.832C280.716 488.257 288.134 498.269 295.443 508.383C301.209 516.36 307.029 524.3 313.531 531.71C318.123 536.943 322.989 541.912 328.519 546.167C336.333 552.18 345.105 556.326 354.664 558.643C372.348 562.932 389.902 562.449 407.329 556.994C423.255 552.008 438.512 545.483 453.152 537.531C460.107 533.75 467.08 529.939 473.682 525.596C482.972 519.482 492.977 515.051 503.398 511.379C509.475 509.239 515.523 507.015 521.553 504.744C534.897 499.721 546.563 492.063 556.677 482.08C564.137 474.715 569.218 465.819 572.847 456.049C575.589 448.668 577.229 440.997 578.89 433.33C581.388 421.807 583.02 410.166 583.672 398.391C584.517 383.133 582.94 368.076 579.971 353.124C577.801 342.193 575.008 331.446 570.98 321.03C566.98 310.691 563.587 300.179 561.959 289.155C560.718 280.741 560.092 272.285 559.688 263.796C559.15 252.554 558.645 241.307 557.867 230.082C557.203 220.493 555.306 211.106 552.387 201.92C547.934 187.892 540.015 176.163 529.178 166.284C520.06 157.971 509.547 151.949 498.141 147.434C491.858 144.946 485.449 142.776 479.116 140.409C471.597 137.598 464.494 133.951 458.038 129.176C451.978 124.698 446.023 120.082 440.089 115.437C437.764 113.615 435.682 111.484 433.39 109.612C425.938 103.515 417.965 98.2021 409.251 94.0477C403.334 91.2277 397.08 89.5366 390.617 88.4875C377.609 86.3767 364.925 87.6104 352.494 91.8655C346.11 94.0518 340.16 97.1026 334.608 100.896C322.997 108.832 312.601 118.08 304.085 129.331C298.938 136.129 294.686 143.469 290.893 151.085C287.596 157.703 284.383 164.371 280.917 170.9C277.044 178.206 272.107 184.795 266.699 191.051C254.095 205.626 239.107 217.434 223.429 228.458C215.636 233.939 207.768 239.264 199.42 243.922C190.017 249.167 181.501 255.781 172.913 262.252C165.604 267.757 158.539 273.557 152.269 280.246C145.384 287.594 139 295.374 133.899 304.056C121.712 324.807 120.332 346.423 129.404 368.693C134.972 382.365 143.42 393.955 154.905 403.28C158.8 406.444 162.85 409.419 166.828 412.482C175.42 418.353 184.487 423.385 193.73 428.101V428.106Z" fill="#B39E8C" stroke="#475B5C" stroke-width="1.4"/>
<path opacity="0.45" d="M186.677 412.491C179.549 406.288 173.3 399.306 168.215 391.328C163.472 383.892 159.788 376.024 158.282 367.233C153.879 341.509 160.381 308.345 184.31 284.627C188.645 280.33 193.179 276.221 197.733 272.151C207.444 263.468 217.802 255.638 228.879 248.756C234.182 245.462 239.401 242.029 244.624 238.609C256.526 230.816 266.442 220.993 274.273 209.142C277.78 203.834 280.972 198.307 284.202 192.818C288.087 186.209 291.376 179.314 293.933 172.067C295.771 166.855 297.731 161.681 299.825 156.565C303.942 146.515 309.653 137.421 317.45 129.826C329.419 118.168 343.831 110.842 360.089 107.241C367.768 105.541 375.624 104.845 383.517 104.87C398.459 104.92 412.148 108.701 424.02 118.168C428.747 121.941 433.688 125.458 438.605 128.987C443.584 132.562 448.836 135.688 454.463 138.164C463.682 142.222 473.199 145.399 482.913 148.013C496.556 151.685 508.642 158.168 518.798 168.017C526.969 175.94 532.336 185.416 534.27 196.742C535.574 204.375 535.452 211.987 534.262 219.595C533.395 225.122 532.458 230.636 531.377 236.125C528.231 252.067 527.529 268.152 528.483 284.329C529.467 300.972 534.119 316.578 542.214 331.148C544.086 334.518 546.23 337.736 548.278 341.009C552.892 348.37 557.345 355.764 560.361 364.006C566.109 379.713 568.763 395.81 567.396 412.495C565.929 430.376 560.718 447.023 550.524 461.954C543.051 472.898 533.614 481.66 521.549 487.375C514.963 490.498 508.163 493.099 501.089 494.937C495.29 496.448 489.503 498.005 483.7 499.511C469.838 503.103 456.919 508.714 445.321 517.195C443.453 518.563 441.553 519.897 439.58 521.11C436.018 523.301 432.347 525.328 428.797 527.539C422.931 531.194 416.791 534.312 410.436 536.998C400.276 541.295 389.708 543.007 378.681 541.908C363.912 540.435 350.576 535.248 338.406 526.855C329.797 520.917 321.899 514.115 313.997 507.3C304.585 499.18 295.577 490.636 286.691 481.949C277.578 473.04 268.583 464.014 258.721 455.902C250.84 449.415 242.475 443.628 233.412 438.924C226.503 435.336 219.412 432.092 212.402 428.685C206.027 425.588 199.668 422.453 193.831 418.357C191.438 416.406 188.994 414.518 186.665 412.495L186.677 412.491ZM299.244 164.648C297.243 170.074 295.317 175.537 293.079 180.871C290.358 187.342 286.843 193.426 283.205 199.423C280.867 203.271 278.541 207.136 276.039 210.875C268.032 222.847 257.989 232.801 245.911 240.682C238.417 245.571 230.847 250.346 223.374 255.269C214.16 261.337 205.614 268.269 197.468 275.684C193.427 279.364 189.285 282.965 185.525 286.918C164.578 308.936 156.806 335.235 160.448 365.122C161.546 374.123 165.272 382.151 170.091 389.713C175.562 398.303 182.392 405.68 190.164 412.256C197.069 418.101 204.916 422.344 212.995 426.242C219.951 429.604 226.982 432.822 233.846 436.368C241.811 440.485 249.305 445.374 256.399 450.888C266.034 458.374 274.769 466.834 283.457 475.349C295.182 486.838 306.949 498.278 319.553 508.819C324.246 512.743 328.918 516.696 333.763 520.422C341.131 526.096 348.936 531.089 357.683 534.446C365.131 537.308 372.844 538.999 380.796 539.612C390.637 540.376 400.07 538.664 409.133 534.883C415.441 532.252 421.493 529.113 427.347 525.567C434.395 521.295 441.414 516.989 448.21 512.319C456.987 506.28 466.613 501.958 476.819 498.991C484.738 496.691 492.745 494.694 500.698 492.495C509.609 490.028 518.243 486.842 526.204 482.071C536.772 475.739 544.994 467.023 551.121 456.452C566.227 430.405 568.923 402.789 561 373.96C558.237 363.905 554.111 354.451 548.363 345.722C546.277 342.554 544.254 339.339 542.277 336.1C532.722 320.418 527.281 303.41 526.09 285.105C525.035 268.873 525.699 252.713 528.782 236.695C529.863 231.077 530.851 225.441 531.764 219.792C532.966 212.319 533.147 204.836 531.89 197.325C530.031 186.234 524.715 177.04 516.67 169.352C506.867 159.985 495.235 153.867 482.177 150.355C472.463 147.74 462.937 144.564 453.719 140.514C449.106 138.487 444.665 136.137 440.543 133.242C435.539 129.721 430.602 126.108 425.681 122.47C421.484 119.369 417.371 116.142 412.712 113.741C407.047 110.825 400.999 109.079 394.708 108.156C387.979 107.17 381.246 107.321 374.463 107.736C356.207 108.852 339.936 115.084 325.419 126.062C319.822 130.296 315.17 135.428 309.8 142.944C305.902 148.332 302.306 156.356 299.244 164.648Z" fill="#B39E8C" stroke="#475B5C" stroke-width="1.4"/>
<path opacity="0.5" d="M236.008 431.182C228.152 425.345 220.33 419.457 212.428 413.679C205.005 408.253 198.306 402.118 192.549 394.925C183.751 383.926 178.053 371.656 177.317 357.481C176.522 342.239 181.152 328.408 189.411 315.76C193.873 308.924 199.61 303.129 206.065 298.16C214.581 291.606 223.16 285.118 232 279.012C245.874 269.428 257.876 258.022 267.536 244.22C272.738 236.788 277.932 229.335 282.831 221.702C286.717 215.643 290.393 209.419 293.728 203.041C298.673 193.586 303.312 183.964 307.942 174.35C312.114 165.689 316.828 157.367 322.648 149.696C326.273 144.921 330.067 140.275 334.89 136.637C344.782 129.176 356.061 125.37 368.332 124.472C372.176 124.191 376.066 124.379 379.922 124.547C396.462 125.261 411.673 130.208 425.572 139.138C430.068 142.025 434.454 145.089 438.878 148.089C447.798 154.136 457.084 159.533 466.916 163.981C472.732 166.612 478.46 169.432 483.696 173.108C494.643 180.796 502.149 191.098 506.582 203.645C509.715 212.516 511.17 221.702 511.452 231.085C511.654 237.833 511.805 244.585 512.032 251.337C512.722 271.723 517.054 291.387 524.232 310.418C528.862 322.693 533.859 334.829 538.733 347.011C543.603 359.189 547.295 371.673 548.893 384.728C549.465 389.398 549.751 394.077 549.444 398.782C548.51 412.986 544.153 426.092 536.828 438.265C531.562 447.015 525.355 455.038 518.282 462.407C507.061 474.098 494.378 483.905 480.285 491.904C470.175 497.644 459.502 502.176 448.66 506.31C443.854 508.144 438.967 509.848 433.992 511.153C426.683 513.07 419.508 515.294 412.481 518.077C407.451 520.07 402.342 521.87 397.211 523.586C383.644 528.131 370.098 527.695 356.569 523.289C348.697 520.725 341.661 516.616 334.882 512C327.304 506.843 320.293 500.972 313.485 494.862C302.895 485.362 292.508 475.634 281.83 466.239C274.437 459.734 266.867 453.414 259.066 447.409C251.623 441.677 243.779 436.461 236.113 431.014C236.071 431.069 236.029 431.123 235.987 431.182H236.008ZM263.398 447.644C270.568 453.205 277.486 459.101 284.282 465.118C294.884 474.505 305.246 484.161 315.789 493.62C323.607 500.636 331.812 507.174 340.664 512.881C349.689 518.693 359.459 522.403 370.107 523.88C379.174 525.139 388.001 524.044 396.614 521.207C402.178 519.373 407.674 517.313 413.145 515.206C418.684 513.07 424.294 511.199 430.034 509.671C448.446 504.766 465.911 497.498 482.325 487.884C496.64 479.499 509.345 469.038 520.346 456.595C528.93 446.893 536.268 436.339 541.125 424.27C546.492 410.947 548.397 397.183 546.21 382.852C544.317 370.427 540.73 358.534 536.071 346.91C532.239 337.359 528.505 327.77 524.724 318.194C524.442 317.476 524.173 316.751 523.875 316.037C522.718 313.247 521.356 310.527 520.418 307.665C514.19 288.626 509.875 269.218 509.475 249.088C509.349 242.722 509.181 236.356 508.962 229.994C508.68 221.849 507.343 213.872 504.849 206.104C501.43 195.458 495.614 186.327 487.207 178.92C482.64 174.896 477.426 171.807 471.984 169.096C465.297 165.769 458.539 162.579 451.962 159.05C447.542 156.679 443.34 153.893 439.127 151.161C434.694 148.286 430.383 145.231 425.989 142.298C412.237 133.116 397.148 127.85 380.583 127.04C376.339 126.834 372.046 126.557 367.836 126.956C355.253 128.139 343.638 132.029 334.041 140.599C331.32 143.028 328.893 145.831 326.593 148.672C319.044 157.984 313.312 168.391 308.333 179.247C303.022 190.829 297.298 202.202 290.901 213.23C284.534 224.212 277.368 234.673 270.034 245.017C263.839 253.754 256.858 261.824 248.855 268.991C243.422 273.855 237.429 277.98 231.558 282.273C223.56 288.127 215.561 293.981 207.676 299.986C201.855 304.417 196.842 309.717 192.502 315.58C188.099 321.522 185.038 328.181 182.792 335.215C175.904 356.788 180.597 376.054 194.534 393.435C199.706 399.885 205.565 405.613 212.314 410.485C220.771 416.591 229.023 422.978 237.366 429.243C237.475 429.092 237.589 428.945 237.698 428.794C246.282 435.059 255.004 441.14 263.398 447.649V447.644Z" fill="#B39E8C" stroke="#475B5C" stroke-width="1.4"/>
<path opacity="0.55" d="M231.007 414.471C226.847 411.353 222.835 407.954 219.177 404.266C212.746 397.778 206.754 390.879 202.683 382.583C200.929 379.008 199.276 375.374 197.712 371.71C195.555 366.658 194.331 361.395 193.721 355.898C192.081 341.11 195.647 327.715 203.801 315.407C209.386 306.977 216.178 299.608 223.853 293.061C233.021 285.239 242.967 278.445 252.862 271.593C259.898 266.721 267.043 261.979 273.835 256.788C287.351 246.452 298.306 233.796 306.469 218.861C310.321 211.815 313.749 204.53 317.252 197.3C321.15 189.255 324.746 181.064 329.502 173.46C332.686 168.37 336.193 163.531 340.685 159.486C347.085 153.724 354.15 149.175 362.755 147.358C368.213 146.209 373.701 145.663 379.274 146.053C396.495 147.258 412.169 153.066 426.837 161.907C432.59 165.378 437.94 169.398 443.197 173.552C448.811 177.996 454.051 182.835 458.849 188.156C470.759 201.366 479.187 216.578 484.713 233.393C487.341 241.395 489.692 249.494 491.908 257.623C496.425 274.186 502.359 290.183 510.156 305.499C513.6 312.26 516.8 319.15 519.904 326.074C525.177 337.828 529.656 349.872 533.084 362.306C535.872 372.415 536.642 382.713 535.859 393.087C534.787 407.3 529.913 420.401 523.155 432.847C518.777 440.913 513.415 448.29 507.338 455.168C498.242 465.462 487.976 474.408 476.159 481.437C461.444 490.187 446.203 497.619 429.226 501.265C413.035 504.744 396.777 506.356 380.266 505.512C371.822 505.08 363.457 503.985 355.256 501.849C343.683 498.836 333.371 493.242 323.636 486.46C313.404 479.339 304.27 470.904 294.971 462.667C289.815 458.101 284.71 453.468 279.403 449.083C271 442.147 262.026 435.978 250.528 428.408C245.574 424.891 238.173 419.838 231.011 414.471H231.007ZM274.617 442.26C281.712 447.417 288.205 453.296 294.727 459.138C304.606 467.98 314.329 477.006 325.272 484.589C333.788 490.493 342.728 495.52 352.695 498.571C361.56 501.286 370.682 502.533 379.9 503.036C396.411 503.943 412.72 502.566 428.843 498.764C455.039 492.591 477.875 480.187 497.451 461.895C511.989 448.311 522.793 432.155 529.08 413.191C530.493 408.932 531.666 404.551 532.419 400.132C534.442 388.269 534.097 376.431 531.137 364.727C527.688 351.089 522.629 338.017 516.842 325.222C514.058 319.071 511.207 312.944 508.133 306.935C500.096 291.232 494.024 274.807 489.406 257.803C487.236 249.801 484.902 241.828 482.303 233.951C477.067 218.089 469.19 203.661 458.122 191.039C452.924 185.113 447.162 179.805 440.997 174.916C433.566 169.016 425.761 163.691 417.274 159.389C405.066 153.2 392.21 149.314 378.496 148.454C371.254 148 364.185 149.003 357.401 151.509C352.157 153.447 347.624 156.658 343.414 160.313C339.099 164.056 335.604 168.483 332.513 173.267C327.854 180.481 324.288 188.256 320.578 195.961C316.814 203.779 313.143 211.66 309.026 219.293C301.116 233.964 290.493 246.456 277.565 257.002C270.222 262.994 262.303 268.177 254.469 273.481C244.931 279.943 235.477 286.54 226.612 293.917C219.059 300.204 212.334 307.291 206.737 315.386C203.318 320.33 200.559 325.621 198.599 331.316C196.463 337.531 195.672 343.922 195.807 350.485C196 360.006 198.679 368.827 202.742 377.354C208.31 389.05 216.275 398.873 225.998 407.312C233.791 414.077 242.336 419.86 250.852 425.667C252.395 426.721 253.901 427.824 255.423 428.907C255.47 428.844 255.516 428.777 255.562 428.714C261.917 433.225 268.309 437.682 274.613 442.26H274.617Z" fill="#B39E8C" stroke="#475B5C" stroke-width="1.4"/>
<path opacity="0.6" d="M327.438 222.403C330.016 218.55 332.573 214.685 335.172 210.85C338.788 205.516 342.649 200.372 347.107 195.701C354.466 187.984 363.243 182.562 373.542 179.683C375.645 179.096 377.815 178.525 379.976 178.416C387.601 178.03 395.167 178.546 402.619 180.401C413.162 183.024 423.099 186.985 431.863 193.515C437.928 198.034 443.294 203.305 448.193 209.058C455.464 217.602 461.205 227.119 465.902 237.245C469.717 245.47 473.19 253.85 476.714 262.21C481.294 273.074 486.416 283.649 492.825 293.582C494.743 296.553 496.514 299.62 498.284 302.68C504.811 313.947 510.652 325.537 514.812 337.913C520.51 354.891 523.361 372.21 521.12 390.141C520.817 392.562 520.51 394.992 520.06 397.388C516.574 415.953 509.008 432.755 498.175 448.194C491.341 457.934 483.296 466.381 473.518 473.229C464.977 479.213 455.998 484.404 446.128 487.741C437.086 490.796 427.742 492.864 418.212 493.813C388.896 496.742 361.325 490.632 335.113 477.644C327.888 474.064 321.004 469.889 314.229 465.537C306.461 460.544 299.102 454.996 292.579 448.458C287.629 443.494 282.906 438.307 278.175 433.133C273.003 427.476 267.767 421.895 261.862 416.981C257.11 413.028 252.312 409.125 247.635 405.093C244.229 402.155 240.801 399.234 237.828 395.814C235.36 392.973 233.425 389.793 231.533 386.595C219.913 366.96 218.685 346.553 227.899 325.785C234.935 309.923 245.957 297.128 260.268 287.233C267.573 282.18 275.038 277.354 282.301 272.239C295.346 263.053 306.802 252.18 316.209 239.276C320.188 233.821 323.821 228.114 327.61 222.52C327.556 222.482 327.497 222.445 327.442 222.407L327.438 222.403ZM324.099 232.205C314.885 246.683 303.387 259.075 289.875 269.641C281.699 276.037 273.032 281.723 264.339 287.363C253.313 294.513 244.254 303.611 236.92 314.455C231.566 322.365 227.638 330.909 225.691 340.304C222.52 355.579 225.044 369.948 232.546 383.548C236.411 390.556 241.352 396.658 247.526 401.777C253.128 406.419 258.683 411.114 264.247 415.806C270.017 420.674 275.131 426.196 280.223 431.752C285.131 437.111 290.03 442.495 295.212 447.585C301.145 453.418 307.744 458.471 314.767 462.969C321.55 467.312 328.401 471.542 335.605 475.156C360.972 487.875 387.706 494.039 416.169 491.555C426.611 490.645 436.8 488.366 446.688 484.862C457.428 481.06 466.979 475.147 476.016 468.32C482.543 463.393 488.12 457.56 493.057 451.073C503.347 437.556 510.997 422.726 515.531 406.343C517.524 399.134 518.588 391.782 519.139 384.308C520.577 364.753 515.93 346.377 508.608 328.513C503.936 317.115 497.99 306.347 491.391 295.97C484.108 284.518 478.19 272.415 473.11 259.872C469.052 249.851 464.868 239.893 459.686 230.38C454.295 220.489 447.789 211.442 439.732 203.527C423.343 187.43 403.548 180.17 380.696 180.871C377.512 180.967 374.459 181.849 371.465 182.868C361.46 186.289 353.171 192.193 346.329 200.195C341.085 206.331 336.61 213.011 332.169 219.721C331.033 221.438 329.789 223.078 328.594 224.753C328.67 224.807 328.746 224.858 328.821 224.912C327.249 227.346 325.663 229.767 324.107 232.21L324.099 232.205Z" fill="#B39E8C" stroke="#475B5C" stroke-width="1.4"/>
<path opacity="0.65" d="M337.48 235.881C344.785 226.045 353.915 218.147 364.504 212.012C371.17 208.147 378.243 205.214 385.981 204.182C399.708 202.344 412.337 205.411 424.07 212.587C433.036 218.068 441.026 224.694 448.091 232.466C455.476 240.59 461.65 249.469 465.431 259.839C467.016 264.186 468.475 268.584 469.796 273.015C471.251 277.892 472.769 282.743 474.985 287.333C480.486 298.743 486.02 310.145 491.58 321.526C494.94 328.403 498.485 335.189 501.745 342.113C505.639 350.388 509.104 358.844 511.018 367.837C512.645 375.487 513.646 383.187 512.443 391.009C510.408 404.274 505.185 416.343 497.922 427.476C490.201 439.314 480.461 449.406 469.148 457.929C461.179 463.934 453.113 469.784 443.777 473.645C433.595 477.854 423.136 480.54 412.03 480.225C406.016 480.057 400.095 479.18 394.224 477.938C382.251 475.399 370.303 472.743 358.309 470.3C341.462 466.876 326.23 459.969 312.668 449.465C306.002 444.304 299.517 438.907 292.974 433.582C282.83 425.323 273.225 416.473 263.994 407.22C260.087 403.305 256.189 399.373 252.505 395.256C247.706 389.897 243.825 383.913 241.444 377.069C239.754 372.201 238.446 367.308 238.862 362C239.615 352.357 242.714 343.552 247.588 335.294C252.252 327.392 258.359 320.703 265.344 314.824C272.485 308.815 279.781 302.999 286.968 297.048C302.503 284.182 316.057 269.566 327.345 250.56C330.015 246.675 333.569 241.148 337.48 235.881ZM313.311 274.656C306.826 282.361 299.69 289.411 292.019 295.911C284.066 302.65 275.925 309.167 267.905 315.831C261.332 321.295 255.486 327.434 250.873 334.66C244.939 343.955 241.272 353.989 241.284 365.147C241.284 366.549 241.482 367.971 241.768 369.348C243.307 376.775 246.499 383.452 251.028 389.528C255.007 394.862 259.578 399.641 264.398 404.207C269.814 409.343 275.109 414.614 280.597 419.675C284.714 423.469 288.983 427.103 293.302 430.665C300.354 436.482 307.386 442.331 314.636 447.904C327.706 457.955 342.388 464.56 358.587 467.858C370.707 470.326 382.781 473.007 394.88 475.584C396.579 475.944 398.299 476.226 400.006 476.549C415.419 479.474 430.113 477.14 444.328 470.745C453.046 466.821 460.683 461.27 468.227 455.554C478.106 448.072 486.634 439.243 493.8 429.167C500.76 419.381 505.744 408.626 508.801 396.989C511.337 387.338 510.719 377.749 508.583 368.143C506.602 359.23 503.153 350.846 499.28 342.629C496.181 336.058 492.816 329.608 489.624 323.078C484.035 311.643 478.472 300.191 472.933 288.731C470.574 283.85 468.946 278.701 467.39 273.519C466.002 268.907 464.442 264.337 462.769 259.818C459.354 250.577 453.828 242.638 447.343 235.294C440.778 227.862 433.381 221.417 425.02 216.079C420.777 213.368 416.391 210.938 411.618 209.264C398.997 204.837 386.49 204.946 374.055 210.04C364.306 214.031 355.971 220.095 348.376 227.258C342.388 232.906 337.501 239.444 333.085 246.351C331.352 249.062 329.628 251.777 327.038 255.844C323.514 261.555 318.673 268.286 313.311 274.656Z" fill="#B39E8C" stroke="#475B5C" stroke-width="1.4"/>
<path opacity="0.7" d="M278.785 413.486C272.565 408.127 267.085 402.092 262.543 395.236C258.09 388.509 255.041 381.127 253.026 373.393C250.595 364.065 251.483 354.732 254.473 345.634C257.947 335.051 264.36 326.36 272.43 318.823C278.33 313.314 285 308.807 291.733 304.392C305.102 295.63 316.541 284.791 326.373 272.222C331.925 265.126 337.459 258.018 343.262 251.127C348.873 244.463 355.332 238.639 362.469 233.607C371.401 227.313 381.225 223.393 392.248 222.932C399.3 222.638 406.273 223.418 413.144 225.034C417.703 226.104 421.942 227.98 425.895 230.447C435.707 236.574 443.773 244.535 450.199 254.111C456.439 263.41 461.011 273.54 464.556 284.14C467.374 292.562 470.183 300.989 474.111 308.97C476.096 313.003 478.514 316.822 480.524 320.842C484.372 328.551 488.174 336.285 491.799 344.098C495.323 351.694 498.271 359.516 500.311 367.657C502.519 376.461 502.889 385.324 501.093 394.237C499.999 399.675 498.208 404.896 495.992 409.982C493.649 415.353 491.118 420.624 487.989 425.588C481.723 435.538 473.766 444.006 464.829 451.572C457.932 457.409 450.274 461.794 441.443 464.266C429.281 467.674 417.093 468.274 404.717 465.945C398.043 464.69 391.634 462.558 385.283 460.217C371.868 455.265 358.373 450.59 344.512 446.99C333.14 444.035 322.155 439.961 311.646 434.682C303.698 430.691 295.884 426.465 288.545 421.383C285.29 418.756 281.964 416.213 278.793 413.481L278.785 413.486ZM340.706 443.326C357.426 447.942 373.866 453.33 390.12 459.344C396.966 461.874 404.01 463.679 411.29 464.472C421.749 465.609 431.939 464.514 442.044 461.497C450.661 458.924 457.966 454.342 464.615 448.525C471.566 442.449 477.925 435.819 483.266 428.261C487.371 422.453 490.701 416.217 493.401 409.663C494.894 406.041 496.341 402.382 497.464 398.639C500.689 387.875 500.428 377.074 497.417 366.285C495.34 358.828 492.514 351.656 489.36 344.602C485.213 335.324 480.827 326.167 475.675 317.38C471.07 309.528 467.765 301.068 464.791 292.487C462.373 285.5 460.17 278.433 457.049 271.702C453.412 263.859 449.353 256.276 443.798 249.587C438.882 243.666 433.381 238.37 426.985 234.035C421.421 230.263 415.386 227.627 408.703 226.603C406.348 226.243 403.985 225.94 401.617 225.663C387.197 223.972 374.324 227.875 362.738 236.41C355.866 241.476 349.638 247.246 344.167 253.775C339.621 259.197 335.188 264.724 330.928 270.376C319.859 285.055 306.869 297.657 291.334 307.598C284.546 311.941 277.99 316.62 272.279 322.34C262.846 331.782 256.235 342.726 254.578 356.234C253.737 363.1 254.296 369.78 256.479 376.41C259.162 384.56 262.821 392.151 268.174 398.874C274.466 406.784 281.813 413.586 290.148 419.335C305.737 429.973 322.483 438.299 340.701 443.326H340.706Z" fill="#B39E8C" stroke="#475B5C" stroke-width="1.4"/>
<path opacity="0.75" d="M272.053 392.248C267.641 385.244 264.714 377.64 263.966 369.344C262.548 353.645 267.301 340.179 278.962 329.356C283.222 325.403 288.097 322.235 293.03 319.193C311.096 308.043 326.173 293.788 338.196 276.301C340.164 273.439 342.292 270.682 344.454 267.963C350.459 260.41 357.575 254.207 366.394 250.07C380.89 243.272 395.84 242.012 411.203 246.515C420.072 249.113 428.037 253.544 435.468 259.008C445.565 266.431 453.169 275.764 457.862 287.413C460.247 293.334 462.08 299.419 463.666 305.596C467.997 322.474 469.944 326.708 479.747 341.182C482.127 344.694 484.571 348.177 486.716 351.836C492.843 362.285 495.391 373.536 493.432 385.571C492.7 390.061 491.72 394.564 490.286 398.869C486.484 410.275 480.155 420.179 471.677 428.739C464.902 435.579 457.05 440.867 448.581 445.361C440.813 449.482 432.608 452.193 423.928 453.494C414.748 454.875 405.681 454.635 396.845 451.459C393.212 450.154 389.545 448.916 385.995 447.413C380.78 445.206 375.692 442.692 370.481 440.477C361.847 436.805 352.76 434.656 343.617 432.709C335.807 431.047 327.973 429.465 320.23 427.522C310.549 425.089 301.365 421.404 295.254 416.964C284.421 409.319 277.722 401.228 272.057 392.243L272.053 392.248ZM405.231 247.535C393.615 245.193 382.261 246.272 371.247 250.598C361.04 254.61 352.768 261.215 346.081 269.818C343.121 273.628 340.248 277.514 337.443 281.442C326.29 297.036 312.421 309.717 296.276 320.011C291.886 322.81 287.575 325.76 283.395 328.865C268.318 340.07 262.254 360.64 268.6 379.289C271.531 387.896 276.527 395.235 282.331 402.134C288.441 409.394 295.742 415.089 304.25 419.218C311.235 422.608 318.628 424.866 326.194 426.532C333.364 428.11 340.551 429.616 347.738 431.11C359.4 433.54 370.574 437.346 381.251 442.65C386.5 445.256 392.001 447.283 397.556 449.18C406.135 452.109 414.849 452.415 423.701 451.064C432.125 449.78 440.081 447.141 447.605 443.108C455.301 438.979 462.538 434.253 468.821 428.131C476.925 420.237 483.137 411.106 487.094 400.515C488.759 396.058 489.992 391.459 490.82 386.759C492.927 374.786 490.778 363.569 484.621 353.158C481.942 348.626 478.851 344.333 475.95 339.931C474.747 338.106 473.54 336.28 472.337 334.455C469.524 330.191 467.215 325.659 465.688 320.791C463.897 315.088 462.341 309.31 460.575 303.595C459.019 298.559 457.505 293.498 455.629 288.58C451.31 277.271 443.917 268.278 434.185 261.14C433.563 260.682 432.928 260.242 432.297 259.797C424.075 253.947 415.177 249.545 405.222 247.535H405.231Z" fill="#B39E8C" stroke="#475B5C" stroke-width="1.4"/>
<path opacity="0.8" d="M340.017 293.356C341.573 290.913 343.099 288.454 344.693 286.037C349.025 279.474 354.5 274.094 361.557 270.535C364.644 268.979 367.958 267.85 371.217 266.654C384.456 261.782 397.896 261.454 411.518 264.887C427.688 268.962 439.329 278.446 446.116 293.674C447.601 297.011 448.66 300.548 449.729 304.052C451.861 311.06 454.985 317.606 458.901 323.758C462.353 329.18 466.067 334.434 469.7 339.742C473.077 344.677 476.74 349.432 479.844 354.531C486.472 365.424 488.419 377.128 485.042 389.562C483.427 395.508 480.882 401.035 477.56 406.209C474.768 410.561 471.382 414.426 467.804 418.148C456.213 430.2 442.096 437.078 425.438 438.555C414.853 439.495 404.486 438.123 394.355 434.896C386.504 432.39 378.661 429.864 370.561 428.215C361.317 426.335 351.952 425.521 342.561 424.946C336.892 424.602 331.265 423.935 325.752 422.541C314.41 419.68 303.993 415.08 295.393 406.864C288.769 400.536 284.328 393.028 282.39 384.098C280.514 375.483 280.762 366.843 282.604 358.253C283.811 352.617 286.477 347.674 290.145 343.221C293.227 339.482 296.604 336.033 300.351 332.986C306.441 328.039 312.652 323.234 318.805 318.358C325.769 312.835 331.816 306.473 336.556 298.928C337.721 297.078 338.881 295.223 340.046 293.372C340.038 293.368 340.029 293.364 340.025 293.36L340.017 293.356ZM335.975 304.027C331.379 310.733 325.491 316.188 319.154 321.199C313.35 325.789 307.488 330.309 301.764 334.992C297.672 338.341 293.988 342.113 290.809 346.369C287.832 350.355 285.737 354.728 284.804 359.604C283.285 367.51 283.037 375.45 284.728 383.364C286.599 392.126 290.99 399.436 297.559 405.546C305.011 412.474 313.888 416.666 323.54 419.436C329.507 421.148 335.622 421.983 341.813 422.453C348.554 422.969 355.304 423.502 362.016 424.3C372.487 425.546 382.584 428.45 392.56 431.761C400.125 434.27 407.834 435.932 415.812 436.28C434.03 437.078 449.968 431.517 463.342 419.088C470.81 412.143 477.001 404.237 480.794 394.623C486.253 380.779 485.134 367.539 477.262 354.933C474.743 350.905 471.858 347.103 469.166 343.179C465.057 337.191 460.839 331.27 456.907 325.164C452.82 318.819 449.615 312.025 447.382 304.774C446.175 300.85 444.901 296.902 443.176 293.183C439.244 284.698 433.281 277.888 425.207 273.028C419.849 269.805 413.999 267.862 407.918 266.557C395.701 263.935 383.707 264.661 371.957 268.962C368.029 270.401 364.034 271.669 360.443 273.914C355.859 276.78 351.838 280.267 348.705 284.673C346.174 288.236 343.827 291.933 341.396 295.571C341.451 295.609 341.506 295.647 341.564 295.685C339.701 298.463 337.868 301.261 335.975 304.019V304.027Z" fill="#B39E8C" stroke="#475B5C" stroke-width="1.4"/>
<path opacity="0.85" d="M350.227 295.881C352.851 292.285 355.87 289.029 359.176 286.049C367.246 278.781 376.671 275.046 387.592 275.567C397.256 276.028 406.176 278.974 414.284 284.262C422.085 289.348 428.225 296.054 433.015 303.964C435.774 308.525 438.318 313.229 440.749 317.975C444.197 324.715 448.272 330.988 453.416 336.57C457.074 340.544 460.611 344.635 464.266 348.613C468.82 353.573 471.709 359.365 473.194 365.894C476.298 379.545 473.694 392.205 466.318 403.939C464.375 407.027 461.97 409.834 459.724 412.73C455.897 417.661 451.073 421.362 445.32 423.758C437.006 427.224 428.309 428.441 419.377 427.384C414.843 426.847 410.335 425.991 405.877 424.992C395.023 422.558 384.068 421.114 372.932 421.106C370.808 421.106 368.68 420.976 366.556 420.917C355.113 420.602 344.07 418.181 333.296 414.48C323.985 411.282 315.515 406.616 308.534 399.558C301.427 392.369 297.675 383.813 297.566 373.607C297.474 364.715 300.359 356.826 304.963 349.432C310.225 340.988 317.058 333.934 324.628 327.552C331.159 322.042 337.097 316.016 341.534 308.643C342.262 307.43 343.019 306.234 344.129 304.438C345.895 301.962 348.036 298.903 350.235 295.89L350.227 295.881ZM339.07 316.423C335.365 321.412 330.73 325.516 326.033 329.545C319.51 335.134 313.463 341.169 308.601 348.299C306.313 351.656 304.366 355.193 302.798 358.953C300.354 364.79 299.677 370.846 300.211 377.098C300.93 385.525 304.787 392.403 310.687 398.248C317.899 405.395 326.706 409.818 336.256 412.915C347.3 416.498 358.608 418.462 370.245 418.639C375.909 418.722 381.583 418.999 387.23 419.427C394.052 419.944 400.73 421.425 407.417 422.839C411.193 423.636 415.003 424.325 418.826 424.879C425.891 425.902 432.851 425.13 439.681 423.196C446.275 421.324 451.826 417.845 456.481 412.722C461.915 406.738 466.444 400.254 469.195 392.638C472.668 383.015 472.95 373.28 469.998 363.46C468.467 358.378 465.826 353.955 462.251 350.04C458.563 346.003 454.963 341.886 451.271 337.85C446.153 332.247 442.078 325.965 438.642 319.222C436.396 314.811 434.024 310.456 431.522 306.188C427.649 299.583 422.796 293.762 416.736 289.033C407.551 281.865 397.113 278.026 385.435 277.988C375.771 277.959 367.536 281.71 360.454 288.185C354.748 293.406 350.298 299.62 346.164 306.083C343.809 309.537 341.564 313.074 339.07 316.427V316.423Z" fill="#B39E8C" stroke="#475B5C" stroke-width="1.4"/>
<path opacity="0.9" d="M316.932 380.405C314.017 372.608 314.118 364.795 317.054 357.014C318.98 351.907 321.697 347.224 325.326 343.171C329.7 338.282 334.305 333.599 338.821 328.844C342.24 325.244 345.47 321.513 347.981 317.187C350.205 313.351 352.417 309.474 355.033 305.907C362.3 296.003 372.061 290.044 384.299 288.21C393.446 286.838 402.004 288.311 409.906 293.208C416.285 297.161 421.319 302.424 424.831 309.037C427.392 313.863 429.814 318.773 432.077 323.741C435.719 331.744 440.664 338.777 446.96 344.929C456.527 354.278 459.782 365.726 457.894 378.777C457.188 383.657 455.556 388.244 453.31 392.633C449.719 399.662 444.315 404.589 436.762 407.111C430.618 409.163 424.385 409.474 418.073 408.143C415.049 407.505 412.046 406.763 409.048 406.003C399.628 403.603 390.09 403.12 380.459 404.245C376.3 404.732 372.154 405.344 368.003 405.907C363.528 406.515 359.041 406.977 354.516 406.771C345.811 406.377 337.829 403.8 330.637 398.869C323.904 394.308 319.712 387.871 316.923 380.418L316.932 380.405ZM351.025 316.842C347.749 322.839 343.233 327.829 338.514 332.696C334.309 337.035 330.112 341.404 326.222 346.02C322.248 350.737 319.434 356.158 318.038 362.235C316.978 366.834 316.94 371.433 318.151 375.986C320.662 385.424 325.637 393.166 334.174 398.273C340.596 402.113 347.602 404.253 355.096 404.283C359.331 404.299 363.579 403.829 367.805 403.427C370.947 403.129 374.063 402.596 377.187 402.147C388.816 400.489 400.309 401.014 411.676 404.09C414.532 404.862 417.429 405.512 420.344 406.033C425.781 406.998 431.126 406.473 436.341 404.656C442.855 402.39 447.629 398.156 450.842 392.075C454.088 385.936 456.023 379.44 455.993 372.503C455.951 362.273 452.452 353.418 444.908 346.268C438.528 340.221 433.683 333.078 430.02 325.092C427.741 320.128 425.327 315.218 422.796 310.38C419.566 304.216 414.915 299.31 409.035 295.554C402.87 291.618 396.154 289.78 388.841 290.212C374.761 291.039 363.827 297.426 355.1 309.923C354.15 311.526 352.501 314.14 351.025 316.847V316.842Z" fill="#B39E8C" stroke="#475B5C" stroke-width="1.4"/>
<path opacity="0.95" d="M341.151 338.643C347.102 330.745 354.226 324.132 362.725 319.012C369.555 314.895 376.868 312.176 384.829 311.362C396.545 310.166 406.592 313.532 414.608 322.365C417.484 325.533 419.734 329.125 421.791 332.848C424.331 337.451 427.552 341.526 431.32 345.168C434.558 348.299 437.973 351.253 441.115 354.48C449.479 363.074 451.7 373.091 447.343 384.304C444.862 390.686 440.236 395.084 433.696 397.35C427.973 399.335 422.169 399.188 416.34 397.871C414.204 397.388 412.089 396.809 409.957 396.322C405.23 395.252 400.448 394.501 395.591 394.64C391.213 394.765 386.839 395.101 382.461 395.323C374.934 395.701 367.406 396.339 359.861 395.856C352.279 395.37 345.172 393.297 338.594 389.453C329.17 383.939 324.767 373.96 327.286 363.649C327.635 362.218 328.11 360.804 328.648 359.432C330.869 353.762 334.254 348.735 337.564 343.674C338.758 341.996 339.919 340.292 341.16 338.647L341.151 338.643ZM331.037 360.053C330.398 361.656 329.851 363.326 329.498 365.013C327.681 373.641 331.037 381.446 338.779 386.608C345.096 390.821 352.165 392.982 359.676 393.33C365.391 393.595 371.136 393.347 376.864 393.171C381.305 393.032 385.746 392.734 390.174 392.365C397.576 391.748 404.83 392.541 412.021 394.287C414.835 394.971 417.665 395.63 420.516 396.091C424.718 396.771 428.881 396.423 432.914 395.017C438.655 393.02 442.776 389.193 444.992 383.578C449.143 373.062 446.956 363.775 439.02 355.823C435.841 352.638 432.447 349.667 429.222 346.524C425.47 342.869 422.278 338.773 419.73 334.178C417.543 330.237 415.146 326.448 411.992 323.162C406.281 317.208 399.35 314.006 391.104 313.628C383.193 313.267 375.733 315.076 368.693 318.559C359.802 322.957 352.186 329.008 345.878 336.666C344.036 338.899 342.291 341.211 340.907 342.978C337.076 348.865 333.413 354.094 331.037 360.053Z" fill="#B39E8C" stroke="#475B5C" stroke-width="1.4"/>
<path d="M350.702 346.364C358.159 337.594 367.385 331.542 378.467 328.315C385.49 326.268 392.589 325.399 399.851 326.863C404.111 327.724 407.884 329.503 411.105 332.474C413.494 334.677 415.454 337.208 417.211 339.906C419.15 342.881 421.324 345.663 423.953 348.068C426.943 350.804 430.004 353.469 432.957 356.242C439.509 362.39 441.506 369.939 439.576 378.588C438.954 381.379 437.789 383.964 435.694 386.012C431.968 389.654 427.452 391.505 422.266 391.425C419.903 391.387 417.531 390.951 415.193 390.523C412.913 390.107 410.659 389.537 408.426 388.92C399.208 386.368 389.952 386.725 380.641 388.362C377.348 388.941 374.005 389.394 370.666 389.532C361.624 389.902 353.474 387.573 346.707 381.228C340.285 375.202 338.469 367.333 341.989 359.251C343.137 356.616 344.693 354.153 345.618 352.432C347.721 349.914 349.193 348.127 350.694 346.364H350.702ZM344.39 359.864C341 367.468 342.733 374.547 349.02 380.028C355.311 385.516 362.713 387.522 370.855 387.065C374.572 386.855 378.261 386.154 381.961 385.684C384.136 385.407 386.306 385.135 388.484 384.883C394.103 384.232 399.675 384.518 405.196 385.718C408.468 386.431 411.707 387.283 414.983 387.967C417.119 388.412 419.289 388.79 421.459 388.97C425.042 389.272 428.339 388.236 431.384 386.372C434.593 384.409 436.447 381.475 437.234 377.879C438.975 369.935 436.948 363.124 430.871 357.61C428.49 355.449 426.089 353.305 423.679 351.177C420.231 348.131 417.321 344.639 414.84 340.774C413.166 338.164 411.227 335.785 408.855 333.758C406.092 331.396 402.921 329.939 399.38 329.251C394.119 328.231 388.884 328.416 383.648 329.524C370.897 332.231 360.345 338.546 352.019 348.563C351.363 349.356 350.652 350.103 350.017 350.913C349.382 351.723 348.814 352.583 348.217 353.418C348.124 353.364 348.028 353.305 347.935 353.25C346.745 355.449 345.403 357.581 344.39 359.855V359.864Z" fill="#B39E8C" stroke="#475B5C" stroke-width="1.4"/>
<path d="M423.36 356.57C425.042 359.033 426.308 361.693 426.964 364.627C427.565 367.329 427.464 369.981 426.573 372.612C424.348 379.171 418.523 383.582 411.517 383.578C408.321 383.578 405.062 383.196 401.95 382.487C395.717 381.068 389.56 381.139 383.362 382.508C380.14 383.217 376.877 383.544 373.571 383.473C368.483 383.368 363.97 381.765 360.089 378.458C355.286 374.371 353.297 369.201 354.264 362.969C354.508 361.391 354.962 359.826 355.505 358.324C357.12 353.88 360 350.267 363.234 346.901C368.209 341.719 374.206 338.458 381.322 337.258C385.325 336.582 389.291 336.981 393.257 337.531C400.145 338.492 406.412 341.068 412.001 344.803C416.505 348.227 420.285 352.063 423.36 356.565V356.57ZM388.904 339.473C384.106 339.079 379.539 339.784 375.098 341.567C369.736 343.724 365.673 347.518 362.078 351.882C360.059 354.333 358.444 357.023 357.46 360.065C354.592 368.953 358.52 376.826 367.36 379.931C369.955 380.842 372.654 381.148 375.354 380.997C378.046 380.846 380.754 380.531 383.391 379.981C389.535 378.706 395.633 378.517 401.769 380.002C404.965 380.774 408.216 381.291 411.525 381.19C417.464 381.005 422.321 377.422 424.243 371.866C425.021 369.612 425.08 367.338 424.546 365.025C423.957 362.487 422.825 360.187 421.4 358.026C418.792 354.073 414.473 349.633 409.418 346.045C404.044 342.369 396.769 340.12 388.904 339.473Z" fill="#B39E8C" stroke="#475B5C" stroke-width="1.4"/>
<path d="M408.178 352.864C410.814 355.558 412.925 358.617 414.023 362.268C414.864 365.063 414.679 367.74 412.875 370.157C410.726 373.036 407.887 374.866 404.279 375.071C402.252 375.189 400.154 374.987 398.169 374.547C395.986 374.064 393.875 373.204 391.772 372.415C386.869 370.577 381.961 370.589 377.015 372.197C376.342 372.415 375.661 372.625 374.967 372.755C368.154 374.022 362.523 368.013 364.264 361.332C364.857 359.054 365.942 357.014 367.494 355.256C372.196 349.922 378.083 346.536 385.018 345.029C391.797 343.556 398.072 344.706 403.749 348.865C405.234 350.191 406.794 351.441 408.186 352.86L408.178 352.864ZM385.384 347.463C378.538 349.062 372.641 352.31 368.465 358.135C367.624 359.31 366.989 360.724 366.623 362.125C365.4 366.846 369.349 371.093 374.214 370.397C374.908 370.296 375.602 370.099 376.267 369.864C381.721 367.929 387.133 368.147 392.533 370.103C394.531 370.824 396.512 371.63 398.564 372.13C400.229 372.537 401.996 372.7 403.716 372.679C405.974 372.65 407.955 371.706 409.628 370.157C411.891 368.063 412.597 365.583 411.584 362.637C410.474 359.406 408.552 356.691 406.172 354.295C404.952 353.065 403.585 351.983 402.29 350.833C397.159 347.069 391.482 346.036 385.384 347.459V347.463Z" fill="#B39E8C" stroke="#475B5C" stroke-width="1.4"/>
</svg>
