<svg width="360" height="233" viewBox="0 0 360 233" fill="none" xmlns="http://www.w3.org/2000/svg">
<path opacity="0.05" d="M175.612 68.4006L174.816 68.2047C173.543 67.8912 172.27 67.5386 171.116 66.8724C170.281 66.4022 169.804 65.736 169.366 65.1091C169.088 64.7172 168.849 64.3254 168.491 64.0119C168.133 63.6592 167.695 63.3457 167.218 62.993C166.382 62.3661 165.467 61.7391 164.99 60.877C164.473 59.9758 164.91 59.0745 165.308 58.3692C165.587 57.8206 165.825 57.3503 165.706 56.9193C165.587 56.4491 165.149 55.8221 164.791 55.2343C164.194 54.3331 163.558 53.3926 163.558 52.413C163.558 51.9428 163.478 51.4725 163.399 51.0415C163.279 50.2578 163.16 49.4741 163.399 48.5336C163.677 47.4364 164.155 46.6919 164.672 45.9082C164.831 45.6731 164.99 45.3988 165.149 45.1245C165.348 44.811 165.547 44.4191 165.746 44.0273C166.303 43.0084 166.9 41.8329 167.655 41.0884C168.451 40.3047 169.366 39.8344 170.241 39.3642C170.559 39.2075 170.917 39.0507 171.236 38.8548C172.469 38.1494 173.702 37.836 175.055 37.4833H175.254C175.651 37.3266 176.049 37.209 176.447 37.0523C177.402 36.7388 178.357 36.4253 179.431 36.4253C180.505 36.4253 181.46 36.7388 182.374 37.0523C182.772 37.1698 183.17 37.3266 183.568 37.4049C183.966 37.5225 184.403 37.6009 184.801 37.6792C185.796 37.8752 186.79 38.0711 187.705 38.5805C188.541 39.0507 188.978 40.1087 189.376 41.1667C189.654 41.8721 189.933 42.5774 190.291 42.9301C190.609 43.2436 191.087 43.3611 191.644 43.4395C192.36 43.5571 193.235 43.7138 193.752 44.5759C194.388 45.6731 194.746 46.8878 195.025 48.0634L195.303 49.043C195.622 50.2186 195.98 51.4725 195.98 52.7265C195.98 53.9804 195.661 55.0776 195.343 56.1748L194.985 57.5463C194.707 58.6826 194.388 59.819 193.792 60.877C193.155 61.9742 192.24 62.8363 191.405 63.6592L190.609 64.4429C189.734 65.305 188.859 66.2063 187.745 66.8332C186.75 67.3818 185.637 67.6561 184.602 67.9304C184.284 68.0088 183.966 68.0872 183.647 68.1655C183.329 68.2439 183.051 68.3223 182.733 68.4398C181.698 68.7533 180.624 69.0668 179.47 69.0668C178.118 69.0668 176.964 68.7533 175.691 68.4006H175.612ZM176.765 38.0711C176.368 38.2278 175.93 38.3454 175.492 38.4629H175.293C174.02 38.8548 172.867 39.1683 171.753 39.7561C171.395 39.952 171.077 40.1087 170.719 40.3047C169.843 40.7357 169.048 41.1667 168.411 41.7937C167.775 42.4207 167.218 43.5179 166.701 44.4583C166.502 44.8502 166.303 45.242 166.064 45.5947C165.905 45.9082 165.706 46.1825 165.547 46.4176C165.07 47.2013 164.672 47.7891 164.433 48.7295C164.234 49.4349 164.354 50.0618 164.433 50.7672C164.513 51.2374 164.592 51.7468 164.592 52.3346C164.592 52.9616 165.109 53.7453 165.666 54.529C166.104 55.1951 166.581 55.8613 166.74 56.5274C166.979 57.3503 166.581 58.134 166.263 58.8002C165.905 59.4664 165.746 59.8974 165.945 60.2501C166.303 60.877 167.098 61.4648 167.854 62.0134C168.332 62.3661 168.849 62.7579 169.247 63.1498C169.684 63.5808 169.963 64.0119 170.281 64.4429C170.679 65.0307 171.037 65.5401 171.634 65.8928C172.668 66.4806 173.861 66.794 175.055 67.1075L175.85 67.3426C177.044 67.6561 178.158 67.9696 179.311 67.9696C180.306 67.9696 181.261 67.6953 182.255 67.3818C182.573 67.3035 182.892 67.1859 183.21 67.1075C183.528 67.0292 183.846 66.9508 184.165 66.8724C185.199 66.6373 186.154 66.4022 186.989 65.932C187.984 65.3834 188.779 64.5605 189.615 63.7376L190.41 62.9539C191.246 62.131 192.041 61.3473 192.598 60.4068C193.155 59.5055 193.394 58.4475 193.672 57.3503L194.07 55.9397C194.388 54.8817 194.667 53.8628 194.667 52.8048C194.667 51.6684 194.349 50.5713 194.03 49.3957L193.752 48.4161C193.434 47.2797 193.155 46.1825 192.598 45.2028C192.36 44.811 191.962 44.7326 191.286 44.5759C190.649 44.4583 189.933 44.3408 189.336 43.753C188.819 43.2436 188.501 42.4207 188.143 41.637C187.785 40.7749 187.427 39.9128 186.949 39.6385C186.193 39.2075 185.318 39.0507 184.403 38.8548C183.966 38.7764 183.528 38.698 183.091 38.5805C182.653 38.4629 182.255 38.3062 181.818 38.1886C180.942 37.8752 180.107 37.6009 179.232 37.6009C178.357 37.6009 177.521 37.8752 176.606 38.1886L176.765 38.0711Z" fill="#B49C88" stroke="#304040" stroke-width="0.364505"/>
<path opacity="0.1" d="M177.282 77.3739C176.447 76.9036 175.651 76.3942 174.776 76.2375C174.02 76.0807 172.946 76.1591 171.872 76.2767C171.235 76.3551 170.519 76.4334 169.883 76.4334C168.968 76.4334 168.252 76.2767 167.615 75.9632C166.104 75.2187 164.95 74.1215 163.836 73.0635C163.398 72.6324 162.961 72.2014 162.444 71.7703C161.966 71.3393 161.449 70.9474 160.972 70.5556C159.659 69.4976 158.267 68.4004 157.312 66.9897C156.477 65.7358 156.198 64.3643 155.959 63.0712C155.8 62.3266 155.681 61.5429 155.402 60.7592C154.647 58.4865 154.448 55.3908 154.289 53.314C154.249 52.4519 154.01 51.7074 153.771 51.002C153.413 49.9049 153.055 48.7685 153.374 47.3186C153.652 45.9079 154.845 44.5756 155.999 43.3217C156.795 42.4596 157.551 41.6367 157.948 40.853C158.346 40.0693 158.386 39.2856 158.426 38.5019C158.466 37.4047 158.505 36.2683 159.5 35.2103C161.131 33.3686 162.802 31.9187 164.632 30.704C165.944 29.8419 167.774 29.45 169.525 29.0582C170.44 28.8622 171.315 28.6663 172.031 28.4312C174.179 27.7259 175.373 27.334 177.72 27.1773C179.47 27.0597 181.022 27.4124 182.692 27.8042C183.249 27.9218 183.806 28.0785 184.363 28.1569C185.199 28.3136 186.034 28.3136 186.949 28.3136C188.381 28.3136 189.853 28.3137 191.166 28.9798C192.518 29.646 193.394 30.7823 194.229 31.8795C194.786 32.5849 195.303 33.251 195.94 33.7996C196.576 34.3482 197.332 34.7793 198.128 35.2495C199.361 35.9548 200.634 36.6993 201.469 37.9141C202.344 39.2072 202.663 40.7354 202.981 42.2245C203.14 43.0474 203.339 43.8311 203.578 44.5756C203.816 45.3202 204.174 46.0255 204.532 46.7308C205.129 47.9456 205.766 49.2387 205.885 50.7277C206.004 52.3735 205.567 53.941 205.169 55.43C205.01 56.057 204.851 56.6839 204.691 57.3109C204.572 57.9379 204.453 58.604 204.373 59.2702C204.135 60.8768 203.896 62.5226 203.14 64.0116C202.424 65.4615 201.27 66.5195 200.196 67.5775C199.679 68.0477 199.162 68.5571 198.685 69.1057C198.207 69.6543 197.77 70.2421 197.332 70.7907C196.377 72.0055 195.422 73.2986 194.07 74.1998C192.678 75.1011 191.126 75.5322 189.654 75.924C189.018 76.0808 188.341 76.2767 187.705 76.4726C187.068 76.6685 186.432 76.9428 185.795 77.1779C184.284 77.7657 182.732 78.3927 181.061 78.5103C180.982 78.5103 180.902 78.5103 180.783 78.5103C179.43 78.5103 178.316 77.8441 177.242 77.2171L177.282 77.3739ZM177.799 28.392C175.611 28.5096 174.537 28.8622 172.389 29.6068C171.593 29.8811 170.718 30.077 169.763 30.2729C168.093 30.6256 166.382 31.0174 165.268 31.762C163.518 32.8984 161.927 34.309 160.335 36.0724C159.619 36.8561 159.619 37.7182 159.54 38.6978C159.54 39.5599 159.46 40.5003 158.943 41.5191C158.466 42.4204 157.67 43.3217 156.835 44.223C155.8 45.3593 154.686 46.5741 154.448 47.6713C154.209 48.8076 154.487 49.7481 154.845 50.7669C155.084 51.5506 155.363 52.3735 155.402 53.3532C155.522 55.3516 155.721 58.3689 156.437 60.4849C156.715 61.3078 156.874 62.1307 157.033 62.9536C157.272 64.2075 157.471 65.3831 158.227 66.4411C159.062 67.6951 160.375 68.7531 161.648 69.7327C162.165 70.1637 162.682 70.5556 163.16 70.9866C163.677 71.4177 164.115 71.8487 164.592 72.3189C165.666 73.3769 166.7 74.3566 168.093 75.0227C168.968 75.4538 170.281 75.3754 171.713 75.2187C172.827 75.1011 174.02 74.9836 174.935 75.1795C176.009 75.3754 176.924 75.924 177.799 76.4334C178.794 77.0212 179.749 77.5698 180.783 77.5698C180.783 77.5698 180.902 77.5698 180.982 77.5698C182.454 77.4914 183.886 76.9036 185.358 76.3159C186.034 76.0416 186.671 75.8065 187.347 75.5713C188.023 75.3362 188.699 75.1795 189.376 74.9836C190.848 74.5917 192.24 74.239 193.473 73.4161C194.667 72.6324 195.542 71.496 196.457 70.2813C196.894 69.6935 197.372 69.1057 197.849 68.5179C198.366 67.9693 198.883 67.4208 199.44 66.9505C200.514 65.9317 201.549 64.9521 202.185 63.6981C202.862 62.3658 203.06 60.8768 203.299 59.3094C203.379 58.6432 203.498 57.9771 203.617 57.3109C203.737 56.6448 203.936 55.9786 204.095 55.3516C204.493 53.8626 204.851 52.4911 204.771 51.002C204.692 49.7089 204.135 48.5725 203.538 47.397C203.18 46.6916 202.822 45.9471 202.543 45.1242C202.265 44.3405 202.066 43.4784 201.907 42.6555C201.589 41.2057 201.31 39.8342 200.554 38.737C199.878 37.7182 198.764 37.0912 197.571 36.425C196.775 35.9548 195.94 35.4846 195.224 34.8576C194.507 34.2307 193.911 33.4861 193.354 32.7416C192.558 31.6836 191.802 30.704 190.688 30.1945C189.575 29.6459 188.302 29.646 186.949 29.646C186.034 29.646 185.079 29.646 184.125 29.45C183.528 29.3325 182.971 29.2149 182.414 29.0582C181.022 28.7447 179.749 28.4312 178.356 28.4312C178.157 28.4312 177.998 28.4312 177.799 28.4312V28.392Z" fill="#B49C88" stroke="#304040" stroke-width="0.364505"/>
<path opacity="0.1" d="M173.344 87.3664C172.429 87.0529 171.514 86.7394 170.519 86.4651C169.565 86.23 168.57 86.0341 167.536 85.8382C165.308 85.4071 163.04 84.9761 161.091 83.8789C159.341 82.8993 158.306 81.371 157.312 79.9212C156.675 78.9807 156.039 78.0403 155.164 77.1782C154.328 76.3553 153.294 75.6108 152.14 74.827C150.31 73.5731 148.441 72.2408 147.446 70.5166C146.014 68.0871 145.019 65.5793 144.065 62.0526C143.548 60.2109 144.383 57.8205 145.179 55.5478C145.775 53.8628 146.332 52.2954 146.332 51.0415C146.332 49.7875 145.736 48.8471 145.139 47.8282C144.383 46.5743 143.587 45.2812 144.065 43.4395C144.582 41.5194 145.417 40.6573 146.332 39.7168C146.929 39.0899 147.565 38.4237 148.162 37.4049C148.759 36.4253 149.316 34.9362 149.873 33.408C150.867 30.8217 151.862 28.1179 153.334 26.7073C154.766 25.2966 156.556 24.7088 158.306 24.1602C159.42 23.8075 160.614 23.4157 161.648 22.8279C163.637 21.6915 165.626 21.2997 167.774 20.8686C168.65 20.7119 169.565 20.516 170.44 20.2808C171.633 19.9674 172.787 19.3404 173.901 18.7134C175.572 17.773 177.282 16.8325 179.271 16.8325C181.26 16.8325 182.931 17.773 184.602 18.7134C185.716 19.3404 186.869 19.9674 188.063 20.32C189.256 20.6335 190.609 20.6335 191.882 20.6727C193.831 20.6727 195.82 20.6727 197.531 21.6915C199.321 22.7103 200.594 24.4345 201.787 26.0803C202.543 27.0991 203.259 28.0788 204.095 28.9017C204.93 29.7246 205.885 30.3907 206.84 31.0177C208.351 32.0365 209.903 33.0945 210.897 34.8187C211.971 36.6996 212.369 38.7372 212.727 40.7357C212.886 41.7153 213.085 42.7341 213.364 43.6746C213.642 44.6542 214 45.6339 214.319 46.5743C215.035 48.5728 215.79 50.6104 215.79 52.7656C215.79 54.9208 215.035 56.7625 214.279 58.6043C213.881 59.5839 213.483 60.6027 213.205 61.6607C212.926 62.6795 212.767 63.7767 212.608 64.8739C212.29 66.8724 211.971 68.9492 210.897 70.7909C209.823 72.6718 208.192 73.965 206.641 75.2581C205.845 75.8851 205.05 76.5512 204.333 77.2957C203.617 78.0011 202.901 78.824 202.225 79.6077C200.833 81.2143 199.44 82.8993 197.531 83.9573C195.741 84.9761 193.712 85.172 191.763 85.4071C190.609 85.5247 189.415 85.6422 188.262 85.9557C187.148 86.2692 186.034 86.7394 184.96 87.2097C183.17 87.9934 181.3 88.8163 179.231 88.8163C177.004 88.8163 175.174 88.1501 173.185 87.484L173.344 87.3664ZM174.577 19.5755C173.384 20.2417 172.19 20.9078 170.838 21.2605C169.923 21.4956 168.968 21.6915 168.093 21.8875C166.064 22.3185 164.115 22.7104 162.324 23.7292C161.171 24.3953 159.937 24.7872 158.744 25.1398C157.033 25.6884 155.442 26.1979 154.209 27.4126C152.936 28.6665 151.902 31.3703 151.026 33.7215C150.43 35.3281 149.833 36.8171 149.236 37.9143C148.56 39.0507 147.844 39.7952 147.247 40.4614C146.372 41.3626 145.696 42.1072 145.258 43.7138C144.9 45.1244 145.497 46.1041 146.213 47.2405C146.849 48.2593 147.566 49.4348 147.566 51.0415C147.566 52.4521 146.969 54.1371 146.372 55.9005C145.616 58.0165 144.86 60.2109 145.298 61.7391C146.213 65.1874 147.207 67.6169 148.56 69.9289C149.475 71.4571 151.225 72.711 152.936 73.9258C154.05 74.7095 155.204 75.4932 156.079 76.3945C156.994 77.2957 157.67 78.3145 158.346 79.2942C159.301 80.7049 160.216 82.0372 161.728 82.8993C163.478 83.9181 165.706 84.3099 167.814 84.7018C168.849 84.8977 169.883 85.0937 170.877 85.368C171.872 85.6423 172.866 85.9557 173.781 86.3084C175.651 86.9745 177.441 87.5623 179.43 87.5623C181.26 87.5623 182.931 86.8178 184.681 86.0733C185.795 85.6031 186.949 85.0936 188.142 84.7802C189.336 84.4667 190.609 84.3491 191.802 84.1924C193.712 83.9964 195.542 83.8005 197.093 82.8993C198.804 81.9196 200.117 80.3914 201.469 78.7848C202.146 77.9619 202.862 77.139 203.617 76.3945C204.373 75.6499 205.209 74.9446 206.004 74.2785C207.556 73.0245 209.028 71.8098 209.982 70.1248C210.937 68.479 211.216 66.5981 211.534 64.5996C211.693 63.5024 211.892 62.3661 212.17 61.2689C212.489 60.1717 212.886 59.1137 213.284 58.0948C214 56.2923 214.716 54.529 214.716 52.6481C214.716 50.7672 214.04 48.8079 213.324 46.8094C212.966 45.8298 212.608 44.8501 212.33 43.8313C212.051 42.8125 211.852 41.7937 211.693 40.7749C211.335 38.7764 211.017 36.9347 210.022 35.2105C209.147 33.6823 207.755 32.7418 206.283 31.7622C205.288 31.096 204.294 30.3907 203.379 29.5286C202.504 28.6665 201.708 27.6085 200.952 26.5897C199.798 25.0223 198.605 23.3765 197.014 22.5144C195.542 21.6915 193.791 21.6523 191.922 21.6523C190.569 21.6523 189.137 21.6523 187.784 21.2605C186.432 20.9078 185.238 20.2417 184.045 19.5755C182.454 18.6742 180.982 17.8514 179.311 17.8514C177.64 17.8514 176.089 18.7134 174.497 19.5755H174.577Z" fill="#B49C88" stroke="#304040" stroke-width="0.364505"/>
<path opacity="0.1" d="M182.454 97.4761C181.181 97.3193 179.868 97.1626 178.516 97.1234C177.203 97.0842 175.771 97.1234 174.418 97.241C173.265 97.3193 172.071 97.3585 170.918 97.3585C168.968 97.3585 167.417 97.1626 166.024 96.7707C163.598 96.0654 161.967 94.4588 160.415 92.9306C159.341 91.9117 158.267 90.8145 156.915 89.9916C155.602 89.2079 153.971 88.581 152.26 87.954C149.595 86.9744 146.89 85.9555 145.139 84.1138C142.116 80.9398 140.127 77.6874 138.456 74.6309C137.183 72.319 136.785 68.949 136.427 65.6966C136.228 63.9333 136.029 62.2483 135.711 60.916C135.353 59.427 134.836 58.3298 134.359 57.2718C133.603 55.626 132.887 54.0977 132.966 51.5899C133.046 49.1604 133.841 47.9064 134.677 46.6133C135.273 45.6729 135.91 44.7324 136.387 43.2042C136.825 41.7543 137.064 39.6775 137.302 37.4439C137.7 33.878 138.098 30.1946 139.451 28.0394C140.763 25.9234 142.832 24.787 144.861 23.6506C146.213 22.9061 147.645 22.1224 148.799 21.0252C150.868 19.1051 153.175 18.0863 155.642 17.0283C156.755 16.558 157.869 16.0486 158.983 15.4609C160.415 14.7163 161.649 13.5016 162.842 12.326C164.553 10.6411 166.343 8.91688 168.769 8.36829C169.326 8.25073 169.883 8.17236 170.48 8.17236C172.27 8.17236 174.06 8.76015 175.771 9.30875C177.362 9.81816 178.993 10.3667 180.624 10.4059H180.863C182.414 10.4059 184.045 9.9749 185.597 9.58304C187.228 9.152 188.899 8.72096 190.57 8.72096C191.365 8.72096 192.121 8.83852 192.837 9.03445C195.304 9.73979 197.293 11.5815 199.282 13.3057C200.555 14.442 201.748 15.5 203.061 16.2838C204.374 17.1067 205.846 17.6161 207.238 18.0863C209.386 18.8308 211.574 19.6145 213.324 21.4562C215.194 23.4155 216.189 25.8058 217.143 28.1178C217.661 29.3325 218.178 30.5865 218.814 31.8012C219.451 32.9768 220.246 34.1523 221.042 35.2495C222.554 37.4439 224.065 39.6775 224.702 42.3029C225.299 44.85 224.901 47.3578 224.503 49.7873C224.264 51.1588 224.026 52.6087 223.986 54.0194C223.986 55.4301 224.105 56.9191 224.225 58.3298C224.463 60.8376 224.742 63.4631 223.986 65.9709C223.23 68.518 221.599 70.5165 220.048 72.4757C219.212 73.5337 218.337 74.6309 217.621 75.7673C216.905 76.9037 216.268 78.1968 215.672 79.4507C214.518 81.8411 213.324 84.2706 211.335 86.1123C209.466 87.8364 207.039 88.6202 204.692 89.3647C203.22 89.8349 201.708 90.3051 200.356 91.0496C199.003 91.755 197.77 92.7346 196.537 93.6751C194.587 95.2033 192.598 96.7707 190.092 97.3585C189.058 97.5936 187.984 97.7112 186.79 97.7112C185.318 97.7112 183.886 97.5153 182.454 97.3585V97.4761ZM185.836 10.6411C184.205 11.0721 182.494 11.5031 180.783 11.5031H180.505C178.715 11.4639 177.004 10.8762 175.333 10.3276C173.623 9.77896 172.031 9.23037 170.44 9.23037C169.923 9.23037 169.446 9.26956 168.968 9.38712C166.86 9.85734 165.269 11.4248 163.598 13.0705C162.325 14.2853 161.012 15.5392 159.461 16.4013C158.307 17.0283 157.153 17.5377 156.039 18.0079C153.692 19.0659 151.464 20.0456 149.515 21.8089C148.242 22.9845 146.81 23.8074 145.378 24.5911C143.389 25.6883 141.559 26.7463 140.365 28.588C139.172 30.5081 138.734 34.2307 138.376 37.5223C138.138 39.795 137.899 41.9502 137.422 43.4785C136.905 45.1634 136.228 46.2215 135.592 47.1619C134.756 48.455 134.12 49.4347 134.04 51.5507C133.961 53.7843 134.597 55.1557 135.353 56.7623C135.83 57.8204 136.427 59.0351 136.785 60.6417C137.143 62.0524 137.342 63.7766 137.541 65.5791C137.899 68.7139 138.297 71.9663 139.451 74.1215C141.082 77.0996 143.031 80.3128 145.975 83.4085C147.526 85.0543 150.152 86.0339 152.658 86.9744C154.329 87.6013 156.119 88.2675 157.511 89.1296C158.943 90.0308 160.097 91.128 161.211 92.2252C162.762 93.7534 164.234 95.1641 166.343 95.7911C167.616 96.183 169.048 96.3397 170.878 96.3397C172.031 96.3397 173.185 96.2613 174.339 96.2221C175.731 96.1438 177.163 96.0654 178.516 96.1046C179.908 96.1438 181.261 96.3005 182.573 96.4572C184.006 96.6532 185.358 96.8099 186.751 96.8099C187.864 96.8099 188.859 96.6924 189.814 96.4964C192.041 95.987 193.871 94.5372 195.781 93.0481C197.014 92.0685 198.327 91.0496 199.759 90.3051C201.191 89.5606 202.743 89.0512 204.294 88.5418C206.601 87.7972 208.829 87.0919 210.5 85.5245C212.33 83.8395 213.484 81.4884 214.597 79.1764C215.234 77.8833 215.87 76.5902 216.626 75.3755C217.382 74.1607 218.257 73.0243 219.133 71.9663C220.684 70.007 222.156 68.1653 222.872 65.8142C223.588 63.5414 223.31 61.1511 223.071 58.6041C222.912 57.1542 222.753 55.626 222.792 54.1369C222.832 52.6479 223.071 51.1588 223.31 49.7482C223.707 47.3187 224.105 45.0067 223.548 42.6948C222.952 40.2653 221.559 38.1884 220.048 35.994C219.252 34.8577 218.456 33.6429 217.78 32.4282C217.104 31.1742 216.547 29.8811 216.03 28.6272C215.035 26.3152 214.12 24.0817 212.409 22.2791C210.858 20.6725 208.869 19.9672 206.761 19.1835C205.289 18.6741 203.777 18.1255 202.385 17.2634C200.992 16.4013 199.679 15.2649 198.446 14.1286C196.577 12.4828 194.667 10.7586 192.439 10.0924C191.843 9.89652 191.206 9.81815 190.53 9.81815C189.018 9.81815 187.506 10.21 185.875 10.6411H185.836Z" fill="#B49C88" stroke="#304040" stroke-width="0.364505"/>
<path opacity="0.11" d="M168.969 107.273C165.746 106.685 163.28 105.157 160.654 103.589C159.302 102.766 157.87 101.904 156.358 101.199C154.886 100.494 153.255 99.9058 151.584 99.318C148.402 98.1816 145.1 96.9669 142.594 94.8509C140.286 92.9308 139.331 90.3837 138.417 87.9151C137.78 86.1909 137.104 84.4276 136.03 82.8601C134.956 81.3319 133.404 79.8428 131.733 78.2754C129.267 75.9243 126.721 73.4948 125.686 70.6735C124.573 67.5386 124.573 64.247 124.612 61.073C124.612 59.5448 124.612 57.9382 124.493 56.3707C124.135 51.8252 125.368 44.4976 126.482 38.6197C127.079 35.4457 127.795 34.2701 128.829 32.6243C129.346 31.7623 129.943 30.7826 130.699 29.3328C132.529 25.6101 133.046 24.9832 135.115 22.6712C135.512 22.2402 135.91 21.77 136.427 21.1822C137.661 19.7715 138.973 17.4596 140.366 15.0301C142.594 11.1899 144.861 7.23216 147.407 5.50799C149.874 3.8622 152.738 3.62709 155.522 3.39197C157.472 3.23523 159.461 3.0785 161.291 2.45153C165.348 1.04085 170.202 -0.448194 175.413 -0.840049C177.084 -0.957605 178.755 -1.27109 180.346 -1.54539C182.454 -1.93724 184.642 -2.3291 186.791 -2.3291C187.825 -2.3291 188.78 -2.25073 189.734 -2.0548C192.996 -1.46702 195.463 0.0220273 198.089 1.58945C199.401 2.37316 200.754 3.15686 202.226 3.8622C205.607 5.4688 208.074 7.66319 210.62 9.97514C211.455 10.7197 212.29 11.4642 213.205 12.2479C217.144 15.5787 220.923 19.6931 223.628 23.5725C224.702 25.1399 226.134 26.433 227.487 27.6478C229.476 29.4895 231.545 31.3704 232.579 34.1918C233.653 37.209 233.534 40.3047 233.414 43.322C233.335 44.9678 233.295 46.6919 233.414 48.3769C233.534 50.0619 233.892 51.786 234.21 53.4318C234.807 56.5275 235.403 59.7407 234.807 62.9147C234.21 65.9712 232.499 68.5182 230.789 70.9869C229.794 72.4368 228.76 73.9258 227.964 75.5324C227.208 77.1391 226.612 78.8632 226.095 80.5874C225.18 83.4871 224.185 86.5044 222.116 88.8947C220.008 91.3242 217.263 92.7349 214.598 94.0672C213.086 94.8509 211.535 95.6346 210.102 96.5751C208.67 97.5155 207.318 98.6911 205.965 99.8274C203.539 101.904 201.032 104.059 197.969 105.117C196.696 105.549 195.304 105.784 193.673 105.784C192.161 105.784 190.61 105.588 189.098 105.431C187.188 105.196 185.239 104.961 183.33 105.117C181.46 105.274 179.511 105.784 177.681 106.293C175.493 106.881 173.185 107.508 170.918 107.508C170.202 107.508 169.486 107.469 168.809 107.312L168.969 107.273ZM189.376 104.255C190.848 104.412 192.36 104.608 193.832 104.608C195.344 104.608 196.617 104.412 197.77 104.02C200.635 103.041 203.061 100.964 205.408 98.9654C206.761 97.829 208.153 96.6142 209.625 95.6346C211.097 94.6158 212.688 93.8321 214.24 93.0484C216.945 91.6769 219.491 90.3838 221.44 88.1502C223.35 85.9558 224.225 83.1736 225.18 80.2739C225.737 78.5497 226.333 76.7472 227.129 75.0622C227.964 73.3773 228.999 71.849 230.033 70.36C231.704 67.8913 233.335 65.5401 233.852 62.7188C234.409 59.7799 233.852 56.8018 233.255 53.667C232.937 51.982 232.579 50.2186 232.46 48.4945C232.34 46.7311 232.38 45.007 232.46 43.322C232.579 40.3047 232.698 37.405 231.664 34.5836C230.749 32.0366 228.879 30.3124 226.89 28.5099C225.498 27.2167 224.026 25.9236 222.872 24.2386C220.247 20.4377 216.507 16.4016 212.648 13.11C211.734 12.3263 210.898 11.5817 210.063 10.8372C207.556 8.56446 205.17 6.44844 201.947 4.92021C200.436 4.21487 199.043 3.39198 197.691 2.56908C195.145 1.08004 192.758 -0.369825 189.695 -0.918422C188.819 -1.07516 187.944 -1.15354 186.99 -1.15354C184.921 -1.15354 182.892 -0.800861 180.744 -0.409006C179.113 -0.0955226 177.402 0.178771 175.692 0.335512C170.6 0.727367 165.826 2.17723 161.848 3.54872C159.859 4.25406 157.79 4.41079 155.761 4.56754C153.016 4.76346 150.43 4.99858 148.203 6.48763C145.895 8.05505 143.588 12.0911 141.519 15.6178C140.087 18.0865 138.735 20.4769 137.422 21.9659C136.905 22.5537 136.467 23.0239 136.109 23.4549C134.08 25.7277 133.603 26.2763 131.853 29.8422C131.097 31.3704 130.5 32.3892 129.943 33.2513C128.949 34.8187 128.312 35.8767 127.755 38.8548C127.039 42.5775 125.368 51.3158 125.766 56.2924C125.885 57.899 125.885 59.5448 125.885 61.073C125.885 64.2862 125.885 67.3427 126.92 70.2816C127.835 72.8678 130.301 75.219 132.688 77.4525C134.319 78.9808 135.99 80.5874 137.104 82.2332C138.297 83.9181 138.973 85.7599 139.65 87.5232C140.565 89.9527 141.44 92.2646 143.509 93.9888C145.856 95.9873 149.038 97.1236 152.141 98.26C153.772 98.8478 155.483 99.4748 156.994 100.18C158.586 100.925 160.018 101.787 161.37 102.649C163.916 104.177 166.303 105.627 169.287 106.215C169.884 106.332 170.52 106.371 171.157 106.371C173.305 106.371 175.373 105.784 177.601 105.196C179.511 104.686 181.46 104.138 183.489 103.981C183.926 103.981 184.364 103.942 184.802 103.942C186.353 103.942 187.944 104.138 189.456 104.295L189.376 104.255Z" fill="#B49C88" stroke="#304040" stroke-width="0.364505"/>
<path opacity="0.12" d="M165.825 119.264C164.871 118.989 163.757 118.676 162.325 118.284C161.052 117.931 159.739 117.618 158.426 117.304C153.533 116.129 148.481 114.875 144.184 112.445C140.206 110.173 137.461 107.234 134.557 104.138C133.483 103.002 132.409 101.826 131.216 100.69C130.261 99.7494 129.187 98.7306 127.993 97.5942C123.538 93.4013 118.048 88.1897 115.582 83.9576C112.439 78.5892 111.961 76.8259 110.33 70.9481C109.256 67.0295 109.893 61.3084 110.45 56.2143C110.768 53.4321 111.046 50.7675 111.046 48.6515C111.046 47.7111 111.046 46.8882 111.046 46.1436C111.046 41.9116 111.007 39.7956 112.359 34.7407C113.394 30.9005 114.388 29.6466 115.741 27.9224C116.536 26.9036 117.411 25.7672 118.565 23.8471C119.56 22.2013 120.674 19.8894 121.867 17.4207C124.532 11.9739 127.595 5.82179 130.659 2.80451C134.875 -1.34915 138.615 -4.56237 144.184 -7.73639C147.924 -9.85241 152.18 -10.6753 156.278 -11.459C158.187 -11.8117 160.137 -12.2035 162.046 -12.6738C168.133 -14.2804 173.264 -15.4951 179.55 -15.4951C185.835 -15.4951 190.53 -14.5547 196.616 -12.9481C198.645 -12.4387 200.793 -12.0468 202.902 -11.6941C207.079 -10.9888 211.415 -10.2443 215.035 -8.20662C218.337 -6.32571 220.604 -2.87739 222.792 0.453371C224.224 2.64776 225.696 4.88133 227.447 6.60549C228.6 7.78106 229.794 8.79988 230.908 9.8187C233.931 12.5617 236.795 15.1871 239.103 19.1057C242.245 24.5133 243.876 29.1763 245.468 35.015C245.865 36.5432 246.383 38.0714 246.82 39.5605C248.173 43.9101 249.485 48.0245 249.485 52.5701C249.485 56.8805 248.173 60.6814 246.82 64.6784C246.223 66.3633 245.627 68.1267 245.149 69.9292C244.672 71.6142 244.314 73.3384 243.956 74.9842C243.041 79.1378 242.206 83.0956 239.978 86.8965C236.994 91.9907 233.613 96.3011 229.038 100.807C225.1 104.687 220.445 109.076 214.796 112.289C211.216 114.326 207.158 114.953 203.22 115.58C201.111 115.894 198.923 116.246 196.855 116.795C192.081 118.049 182.136 120.674 175.532 120.674C170.718 120.674 169.087 120.204 165.825 119.264ZM162.364 -11.6158C160.415 -11.1063 158.426 -10.7145 156.517 -10.3618C152.3 -9.5781 148.361 -8.7944 144.781 -6.79594C139.331 -3.70028 135.671 -0.526261 131.494 3.54903C128.59 6.40957 125.567 12.5225 122.941 17.8517C121.708 20.3204 120.594 22.6324 119.599 24.3565C118.446 26.355 117.531 27.5305 116.695 28.5494C115.383 30.2343 114.507 31.3707 113.513 34.9758C112.16 39.874 112.2 41.8332 112.24 46.1045C112.24 46.849 112.24 47.7111 112.24 48.6515C112.24 50.8459 111.961 53.5105 111.643 56.3319C111.086 61.3084 110.489 66.9511 111.484 70.6346C113.115 76.5516 113.553 78.1582 116.616 83.3698C119.003 87.4451 124.453 92.6176 128.829 96.7321C130.022 97.8685 131.136 98.9265 132.091 99.8278C133.284 101.003 134.398 102.179 135.472 103.315C138.297 106.372 141.002 109.232 144.821 111.387C148.958 113.739 153.931 114.953 158.744 116.129C160.057 116.442 161.37 116.756 162.643 117.109C164.035 117.461 165.189 117.814 166.144 118.088C169.286 118.989 170.838 119.46 175.532 119.46C181.977 119.46 191.842 116.873 196.576 115.619C198.725 115.071 200.912 114.718 203.061 114.366C207.079 113.739 210.858 113.151 214.279 111.231C219.809 108.096 224.423 103.746 228.322 99.9061C232.817 95.4782 236.159 91.2461 239.103 86.2304C241.251 82.5469 242.086 78.7068 242.961 74.6315C243.319 72.9857 243.677 71.2615 244.155 69.4982C244.632 67.6565 245.269 65.8931 245.826 64.169C247.178 60.2504 248.411 56.567 248.411 52.4133C248.411 48.0246 247.138 43.9884 245.826 39.7172C245.348 38.2282 244.871 36.6999 244.433 35.1325C242.882 29.4114 241.291 24.7876 238.188 19.4975C235.96 15.7357 233.175 13.1887 230.192 10.4849C229.078 9.46604 227.884 8.40802 226.691 7.23246C224.861 5.42993 223.349 3.11799 221.877 0.884415C219.769 -2.3288 217.581 -5.65956 214.518 -7.4229C211.057 -9.38218 206.84 -10.0875 202.782 -10.7929C200.634 -11.1455 198.446 -11.5374 196.377 -12.086C190.331 -13.6926 185.676 -14.5939 179.59 -14.5939C173.503 -14.5939 168.371 -13.3791 162.404 -11.8117L162.364 -11.6158Z" fill="#B49C88" stroke="#304040" stroke-width="0.364505"/>
<path opacity="0.13" d="M162.205 135.878C153.016 134.036 141.718 128.707 138.495 127.1C134.159 124.984 131.494 121.928 128.669 118.675C127.038 116.834 125.368 114.914 123.299 113.111C117.371 107.978 113.791 103.354 109.893 97.5544C108.46 95.4384 106.71 93.3224 105.039 91.2847C101.777 87.4054 98.4356 83.3693 96.8443 78.7062C95.2531 74.0039 95.3724 69.4976 95.5315 64.717C95.6111 62.3267 95.6907 59.858 95.5315 57.3893C95.1337 50.8845 97.0034 42.0286 98.5151 34.936C98.714 33.9172 98.9527 32.9767 99.1118 32.0755C99.6688 29.2933 99.7484 27.0989 99.7881 24.9829C99.8677 21.7305 99.9473 18.674 102.056 14.5204C104.005 10.641 106.233 9.50464 108.58 8.32907C110.41 7.38862 112.279 6.44816 114.428 4.09703C116.297 1.98102 118.286 -1.15382 120.395 -4.4454C123.816 -9.853 127.396 -15.4565 131.335 -18.0428C135.353 -20.6682 140.206 -21.5695 144.86 -22.4315C147.566 -22.941 150.39 -23.4504 153.016 -24.3124C160.892 -26.8987 171.315 -28.3094 177.799 -28.7012C182.414 -28.9755 185.437 -27.7216 188.66 -26.3893C190.808 -25.5272 192.996 -24.5867 195.86 -24.0381C198.645 -23.4895 201.39 -23.372 204.055 -23.2936C208.471 -23.1369 212.608 -22.9801 216.865 -20.9033C223.985 -17.4158 233.334 -9.65707 238.267 -5.34667C243.876 -0.448481 247.138 4.37134 251.236 10.4843L251.355 10.6802C251.872 11.4639 252.35 12.1692 252.787 12.8354C255.97 17.5377 257.72 20.0847 259.828 26.3152C261.579 31.4485 261.658 36.2291 261.738 41.2841C261.738 43.2041 261.818 45.2026 261.937 47.2403C262.016 48.7293 262.136 50.1792 262.255 51.6682C262.733 57.5852 263.21 63.659 262.016 69.5368C260.624 76.2375 258.237 80.9398 255.214 86.8568L254.378 88.4634C251.832 93.4791 247.655 97.8287 243.637 102.061C242.285 103.511 240.972 104.843 239.739 106.214C237.909 108.252 236.238 110.76 234.488 113.425C231.624 117.774 228.64 122.241 224.662 124.867C220.445 127.61 215.194 128.864 210.142 130.039C207.635 130.627 205.05 131.254 202.663 131.998C195.582 134.35 189.734 135.055 181.937 135.564C179.788 135.682 177.879 135.917 176.049 136.113C173.543 136.387 171.196 136.622 168.729 136.622C166.501 136.622 164.353 136.426 162.126 135.956L162.205 135.878ZM177.919 -27.604C171.474 -27.2122 161.171 -25.8407 153.413 -23.2936C150.748 -22.3924 147.884 -21.8829 145.099 -21.3735C140.325 -20.4723 135.83 -19.6494 131.971 -17.1415C128.232 -14.712 124.731 -9.18685 121.389 -3.89681C119.241 -0.526855 117.252 2.64717 115.303 4.80238C113.035 7.31025 110.967 8.36826 109.137 9.30871C106.869 10.4843 104.88 11.4639 103.09 15.0298C101.101 18.9483 101.021 21.7697 100.942 25.0221C100.902 27.0989 100.822 29.45 100.226 32.3106C100.027 33.2119 99.8279 34.1915 99.629 35.2103C98.1173 42.2637 96.2874 51.0021 96.6852 57.3501C96.8443 59.8972 96.7647 62.405 96.6852 64.7953C96.5261 69.4584 96.4067 73.8864 97.9184 78.3927C99.4301 82.8598 102.732 86.8176 105.875 90.6186C107.585 92.6562 109.375 94.8114 110.808 96.9666C114.666 102.688 118.207 107.233 124.015 112.327C126.123 114.169 127.834 116.128 129.465 118.009C132.21 121.144 134.796 124.122 138.933 126.16C142.155 127.727 153.334 133.017 162.364 134.82C164.512 135.251 166.581 135.447 168.729 135.447C171.156 135.447 173.463 135.212 175.93 134.937C177.799 134.741 179.709 134.546 181.857 134.389C189.535 133.919 195.303 133.213 202.265 130.901C204.692 130.118 207.317 129.491 209.863 128.903C214.836 127.727 219.968 126.552 224.025 123.887C227.804 121.418 230.748 117.03 233.533 112.798C235.323 110.133 236.994 107.586 238.903 105.47C240.176 104.059 241.529 102.649 242.842 101.277C246.82 97.1234 250.917 92.8522 253.384 87.954L254.219 86.3082C257.203 80.4304 259.55 75.8065 260.903 69.2625C262.096 63.5414 261.579 57.546 261.141 51.7074C261.022 50.2184 260.903 48.7293 260.823 47.2403C260.704 45.1634 260.664 43.165 260.624 41.2449C260.545 36.2683 260.465 31.6052 258.794 26.6287C256.726 20.5549 255.015 18.0471 251.872 13.4232C251.435 12.757 250.957 12.0517 250.44 11.268L250.321 11.072C246.263 5.03748 243.041 0.256853 237.551 -4.52378C232.658 -8.79499 223.389 -16.4753 216.387 -19.9237C212.369 -21.8829 208.312 -22.0397 204.055 -22.1964C201.35 -22.314 198.565 -22.3924 195.661 -22.9801C192.678 -23.5679 190.41 -24.5084 188.262 -25.4096C185.318 -26.6244 182.812 -27.6432 179.112 -27.6432C178.714 -27.6432 178.317 -27.6432 177.879 -27.6432L177.919 -27.604Z" fill="#B49C88" stroke="#304040" stroke-width="0.364505"/>
<path opacity="0.14" d="M168.536 157.801C162.609 157.213 157.954 154.744 153.022 152.119C150.237 150.63 147.373 149.101 144.19 147.926C141.485 146.907 138.541 146.241 135.717 145.614C129.391 144.203 123.424 142.91 119.526 137.777C113.399 129.783 106.915 123.905 99.3566 117.126L96.9299 114.932C90.0079 108.662 85.1944 103.96 81.4152 95.6524C77.636 87.3843 75.8458 79.5472 74.3341 70.2994C73.1804 63.2068 74.9706 49.0217 76.2834 38.6376C76.6414 35.6986 76.9995 33.1516 77.1984 31.1531C77.8349 25.1186 78.1929 24.374 79.3465 22.1013C79.9035 20.9649 80.6991 19.3975 81.813 16.4977C85.1148 7.9945 88.0984 3.91921 93.5087 -3.48685L93.628 -3.64359C95.816 -6.62169 97.2879 -10.1092 98.6803 -13.4791C100.709 -18.3773 102.818 -23.4323 107.154 -26.9198C111.569 -30.4857 118.69 -32.1314 125.572 -33.7772C130.068 -34.8352 134.285 -35.8149 137.586 -37.2647C143.156 -39.7334 148.646 -40.0469 154.493 -40.3996C157.517 -40.5563 160.62 -40.7522 163.763 -41.2617C167.78 -41.8886 170.128 -43.6912 172.435 -45.4545C174.981 -47.3746 177.368 -49.2163 181.624 -49.2163C182.142 -49.2163 182.659 -49.2163 183.216 -49.1379C189.7 -48.4718 195.07 -46.0815 200.759 -43.5736C203.186 -42.4764 205.692 -41.3792 208.318 -40.3996C211.341 -39.2632 215.2 -38.2836 219.258 -37.2256C226.577 -35.3446 234.852 -33.2286 239.785 -29.7019C244.678 -26.2144 248.218 -20.8068 251.64 -15.5952C253.469 -12.7738 255.379 -9.8349 257.448 -7.36621C259.834 -4.46649 262.898 -2.31129 265.841 -0.234459C269.939 2.66527 274.156 5.64337 276.423 10.5807C278.85 15.8708 278.969 21.5919 279.089 27.117C279.168 30.4086 279.248 33.7785 279.765 37.0701C280.322 40.3617 281.316 43.6925 282.311 46.9449C284.022 52.5092 285.812 58.3087 285.175 64.1081C284.578 69.7508 281.674 74.6098 278.81 79.3121C277.02 82.2902 275.15 85.3858 273.877 88.6382C272.604 91.8906 271.888 95.4957 271.212 98.944C270.098 104.469 268.984 110.19 265.603 114.814C262.182 119.516 257.288 122.377 252.515 125.159C249.65 126.844 246.667 128.568 244.002 130.723C241.535 132.683 239.268 135.151 237.08 137.542C232.942 142.048 228.646 146.711 222.718 148.435C218.939 149.493 213.847 149.65 208.477 149.768C204.021 149.885 199.446 150.003 195.349 150.669C191.689 151.257 188.069 152.707 184.568 154.117C180.033 155.959 175.299 157.84 170.446 157.84C169.849 157.84 169.213 157.84 168.616 157.761L168.536 157.801ZM173.071 -44.5141C170.764 -42.7507 168.178 -40.7914 163.882 -40.1253C160.66 -39.6159 157.517 -39.4199 154.454 -39.2632C148.725 -38.9497 143.355 -38.6362 137.944 -36.2459C134.563 -34.7569 130.267 -33.738 125.732 -32.68C118.969 -31.1126 112.007 -29.4668 107.79 -26.0577C103.693 -22.7661 101.704 -18.0639 99.635 -13.0873C98.2029 -9.63897 96.731 -6.07309 94.4635 -3.01662L94.3441 -2.8207C88.9736 4.50698 86.0298 8.50391 82.7677 16.8896C81.6141 19.8285 80.8185 21.4351 80.2615 22.5715C79.1874 24.7267 78.8294 25.3929 78.2327 31.2315C78.0338 33.23 77.7155 35.8162 77.3177 38.7551C76.0049 49.0609 74.2148 63.1677 75.3684 70.0643C76.8801 79.2337 78.6305 86.9924 82.3699 95.1038C86.0696 103.215 90.8036 107.878 97.6062 114.03L100.033 116.225C107.631 123.043 114.155 128.96 120.361 137.032C124.021 141.813 129.789 143.106 135.916 144.438C138.78 145.065 141.763 145.731 144.548 146.789C147.77 148.004 150.674 149.532 153.499 151.022C158.352 153.608 162.887 155.998 168.576 156.586C169.133 156.625 169.73 156.664 170.287 156.664C174.941 156.664 179.357 154.901 183.971 153.02C187.552 151.57 191.212 150.081 195.031 149.493C199.208 148.827 203.862 148.71 208.318 148.592C213.609 148.474 218.621 148.318 222.281 147.299C227.89 145.692 231.908 141.343 236.125 136.758C238.353 134.368 240.62 131.86 243.166 129.822C245.911 127.628 248.895 125.864 251.799 124.179C256.652 121.319 261.227 118.654 264.529 114.148C267.751 109.72 268.825 104.391 269.979 98.7089C270.695 95.1822 271.411 91.5771 272.684 88.2072C273.997 84.8372 275.866 81.7024 277.696 78.7243C280.6 73.9437 283.345 69.3981 283.902 63.9905C284.459 58.387 282.749 52.7443 281.078 47.2584C280.083 44.006 279.049 40.636 278.492 37.2661C277.935 33.8569 277.855 30.4478 277.776 27.1562C277.657 21.5135 277.537 16.1843 275.19 11.051C273.042 6.34871 269.143 3.60572 265.006 0.666805C262.022 -1.44921 258.919 -3.64359 256.413 -6.66088C254.305 -9.20793 252.395 -12.1468 250.526 -15.0074C247.184 -20.1407 243.723 -25.4307 238.989 -28.8007C234.215 -32.1706 226.06 -34.2866 218.86 -36.1284C214.762 -37.1864 210.903 -38.166 207.8 -39.3416C205.135 -40.3212 202.629 -41.4576 200.162 -42.5548C194.553 -45.0627 189.262 -47.4138 182.977 -48.0407C182.46 -48.0799 181.982 -48.1191 181.505 -48.1191C177.686 -48.1191 175.538 -46.4733 173.032 -44.5924L173.071 -44.5141Z" fill="#B49C88" stroke="#304040" stroke-width="0.364505"/>
<path opacity="0.2" d="M177.997 186.075C170.28 186.035 164.83 183.567 159.101 180.98C155.521 179.374 151.821 177.689 147.326 176.474C142.672 175.181 136.983 174.75 130.976 174.28C121.866 173.574 112.438 172.83 105.953 169.029C98.7927 164.875 94.6157 159.899 90.1602 154.648C87.8926 151.983 85.5853 149.201 82.721 146.34C73.8498 137.485 62.2734 122.437 56.346 112.092C54.0785 108.174 52.0496 105.548 50.2595 103.276C47.1565 99.3179 44.6901 96.1831 42.7408 88.7378C40.9904 82.0371 42.5817 78.5104 44.2923 74.827C45.6846 71.8097 47.1167 68.6749 47.1565 63.3848C47.1963 58.4866 45.6448 51.3941 43.974 43.8704C41.5076 32.6634 38.9218 21.0645 40.9109 14.0111C42.8204 7.19283 48.1113 2.56894 53.2431 -1.85902C57.0621 -5.18978 61.0402 -8.63809 63.7056 -13.0661L64.8592 -15.0253C70.548 -24.5866 75.4411 -32.8155 83.7554 -40.8486L85.5853 -42.6119C93.7803 -50.6058 101.538 -58.1294 111.602 -63.7329C118.087 -67.3379 125.327 -67.5731 132.368 -67.769C137.221 -67.9257 142.194 -68.0433 147.008 -69.2972C151.702 -70.4728 156.078 -72.5496 160.295 -74.5089C166.66 -77.487 173.263 -80.5435 180.742 -80.5435H180.981C189.534 -80.4651 197.848 -77.6045 205.884 -74.8224C209.544 -73.5684 213.323 -72.2361 217.023 -71.2565C220.802 -70.2377 224.303 -69.5323 227.724 -68.8662C234.924 -67.4163 241.767 -66.084 249.047 -61.852C260.106 -55.4256 267.704 -48.2154 275.78 -40.104C285.526 -30.3469 291.732 -22.4706 297.222 -12.9093C303.547 -1.93739 306.809 9.46559 309.634 20.2024C310.827 24.7479 312.936 29.2543 314.964 33.5647C318.147 40.3438 321.409 47.3579 321.329 54.8424C321.25 62.4836 318.306 68.91 315.124 75.7282C313.254 79.7643 311.344 83.9572 310.071 88.3851C308.958 92.3429 308.241 96.3006 307.525 100.18C306.133 107.86 304.82 115.07 300.643 122.045C296.665 128.668 290.101 133.448 283.736 138.033C279.957 140.776 276.058 143.597 272.796 146.772C269.216 150.22 266.431 154.648 263.766 158.919C259.907 165.071 255.929 171.419 249.484 174.985C245.984 176.944 242.125 177.806 236.953 177.806C234.566 177.806 232.06 177.611 229.673 177.454C227.247 177.258 224.74 177.101 222.234 177.101C219.171 177.101 216.625 177.375 214.278 178.002C210.976 178.825 207.634 179.844 204.412 180.824C195.979 183.371 187.266 185.996 178.395 185.996H177.997V186.075ZM229.793 176.435C232.18 176.592 234.646 176.788 236.993 176.788C241.966 176.788 245.665 175.965 248.967 174.123C255.133 170.675 258.873 164.718 262.811 158.449C265.516 154.099 268.341 149.632 272.04 146.066C275.382 142.853 279.32 139.992 283.139 137.21C289.425 132.665 295.869 127.962 299.728 121.536C303.786 114.718 305.099 107.586 306.491 100.023C307.207 96.1439 307.923 92.147 309.037 88.15C310.31 83.6437 312.259 79.4117 314.129 75.3364C317.232 68.6357 320.136 62.2876 320.216 54.8816C320.255 47.6322 317.073 40.7356 313.93 34.0741C311.901 29.6853 309.753 25.179 308.56 20.5159C305.775 9.85744 302.513 -1.46716 296.267 -12.3215C290.817 -21.8044 284.651 -29.6023 274.984 -39.2811C266.948 -47.3142 259.43 -54.5243 248.49 -60.8723C241.329 -65.026 234.606 -66.3583 227.485 -67.769C224.064 -68.4351 220.524 -69.1405 216.705 -70.1985C212.965 -71.2173 209.146 -72.5496 205.486 -73.8036C197.53 -76.5465 189.295 -79.4071 180.941 -79.4855H180.702C173.502 -79.4855 167.296 -76.5857 160.772 -73.5293C156.476 -71.5308 152.06 -69.454 147.286 -68.2392C142.353 -66.9853 137.301 -66.8285 132.368 -66.711C125.168 -66.5151 118.365 -66.2799 112.119 -62.8316C102.214 -57.3065 94.4963 -49.822 86.3411 -41.9066L84.5112 -40.1432C76.3162 -32.2278 71.4629 -24.038 65.814 -14.5551L64.6603 -12.5958C61.9154 -8.01113 57.8975 -4.52362 53.9591 -1.11449C48.7478 3.43103 43.8149 7.70225 41.985 14.207C40.0754 20.9861 42.6215 32.4675 45.0481 43.5178C46.7189 51.0806 48.3102 58.2515 48.2704 63.2673C48.2306 68.7924 46.6792 72.1624 45.2868 75.1405C43.5762 78.8239 42.1441 81.9979 43.7751 88.3068C45.6846 95.5561 48.0715 98.5734 51.0949 102.453C52.9248 104.765 54.9935 107.429 57.261 111.426C63.1486 121.693 74.6454 136.622 83.4769 145.439C86.3809 148.339 88.728 151.121 90.9956 153.825C95.5306 159.233 99.469 163.896 106.471 167.971C112.756 171.615 122.025 172.36 131.016 173.065C137.062 173.535 142.791 174.005 147.565 175.299C152.179 176.552 155.919 178.237 159.499 179.883C165.148 182.43 170.439 184.821 177.918 184.899H178.316C186.988 184.899 195.66 182.313 204.014 179.766C207.276 178.786 210.618 177.767 213.96 176.944C216.426 176.317 219.052 176.004 222.234 176.004C224.74 176.004 227.286 176.2 229.753 176.357L229.793 176.435Z" fill="#B49C88" stroke="#304040" stroke-width="0.364505"/>
<path opacity="0.3" d="M156.556 199.711C152.22 197.909 147.764 196.028 142.911 194.735C138.177 193.481 132.926 192.775 127.834 192.07C118.804 190.855 109.495 189.562 101.936 185.291C94.6563 181.137 90.5986 175.534 86.2624 169.617C83.5971 165.933 80.8521 162.132 77.1923 158.527C73.6915 155.079 69.236 151.709 64.502 148.104C56.3468 141.913 47.9132 135.526 43.577 128.119C36.9335 116.834 33.1543 105.666 29.5342 92.3823C27.2667 84.0358 28.7784 71.3005 30.0912 60.0935C30.847 53.7062 31.5631 47.7108 31.5631 42.9694C31.5631 37.5226 30.6083 33.6824 29.7729 30.3125C28.5397 25.2576 27.4656 20.908 29.5342 13.2276C31.762 4.99866 36.0584 -0.487297 40.5934 -6.28675C43.2588 -9.65671 45.9639 -13.1442 48.4701 -17.4154C50.6183 -21.0597 52.4881 -24.8999 54.3578 -28.6225C58.3359 -36.6555 62.4334 -45.002 69.0371 -51.5068C75.6806 -58.0508 84.9099 -62.5179 93.8209 -66.8283C97.9184 -68.8268 101.777 -70.6685 105.437 -72.7453C113.075 -77.0949 120.912 -78.2705 129.186 -79.4853C133.642 -80.1514 138.257 -80.8176 142.871 -82.0715C147.924 -83.4038 152.578 -85.559 157.073 -87.6358C164.313 -90.9666 171.156 -94.1406 179.51 -94.1406C187.864 -94.1406 194.507 -90.9666 201.549 -87.6358C206.004 -85.5198 210.619 -83.3254 215.711 -81.9931C218.018 -81.4053 220.604 -81.0919 223.627 -81.0919C227.009 -81.0919 230.589 -81.4445 234.01 -81.7972C237.471 -82.1499 241.012 -82.5417 244.433 -82.5417C249.724 -82.5417 253.782 -81.6405 257.203 -79.6812C265.159 -75.1748 271.643 -67.6512 277.929 -60.3627C281.072 -56.7185 284.055 -53.2702 287.158 -50.2137C290.42 -47.0005 293.762 -44.2575 297.064 -41.5929C303.469 -36.342 309.555 -31.4047 314.05 -23.7243C320.813 -12.2038 323.757 -1.3102 327.178 11.3467L327.337 11.8953C330.878 24.8265 334.856 39.4819 334.856 52.7658C334.856 61.0731 331.276 68.8318 327.854 76.3554C325.706 81.0185 323.479 85.8383 322.166 90.7757C320.813 95.7131 320.336 100.886 319.858 105.901C319.103 113.856 318.307 122.085 314.09 129.256C309.396 137.289 301.758 143.872 294.359 150.259C290.937 153.198 287.755 155.98 284.771 158.88C275.741 167.736 269.495 171.302 259.112 177.18L256.964 178.394C244.353 185.605 228.162 190.659 216.865 193.677C211.852 195.009 207.118 197.125 202.583 199.163C195.104 202.533 187.983 205.746 179.589 205.746C171.196 205.746 163.995 202.807 156.556 199.672V199.711ZM234.169 -80.6608C230.708 -80.3081 227.088 -79.9163 223.667 -79.9163C220.524 -79.9163 217.859 -80.2298 215.472 -80.8567C210.261 -82.2282 205.606 -84.4226 201.071 -86.5778C194.149 -89.8694 187.585 -92.9651 179.51 -92.9651C171.434 -92.9651 164.711 -89.8694 157.59 -86.5778C153.055 -84.4618 148.361 -82.3066 143.19 -80.9351C138.495 -79.6812 133.881 -79.015 129.385 -78.3489C121.19 -77.1341 113.473 -75.9586 106.034 -71.7265C102.374 -69.6497 98.4753 -67.7688 94.3778 -65.7703C85.5464 -61.4991 76.3966 -57.0712 69.9123 -50.6447C63.4677 -44.2575 59.3702 -36.0285 55.4319 -28.0739C53.5621 -24.3121 51.6526 -20.4719 49.5045 -16.7885C46.9982 -12.4781 44.2135 -8.95137 41.5482 -5.54224C37.0927 0.178848 32.8361 5.54726 30.6879 13.5803C28.659 20.9863 29.7331 25.2184 30.9266 30.1166C31.762 33.5649 32.7565 37.4834 32.7565 43.0478C32.7565 47.8676 32.0404 53.9022 31.2846 60.3286C29.9718 71.4573 28.4999 84.075 30.6879 92.1864C34.2682 105.353 38.0076 116.442 44.6113 127.649C48.8282 134.859 57.1823 141.168 65.2579 147.281C70.0316 150.886 74.5269 154.295 78.0675 157.783C81.8069 161.466 84.5916 165.307 87.257 169.029C91.4738 174.868 95.4519 180.393 102.533 184.39C109.853 188.583 119.082 189.837 127.993 191.051C133.125 191.757 138.416 192.462 143.229 193.755C148.162 195.048 152.657 196.968 157.033 198.771C164.353 201.867 171.275 204.766 179.629 204.766C187.983 204.766 194.746 201.631 202.145 198.301C206.76 196.224 211.494 194.069 216.626 192.736C227.884 189.758 243.956 184.703 256.487 177.572L258.635 176.357C268.938 170.518 275.144 166.991 284.055 158.253C287.039 155.314 290.42 152.375 293.682 149.554C301.002 143.245 308.561 136.74 313.175 128.864C317.233 121.889 317.989 114.169 318.784 105.98C319.262 100.925 319.779 95.7131 321.131 90.6581C322.484 85.6424 324.752 80.7834 326.9 76.0811C330.281 68.6751 333.822 60.9947 333.822 52.9617C333.822 39.8346 329.844 25.2576 326.343 12.3655L326.184 11.8169C322.762 -0.72242 319.819 -11.5768 313.175 -22.9798C308.759 -30.5034 302.792 -35.3624 296.427 -40.5741C293.125 -43.2387 289.744 -46.0208 286.482 -49.2732C283.299 -52.3689 280.196 -56.0131 277.173 -59.5007C270.967 -66.7108 264.523 -74.156 256.765 -78.584C253.543 -80.4257 249.644 -81.2878 244.552 -81.2878C241.211 -81.2878 237.67 -80.9351 234.249 -80.5824L234.169 -80.6608Z" fill="#B49C88" stroke="#304040" stroke-width="0.364505"/>
<path opacity="0.4" d="M151.623 231.491C141.797 230.002 134.279 225.26 126.322 220.244C121.549 217.227 116.616 214.131 111.126 211.741C105.756 209.429 99.5894 207.666 93.0653 205.863C82.1652 202.807 70.9071 199.672 63.0304 193.442C55.273 187.329 49.9821 177.219 44.8503 167.422C41.628 161.27 38.5649 155.432 34.9845 150.612C26.0337 138.621 15.9293 120.165 9.84273 104.726C8.29125 100.807 7.05803 98.0249 5.94416 95.517C3.00034 88.8947 1.52843 85.5639 0.255425 74.1217C-0.739108 65.0307 1.32952 60.8771 3.7164 56.0573C5.427 52.5697 7.37629 48.6512 8.4106 42.1072C9.20623 36.9739 9.6836 29.9989 10.161 22.5928C11.1555 7.54562 12.3092 -9.53924 16.6056 -19.1789C20.8224 -28.6618 26.9487 -34.7747 33.3933 -41.2403C36.8145 -44.6494 40.355 -48.2153 43.7762 -52.4081C50.2606 -60.3628 58.3362 -64.9475 66.8892 -69.8065C71.464 -72.3927 76.198 -75.0965 80.7331 -78.3489C84.4725 -81.0527 88.0926 -83.9916 91.9514 -87.0873C101.061 -94.4542 110.49 -102.056 121.032 -106.092C127.874 -108.718 133.364 -109.07 137.342 -109.07C139.769 -109.07 142.155 -108.914 144.622 -108.796C147.247 -108.639 149.953 -108.483 152.896 -108.483C155.522 -108.483 158.028 -108.6 160.495 -108.874C167.297 -109.619 174.1 -113.028 180.624 -116.359C188.023 -120.121 195.701 -124 203.498 -124C204.652 -124 205.806 -123.922 206.919 -123.765C216.268 -122.354 224.662 -116.006 232.777 -109.893C238.387 -105.661 244.195 -101.272 250.122 -98.6862C254.936 -96.6094 259.709 -95.0028 264.324 -93.4353C273.832 -90.2221 282.783 -87.1657 291.176 -80.5433C301.718 -72.1968 307.964 -63.6936 315.165 -53.858C316.477 -52.0555 317.83 -50.2138 319.262 -48.2937C322.763 -43.5914 327.099 -39.2418 331.276 -35.0098C338.317 -27.9172 345.597 -20.5895 349.257 -11.3418C352.798 -2.40748 352.082 7.19296 351.366 16.4407C350.888 22.4753 350.451 28.7058 351.127 34.7795C351.803 40.8533 353.633 46.9662 355.423 52.844C358.208 62.0526 361.072 71.5747 359.6 81.0968C358.089 90.7756 353.076 98.4167 347.785 106.567C344.642 111.387 341.38 116.403 338.954 121.85C336.527 127.257 334.896 133.253 333.265 139.052C330.6 148.692 327.855 158.645 321.609 166.325C315.682 173.614 306.731 177.219 298.059 180.745C291.972 183.214 285.687 185.761 280.435 189.562C275.184 193.363 270.808 198.496 266.592 203.512C260.545 210.644 254.299 218.011 245.468 221.381C238.148 224.202 231.067 224.555 225.139 224.555C222.633 224.555 220.087 224.476 217.621 224.398C215.114 224.32 212.489 224.241 209.863 224.241C206.323 224.241 203.379 224.398 200.515 224.712C194.786 225.338 188.739 226.749 182.852 228.121C174.657 230.041 166.223 232 158.108 232C155.84 232 153.652 231.843 151.584 231.53L151.623 231.491ZM217.66 223.262C220.127 223.34 222.673 223.418 225.139 223.418C230.987 223.418 237.909 223.066 245.07 220.323C253.623 217.031 259.51 210.135 265.716 202.768C270.013 197.713 274.428 192.501 279.759 188.661C285.13 184.782 291.455 182.195 297.621 179.727C306.532 176.122 314.966 172.712 320.694 165.659C326.781 158.175 329.526 148.339 332.151 138.817C333.782 132.978 335.453 126.944 337.88 121.458C340.346 115.933 343.648 110.917 346.83 106.019C352.042 98.0249 357.014 90.4621 358.447 81.0184C359.879 71.7314 357.054 62.3661 354.309 53.2751C352.519 47.3189 350.649 41.1667 349.973 35.0146C349.297 28.8233 349.774 22.5536 350.212 16.4799C350.928 6.91866 351.644 -2.09399 348.183 -10.8324C344.642 -19.845 337.402 -27.0943 330.441 -34.1085C326.224 -38.3406 321.848 -42.7685 318.307 -47.51C316.875 -49.43 315.523 -51.311 314.21 -53.1135C306.771 -63.3017 300.883 -71.3347 290.46 -79.5637C282.265 -86.0685 273.354 -89.0466 263.966 -92.2598C259.312 -93.8272 254.538 -95.473 249.684 -97.5498C243.598 -100.175 237.75 -104.603 232.101 -108.874C224.105 -114.909 215.831 -121.179 206.76 -122.55C205.686 -122.707 204.612 -122.785 203.538 -122.785C196.019 -122.785 188.501 -118.984 181.181 -115.301C174.537 -111.931 167.655 -108.483 160.654 -107.699C158.148 -107.425 155.602 -107.307 152.936 -107.307C149.992 -107.307 147.247 -107.464 144.622 -107.62C142.155 -107.777 139.808 -107.895 137.382 -107.895C133.483 -107.895 128.152 -107.581 121.469 -104.995C111.086 -100.998 101.738 -93.4745 92.6675 -86.186C88.9678 -83.2079 85.1488 -80.1123 81.4094 -77.4085C76.8345 -74.1169 72.0607 -71.4131 67.4461 -68.7877C59.0125 -64.007 51.0164 -59.4615 44.6514 -51.6636C41.1904 -47.4316 37.6499 -43.8265 34.1889 -40.4174C27.7841 -33.991 21.7771 -27.9564 17.6399 -18.6694C13.423 -9.22575 12.2694 7.74155 11.2749 22.7104C10.7577 30.1165 10.2803 37.1307 9.48469 42.3423C8.45038 49.043 6.46131 53.04 4.71094 56.6058C2.40362 61.2689 0.414551 65.305 1.3693 74.0434C2.64231 85.3288 4.07443 88.6204 6.97847 95.1252C8.01279 97.5155 9.32557 100.454 10.877 104.373C16.9636 119.734 26.9885 138.072 35.8597 150.024C39.4798 154.883 42.543 160.761 45.8051 166.952C50.8573 176.631 56.1084 186.662 63.6669 192.619C71.3447 198.692 82.5232 201.827 93.304 204.844C99.8679 206.686 106.074 208.41 111.524 210.761C117.133 213.191 122.066 216.326 126.879 219.343C134.716 224.28 142.155 228.983 151.743 230.433C153.732 230.746 155.88 230.903 158.108 230.903C166.064 230.903 174.458 228.944 182.573 227.023C188.461 225.652 194.547 224.202 200.356 223.575C203.26 223.262 206.243 223.105 209.824 223.105C212.449 223.105 215.075 223.183 217.621 223.262H217.66Z" fill="#B49C88" stroke="#304040" stroke-width="0.364505"/>
</svg>
